<?xml version="1.0" encoding="UTF-8" standalone="no"?>
<!DOCTYPE svg PUBLIC "-//W3C//DTD SVG 1.1//EN"
 "http://www.w3.org/Graphics/SVG/1.1/DTD/svg11.dtd">
<!-- Generated by graphviz version 12.2.1 (20241206.2353)
 -->
<!-- Title: dependency&#45;cruiser output Pages: 1 -->
<svg width="346pt" height="441pt"
 viewBox="0.00 0.00 345.50 441.00" xmlns="http://www.w3.org/2000/svg" xmlns:xlink="http://www.w3.org/1999/xlink">
<g id="graph0" class="graph" transform="scale(1 1) rotate(0) translate(4 437)">
<title>dependency&#45;cruiser output</title>
<polygon fill="white" stroke="none" points="-4,4 -4,-437 341.5,-437 341.5,4 -4,4"/>
<g id="clust1" class="cluster">
<title>cluster_src</title>
<path fill="#ffffff" stroke="black" stroke-width="2" d="M20,-8C20,-8 317.5,-8 317.5,-8 323.5,-8 329.5,-14 329.5,-20 329.5,-20 329.5,-413 329.5,-413 329.5,-419 323.5,-425 317.5,-425 317.5,-425 20,-425 20,-425 14,-425 8,-419 8,-413 8,-413 8,-20 8,-20 8,-14 14,-8 20,-8"/>
<text text-anchor="middle" x="168.75" y="-412.45" font-family="Helvetica,sans-Serif" font-weight="bold" font-size="9.00">src</text>
</g>
<g id="clust2" class="cluster">
<title>cluster_src/transforms</title>
<path fill="#ffffff" stroke="black" stroke-width="2" d="M90,-56C90,-56 194,-56 194,-56 200,-56 206,-62 206,-68 206,-68 206,-376 206,-376 206,-382 200,-388 194,-388 194,-388 90,-388 90,-388 84,-388 78,-382 78,-376 78,-376 78,-68 78,-68 78,-62 84,-56 90,-56"/>
<text text-anchor="middle" x="142" y="-375.45" font-family="Helvetica,sans-Serif" font-weight="bold" font-size="9.00">transforms</text>
</g>
<!-- src/decodeHtmlBrowser.ts -->
<g id="node1" class="node">
<title>src/decodeHtmlBrowser.ts</title>
<g id="a_node1"><a xlink:href="src/decodeHtmlBrowser.ts" xlink:title="decodeHtmlBrowser.ts">
<path fill="#ddfeff" stroke="black" d="M315.33,-34.25C315.33,-34.25 220.17,-34.25 220.17,-34.25 217.08,-34.25 214,-31.17 214,-28.08 214,-28.08 214,-21.92 214,-21.92 214,-18.83 217.08,-15.75 220.17,-15.75 220.17,-15.75 315.33,-15.75 315.33,-15.75 318.42,-15.75 321.5,-18.83 321.5,-21.92 321.5,-21.92 321.5,-28.08 321.5,-28.08 321.5,-31.17 318.42,-34.25 315.33,-34.25"/>
<text text-anchor="start" x="222" y="-21.7" font-family="Helvetica,sans-Serif" font-size="9.00">decodeHtmlBrowser.ts</text>
</a>
</g>
</g>
<!-- src/errors.ts -->
<g id="node2" class="node">
<title>src/errors.ts</title>
<g id="a_node2"><a xlink:href="src/errors.ts" xlink:title="errors.ts">
<path fill="#ddfeff" stroke="black" d="M288.58,-144.25C288.58,-144.25 246.92,-144.25 246.92,-144.25 243.83,-144.25 240.75,-141.17 240.75,-138.08 240.75,-138.08 240.75,-131.92 240.75,-131.92 240.75,-128.83 243.83,-125.75 246.92,-125.75 246.92,-125.75 288.58,-125.75 288.58,-125.75 291.67,-125.75 294.75,-128.83 294.75,-131.92 294.75,-131.92 294.75,-138.08 294.75,-138.08 294.75,-141.17 291.67,-144.25 288.58,-144.25"/>
<text text-anchor="start" x="251.25" y="-131.7" font-family="Helvetica,sans-Serif" font-size="9.00">errors.ts</text>
</a>
</g>
</g>
<!-- src/htmlNesting.ts -->
<g id="node3" class="node">
<title>src/htmlNesting.ts</title>
<g id="a_node3"><a xlink:href="src/htmlNesting.ts" xlink:title="htmlNesting.ts">
<path fill="#ddfeff" stroke="black" d="M298.46,-299.25C298.46,-299.25 237.04,-299.25 237.04,-299.25 233.96,-299.25 230.88,-296.17 230.88,-293.08 230.88,-293.08 230.88,-286.92 230.88,-286.92 230.88,-283.83 233.96,-280.75 237.04,-280.75 237.04,-280.75 298.46,-280.75 298.46,-280.75 301.54,-280.75 304.62,-283.83 304.62,-286.92 304.62,-286.92 304.62,-293.08 304.62,-293.08 304.62,-296.17 301.54,-299.25 298.46,-299.25"/>
<text text-anchor="start" x="238.88" y="-286.7" font-family="Helvetica,sans-Serif" font-size="9.00">htmlNesting.ts</text>
</a>
</g>
</g>
<!-- src/index.ts -->
<g id="node4" class="node">
<title>src/index.ts</title>
<g id="a_node4"><a xlink:href="src/index.ts" xlink:title="index.ts">
<path fill="#ddfeff" stroke="black" d="M63.83,-206.25C63.83,-206.25 22.17,-206.25 22.17,-206.25 19.08,-206.25 16,-203.17 16,-200.08 16,-200.08 16,-193.92 16,-193.92 16,-190.83 19.08,-187.75 22.17,-187.75 22.17,-187.75 63.83,-187.75 63.83,-187.75 66.92,-187.75 70,-190.83 70,-193.92 70,-193.92 70,-200.08 70,-200.08 70,-203.17 66.92,-206.25 63.83,-206.25"/>
<text text-anchor="start" x="27.25" y="-193.7" font-family="Helvetica,sans-Serif" font-size="9.00">index.ts</text>
</a>
</g>
</g>
<!-- src/index.ts&#45;&gt;src/errors.ts -->
<g id="edge1" class="edge">
<title>src/index.ts&#45;&gt;src/errors.ts</title>
<path fill="none" stroke="#000000" stroke-width="2" stroke-opacity="0.200000" d="M44.74,-187.61C47.26,-158.39 56.55,-69.98 78,-53 100.3,-35.35 180.6,-40.2 206,-53 233.32,-66.76 251.42,-99.25 260.31,-118.96"/>
<polygon fill="#000000" fill-opacity="0.200000" stroke="#000000" stroke-width="2" stroke-opacity="0.200000" points="260.75,-125.26 260.29,-118.92 264.6,-123.59 260.75,-125.26"/>
</g>
<!-- src/parserOptions.ts -->
<g id="node5" class="node">
<title>src/parserOptions.ts</title>
<g id="a_node5"><a xlink:href="src/parserOptions.ts" xlink:title="parserOptions.ts">
<path fill="#ddfeff" stroke="black" d="M177.21,-34.25C177.21,-34.25 106.79,-34.25 106.79,-34.25 103.71,-34.25 100.62,-31.17 100.62,-28.08 100.62,-28.08 100.62,-21.92 100.62,-21.92 100.62,-18.83 103.71,-15.75 106.79,-15.75 106.79,-15.75 177.21,-15.75 177.21,-15.75 180.29,-15.75 183.38,-18.83 183.38,-21.92 183.38,-21.92 183.38,-28.08 183.38,-28.08 183.38,-31.17 180.29,-34.25 177.21,-34.25"/>
<text text-anchor="start" x="108.62" y="-21.7" font-family="Helvetica,sans-Serif" font-size="9.00">parserOptions.ts</text>
</a>
</g>
</g>
<!-- src/index.ts&#45;&gt;src/parserOptions.ts -->
<g id="edge2" class="edge">
<title>src/index.ts&#45;&gt;src/parserOptions.ts</title>
<path fill="none" stroke="#000000" stroke-width="2" stroke-opacity="0.200000" d="M44.82,-187.65C47.65,-157.62 57.93,-64.34 78,-43 81.89,-38.87 86.65,-35.66 91.8,-33.18"/>
<polygon fill="#000000" fill-opacity="0.200000" stroke="#000000" stroke-width="2" stroke-opacity="0.200000" points="92.54,-35.15 97.34,-30.97 90.98,-31.25 92.54,-35.15"/>
</g>
<!-- src/runtimeHelpers.ts -->
<g id="node6" class="node">
<title>src/runtimeHelpers.ts</title>
<g id="a_node6"><a xlink:href="src/runtimeHelpers.ts" xlink:title="runtimeHelpers.ts">
<path fill="#ddfeff" stroke="black" d="M305.58,-221.25C305.58,-221.25 229.92,-221.25 229.92,-221.25 226.83,-221.25 223.75,-218.17 223.75,-215.08 223.75,-215.08 223.75,-208.92 223.75,-208.92 223.75,-205.83 226.83,-202.75 229.92,-202.75 229.92,-202.75 305.58,-202.75 305.58,-202.75 308.67,-202.75 311.75,-205.83 311.75,-208.92 311.75,-208.92 311.75,-215.08 311.75,-215.08 311.75,-218.17 308.67,-221.25 305.58,-221.25"/>
<text text-anchor="start" x="231.75" y="-208.7" font-family="Helvetica,sans-Serif" font-size="9.00">runtimeHelpers.ts</text>
</a>
</g>
</g>
<!-- src/index.ts&#45;&gt;src/runtimeHelpers.ts -->
<g id="edge3" class="edge">
<title>src/index.ts&#45;&gt;src/runtimeHelpers.ts</title>
<path fill="none" stroke="#000000" stroke-width="2" stroke-opacity="0.200000" d="M44.13,-206.48C44.83,-242.06 49.33,-366.92 78,-391 121.56,-427.59 164.41,-429.82 206,-391 215.44,-382.18 209.17,-286.98 214,-275 221.74,-255.78 237.68,-238.09 250.02,-226.38"/>
<polygon fill="#000000" fill-opacity="0.200000" stroke="#000000" stroke-width="2" stroke-opacity="0.200000" points="255.74,-223.96 249.91,-226.48 252.9,-220.87 255.74,-223.96"/>
</g>
<!-- src/transforms/ignoreSideEffectTags.ts -->
<g id="node7" class="node">
<title>src/transforms/ignoreSideEffectTags.ts</title>
<g id="a_node7"><a xlink:href="src/transforms/ignoreSideEffectTags.ts" xlink:title="ignoreSideEffectTags.ts">
<path fill="#ddfeff" stroke="black" d="M191.83,-113.25C191.83,-113.25 92.17,-113.25 92.17,-113.25 89.08,-113.25 86,-110.17 86,-107.08 86,-107.08 86,-100.92 86,-100.92 86,-97.83 89.08,-94.75 92.17,-94.75 92.17,-94.75 191.83,-94.75 191.83,-94.75 194.92,-94.75 198,-97.83 198,-100.92 198,-100.92 198,-107.08 198,-107.08 198,-110.17 194.92,-113.25 191.83,-113.25"/>
<text text-anchor="start" x="94" y="-100.7" font-family="Helvetica,sans-Serif" font-size="9.00">ignoreSideEffectTags.ts</text>
</a>
</g>
</g>
<!-- src/index.ts&#45;&gt;src/transforms/ignoreSideEffectTags.ts -->
<g id="edge4" class="edge">
<title>src/index.ts&#45;&gt;src/transforms/ignoreSideEffectTags.ts</title>
<path fill="none" stroke="#000000" stroke-width="2" stroke-opacity="0.200000" d="M45.48,-187.34C48.52,-170.95 57.02,-137.74 78,-120 78.73,-119.38 79.49,-118.78 80.26,-118.21"/>
<polygon fill="#000000" fill-opacity="0.200000" stroke="#000000" stroke-width="2" stroke-opacity="0.200000" points="81.08,-120.17 85.07,-115.23 78.87,-116.6 81.08,-120.17"/>
</g>
<!-- src/transforms/stringifyStatic.ts -->
<g id="node8" class="node">
<title>src/transforms/stringifyStatic.ts</title>
<g id="a_node8"><a xlink:href="src/transforms/stringifyStatic.ts" xlink:title="stringifyStatic.ts">
<path fill="#ddfeff" stroke="black" d="M175.33,-330.25C175.33,-330.25 108.67,-330.25 108.67,-330.25 105.58,-330.25 102.5,-327.17 102.5,-324.08 102.5,-324.08 102.5,-317.92 102.5,-317.92 102.5,-314.83 105.58,-311.75 108.67,-311.75 108.67,-311.75 175.33,-311.75 175.33,-311.75 178.42,-311.75 181.5,-314.83 181.5,-317.92 181.5,-317.92 181.5,-324.08 181.5,-324.08 181.5,-327.17 178.42,-330.25 175.33,-330.25"/>
<text text-anchor="start" x="110.5" y="-317.7" font-family="Helvetica,sans-Serif" font-size="9.00">stringifyStatic.ts</text>
</a>
</g>
</g>
<!-- src/index.ts&#45;&gt;src/transforms/stringifyStatic.ts -->
<g id="edge5" class="edge">
<title>src/index.ts&#45;&gt;src/transforms/stringifyStatic.ts</title>
<path fill="none" stroke="#000000" stroke-width="2" stroke-opacity="0.200000" d="M44.08,-206.68C44.8,-227.77 49.57,-278.13 78,-305 82.57,-309.32 88.13,-312.51 94.03,-314.87"/>
<polygon fill="#000000" fill-opacity="0.200000" stroke="#000000" stroke-width="2" stroke-opacity="0.200000" points="93.01,-316.74 99.37,-316.64 94.34,-312.76 93.01,-316.74"/>
</g>
<!-- src/transforms/transformStyle.ts -->
<g id="node9" class="node">
<title>src/transforms/transformStyle.ts</title>
<g id="a_node9"><a xlink:href="src/transforms/transformStyle.ts" xlink:title="transformStyle.ts">
<path fill="#ddfeff" stroke="black" d="M177.58,-361.25C177.58,-361.25 106.42,-361.25 106.42,-361.25 103.33,-361.25 100.25,-358.17 100.25,-355.08 100.25,-355.08 100.25,-348.92 100.25,-348.92 100.25,-345.83 103.33,-342.75 106.42,-342.75 106.42,-342.75 177.58,-342.75 177.58,-342.75 180.67,-342.75 183.75,-345.83 183.75,-348.92 183.75,-348.92 183.75,-355.08 183.75,-355.08 183.75,-358.17 180.67,-361.25 177.58,-361.25"/>
<text text-anchor="start" x="108.25" y="-348.7" font-family="Helvetica,sans-Serif" font-size="9.00">transformStyle.ts</text>
</a>
</g>
</g>
<!-- src/index.ts&#45;&gt;src/transforms/transformStyle.ts -->
<g id="edge6" class="edge">
<title>src/index.ts&#45;&gt;src/transforms/transformStyle.ts</title>
<path fill="none" stroke="#000000" stroke-width="2" stroke-opacity="0.200000" d="M45.07,-206.65C48.42,-235.03 59.55,-317.39 78,-336 81.91,-339.94 86.65,-342.96 91.74,-345.27"/>
<polygon fill="#000000" fill-opacity="0.200000" stroke="#000000" stroke-width="2" stroke-opacity="0.200000" points="90.8,-347.16 97.15,-347.28 92.26,-343.22 90.8,-347.16"/>
</g>
<!-- src/transforms/Transition.ts -->
<g id="node10" class="node">
<title>src/transforms/Transition.ts</title>
<g id="a_node10"><a xlink:href="src/transforms/Transition.ts" xlink:title="Transition.ts">
<path fill="#ddfeff" stroke="black" d="M168.58,-175.25C168.58,-175.25 115.42,-175.25 115.42,-175.25 112.33,-175.25 109.25,-172.17 109.25,-169.08 109.25,-169.08 109.25,-162.92 109.25,-162.92 109.25,-159.83 112.33,-156.75 115.42,-156.75 115.42,-156.75 168.58,-156.75 168.58,-156.75 171.67,-156.75 174.75,-159.83 174.75,-162.92 174.75,-162.92 174.75,-169.08 174.75,-169.08 174.75,-172.17 171.67,-175.25 168.58,-175.25"/>
<text text-anchor="start" x="117.25" y="-162.7" font-family="Helvetica,sans-Serif" font-size="9.00">Transition.ts</text>
</a>
</g>
</g>
<!-- src/index.ts&#45;&gt;src/transforms/Transition.ts -->
<g id="edge7" class="edge">
<title>src/index.ts&#45;&gt;src/transforms/Transition.ts</title>
<path fill="none" stroke="#000000" stroke-width="2" stroke-opacity="0.200000" d="M64.28,-187.4C68.74,-185.47 73.49,-183.56 78,-182 85.13,-179.54 92.83,-177.27 100.32,-175.27"/>
<polygon fill="#000000" fill-opacity="0.200000" stroke="#000000" stroke-width="2" stroke-opacity="0.200000" points="100.75,-177.33 106.04,-173.79 99.7,-173.26 100.75,-177.33"/>
</g>
<!-- src/transforms/validateHtmlNesting.ts -->
<g id="node11" class="node">
<title>src/transforms/validateHtmlNesting.ts</title>
<g id="a_node11"><a xlink:href="src/transforms/validateHtmlNesting.ts" xlink:title="validateHtmlNesting.ts">
<path fill="#ddfeff" stroke="black" d="M189.58,-299.25C189.58,-299.25 94.42,-299.25 94.42,-299.25 91.33,-299.25 88.25,-296.17 88.25,-293.08 88.25,-293.08 88.25,-286.92 88.25,-286.92 88.25,-283.83 91.33,-280.75 94.42,-280.75 94.42,-280.75 189.58,-280.75 189.58,-280.75 192.67,-280.75 195.75,-283.83 195.75,-286.92 195.75,-286.92 195.75,-293.08 195.75,-293.08 195.75,-296.17 192.67,-299.25 189.58,-299.25"/>
<text text-anchor="start" x="96.25" y="-286.7" font-family="Helvetica,sans-Serif" font-size="9.00">validateHtmlNesting.ts</text>
</a>
</g>
</g>
<!-- src/index.ts&#45;&gt;src/transforms/validateHtmlNesting.ts -->
<g id="edge8" class="edge">
<title>src/index.ts&#45;&gt;src/transforms/validateHtmlNesting.ts</title>
<path fill="none" stroke="#000000" stroke-width="2" stroke-opacity="0.200000" d="M45.48,-206.66C48.52,-223.05 57.02,-256.26 78,-274 78.75,-274.64 79.53,-275.25 80.33,-275.84"/>
<polygon fill="#000000" fill-opacity="0.200000" stroke="#000000" stroke-width="2" stroke-opacity="0.200000" points="79.16,-277.59 85.37,-278.93 81.36,-274.01 79.16,-277.59"/>
</g>
<!-- src/transforms/vHtml.ts -->
<g id="node12" class="node">
<title>src/transforms/vHtml.ts</title>
<g id="a_node12"><a xlink:href="src/transforms/vHtml.ts" xlink:title="vHtml.ts">
<path fill="#ddfeff" stroke="black" d="M162.83,-82.25C162.83,-82.25 121.17,-82.25 121.17,-82.25 118.08,-82.25 115,-79.17 115,-76.08 115,-76.08 115,-69.92 115,-69.92 115,-66.83 118.08,-63.75 121.17,-63.75 121.17,-63.75 162.83,-63.75 162.83,-63.75 165.92,-63.75 169,-66.83 169,-69.92 169,-69.92 169,-76.08 169,-76.08 169,-79.17 165.92,-82.25 162.83,-82.25"/>
<text text-anchor="start" x="125.88" y="-69.7" font-family="Helvetica,sans-Serif" font-size="9.00">vHtml.ts</text>
</a>
</g>
</g>
<!-- src/index.ts&#45;&gt;src/transforms/vHtml.ts -->
<g id="edge9" class="edge">
<title>src/index.ts&#45;&gt;src/transforms/vHtml.ts</title>
<path fill="none" stroke="#000000" stroke-width="2" stroke-opacity="0.200000" d="M44.08,-187.32C44.8,-166.23 49.57,-115.87 78,-89 85.55,-81.87 95.81,-77.79 105.86,-75.5"/>
<polygon fill="#000000" fill-opacity="0.200000" stroke="#000000" stroke-width="2" stroke-opacity="0.200000" points="106.06,-77.6 111.59,-74.46 105.31,-73.47 106.06,-77.6"/>
</g>
<!-- src/transforms/vModel.ts -->
<g id="node13" class="node">
<title>src/transforms/vModel.ts</title>
<g id="a_node13"><a xlink:href="src/transforms/vModel.ts" xlink:title="vModel.ts">
<path fill="#ddfeff" stroke="black" d="M163.33,-237.25C163.33,-237.25 120.67,-237.25 120.67,-237.25 117.58,-237.25 114.5,-234.17 114.5,-231.08 114.5,-231.08 114.5,-224.92 114.5,-224.92 114.5,-221.83 117.58,-218.75 120.67,-218.75 120.67,-218.75 163.33,-218.75 163.33,-218.75 166.42,-218.75 169.5,-221.83 169.5,-224.92 169.5,-224.92 169.5,-231.08 169.5,-231.08 169.5,-234.17 166.42,-237.25 163.33,-237.25"/>
<text text-anchor="start" x="122.5" y="-224.7" font-family="Helvetica,sans-Serif" font-size="9.00">vModel.ts</text>
</a>
</g>
</g>
<!-- src/index.ts&#45;&gt;src/transforms/vModel.ts -->
<g id="edge10" class="edge">
<title>src/index.ts&#45;&gt;src/transforms/vModel.ts</title>
<path fill="none" stroke="#000000" stroke-width="2" stroke-opacity="0.200000" d="M64.28,-206.6C68.74,-208.53 73.49,-210.44 78,-212 86.72,-215.01 96.3,-217.73 105.29,-220.03"/>
<polygon fill="#000000" fill-opacity="0.200000" stroke="#000000" stroke-width="2" stroke-opacity="0.200000" points="104.77,-222.07 111.1,-221.47 105.78,-217.99 104.77,-222.07"/>
</g>
<!-- src/transforms/vOn.ts -->
<g id="node14" class="node">
<title>src/transforms/vOn.ts</title>
<g id="a_node14"><a xlink:href="src/transforms/vOn.ts" xlink:title="vOn.ts">
<path fill="#ddfeff" stroke="black" d="M162.83,-268.25C162.83,-268.25 121.17,-268.25 121.17,-268.25 118.08,-268.25 115,-265.17 115,-262.08 115,-262.08 115,-255.92 115,-255.92 115,-252.83 118.08,-249.75 121.17,-249.75 121.17,-249.75 162.83,-249.75 162.83,-249.75 165.92,-249.75 169,-252.83 169,-255.92 169,-255.92 169,-262.08 169,-262.08 169,-265.17 165.92,-268.25 162.83,-268.25"/>
<text text-anchor="start" x="129.25" y="-255.7" font-family="Helvetica,sans-Serif" font-size="9.00">vOn.ts</text>
</a>
</g>
</g>
<!-- src/index.ts&#45;&gt;src/transforms/vOn.ts -->
<g id="edge11" class="edge">
<title>src/index.ts&#45;&gt;src/transforms/vOn.ts</title>
<path fill="none" stroke="#000000" stroke-width="2" stroke-opacity="0.200000" d="M48.58,-206.65C54.08,-217.2 64.32,-233.81 78,-243 86.25,-248.54 96.27,-252.16 105.88,-254.53"/>
<polygon fill="#000000" fill-opacity="0.200000" stroke="#000000" stroke-width="2" stroke-opacity="0.200000" points="105.26,-256.54 111.56,-255.74 106.13,-252.44 105.26,-256.54"/>
</g>
<!-- src/transforms/vShow.ts -->
<g id="node15" class="node">
<title>src/transforms/vShow.ts</title>
<g id="a_node15"><a xlink:href="src/transforms/vShow.ts" xlink:title="vShow.ts">
<path fill="#ddfeff" stroke="black" d="M162.83,-206.25C162.83,-206.25 121.17,-206.25 121.17,-206.25 118.08,-206.25 115,-203.17 115,-200.08 115,-200.08 115,-193.92 115,-193.92 115,-190.83 118.08,-187.75 121.17,-187.75 121.17,-187.75 162.83,-187.75 162.83,-187.75 165.92,-187.75 169,-190.83 169,-193.92 169,-193.92 169,-200.08 169,-200.08 169,-203.17 165.92,-206.25 162.83,-206.25"/>
<text text-anchor="start" x="124" y="-193.7" font-family="Helvetica,sans-Serif" font-size="9.00">vShow.ts</text>
</a>
</g>
</g>
<!-- src/index.ts&#45;&gt;src/transforms/vShow.ts -->
<g id="edge12" class="edge">
<title>src/index.ts&#45;&gt;src/transforms/vShow.ts</title>
<path fill="none" stroke="#000000" stroke-width="2" stroke-opacity="0.200000" d="M70.25,-197C81.25,-197 94.2,-197 105.99,-197"/>
<polygon fill="#000000" fill-opacity="0.200000" stroke="#000000" stroke-width="2" stroke-opacity="0.200000" points="105.7,-199.1 111.7,-197 105.7,-194.9 105.7,-199.1"/>
</g>
<!-- src/transforms/vText.ts -->
<g id="node16" class="node">
<title>src/transforms/vText.ts</title>
<g id="a_node16"><a xlink:href="src/transforms/vText.ts" xlink:title="vText.ts">
<path fill="#ddfeff" stroke="black" d="M162.83,-144.25C162.83,-144.25 121.17,-144.25 121.17,-144.25 118.08,-144.25 115,-141.17 115,-138.08 115,-138.08 115,-131.92 115,-131.92 115,-128.83 118.08,-125.75 121.17,-125.75 121.17,-125.75 162.83,-125.75 162.83,-125.75 165.92,-125.75 169,-128.83 169,-131.92 169,-131.92 169,-138.08 169,-138.08 169,-141.17 165.92,-144.25 162.83,-144.25"/>
<text text-anchor="start" x="127" y="-131.7" font-family="Helvetica,sans-Serif" font-size="9.00">vText.ts</text>
</a>
</g>
</g>
<!-- src/index.ts&#45;&gt;src/transforms/vText.ts -->
<g id="edge13" class="edge">
<title>src/index.ts&#45;&gt;src/transforms/vText.ts</title>
<path fill="none" stroke="#000000" stroke-width="2" stroke-opacity="0.200000" d="M48.58,-187.35C54.08,-176.8 64.32,-160.19 78,-151 86.25,-145.46 96.27,-141.84 105.88,-139.47"/>
<polygon fill="#000000" fill-opacity="0.200000" stroke="#000000" stroke-width="2" stroke-opacity="0.200000" points="106.13,-141.56 111.56,-138.26 105.26,-137.46 106.13,-141.56"/>
</g>
<!-- src/parserOptions.ts&#45;&gt;src/decodeHtmlBrowser.ts -->
<g id="edge14" class="edge">
<title>src/parserOptions.ts&#45;&gt;src/decodeHtmlBrowser.ts</title>
<path fill="none" stroke="#000000" stroke-width="2" stroke-opacity="0.200000" d="M183.86,-25C190.6,-25 197.7,-25 204.81,-25"/>
<polygon fill="#000000" fill-opacity="0.200000" stroke="#000000" stroke-width="2" stroke-opacity="0.200000" points="204.77,-27.1 210.76,-25 204.76,-22.9 204.77,-27.1"/>
</g>
<!-- src/parserOptions.ts&#45;&gt;src/runtimeHelpers.ts -->
<g id="edge15" class="edge">
<title>src/parserOptions.ts&#45;&gt;src/runtimeHelpers.ts</title>
<path fill="none" stroke="#000000" stroke-width="2" stroke-opacity="0.200000" d="M181.89,-34.69C191.19,-38.83 200.11,-44.7 206,-53 218.52,-70.64 205.7,-130.03 214,-150 221.59,-168.28 236.67,-185.12 248.76,-196.62"/>
<polygon fill="#000000" fill-opacity="0.200000" stroke="#000000" stroke-width="2" stroke-opacity="0.200000" points="247.04,-197.88 252.88,-200.39 249.87,-194.79 247.04,-197.88"/>
</g>
<!-- src/transforms/ignoreSideEffectTags.ts&#45;&gt;src/errors.ts -->
<g id="edge18" class="edge">
<title>src/transforms/ignoreSideEffectTags.ts&#45;&gt;src/errors.ts</title>
<path fill="none" stroke="#000000" stroke-width="2" stroke-opacity="0.200000" d="M181.82,-113.72C197.96,-117.77 216.56,-122.43 232.22,-126.35"/>
<polygon fill="#000000" fill-opacity="0.200000" stroke="#000000" stroke-width="2" stroke-opacity="0.200000" points="231.32,-128.29 237.65,-127.71 232.34,-124.22 231.32,-128.29"/>
</g>
<!-- src/transforms/Transition.ts&#45;&gt;src/errors.ts -->
<g id="edge16" class="edge">
<title>src/transforms/Transition.ts&#45;&gt;src/errors.ts</title>
<path fill="none" stroke="#000000" stroke-width="2" stroke-opacity="0.200000" d="M175.19,-157.94C192.67,-153.56 214.29,-148.14 232.13,-143.67"/>
<polygon fill="#000000" fill-opacity="0.200000" stroke="#000000" stroke-width="2" stroke-opacity="0.200000" points="232.3,-145.79 237.61,-142.3 231.28,-141.72 232.3,-145.79"/>
</g>
<!-- src/transforms/Transition.ts&#45;&gt;src/runtimeHelpers.ts -->
<g id="edge17" class="edge">
<title>src/transforms/Transition.ts&#45;&gt;src/runtimeHelpers.ts</title>
<path fill="none" stroke="#000000" stroke-width="2" stroke-opacity="0.200000" d="M175.12,-172.78C185.15,-175.26 196.15,-178.36 206,-182 218.13,-186.48 231.05,-192.65 241.84,-198.23"/>
<polygon fill="#000000" fill-opacity="0.200000" stroke="#000000" stroke-width="2" stroke-opacity="0.200000" points="240.67,-199.98 246.96,-200.92 242.63,-196.27 240.67,-199.98"/>
</g>
<!-- src/transforms/validateHtmlNesting.ts&#45;&gt;src/htmlNesting.ts -->
<g id="edge26" class="edge">
<title>src/transforms/validateHtmlNesting.ts&#45;&gt;src/htmlNesting.ts</title>
<path fill="none" stroke="#000000" stroke-width="2" stroke-opacity="0.200000" d="M196.2,-290C204.76,-290 213.55,-290 221.89,-290"/>
<polygon fill="#000000" fill-opacity="0.200000" stroke="#000000" stroke-width="2" stroke-opacity="0.200000" points="221.71,-292.1 227.71,-290 221.71,-287.9 221.71,-292.1"/>
</g>
<!-- src/transforms/vHtml.ts&#45;&gt;src/errors.ts -->
<g id="edge19" class="edge">
<title>src/transforms/vHtml.ts&#45;&gt;src/errors.ts</title>
<path fill="none" stroke="#000000" stroke-width="2" stroke-opacity="0.200000" d="M169.26,-77.22C180.89,-79.71 194.51,-83.47 206,-89 222.39,-96.88 238.69,-109.57 250.28,-119.62"/>
<polygon fill="#000000" fill-opacity="0.200000" stroke="#000000" stroke-width="2" stroke-opacity="0.200000" points="248.71,-121.03 254.58,-123.46 251.5,-117.9 248.71,-121.03"/>
</g>
<!-- src/transforms/vModel.ts&#45;&gt;src/errors.ts -->
<g id="edge20" class="edge">
<title>src/transforms/vModel.ts&#45;&gt;src/errors.ts</title>
<path fill="none" stroke="#000000" stroke-width="2" stroke-opacity="0.200000" d="M169.99,-226.07C182.04,-224.05 195.79,-220.01 206,-212 211.95,-207.34 209.75,-203.25 214,-197 225.3,-180.4 240.31,-163.12 251.43,-151.04"/>
<polygon fill="#000000" fill-opacity="0.200000" stroke="#000000" stroke-width="2" stroke-opacity="0.200000" points="252.84,-152.6 255.4,-146.78 249.77,-149.73 252.84,-152.6"/>
</g>
<!-- src/transforms/vModel.ts&#45;&gt;src/runtimeHelpers.ts -->
<g id="edge21" class="edge">
<title>src/transforms/vModel.ts&#45;&gt;src/runtimeHelpers.ts</title>
<path fill="none" stroke="#000000" stroke-width="2" stroke-opacity="0.200000" d="M169.85,-224.53C182.93,-222.84 199.11,-220.75 214.48,-218.76"/>
<polygon fill="#000000" fill-opacity="0.200000" stroke="#000000" stroke-width="2" stroke-opacity="0.200000" points="214.73,-220.84 220.41,-217.99 214.19,-216.68 214.73,-220.84"/>
</g>
<!-- src/transforms/vOn.ts&#45;&gt;src/runtimeHelpers.ts -->
<g id="edge22" class="edge">
<title>src/transforms/vOn.ts&#45;&gt;src/runtimeHelpers.ts</title>
<path fill="none" stroke="#000000" stroke-width="2" stroke-opacity="0.200000" d="M169.46,-253.67C180.88,-251.01 194.28,-247.42 206,-243 218.36,-238.34 231.49,-231.86 242.36,-226.02"/>
<polygon fill="#000000" fill-opacity="0.200000" stroke="#000000" stroke-width="2" stroke-opacity="0.200000" points="243.29,-227.91 247.54,-223.18 241.27,-224.23 243.29,-227.91"/>
</g>
<!-- src/transforms/vShow.ts&#45;&gt;src/errors.ts -->
<g id="edge23" class="edge">
<title>src/transforms/vShow.ts&#45;&gt;src/errors.ts</title>
<path fill="none" stroke="#000000" stroke-width="2" stroke-opacity="0.200000" d="M169.26,-192.78C180.89,-190.29 194.51,-186.53 206,-181 222.39,-173.12 238.69,-160.43 250.28,-150.38"/>
<polygon fill="#000000" fill-opacity="0.200000" stroke="#000000" stroke-width="2" stroke-opacity="0.200000" points="251.5,-152.1 254.58,-146.54 248.71,-148.97 251.5,-152.1"/>
</g>
<!-- src/transforms/vShow.ts&#45;&gt;src/runtimeHelpers.ts -->
<g id="edge24" class="edge">
<title>src/transforms/vShow.ts&#45;&gt;src/runtimeHelpers.ts</title>
<path fill="none" stroke="#000000" stroke-width="2" stroke-opacity="0.200000" d="M169.24,-200.18C182.53,-201.79 199.15,-203.81 214.88,-205.71"/>
<polygon fill="#000000" fill-opacity="0.200000" stroke="#000000" stroke-width="2" stroke-opacity="0.200000" points="214.29,-207.76 220.5,-206.39 214.79,-203.59 214.29,-207.76"/>
</g>
<!-- src/transforms/vText.ts&#45;&gt;src/errors.ts -->
<g id="edge25" class="edge">
<title>src/transforms/vText.ts&#45;&gt;src/errors.ts</title>
<path fill="none" stroke="#000000" stroke-width="2" stroke-opacity="0.200000" d="M169.24,-135C187.46,-135 211.91,-135 231.78,-135"/>
<polygon fill="#000000" fill-opacity="0.200000" stroke="#000000" stroke-width="2" stroke-opacity="0.200000" points="231.52,-137.1 237.52,-135 231.52,-132.9 231.52,-137.1"/>
</g>
</g>
</svg>
