<?xml version="1.0" encoding="UTF-8" standalone="no"?>
<!DOCTYPE svg PUBLIC "-//W3C//DTD SVG 1.1//EN"
 "http://www.w3.org/Graphics/SVG/1.1/DTD/svg11.dtd">
<!-- Generated by graphviz version 12.2.1 (20241206.2353)
 -->
<!-- Title: dependency&#45;cruiser output Pages: 1 -->
<svg width="477pt" height="539pt"
 viewBox="0.00 0.00 476.62 539.31" xmlns="http://www.w3.org/2000/svg" xmlns:xlink="http://www.w3.org/1999/xlink">
<g id="graph0" class="graph" transform="scale(1 1) rotate(0) translate(4 535.31)">
<title>dependency&#45;cruiser output</title>
<polygon fill="white" stroke="none" points="-4,4 -4,-535.31 472.62,-535.31 472.62,4 -4,4"/>
<g id="clust1" class="cluster">
<title>cluster_@vue</title>
<path fill="#ffffff" stroke="black" stroke-width="2" d="M384.37,-149.31C384.37,-149.31 448.62,-149.31 448.62,-149.31 454.62,-149.31 460.62,-155.31 460.62,-161.31 460.62,-161.31 460.62,-221.31 460.62,-221.31 460.62,-227.31 454.62,-233.31 448.62,-233.31 448.62,-233.31 384.37,-233.31 384.37,-233.31 378.37,-233.31 372.37,-227.31 372.37,-221.31 372.37,-221.31 372.37,-161.31 372.37,-161.31 372.37,-155.31 378.37,-149.31 384.37,-149.31"/>
<text text-anchor="middle" x="416.49" y="-220.76" font-family="Helvetica,sans-Serif" font-weight="bold" font-size="9.00">@vue</text>
</g>
<g id="clust2" class="cluster">
<title>cluster_src</title>
<path fill="#ffffff" stroke="black" stroke-width="2" d="M54.87,-102.31C54.87,-102.31 352.37,-102.31 352.37,-102.31 358.37,-102.31 364.37,-108.31 364.37,-114.31 364.37,-114.31 364.37,-511.31 364.37,-511.31 364.37,-517.31 358.37,-523.31 352.37,-523.31 352.37,-523.31 54.87,-523.31 54.87,-523.31 48.87,-523.31 42.87,-517.31 42.87,-511.31 42.87,-511.31 42.87,-114.31 42.87,-114.31 42.87,-108.31 48.87,-102.31 54.87,-102.31"/>
<text text-anchor="middle" x="203.62" y="-510.76" font-family="Helvetica,sans-Serif" font-weight="bold" font-size="9.00">src</text>
</g>
<g id="clust3" class="cluster">
<title>cluster_src/transforms</title>
<path fill="#ffffff" stroke="black" stroke-width="2" d="M124.87,-110.31C124.87,-110.31 228.87,-110.31 228.87,-110.31 234.87,-110.31 240.87,-116.31 240.87,-122.31 240.87,-122.31 240.87,-430.31 240.87,-430.31 240.87,-436.31 234.87,-442.31 228.87,-442.31 228.87,-442.31 124.87,-442.31 124.87,-442.31 118.87,-442.31 112.87,-436.31 112.87,-430.31 112.87,-430.31 112.87,-122.31 112.87,-122.31 112.87,-116.31 118.87,-110.31 124.87,-110.31"/>
<text text-anchor="middle" x="176.87" y="-429.76" font-family="Helvetica,sans-Serif" font-weight="bold" font-size="9.00">transforms</text>
</g>
<!-- @vue/compiler&#45;core -->
<g id="node1" class="node">
<title>@vue/compiler&#45;core</title>
<g id="a_node1"><a xlink:title="compiler&#45;core">
<path fill="#ffffcc" stroke="black" d="M446.45,-206.56C446.45,-206.56 386.54,-206.56 386.54,-206.56 383.45,-206.56 380.37,-203.47 380.37,-200.39 380.37,-200.39 380.37,-194.22 380.37,-194.22 380.37,-191.14 383.45,-188.06 386.54,-188.06 386.54,-188.06 446.45,-188.06 446.45,-188.06 449.54,-188.06 452.62,-191.14 452.62,-194.22 452.62,-194.22 452.62,-200.39 452.62,-200.39 452.62,-203.47 449.54,-206.56 446.45,-206.56"/>
<text text-anchor="start" x="388.37" y="-194.01" font-family="Helvetica,sans-Serif" font-size="9.00">compiler&#45;core</text>
</a>
</g>
</g>
<!-- @vue/shared -->
<g id="node2" class="node">
<title>@vue/shared</title>
<g id="a_node2"><a xlink:title="shared">
<path fill="#ffffcc" stroke="black" d="M437.33,-175.56C437.33,-175.56 395.66,-175.56 395.66,-175.56 392.58,-175.56 389.49,-172.47 389.49,-169.39 389.49,-169.39 389.49,-163.22 389.49,-163.22 389.49,-160.14 392.58,-157.06 395.66,-157.06 395.66,-157.06 437.33,-157.06 437.33,-157.06 440.41,-157.06 443.49,-160.14 443.49,-163.22 443.49,-163.22 443.49,-169.39 443.49,-169.39 443.49,-172.47 440.41,-175.56 437.33,-175.56"/>
<text text-anchor="start" x="402.24" y="-163.01" font-family="Helvetica,sans-Serif" font-size="9.00">shared</text>
</a>
</g>
</g>
<!-- src/decodeHtmlBrowser.ts -->
<g id="node3" class="node">
<title>src/decodeHtmlBrowser.ts</title>
<g id="a_node3"><a xlink:href="src/decodeHtmlBrowser.ts" xlink:title="decodeHtmlBrowser.ts">
<path fill="#ddfeff" stroke="black" d="M350.2,-496.56C350.2,-496.56 255.04,-496.56 255.04,-496.56 251.95,-496.56 248.87,-493.47 248.87,-490.39 248.87,-490.39 248.87,-484.22 248.87,-484.22 248.87,-481.14 251.95,-478.06 255.04,-478.06 255.04,-478.06 350.2,-478.06 350.2,-478.06 353.29,-478.06 356.37,-481.14 356.37,-484.22 356.37,-484.22 356.37,-490.39 356.37,-490.39 356.37,-493.47 353.29,-496.56 350.2,-496.56"/>
<text text-anchor="start" x="256.87" y="-484.01" font-family="Helvetica,sans-Serif" font-size="9.00">decodeHtmlBrowser.ts</text>
</a>
</g>
</g>
<!-- src/errors.ts -->
<g id="node4" class="node">
<title>src/errors.ts</title>
<g id="a_node4"><a xlink:href="src/errors.ts" xlink:title="errors.ts">
<path fill="#ddfeff" stroke="black" d="M323.45,-434.56C323.45,-434.56 281.79,-434.56 281.79,-434.56 278.7,-434.56 275.62,-431.47 275.62,-428.39 275.62,-428.39 275.62,-422.22 275.62,-422.22 275.62,-419.14 278.7,-416.06 281.79,-416.06 281.79,-416.06 323.45,-416.06 323.45,-416.06 326.54,-416.06 329.62,-419.14 329.62,-422.22 329.62,-422.22 329.62,-428.39 329.62,-428.39 329.62,-431.47 326.54,-434.56 323.45,-434.56"/>
<text text-anchor="start" x="286.12" y="-422.01" font-family="Helvetica,sans-Serif" font-size="9.00">errors.ts</text>
</a>
</g>
</g>
<!-- src/errors.ts&#45;&gt;@vue/compiler&#45;core -->
<g id="edge1" class="edge">
<title>src/errors.ts&#45;&gt;@vue/compiler&#45;core</title>
<g id="a_edge1"><a xlink:title="not&#45;to&#45;unresolvable">
<path fill="none" stroke="red" stroke-width="2" d="M330,-424.34C341.98,-422.55 355.44,-418.42 364.37,-409.31 391.57,-381.53 408.04,-261.86 413.48,-215.63"/>
<polygon fill="red" stroke="red" stroke-width="2" points="415.53,-216.15 414.13,-209.95 411.36,-215.67 415.53,-216.15"/>
</a>
</g>
<text text-anchor="middle" x="357.05" y="-312.21" font-family="Helvetica,sans-Serif" font-size="9.00" fill="red">not&#45;to&#45;unresolvable</text>
</g>
<!-- src/htmlNesting.ts -->
<g id="node5" class="node">
<title>src/htmlNesting.ts</title>
<g id="a_node5"><a xlink:href="src/htmlNesting.ts" xlink:title="htmlNesting.ts">
<path fill="#ddfeff" stroke="black" d="M333.33,-403.56C333.33,-403.56 271.91,-403.56 271.91,-403.56 268.83,-403.56 265.74,-400.47 265.74,-397.39 265.74,-397.39 265.74,-391.22 265.74,-391.22 265.74,-388.14 268.83,-385.06 271.91,-385.06 271.91,-385.06 333.33,-385.06 333.33,-385.06 336.41,-385.06 339.49,-388.14 339.49,-391.22 339.49,-391.22 339.49,-397.39 339.49,-397.39 339.49,-400.47 336.41,-403.56 333.33,-403.56"/>
<text text-anchor="start" x="273.74" y="-391.01" font-family="Helvetica,sans-Serif" font-size="9.00">htmlNesting.ts</text>
</a>
</g>
</g>
<!-- src/index.ts -->
<g id="node6" class="node">
<title>src/index.ts</title>
<g id="a_node6"><a xlink:href="src/index.ts" xlink:title="index.ts">
<path fill="#ddfeff" stroke="black" d="M98.7,-291.56C98.7,-291.56 57.04,-291.56 57.04,-291.56 53.95,-291.56 50.87,-288.47 50.87,-285.39 50.87,-285.39 50.87,-279.22 50.87,-279.22 50.87,-276.14 53.95,-273.06 57.04,-273.06 57.04,-273.06 98.7,-273.06 98.7,-273.06 101.79,-273.06 104.87,-276.14 104.87,-279.22 104.87,-279.22 104.87,-285.39 104.87,-285.39 104.87,-288.47 101.79,-291.56 98.7,-291.56"/>
<text text-anchor="start" x="62.12" y="-279.01" font-family="Helvetica,sans-Serif" font-size="9.00">index.ts</text>
</a>
</g>
</g>
<!-- src/index.ts&#45;&gt;@vue/compiler&#45;core -->
<g id="edge15" class="edge">
<title>src/index.ts&#45;&gt;@vue/compiler&#45;core</title>
<g id="a_edge15"><a xlink:title="not&#45;to&#45;unresolvable">
<path fill="none" stroke="red" stroke-width="2" d="M79.19,-272.85C80.55,-239.56 86.96,-128.67 112.87,-107.31 199.12,-36.2 281.19,-32.64 364.37,-107.31 376.68,-118.36 362.21,-168.26 372.37,-181.31 372.77,-181.83 373.2,-182.33 373.64,-182.82"/>
<polygon fill="red" stroke="red" stroke-width="2" points="371.91,-184.11 377.87,-186.33 374.6,-180.88 371.91,-184.11"/>
</a>
</g>
<text text-anchor="middle" x="330.74" y="-179.77" font-family="Helvetica,sans-Serif" font-size="9.00" fill="red">not&#45;to&#45;unresolvable</text>
</g>
<!-- src/index.ts&#45;&gt;@vue/shared -->
<g id="edge16" class="edge">
<title>src/index.ts&#45;&gt;@vue/shared</title>
<g id="a_edge16"><a xlink:title="not&#45;to&#45;unresolvable">
<path fill="none" stroke="red" stroke-width="2" d="M78.69,-272.64C78.18,-232.41 78.55,-78.99 112.87,-49.31 197.43,23.81 271.42,8.81 364.37,-53.31 396.44,-74.74 408.66,-121.5 413.11,-147.65"/>
<polygon fill="red" stroke="red" stroke-width="2" points="411.03,-147.96 414,-153.58 415.18,-147.33 411.03,-147.96"/>
</a>
</g>
<text text-anchor="middle" x="39.75" y="-199.93" font-family="Helvetica,sans-Serif" font-size="9.00" fill="red">not&#45;to&#45;unresolvable</text>
</g>
<!-- src/index.ts&#45;&gt;src/errors.ts -->
<g id="edge2" class="edge">
<title>src/index.ts&#45;&gt;src/errors.ts</title>
<path fill="none" stroke="#000000" stroke-width="2" stroke-opacity="0.200000" d="M79.35,-292C81.16,-324.06 88.76,-425.71 112.87,-445.31 134.94,-463.25 213.19,-451.84 240.87,-445.31 244.74,-444.39 245.18,-442.78 248.87,-441.31 255.2,-438.78 262.1,-436.43 268.75,-434.34"/>
<polygon fill="#000000" fill-opacity="0.200000" stroke="#000000" stroke-width="2" stroke-opacity="0.200000" points="274.95,-434.64 268.6,-434.38 273.72,-430.62 274.95,-434.64"/>
</g>
<!-- src/parserOptions.ts -->
<g id="node7" class="node">
<title>src/parserOptions.ts</title>
<g id="a_node7"><a xlink:href="src/parserOptions.ts" xlink:title="parserOptions.ts">
<path fill="#ddfeff" stroke="black" d="M212.08,-482.56C212.08,-482.56 141.66,-482.56 141.66,-482.56 138.58,-482.56 135.49,-479.47 135.49,-476.39 135.49,-476.39 135.49,-470.22 135.49,-470.22 135.49,-467.14 138.58,-464.06 141.66,-464.06 141.66,-464.06 212.08,-464.06 212.08,-464.06 215.16,-464.06 218.24,-467.14 218.24,-470.22 218.24,-470.22 218.24,-476.39 218.24,-476.39 218.24,-479.47 215.16,-482.56 212.08,-482.56"/>
<text text-anchor="start" x="143.49" y="-470.01" font-family="Helvetica,sans-Serif" font-size="9.00">parserOptions.ts</text>
</a>
</g>
</g>
<!-- src/index.ts&#45;&gt;src/parserOptions.ts -->
<g id="edge3" class="edge">
<title>src/index.ts&#45;&gt;src/parserOptions.ts</title>
<path fill="none" stroke="#000000" stroke-width="2" stroke-opacity="0.200000" d="M79.46,-291.88C81.67,-324.54 90.5,-430.97 112.87,-455.31 116.85,-459.64 121.8,-462.96 127.15,-465.49"/>
<polygon fill="#000000" fill-opacity="0.200000" stroke="#000000" stroke-width="2" stroke-opacity="0.200000" points="126.06,-467.32 132.42,-467.56 127.6,-463.41 126.06,-467.32"/>
</g>
<!-- src/runtimeHelpers.ts -->
<g id="node8" class="node">
<title>src/runtimeHelpers.ts</title>
<g id="a_node8"><a xlink:href="src/runtimeHelpers.ts" xlink:title="runtimeHelpers.ts">
<path fill="#ddfeff" stroke="black" d="M340.45,-465.56C340.45,-465.56 264.79,-465.56 264.79,-465.56 261.7,-465.56 258.62,-462.47 258.62,-459.39 258.62,-459.39 258.62,-453.22 258.62,-453.22 258.62,-450.14 261.7,-447.06 264.79,-447.06 264.79,-447.06 340.45,-447.06 340.45,-447.06 343.54,-447.06 346.62,-450.14 346.62,-453.22 346.62,-453.22 346.62,-459.39 346.62,-459.39 346.62,-462.47 343.54,-465.56 340.45,-465.56"/>
<text text-anchor="start" x="266.62" y="-453.01" font-family="Helvetica,sans-Serif" font-size="9.00">runtimeHelpers.ts</text>
</a>
</g>
</g>
<!-- src/index.ts&#45;&gt;src/runtimeHelpers.ts -->
<g id="edge4" class="edge">
<title>src/index.ts&#45;&gt;src/runtimeHelpers.ts</title>
<path fill="none" stroke="#000000" stroke-width="2" stroke-opacity="0.200000" d="M78.89,-291.85C79.21,-328.92 82.47,-462.51 112.87,-488.31 156.25,-525.11 192.48,-518.22 240.87,-488.31 247.63,-484.13 242.79,-477.43 248.87,-472.31 250.06,-471.3 251.31,-470.36 252.61,-469.48"/>
<polygon fill="#000000" fill-opacity="0.200000" stroke="#000000" stroke-width="2" stroke-opacity="0.200000" points="258.78,-468.3 252.54,-469.52 256.66,-464.68 258.78,-468.3"/>
</g>
<!-- src/transforms/ignoreSideEffectTags.ts -->
<g id="node9" class="node">
<title>src/transforms/ignoreSideEffectTags.ts</title>
<g id="a_node9"><a xlink:href="src/transforms/ignoreSideEffectTags.ts" xlink:title="ignoreSideEffectTags.ts">
<path fill="#ddfeff" stroke="black" d="M226.7,-322.56C226.7,-322.56 127.04,-322.56 127.04,-322.56 123.95,-322.56 120.87,-319.47 120.87,-316.39 120.87,-316.39 120.87,-310.22 120.87,-310.22 120.87,-307.14 123.95,-304.06 127.04,-304.06 127.04,-304.06 226.7,-304.06 226.7,-304.06 229.79,-304.06 232.87,-307.14 232.87,-310.22 232.87,-310.22 232.87,-316.39 232.87,-316.39 232.87,-319.47 229.79,-322.56 226.7,-322.56"/>
<text text-anchor="start" x="128.87" y="-310.01" font-family="Helvetica,sans-Serif" font-size="9.00">ignoreSideEffectTags.ts</text>
</a>
</g>
</g>
<!-- src/index.ts&#45;&gt;src/transforms/ignoreSideEffectTags.ts -->
<g id="edge5" class="edge">
<title>src/index.ts&#45;&gt;src/transforms/ignoreSideEffectTags.ts</title>
<path fill="none" stroke="#000000" stroke-width="2" stroke-opacity="0.200000" d="M99.15,-291.91C103.61,-293.84 108.36,-295.75 112.87,-297.31 116.8,-298.66 120.9,-299.96 125.04,-301.18"/>
<polygon fill="#000000" fill-opacity="0.200000" stroke="#000000" stroke-width="2" stroke-opacity="0.200000" points="124.3,-303.16 130.65,-302.77 125.45,-299.12 124.3,-303.16"/>
</g>
<!-- src/transforms/stringifyStatic.ts -->
<g id="node10" class="node">
<title>src/transforms/stringifyStatic.ts</title>
<g id="a_node10"><a xlink:href="src/transforms/stringifyStatic.ts" xlink:title="stringifyStatic.ts">
<path fill="#ddfeff" stroke="black" d="M210.2,-167.56C210.2,-167.56 143.54,-167.56 143.54,-167.56 140.45,-167.56 137.37,-164.47 137.37,-161.39 137.37,-161.39 137.37,-155.22 137.37,-155.22 137.37,-152.14 140.45,-149.06 143.54,-149.06 143.54,-149.06 210.2,-149.06 210.2,-149.06 213.29,-149.06 216.37,-152.14 216.37,-155.22 216.37,-155.22 216.37,-161.39 216.37,-161.39 216.37,-164.47 213.29,-167.56 210.2,-167.56"/>
<text text-anchor="start" x="145.37" y="-155.01" font-family="Helvetica,sans-Serif" font-size="9.00">stringifyStatic.ts</text>
</a>
</g>
</g>
<!-- src/index.ts&#45;&gt;src/transforms/stringifyStatic.ts -->
<g id="edge6" class="edge">
<title>src/index.ts&#45;&gt;src/transforms/stringifyStatic.ts</title>
<path fill="none" stroke="#000000" stroke-width="2" stroke-opacity="0.200000" d="M78.95,-272.63C79.67,-251.53 84.44,-201.18 112.87,-174.31 117.44,-169.99 123,-166.8 128.9,-164.44"/>
<polygon fill="#000000" fill-opacity="0.200000" stroke="#000000" stroke-width="2" stroke-opacity="0.200000" points="129.21,-166.55 134.24,-162.67 127.88,-162.56 129.21,-166.55"/>
</g>
<!-- src/transforms/transformStyle.ts -->
<g id="node11" class="node">
<title>src/transforms/transformStyle.ts</title>
<g id="a_node11"><a xlink:href="src/transforms/transformStyle.ts" xlink:title="transformStyle.ts">
<path fill="#ddfeff" stroke="black" d="M212.45,-136.56C212.45,-136.56 141.29,-136.56 141.29,-136.56 138.2,-136.56 135.12,-133.47 135.12,-130.39 135.12,-130.39 135.12,-124.22 135.12,-124.22 135.12,-121.14 138.2,-118.06 141.29,-118.06 141.29,-118.06 212.45,-118.06 212.45,-118.06 215.54,-118.06 218.62,-121.14 218.62,-124.22 218.62,-124.22 218.62,-130.39 218.62,-130.39 218.62,-133.47 215.54,-136.56 212.45,-136.56"/>
<text text-anchor="start" x="143.12" y="-124.01" font-family="Helvetica,sans-Serif" font-size="9.00">transformStyle.ts</text>
</a>
</g>
</g>
<!-- src/index.ts&#45;&gt;src/transforms/transformStyle.ts -->
<g id="edge7" class="edge">
<title>src/index.ts&#45;&gt;src/transforms/transformStyle.ts</title>
<path fill="none" stroke="#000000" stroke-width="2" stroke-opacity="0.200000" d="M79.94,-272.66C83.29,-244.28 94.42,-161.92 112.87,-143.31 116.78,-139.36 121.52,-136.34 126.61,-134.04"/>
<polygon fill="#000000" fill-opacity="0.200000" stroke="#000000" stroke-width="2" stroke-opacity="0.200000" points="127.13,-136.09 132.02,-132.03 125.67,-132.15 127.13,-136.09"/>
</g>
<!-- src/transforms/Transition.ts -->
<g id="node12" class="node">
<title>src/transforms/Transition.ts</title>
<g id="a_node12"><a xlink:href="src/transforms/Transition.ts" xlink:title="Transition.ts">
<path fill="#ddfeff" stroke="black" d="M203.45,-353.56C203.45,-353.56 150.29,-353.56 150.29,-353.56 147.2,-353.56 144.12,-350.47 144.12,-347.39 144.12,-347.39 144.12,-341.22 144.12,-341.22 144.12,-338.14 147.2,-335.06 150.29,-335.06 150.29,-335.06 203.45,-335.06 203.45,-335.06 206.54,-335.06 209.62,-338.14 209.62,-341.22 209.62,-341.22 209.62,-347.39 209.62,-347.39 209.62,-350.47 206.54,-353.56 203.45,-353.56"/>
<text text-anchor="start" x="152.12" y="-341.01" font-family="Helvetica,sans-Serif" font-size="9.00">Transition.ts</text>
</a>
</g>
</g>
<!-- src/index.ts&#45;&gt;src/transforms/Transition.ts -->
<g id="edge8" class="edge">
<title>src/index.ts&#45;&gt;src/transforms/Transition.ts</title>
<path fill="none" stroke="#000000" stroke-width="2" stroke-opacity="0.200000" d="M83.45,-291.96C88.95,-302.5 99.19,-319.12 112.87,-328.31 119.47,-332.74 127.21,-335.95 134.97,-338.27"/>
<polygon fill="#000000" fill-opacity="0.200000" stroke="#000000" stroke-width="2" stroke-opacity="0.200000" points="134.4,-340.29 140.74,-339.76 135.46,-336.22 134.4,-340.29"/>
</g>
<!-- src/transforms/validateHtmlNesting.ts -->
<g id="node13" class="node">
<title>src/transforms/validateHtmlNesting.ts</title>
<g id="a_node13"><a xlink:href="src/transforms/validateHtmlNesting.ts" xlink:title="validateHtmlNesting.ts">
<path fill="#ddfeff" stroke="black" d="M224.45,-229.56C224.45,-229.56 129.29,-229.56 129.29,-229.56 126.2,-229.56 123.12,-226.47 123.12,-223.39 123.12,-223.39 123.12,-217.22 123.12,-217.22 123.12,-214.14 126.2,-211.06 129.29,-211.06 129.29,-211.06 224.45,-211.06 224.45,-211.06 227.54,-211.06 230.62,-214.14 230.62,-217.22 230.62,-217.22 230.62,-223.39 230.62,-223.39 230.62,-226.47 227.54,-229.56 224.45,-229.56"/>
<text text-anchor="start" x="131.12" y="-217.01" font-family="Helvetica,sans-Serif" font-size="9.00">validateHtmlNesting.ts</text>
</a>
</g>
</g>
<!-- src/index.ts&#45;&gt;src/transforms/validateHtmlNesting.ts -->
<g id="edge9" class="edge">
<title>src/index.ts&#45;&gt;src/transforms/validateHtmlNesting.ts</title>
<path fill="none" stroke="#000000" stroke-width="2" stroke-opacity="0.200000" d="M83.45,-272.66C88.95,-262.11 99.19,-245.5 112.87,-236.31 114.13,-235.46 115.42,-234.66 116.75,-233.91"/>
<polygon fill="#000000" fill-opacity="0.200000" stroke="#000000" stroke-width="2" stroke-opacity="0.200000" points="117.51,-235.88 121.97,-231.35 115.66,-232.11 117.51,-235.88"/>
</g>
<!-- src/transforms/vHtml.ts -->
<g id="node14" class="node">
<title>src/transforms/vHtml.ts</title>
<g id="a_node14"><a xlink:href="src/transforms/vHtml.ts" xlink:title="vHtml.ts">
<path fill="#ddfeff" stroke="black" d="M197.7,-291.56C197.7,-291.56 156.04,-291.56 156.04,-291.56 152.95,-291.56 149.87,-288.47 149.87,-285.39 149.87,-285.39 149.87,-279.22 149.87,-279.22 149.87,-276.14 152.95,-273.06 156.04,-273.06 156.04,-273.06 197.7,-273.06 197.7,-273.06 200.79,-273.06 203.87,-276.14 203.87,-279.22 203.87,-279.22 203.87,-285.39 203.87,-285.39 203.87,-288.47 200.79,-291.56 197.7,-291.56"/>
<text text-anchor="start" x="160.74" y="-279.01" font-family="Helvetica,sans-Serif" font-size="9.00">vHtml.ts</text>
</a>
</g>
</g>
<!-- src/index.ts&#45;&gt;src/transforms/vHtml.ts -->
<g id="edge10" class="edge">
<title>src/index.ts&#45;&gt;src/transforms/vHtml.ts</title>
<path fill="none" stroke="#000000" stroke-width="2" stroke-opacity="0.200000" d="M105.12,-282.31C116.12,-282.31 129.07,-282.31 140.86,-282.31"/>
<polygon fill="#000000" fill-opacity="0.200000" stroke="#000000" stroke-width="2" stroke-opacity="0.200000" points="140.57,-284.41 146.57,-282.31 140.57,-280.21 140.57,-284.41"/>
</g>
<!-- src/transforms/vModel.ts -->
<g id="node15" class="node">
<title>src/transforms/vModel.ts</title>
<g id="a_node15"><a xlink:href="src/transforms/vModel.ts" xlink:title="vModel.ts">
<path fill="#ddfeff" stroke="black" d="M198.2,-384.56C198.2,-384.56 155.54,-384.56 155.54,-384.56 152.45,-384.56 149.37,-381.47 149.37,-378.39 149.37,-378.39 149.37,-372.22 149.37,-372.22 149.37,-369.14 152.45,-366.06 155.54,-366.06 155.54,-366.06 198.2,-366.06 198.2,-366.06 201.29,-366.06 204.37,-369.14 204.37,-372.22 204.37,-372.22 204.37,-378.39 204.37,-378.39 204.37,-381.47 201.29,-384.56 198.2,-384.56"/>
<text text-anchor="start" x="157.37" y="-372.01" font-family="Helvetica,sans-Serif" font-size="9.00">vModel.ts</text>
</a>
</g>
</g>
<!-- src/index.ts&#45;&gt;src/transforms/vModel.ts -->
<g id="edge11" class="edge">
<title>src/index.ts&#45;&gt;src/transforms/vModel.ts</title>
<path fill="none" stroke="#000000" stroke-width="2" stroke-opacity="0.200000" d="M80.35,-291.97C83.39,-308.36 91.89,-341.57 112.87,-359.31 120.52,-365.78 130.45,-369.69 140.15,-372.03"/>
<polygon fill="#000000" fill-opacity="0.200000" stroke="#000000" stroke-width="2" stroke-opacity="0.200000" points="139.66,-374.07 145.95,-373.18 140.48,-369.95 139.66,-374.07"/>
</g>
<!-- src/transforms/vOn.ts -->
<g id="node16" class="node">
<title>src/transforms/vOn.ts</title>
<g id="a_node16"><a xlink:href="src/transforms/vOn.ts" xlink:title="vOn.ts">
<path fill="#ddfeff" stroke="black" d="M197.7,-198.56C197.7,-198.56 156.04,-198.56 156.04,-198.56 152.95,-198.56 149.87,-195.47 149.87,-192.39 149.87,-192.39 149.87,-186.22 149.87,-186.22 149.87,-183.14 152.95,-180.06 156.04,-180.06 156.04,-180.06 197.7,-180.06 197.7,-180.06 200.79,-180.06 203.87,-183.14 203.87,-186.22 203.87,-186.22 203.87,-192.39 203.87,-192.39 203.87,-195.47 200.79,-198.56 197.7,-198.56"/>
<text text-anchor="start" x="164.12" y="-186.01" font-family="Helvetica,sans-Serif" font-size="9.00">vOn.ts</text>
</a>
</g>
</g>
<!-- src/index.ts&#45;&gt;src/transforms/vOn.ts -->
<g id="edge12" class="edge">
<title>src/index.ts&#45;&gt;src/transforms/vOn.ts</title>
<path fill="none" stroke="#000000" stroke-width="2" stroke-opacity="0.200000" d="M80.35,-272.65C83.39,-256.26 91.89,-223.05 112.87,-205.31 120.73,-198.66 131,-194.72 140.95,-192.4"/>
<polygon fill="#000000" fill-opacity="0.200000" stroke="#000000" stroke-width="2" stroke-opacity="0.200000" points="141.08,-194.51 146.58,-191.32 140.29,-190.39 141.08,-194.51"/>
</g>
<!-- src/transforms/vShow.ts -->
<g id="node17" class="node">
<title>src/transforms/vShow.ts</title>
<g id="a_node17"><a xlink:href="src/transforms/vShow.ts" xlink:title="vShow.ts">
<path fill="#ddfeff" stroke="black" d="M197.7,-415.56C197.7,-415.56 156.04,-415.56 156.04,-415.56 152.95,-415.56 149.87,-412.47 149.87,-409.39 149.87,-409.39 149.87,-403.22 149.87,-403.22 149.87,-400.14 152.95,-397.06 156.04,-397.06 156.04,-397.06 197.7,-397.06 197.7,-397.06 200.79,-397.06 203.87,-400.14 203.87,-403.22 203.87,-403.22 203.87,-409.39 203.87,-409.39 203.87,-412.47 200.79,-415.56 197.7,-415.56"/>
<text text-anchor="start" x="158.87" y="-403.01" font-family="Helvetica,sans-Serif" font-size="9.00">vShow.ts</text>
</a>
</g>
</g>
<!-- src/index.ts&#45;&gt;src/transforms/vShow.ts -->
<g id="edge13" class="edge">
<title>src/index.ts&#45;&gt;src/transforms/vShow.ts</title>
<path fill="none" stroke="#000000" stroke-width="2" stroke-opacity="0.200000" d="M78.95,-291.99C79.67,-313.08 84.44,-363.44 112.87,-390.31 120.42,-397.44 130.68,-401.51 140.73,-403.81"/>
<polygon fill="#000000" fill-opacity="0.200000" stroke="#000000" stroke-width="2" stroke-opacity="0.200000" points="140.18,-405.84 146.46,-404.85 140.93,-401.71 140.18,-405.84"/>
</g>
<!-- src/transforms/vText.ts -->
<g id="node18" class="node">
<title>src/transforms/vText.ts</title>
<g id="a_node18"><a xlink:href="src/transforms/vText.ts" xlink:title="vText.ts">
<path fill="#ddfeff" stroke="black" d="M197.7,-260.56C197.7,-260.56 156.04,-260.56 156.04,-260.56 152.95,-260.56 149.87,-257.47 149.87,-254.39 149.87,-254.39 149.87,-248.22 149.87,-248.22 149.87,-245.14 152.95,-242.06 156.04,-242.06 156.04,-242.06 197.7,-242.06 197.7,-242.06 200.79,-242.06 203.87,-245.14 203.87,-248.22 203.87,-248.22 203.87,-254.39 203.87,-254.39 203.87,-257.47 200.79,-260.56 197.7,-260.56"/>
<text text-anchor="start" x="161.87" y="-248.01" font-family="Helvetica,sans-Serif" font-size="9.00">vText.ts</text>
</a>
</g>
</g>
<!-- src/index.ts&#45;&gt;src/transforms/vText.ts -->
<g id="edge14" class="edge">
<title>src/index.ts&#45;&gt;src/transforms/vText.ts</title>
<path fill="none" stroke="#000000" stroke-width="2" stroke-opacity="0.200000" d="M99.15,-272.7C103.61,-270.77 108.36,-268.86 112.87,-267.31 121.84,-264.21 131.72,-261.42 140.94,-259.08"/>
<polygon fill="#000000" fill-opacity="0.200000" stroke="#000000" stroke-width="2" stroke-opacity="0.200000" points="141.26,-261.16 146.59,-257.69 140.26,-257.08 141.26,-261.16"/>
</g>
<!-- src/parserOptions.ts&#45;&gt;@vue/compiler&#45;core -->
<g id="edge19" class="edge">
<title>src/parserOptions.ts&#45;&gt;@vue/compiler&#45;core</title>
<g id="a_edge19"><a xlink:title="not&#45;to&#45;unresolvable">
<path fill="none" stroke="red" stroke-width="2" d="M216.22,-463.61C225.63,-459.46 234.75,-453.58 240.87,-445.31 258.44,-421.55 229.87,-401.93 248.87,-379.31 283.37,-338.23 325.68,-381.46 364.37,-344.31 400.95,-309.18 411.37,-246.55 414.33,-215.62"/>
<polygon fill="red" stroke="red" stroke-width="2" points="416.41,-215.94 414.81,-209.78 412.23,-215.59 416.41,-215.94"/>
</a>
</g>
<text text-anchor="middle" x="275.04" y="-352.24" font-family="Helvetica,sans-Serif" font-size="9.00" fill="red">not&#45;to&#45;unresolvable</text>
</g>
<!-- src/parserOptions.ts&#45;&gt;@vue/shared -->
<g id="edge20" class="edge">
<title>src/parserOptions.ts&#45;&gt;@vue/shared</title>
<g id="a_edge20"><a xlink:title="not&#45;to&#45;unresolvable">
<path fill="none" stroke="red" stroke-width="2" d="M216.79,-463.64C226.09,-459.5 235,-453.62 240.87,-445.31 254.24,-426.37 240.52,-362.93 248.87,-341.31 281.11,-257.84 300.22,-235.23 372.37,-182.31 375.04,-180.35 377.97,-178.61 381.02,-177.06"/>
<polygon fill="red" stroke="red" stroke-width="2" points="381.83,-179 386.46,-174.64 380.12,-175.16 381.83,-179"/>
</a>
</g>
<text text-anchor="middle" x="305.28" y="-292.75" font-family="Helvetica,sans-Serif" font-size="9.00" fill="red">not&#45;to&#45;unresolvable</text>
</g>
<!-- src/parserOptions.ts&#45;&gt;src/decodeHtmlBrowser.ts -->
<g id="edge17" class="edge">
<title>src/parserOptions.ts&#45;&gt;src/decodeHtmlBrowser.ts</title>
<path fill="none" stroke="#000000" stroke-width="2" stroke-opacity="0.200000" d="M218.73,-477.93C225.61,-478.71 232.89,-479.53 240.16,-480.35"/>
<polygon fill="#000000" fill-opacity="0.200000" stroke="#000000" stroke-width="2" stroke-opacity="0.200000" points="239.46,-482.39 245.65,-480.98 239.93,-478.21 239.46,-482.39"/>
</g>
<!-- src/parserOptions.ts&#45;&gt;src/runtimeHelpers.ts -->
<g id="edge18" class="edge">
<title>src/parserOptions.ts&#45;&gt;src/runtimeHelpers.ts</title>
<path fill="none" stroke="#000000" stroke-width="2" stroke-opacity="0.200000" d="M218.73,-467.69C228.53,-466.35 239.13,-464.89 249.37,-463.49"/>
<polygon fill="#000000" fill-opacity="0.200000" stroke="#000000" stroke-width="2" stroke-opacity="0.200000" points="249.59,-465.57 255.25,-462.68 249.02,-461.41 249.59,-465.57"/>
</g>
<!-- src/runtimeHelpers.ts&#45;&gt;@vue/compiler&#45;core -->
<g id="edge21" class="edge">
<title>src/runtimeHelpers.ts&#45;&gt;@vue/compiler&#45;core</title>
<g id="a_edge21"><a xlink:title="not&#45;to&#45;unresolvable">
<path fill="none" stroke="red" stroke-width="2" d="M347.07,-451.23C353.55,-448.78 359.63,-445.29 364.37,-440.31 395.36,-407.73 409.79,-266.91 414.07,-215.87"/>
<polygon fill="red" stroke="red" stroke-width="2" points="416.16,-216.08 414.55,-209.93 411.98,-215.75 416.16,-216.08"/>
</a>
</g>
<text text-anchor="middle" x="359.47" y="-326.53" font-family="Helvetica,sans-Serif" font-size="9.00" fill="red">not&#45;to&#45;unresolvable</text>
</g>
<!-- src/transforms/ignoreSideEffectTags.ts&#45;&gt;@vue/compiler&#45;core -->
<g id="edge26" class="edge">
<title>src/transforms/ignoreSideEffectTags.ts&#45;&gt;@vue/compiler&#45;core</title>
<g id="a_edge26"><a xlink:title="not&#45;to&#45;unresolvable">
<path fill="none" stroke="red" stroke-width="2" d="M233.25,-304.26C272.36,-295.94 324.65,-280.75 364.37,-254.31 380.5,-243.57 394.83,-226.58 404.19,-213.94"/>
<polygon fill="red" stroke="red" stroke-width="2" points="405.8,-215.3 407.58,-209.19 402.39,-212.85 405.8,-215.3"/>
</a>
</g>
<text text-anchor="middle" x="289.74" y="-265.01" font-family="Helvetica,sans-Serif" font-size="9.00" fill="red">not&#45;to&#45;unresolvable</text>
</g>
<!-- src/transforms/ignoreSideEffectTags.ts&#45;&gt;src/errors.ts -->
<g id="edge25" class="edge">
<title>src/transforms/ignoreSideEffectTags.ts&#45;&gt;src/errors.ts</title>
<path fill="none" stroke="#000000" stroke-width="2" stroke-opacity="0.200000" d="M233.31,-322.7C236.1,-324.56 238.66,-326.74 240.87,-329.31 264.19,-356.39 226.18,-381.7 248.87,-409.31 253.4,-414.82 259.76,-418.48 266.51,-420.89"/>
<polygon fill="#000000" fill-opacity="0.200000" stroke="#000000" stroke-width="2" stroke-opacity="0.200000" points="265.89,-422.9 272.23,-422.51 267.03,-418.86 265.89,-422.9"/>
</g>
<!-- src/transforms/stringifyStatic.ts&#45;&gt;@vue/compiler&#45;core -->
<g id="edge27" class="edge">
<title>src/transforms/stringifyStatic.ts&#45;&gt;@vue/compiler&#45;core</title>
<g id="a_edge27"><a xlink:title="not&#45;to&#45;unresolvable">
<path fill="none" stroke="red" stroke-width="2" d="M212.88,-148.56C253.11,-139.56 319.37,-131.73 364.37,-162.31 371.95,-167.46 365.75,-174.97 372.37,-181.31 372.85,-181.76 373.34,-182.21 373.84,-182.64"/>
<polygon fill="red" stroke="red" stroke-width="2" points="372.35,-184.16 378.48,-185.84 374.74,-180.71 372.35,-184.16"/>
</a>
</g>
<text text-anchor="middle" x="338.73" y="-132.71" font-family="Helvetica,sans-Serif" font-size="9.00" fill="red">not&#45;to&#45;unresolvable</text>
</g>
<!-- src/transforms/stringifyStatic.ts&#45;&gt;@vue/shared -->
<g id="edge28" class="edge">
<title>src/transforms/stringifyStatic.ts&#45;&gt;@vue/shared</title>
<g id="a_edge28"><a xlink:title="not&#45;to&#45;unresolvable">
<path fill="none" stroke="red" stroke-width="2" d="M216.58,-155.68C225.64,-153.28 234.5,-149.18 240.87,-142.31 254.97,-127.08 232.99,-109.66 248.87,-96.31 288.15,-63.27 318.6,-73.06 364.37,-96.31 385.74,-107.16 400.3,-131.6 408.26,-148.52"/>
<polygon fill="red" stroke="red" stroke-width="2" points="406.25,-149.16 410.6,-153.8 410.09,-147.47 406.25,-149.16"/>
</a>
</g>
<text text-anchor="middle" x="284.81" y="-126.67" font-family="Helvetica,sans-Serif" font-size="9.00" fill="red">not&#45;to&#45;unresolvable</text>
</g>
<!-- src/transforms/transformStyle.ts&#45;&gt;@vue/compiler&#45;core -->
<g id="edge29" class="edge">
<title>src/transforms/transformStyle.ts&#45;&gt;@vue/compiler&#45;core</title>
<g id="a_edge29"><a xlink:title="not&#45;to&#45;unresolvable">
<path fill="none" stroke="red" stroke-width="2" d="M212.87,-117.6C254.34,-108.41 323.01,-100.87 364.37,-137.31 379.28,-150.45 359.6,-166.08 372.37,-181.31 372.64,-181.63 372.92,-181.94 373.2,-182.25"/>
<polygon fill="red" stroke="red" stroke-width="2" points="371.69,-183.73 377.65,-185.92 374.36,-180.49 371.69,-183.73"/>
</a>
</g>
<text text-anchor="middle" x="261.78" y="-102.94" font-family="Helvetica,sans-Serif" font-size="9.00" fill="red">not&#45;to&#45;unresolvable</text>
</g>
<!-- src/transforms/transformStyle.ts&#45;&gt;@vue/shared -->
<g id="edge30" class="edge">
<title>src/transforms/transformStyle.ts&#45;&gt;@vue/shared</title>
<g id="a_edge30"><a xlink:title="not&#45;to&#45;unresolvable">
<path fill="none" stroke="red" stroke-width="2" d="M186.31,-117.6C198.54,-104.37 222.61,-81.29 248.87,-72.31 297.44,-55.7 320.24,-46.08 364.37,-72.31 391.9,-88.67 405.53,-125.62 411.5,-148.01"/>
<polygon fill="red" stroke="red" stroke-width="2" points="409.42,-148.34 412.89,-153.67 413.5,-147.34 409.42,-148.34"/>
</a>
</g>
<text text-anchor="middle" x="241.51" y="-53.04" font-family="Helvetica,sans-Serif" font-size="9.00" fill="red">not&#45;to&#45;unresolvable</text>
</g>
<!-- src/transforms/Transition.ts&#45;&gt;@vue/compiler&#45;core -->
<g id="edge24" class="edge">
<title>src/transforms/Transition.ts&#45;&gt;@vue/compiler&#45;core</title>
<g id="a_edge24"><a xlink:title="not&#45;to&#45;unresolvable">
<path fill="none" stroke="red" stroke-width="2" d="M210.03,-337.59C256.8,-327.31 340.62,-306.8 364.37,-287.31 387.62,-268.22 402.32,-235.63 409.71,-215.34"/>
<polygon fill="red" stroke="red" stroke-width="2" points="411.64,-216.2 411.61,-209.84 407.67,-214.83 411.64,-216.2"/>
</a>
</g>
<text text-anchor="middle" x="363.53" y="-300.95" font-family="Helvetica,sans-Serif" font-size="9.00" fill="red">not&#45;to&#45;unresolvable</text>
</g>
<!-- src/transforms/Transition.ts&#45;&gt;src/errors.ts -->
<g id="edge22" class="edge">
<title>src/transforms/Transition.ts&#45;&gt;src/errors.ts</title>
<path fill="none" stroke="#000000" stroke-width="2" stroke-opacity="0.200000" d="M210.06,-345.44C221.28,-347.48 233.02,-351.74 240.87,-360.31 255.78,-376.57 234.34,-392.7 248.87,-409.31 253.52,-414.62 259.88,-418.2 266.57,-420.61"/>
<polygon fill="#000000" fill-opacity="0.200000" stroke="#000000" stroke-width="2" stroke-opacity="0.200000" points="265.86,-422.59 272.21,-422.23 267.03,-418.55 265.86,-422.59"/>
</g>
<!-- src/transforms/Transition.ts&#45;&gt;src/runtimeHelpers.ts -->
<g id="edge23" class="edge">
<title>src/transforms/Transition.ts&#45;&gt;src/runtimeHelpers.ts</title>
<path fill="none" stroke="#000000" stroke-width="2" stroke-opacity="0.200000" d="M210.03,-345.13C221.38,-347.11 233.21,-351.41 240.87,-360.31 264.19,-387.39 226.18,-412.7 248.87,-440.31 249.62,-441.22 250.42,-442.09 251.27,-442.9"/>
<polygon fill="#000000" fill-opacity="0.200000" stroke="#000000" stroke-width="2" stroke-opacity="0.200000" points="250,-444.58 256.08,-446.46 252.5,-441.2 250,-444.58"/>
</g>
<!-- src/transforms/validateHtmlNesting.ts&#45;&gt;@vue/compiler&#45;core -->
<g id="edge44" class="edge">
<title>src/transforms/validateHtmlNesting.ts&#45;&gt;@vue/compiler&#45;core</title>
<g id="a_edge44"><a xlink:title="not&#45;to&#45;unresolvable">
<path fill="none" stroke="red" stroke-width="2" d="M221.29,-210.59C227.92,-208.73 234.63,-206.63 240.87,-204.31 244.6,-202.92 245.01,-201.26 248.87,-200.31 289.49,-190.33 337.38,-190.67 371.37,-192.85"/>
<polygon fill="red" stroke="red" stroke-width="2" points="370.98,-194.93 377.11,-193.26 371.27,-190.74 370.98,-194.93"/>
</a>
</g>
<text text-anchor="middle" x="260.3" y="-194.67" font-family="Helvetica,sans-Serif" font-size="9.00" fill="red">not&#45;to&#45;unresolvable</text>
</g>
<!-- src/transforms/validateHtmlNesting.ts&#45;&gt;src/htmlNesting.ts -->
<g id="edge43" class="edge">
<title>src/transforms/validateHtmlNesting.ts&#45;&gt;src/htmlNesting.ts</title>
<path fill="none" stroke="#000000" stroke-width="2" stroke-opacity="0.200000" d="M231.06,-229.63C234.59,-231.48 237.92,-233.68 240.87,-236.31 282.87,-273.61 296.02,-343.28 299.98,-376.2"/>
<polygon fill="#000000" fill-opacity="0.200000" stroke="#000000" stroke-width="2" stroke-opacity="0.200000" points="297.86,-376.06 300.59,-381.8 302.03,-375.61 297.86,-376.06"/>
</g>
<!-- src/transforms/vHtml.ts&#45;&gt;@vue/compiler&#45;core -->
<g id="edge32" class="edge">
<title>src/transforms/vHtml.ts&#45;&gt;@vue/compiler&#45;core</title>
<g id="a_edge32"><a xlink:title="not&#45;to&#45;unresolvable">
<path fill="none" stroke="red" stroke-width="2" d="M204.36,-276.07C215.66,-273.29 228.97,-269.84 240.87,-266.31 296.45,-249.83 311.13,-247.25 364.37,-224.31 373.22,-220.49 382.62,-215.74 390.92,-211.3"/>
<polygon fill="red" stroke="red" stroke-width="2" points="391.87,-213.17 396.13,-208.45 389.85,-209.48 391.87,-213.17"/>
</a>
</g>
<text text-anchor="middle" x="264.15" y="-239.05" font-family="Helvetica,sans-Serif" font-size="9.00" fill="red">not&#45;to&#45;unresolvable</text>
</g>
<!-- src/transforms/vHtml.ts&#45;&gt;src/errors.ts -->
<g id="edge31" class="edge">
<title>src/transforms/vHtml.ts&#45;&gt;src/errors.ts</title>
<path fill="none" stroke="#000000" stroke-width="2" stroke-opacity="0.200000" d="M204.32,-282.19C217.31,-283.62 232.03,-287.75 240.87,-298.31 256.75,-317.27 233.43,-389.99 248.87,-409.31 253.46,-415.06 260.06,-418.8 267.04,-421.21"/>
<polygon fill="#000000" fill-opacity="0.200000" stroke="#000000" stroke-width="2" stroke-opacity="0.200000" points="266.05,-423.12 272.39,-422.68 267.16,-419.07 266.05,-423.12"/>
</g>
<!-- src/transforms/vModel.ts&#45;&gt;@vue/compiler&#45;core -->
<g id="edge35" class="edge">
<title>src/transforms/vModel.ts&#45;&gt;@vue/compiler&#45;core</title>
<g id="a_edge35"><a xlink:title="not&#45;to&#45;unresolvable">
<path fill="none" stroke="red" stroke-width="2" d="M204.82,-371.75C216.45,-369.4 229.88,-365.56 240.87,-359.31 245.24,-356.82 244.55,-353.87 248.87,-351.31 294.88,-323.99 324.39,-352.88 364.37,-317.31 394.81,-290.23 407.71,-241.94 412.7,-215.63"/>
<polygon fill="red" stroke="red" stroke-width="2" points="414.72,-216.27 413.67,-210 410.58,-215.55 414.72,-216.27"/>
</a>
</g>
<text text-anchor="middle" x="271.68" y="-328.75" font-family="Helvetica,sans-Serif" font-size="9.00" fill="red">not&#45;to&#45;unresolvable</text>
</g>
<!-- src/transforms/vModel.ts&#45;&gt;src/errors.ts -->
<g id="edge33" class="edge">
<title>src/transforms/vModel.ts&#45;&gt;src/errors.ts</title>
<path fill="none" stroke="#000000" stroke-width="2" stroke-opacity="0.200000" d="M204.81,-376.86C216.99,-378.79 230.86,-382.87 240.87,-391.31 247.56,-396.95 242.31,-403.51 248.87,-409.31 254.01,-413.85 260.42,-417.11 266.97,-419.44"/>
<polygon fill="#000000" fill-opacity="0.200000" stroke="#000000" stroke-width="2" stroke-opacity="0.200000" points="266.01,-421.34 272.36,-421.05 267.22,-417.32 266.01,-421.34"/>
</g>
<!-- src/transforms/vModel.ts&#45;&gt;src/runtimeHelpers.ts -->
<g id="edge34" class="edge">
<title>src/transforms/vModel.ts&#45;&gt;src/runtimeHelpers.ts</title>
<path fill="none" stroke="#000000" stroke-width="2" stroke-opacity="0.200000" d="M204.57,-375.6C217.3,-377.19 231.72,-381.33 240.87,-391.31 255.78,-407.57 234.34,-423.7 248.87,-440.31 249.53,-441.06 250.23,-441.78 250.95,-442.47"/>
<polygon fill="#000000" fill-opacity="0.200000" stroke="#000000" stroke-width="2" stroke-opacity="0.200000" points="249.69,-444.15 255.77,-446.01 252.18,-440.76 249.69,-444.15"/>
</g>
<!-- src/transforms/vOn.ts&#45;&gt;@vue/compiler&#45;core -->
<g id="edge37" class="edge">
<title>src/transforms/vOn.ts&#45;&gt;@vue/compiler&#45;core</title>
<g id="a_edge37"><a xlink:title="not&#45;to&#45;unresolvable">
<path fill="none" stroke="red" stroke-width="2" d="M204.3,-182.36C217.57,-179.22 233.96,-175.87 248.87,-174.31 299.93,-168.97 316.32,-156.25 364.37,-174.31 368.79,-175.97 368.31,-178.89 372.37,-181.31 373.86,-182.2 375.41,-183.05 377,-183.87"/>
<polygon fill="red" stroke="red" stroke-width="2" points="376.08,-185.75 382.4,-186.38 377.85,-181.94 376.08,-185.75"/>
</a>
</g>
<text text-anchor="middle" x="331.68" y="-159.19" font-family="Helvetica,sans-Serif" font-size="9.00" fill="red">not&#45;to&#45;unresolvable</text>
</g>
<!-- src/transforms/vOn.ts&#45;&gt;@vue/shared -->
<g id="edge38" class="edge">
<title>src/transforms/vOn.ts&#45;&gt;@vue/shared</title>
<g id="a_edge38"><a xlink:title="not&#45;to&#45;unresolvable">
<path fill="none" stroke="red" stroke-width="2" d="M204.06,-186.77C216.08,-184.62 230.03,-180.65 240.87,-173.31 245.87,-169.92 243.48,-165.05 248.87,-162.31 290.35,-141.18 345.49,-148.19 380.75,-156.31"/>
<polygon fill="red" stroke="red" stroke-width="2" points="380,-158.29 386.32,-157.67 380.99,-154.21 380,-158.29"/>
</a>
</g>
<text text-anchor="middle" x="333.78" y="-146.22" font-family="Helvetica,sans-Serif" font-size="9.00" fill="red">not&#45;to&#45;unresolvable</text>
</g>
<!-- src/transforms/vOn.ts&#45;&gt;src/runtimeHelpers.ts -->
<g id="edge36" class="edge">
<title>src/transforms/vOn.ts&#45;&gt;src/runtimeHelpers.ts</title>
<path fill="none" stroke="#000000" stroke-width="2" stroke-opacity="0.200000" d="M204.16,-189.02C217.28,-190.38 232.16,-194.5 240.87,-205.31 257.26,-225.65 232.95,-419.59 248.87,-440.31 249.59,-441.25 250.37,-442.13 251.19,-442.97"/>
<polygon fill="#000000" fill-opacity="0.200000" stroke="#000000" stroke-width="2" stroke-opacity="0.200000" points="249.85,-444.59 255.89,-446.59 252.42,-441.26 249.85,-444.59"/>
</g>
<!-- src/transforms/vShow.ts&#45;&gt;src/errors.ts -->
<g id="edge39" class="edge">
<title>src/transforms/vShow.ts&#45;&gt;src/errors.ts</title>
<path fill="none" stroke="#000000" stroke-width="2" stroke-opacity="0.200000" d="M204.11,-410.34C222.33,-413.13 246.78,-416.89 266.65,-419.94"/>
<polygon fill="#000000" fill-opacity="0.200000" stroke="#000000" stroke-width="2" stroke-opacity="0.200000" points="266.17,-421.99 272.42,-420.82 266.81,-417.84 266.17,-421.99"/>
</g>
<!-- src/transforms/vShow.ts&#45;&gt;src/runtimeHelpers.ts -->
<g id="edge40" class="edge">
<title>src/transforms/vShow.ts&#45;&gt;src/runtimeHelpers.ts</title>
<path fill="none" stroke="#000000" stroke-width="2" stroke-opacity="0.200000" d="M204.31,-406.12C216.67,-407.34 230.83,-410.77 240.87,-419.31 248.48,-425.78 241.57,-433.49 248.87,-440.31 249.57,-440.96 250.3,-441.59 251.04,-442.19"/>
<polygon fill="#000000" fill-opacity="0.200000" stroke="#000000" stroke-width="2" stroke-opacity="0.200000" points="249.6,-443.75 255.78,-445.28 251.9,-440.24 249.6,-443.75"/>
</g>
<!-- src/transforms/vText.ts&#45;&gt;@vue/compiler&#45;core -->
<g id="edge42" class="edge">
<title>src/transforms/vText.ts&#45;&gt;@vue/compiler&#45;core</title>
<g id="a_edge42"><a xlink:title="not&#45;to&#45;unresolvable">
<path fill="none" stroke="red" stroke-width="2" d="M204.06,-248.23C215.94,-245.96 229.78,-242.05 240.87,-235.31 245.44,-232.53 244.19,-228.91 248.87,-226.31 269.36,-214.89 329.18,-206.43 371.25,-201.68"/>
<polygon fill="red" stroke="red" stroke-width="2" points="371.46,-203.77 377.2,-201.03 371,-199.6 371.46,-203.77"/>
</a>
</g>
<text text-anchor="middle" x="329.74" y="-205.25" font-family="Helvetica,sans-Serif" font-size="9.00" fill="red">not&#45;to&#45;unresolvable</text>
</g>
<!-- src/transforms/vText.ts&#45;&gt;src/errors.ts -->
<g id="edge41" class="edge">
<title>src/transforms/vText.ts&#45;&gt;src/errors.ts</title>
<path fill="none" stroke="#000000" stroke-width="2" stroke-opacity="0.200000" d="M204.07,-251.1C217.15,-252.48 232.04,-256.6 240.87,-267.31 260.97,-291.7 229.34,-384.46 248.87,-409.31 253.42,-415.09 260,-418.85 266.97,-421.27"/>
<polygon fill="#000000" fill-opacity="0.200000" stroke="#000000" stroke-width="2" stroke-opacity="0.200000" points="265.98,-423.17 272.33,-422.74 267.09,-419.12 265.98,-423.17"/>
</g>
</g>
</svg>
