<?xml version="1.0" encoding="UTF-8" standalone="no"?>
<!DOCTYPE svg PUBLIC "-//W3C//DTD SVG 1.1//EN"
 "http://www.w3.org/Graphics/SVG/1.1/DTD/svg11.dtd">
<!-- Generated by graphviz version 12.2.1 (20241206.2353)
 -->
<!-- Title: dependency&#45;cruiser output Pages: 1 -->
<svg width="619pt" height="703pt"
 viewBox="0.00 0.00 619.38 702.96" xmlns="http://www.w3.org/2000/svg" xmlns:xlink="http://www.w3.org/1999/xlink">
<g id="graph0" class="graph" transform="scale(1 1) rotate(0) translate(4 698.96)">
<title>dependency&#45;cruiser output</title>
<polygon fill="white" stroke="none" points="-4,4 -4,-698.96 615.38,-698.96 615.38,4 -4,4"/>
<g id="clust1" class="cluster">
<title>cluster_@vue</title>
<path fill="#ffffff" stroke="black" stroke-width="2" d="M513.5,-282.96C513.5,-282.96 573.25,-282.96 573.25,-282.96 579.25,-282.96 585.25,-288.96 585.25,-294.96 585.25,-294.96 585.25,-354.96 585.25,-354.96 585.25,-360.96 579.25,-366.96 573.25,-366.96 573.25,-366.96 513.5,-366.96 513.5,-366.96 507.5,-366.96 501.5,-360.96 501.5,-354.96 501.5,-354.96 501.5,-294.96 501.5,-294.96 501.5,-288.96 507.5,-282.96 513.5,-282.96"/>
<text text-anchor="middle" x="543.38" y="-354.41" font-family="Helvetica,sans-Serif" font-weight="bold" font-size="9.00">@vue</text>
</g>
<g id="clust2" class="cluster">
<title>cluster_src</title>
<path fill="#ffffff" stroke="black" stroke-width="2" d="M20,-363.96C20,-363.96 481.5,-363.96 481.5,-363.96 487.5,-363.96 493.5,-369.96 493.5,-375.96 493.5,-375.96 493.5,-674.96 493.5,-674.96 493.5,-680.96 487.5,-686.96 481.5,-686.96 481.5,-686.96 20,-686.96 20,-686.96 14,-686.96 8,-680.96 8,-674.96 8,-674.96 8,-375.96 8,-375.96 8,-369.96 14,-363.96 20,-363.96"/>
<text text-anchor="middle" x="250.75" y="-674.41" font-family="Helvetica,sans-Serif" font-weight="bold" font-size="9.00">src</text>
</g>
<g id="clust3" class="cluster">
<title>cluster_src/components</title>
<path fill="#ffffff" stroke="black" stroke-width="2" d="M288,-580.96C288,-580.96 463,-580.96 463,-580.96 469,-580.96 475,-586.96 475,-592.96 475,-592.96 475,-621.96 475,-621.96 475,-627.96 469,-633.96 463,-633.96 463,-633.96 288,-633.96 288,-633.96 282,-633.96 276,-627.96 276,-621.96 276,-621.96 276,-592.96 276,-592.96 276,-586.96 282,-580.96 288,-580.96"/>
<text text-anchor="middle" x="375.5" y="-621.41" font-family="Helvetica,sans-Serif" font-weight="bold" font-size="9.00">components</text>
</g>
<g id="clust4" class="cluster">
<title>cluster_src/directives</title>
<path fill="#ffffff" stroke="black" stroke-width="2" d="M209,-371.96C209,-371.96 256,-371.96 256,-371.96 262,-371.96 268,-377.96 268,-383.96 268,-383.96 268,-474.96 268,-474.96 268,-480.96 262,-486.96 256,-486.96 256,-486.96 209,-486.96 209,-486.96 203,-486.96 197,-480.96 197,-474.96 197,-474.96 197,-383.96 197,-383.96 197,-377.96 203,-371.96 209,-371.96"/>
<text text-anchor="middle" x="232.5" y="-474.41" font-family="Helvetica,sans-Serif" font-weight="bold" font-size="9.00">directives</text>
</g>
<g id="clust5" class="cluster">
<title>cluster_src/helpers</title>
<path fill="#ffffff" stroke="black" stroke-width="2" d="M395,-488.96C395,-488.96 473.5,-488.96 473.5,-488.96 479.5,-488.96 485.5,-494.96 485.5,-500.96 485.5,-500.96 485.5,-560.96 485.5,-560.96 485.5,-566.96 479.5,-572.96 473.5,-572.96 473.5,-572.96 395,-572.96 395,-572.96 389,-572.96 383,-566.96 383,-560.96 383,-560.96 383,-500.96 383,-500.96 383,-494.96 389,-488.96 395,-488.96"/>
<text text-anchor="middle" x="434.25" y="-560.41" font-family="Helvetica,sans-Serif" font-weight="bold" font-size="9.00">helpers</text>
</g>
<g id="clust6" class="cluster">
<title>cluster_src/modules</title>
<path fill="#ffffff" stroke="black" stroke-width="2" d="M306.5,-371.96C306.5,-371.96 352.5,-371.96 352.5,-371.96 358.5,-371.96 364.5,-377.96 364.5,-383.96 364.5,-383.96 364.5,-536.96 364.5,-536.96 364.5,-542.96 358.5,-548.96 352.5,-548.96 352.5,-548.96 306.5,-548.96 306.5,-548.96 300.5,-548.96 294.5,-542.96 294.5,-536.96 294.5,-536.96 294.5,-383.96 294.5,-383.96 294.5,-377.96 300.5,-371.96 306.5,-371.96"/>
<text text-anchor="middle" x="329.5" y="-536.41" font-family="Helvetica,sans-Serif" font-weight="bold" font-size="9.00">modules</text>
</g>
<!-- @vue/runtime&#45;core -->
<g id="node1" class="node">
<title>@vue/runtime&#45;core</title>
<g id="a_node1"><a xlink:title="runtime&#45;core">
<path fill="#ffffcc" stroke="black" d="M571.08,-340.21C571.08,-340.21 515.67,-340.21 515.67,-340.21 512.58,-340.21 509.5,-337.13 509.5,-334.05 509.5,-334.05 509.5,-327.88 509.5,-327.88 509.5,-324.8 512.58,-321.71 515.67,-321.71 515.67,-321.71 571.08,-321.71 571.08,-321.71 574.17,-321.71 577.25,-324.8 577.25,-327.88 577.25,-327.88 577.25,-334.05 577.25,-334.05 577.25,-337.13 574.17,-340.21 571.08,-340.21"/>
<text text-anchor="start" x="517.5" y="-327.66" font-family="Helvetica,sans-Serif" font-size="9.00">runtime&#45;core</text>
</a>
</g>
</g>
<!-- @vue/shared -->
<g id="node2" class="node">
<title>@vue/shared</title>
<g id="a_node2"><a xlink:title="shared">
<path fill="#ffffcc" stroke="black" d="M564.21,-309.21C564.21,-309.21 522.54,-309.21 522.54,-309.21 519.46,-309.21 516.38,-306.13 516.38,-303.05 516.38,-303.05 516.38,-296.88 516.38,-296.88 516.38,-293.8 519.46,-290.71 522.54,-290.71 522.54,-290.71 564.21,-290.71 564.21,-290.71 567.29,-290.71 570.38,-293.8 570.38,-296.88 570.38,-296.88 570.38,-303.05 570.38,-303.05 570.38,-306.13 567.29,-309.21 564.21,-309.21"/>
<text text-anchor="start" x="529.12" y="-296.66" font-family="Helvetica,sans-Serif" font-size="9.00">shared</text>
</a>
</g>
</g>
<!-- src/apiCustomElement.ts -->
<g id="node3" class="node">
<title>src/apiCustomElement.ts</title>
<g id="a_node3"><a xlink:href="src/apiCustomElement.ts" xlink:title="apiCustomElement.ts">
<path fill="#ddfeff" stroke="black" d="M112.83,-425.21C112.83,-425.21 22.17,-425.21 22.17,-425.21 19.08,-425.21 16,-422.13 16,-419.05 16,-419.05 16,-412.88 16,-412.88 16,-409.8 19.08,-406.71 22.17,-406.71 22.17,-406.71 112.83,-406.71 112.83,-406.71 115.92,-406.71 119,-409.8 119,-412.88 119,-412.88 119,-419.05 119,-419.05 119,-422.13 115.92,-425.21 112.83,-425.21"/>
<text text-anchor="start" x="24" y="-412.66" font-family="Helvetica,sans-Serif" font-size="9.00">apiCustomElement.ts</text>
</a>
</g>
</g>
<!-- src/apiCustomElement.ts&#45;&gt;@vue/runtime&#45;core -->
<g id="edge2" class="edge">
<title>src/apiCustomElement.ts&#45;&gt;@vue/runtime&#45;core</title>
<g id="a_edge2"><a xlink:title="not&#45;to&#45;unresolvable">
<path fill="none" stroke="red" stroke-width="2" d="M71.07,-406.22C82.35,-365.87 131.46,-213.96 231.5,-213.96 231.5,-213.96 231.5,-213.96 330.5,-213.96 403.14,-213.96 441.72,-175.02 493.5,-225.96 507.65,-239.89 489.58,-299.08 501.5,-314.96 501.89,-315.49 502.31,-316 502.74,-316.49"/>
<polygon fill="red" stroke="red" stroke-width="2" points="500.99,-317.76 506.92,-320.03 503.7,-314.55 500.99,-317.76"/>
</a>
</g>
<text text-anchor="middle" x="290.75" y="-205.41" font-family="Helvetica,sans-Serif" font-size="9.00" fill="red">not&#45;to&#45;unresolvable</text>
</g>
<!-- src/apiCustomElement.ts&#45;&gt;@vue/shared -->
<g id="edge3" class="edge">
<title>src/apiCustomElement.ts&#45;&gt;@vue/shared</title>
<g id="a_edge3"><a xlink:title="not&#45;to&#45;unresolvable">
<path fill="none" stroke="red" stroke-width="2" d="M70.12,-406.23C80.7,-344.15 142.45,-5.96 231.5,-5.96 231.5,-5.96 231.5,-5.96 330.5,-5.96 403.93,-5.96 441.14,18.52 493.5,-32.96 528.93,-67.8 539.15,-226.41 541.66,-281.25"/>
<polygon fill="red" stroke="red" stroke-width="2" points="539.56,-281.3 541.91,-287.2 543.75,-281.12 539.56,-281.3"/>
</a>
</g>
<text text-anchor="middle" x="47.52" y="-308.96" font-family="Helvetica,sans-Serif" font-size="9.00" fill="red">not&#45;to&#45;unresolvable</text>
</g>
<!-- src/index.ts -->
<g id="node4" class="node">
<title>src/index.ts</title>
<g id="a_node4"><a xlink:href="src/index.ts" xlink:title="index.ts">
<path fill="#ddfeff" stroke="black" d="M179.83,-486.21C179.83,-486.21 138.17,-486.21 138.17,-486.21 135.08,-486.21 132,-483.13 132,-480.05 132,-480.05 132,-473.88 132,-473.88 132,-470.8 135.08,-467.71 138.17,-467.71 138.17,-467.71 179.83,-467.71 179.83,-467.71 182.92,-467.71 186,-470.8 186,-473.88 186,-473.88 186,-480.05 186,-480.05 186,-483.13 182.92,-486.21 179.83,-486.21"/>
<text text-anchor="start" x="143.25" y="-473.66" font-family="Helvetica,sans-Serif" font-size="9.00">index.ts</text>
</a>
</g>
</g>
<!-- src/apiCustomElement.ts&#45;&gt;src/index.ts -->
<g id="edge1" class="edge">
<title>src/apiCustomElement.ts&#45;&gt;src/index.ts</title>
<g id="a_edge1"><a xlink:title="no&#45;circular">
<path fill="none" stroke="orange" stroke-width="2" d="M88.36,-425.69C101.69,-433.95 119.33,-445.89 133.52,-456.22"/>
<polygon fill="orange" stroke="orange" stroke-width="2" points="139.67,-463.51 145.72,-465.46 142.21,-460.16 139.67,-463.51"/>
<polyline fill="none" stroke="orange" stroke-width="2" points="140.14,-461.23 137.75,-459.42"/>
<ellipse fill="none" stroke="orange" stroke-width="2" cx="135.04" cy="-457.37" rx="2.4" ry="2.4"/>
</a>
</g>
<text text-anchor="middle" x="96.96" y="-437.17" font-family="Helvetica,sans-Serif" font-size="9.00" fill="orange">no&#45;circular</text>
</g>
<!-- src/index.ts&#45;&gt;@vue/runtime&#45;core -->
<g id="edge29" class="edge">
<title>src/index.ts&#45;&gt;@vue/runtime&#45;core</title>
<g id="a_edge29"><a xlink:title="not&#45;to&#45;unresolvable">
<path fill="none" stroke="red" stroke-width="2" d="M161.9,-467.47C166.09,-447.98 177.33,-402.47 197,-368.96 223.61,-323.64 229.95,-306.3 276,-280.96 360.99,-234.21 419.88,-199.81 493.5,-262.96 511.25,-278.19 486.88,-296.71 501.5,-314.96 501.76,-315.29 502.03,-315.61 502.31,-315.93"/>
<polygon fill="red" stroke="red" stroke-width="2" points="500.77,-317.38 506.71,-319.65 503.48,-314.17 500.77,-317.38"/>
</a>
</g>
<text text-anchor="middle" x="236.31" y="-272.38" font-family="Helvetica,sans-Serif" font-size="9.00" fill="red">not&#45;to&#45;unresolvable</text>
</g>
<!-- src/index.ts&#45;&gt;@vue/shared -->
<g id="edge30" class="edge">
<title>src/index.ts&#45;&gt;@vue/shared</title>
<g id="a_edge30"><a xlink:title="not&#45;to&#45;unresolvable">
<path fill="none" stroke="red" stroke-width="2" d="M161.38,-467.52C169.61,-412.47 214.02,-133.37 276,-77.96 312.33,-45.49 455.88,-18.99 493.5,-49.96 529.34,-79.48 539.27,-228.75 541.68,-281.48"/>
<polygon fill="red" stroke="red" stroke-width="2" points="539.58,-281.49 541.93,-287.39 543.77,-281.31 539.58,-281.49"/>
</a>
</g>
<text text-anchor="middle" x="143.01" y="-336.83" font-family="Helvetica,sans-Serif" font-size="9.00" fill="red">not&#45;to&#45;unresolvable</text>
</g>
<!-- src/index.ts&#45;&gt;src/apiCustomElement.ts -->
<g id="edge18" class="edge">
<title>src/index.ts&#45;&gt;src/apiCustomElement.ts</title>
<g id="a_edge18"><a xlink:title="no&#45;circular">
<path fill="none" stroke="orange" stroke-width="2" d="M138.27,-467.32C124.95,-459.08 107.29,-447.12 93.07,-436.77"/>
<polygon fill="orange" stroke="orange" stroke-width="2" points="86.88,-429.46 80.83,-427.51 84.35,-432.8 86.88,-429.46"/>
<polyline fill="none" stroke="orange" stroke-width="2" points="86.41,-431.73 88.8,-433.55"/>
<ellipse fill="none" stroke="orange" stroke-width="2" cx="91.52" cy="-435.6" rx="2.4" ry="2.4"/>
</a>
</g>
<text text-anchor="middle" x="86.15" y="-449.24" font-family="Helvetica,sans-Serif" font-size="9.00" fill="orange">no&#45;circular</text>
</g>
<!-- src/components/Transition.ts -->
<g id="node5" class="node">
<title>src/components/Transition.ts</title>
<g id="a_node5"><a xlink:href="src/components/Transition.ts" xlink:title="Transition.ts">
<path fill="#ddfeff" stroke="black" d="M460.83,-607.21C460.83,-607.21 407.67,-607.21 407.67,-607.21 404.58,-607.21 401.5,-604.13 401.5,-601.05 401.5,-601.05 401.5,-594.88 401.5,-594.88 401.5,-591.8 404.58,-588.71 407.67,-588.71 407.67,-588.71 460.83,-588.71 460.83,-588.71 463.92,-588.71 467,-591.8 467,-594.88 467,-594.88 467,-601.05 467,-601.05 467,-604.13 463.92,-607.21 460.83,-607.21"/>
<text text-anchor="start" x="409.5" y="-594.66" font-family="Helvetica,sans-Serif" font-size="9.00">Transition.ts</text>
</a>
</g>
</g>
<!-- src/index.ts&#45;&gt;src/components/Transition.ts -->
<g id="edge19" class="edge">
<title>src/index.ts&#45;&gt;src/components/Transition.ts</title>
<path fill="none" stroke="#000000" stroke-width="2" stroke-opacity="0.200000" d="M160.92,-486.49C164,-516.15 175.02,-605.86 197,-622.96 213.3,-635.65 358.18,-615.9 375,-612.96 375.62,-612.86 383.96,-610.72 394.15,-608.09"/>
<polygon fill="#000000" fill-opacity="0.200000" stroke="#000000" stroke-width="2" stroke-opacity="0.200000" points="400.6,-608.6 394.27,-608.06 399.55,-604.53 400.6,-608.6"/>
</g>
<!-- src/components/TransitionGroup.ts -->
<g id="node6" class="node">
<title>src/components/TransitionGroup.ts</title>
<g id="a_node6"><a xlink:href="src/components/TransitionGroup.ts" xlink:title="TransitionGroup.ts">
<path fill="#ddfeff" stroke="black" d="M368.83,-607.21C368.83,-607.21 290.17,-607.21 290.17,-607.21 287.08,-607.21 284,-604.13 284,-601.05 284,-601.05 284,-594.88 284,-594.88 284,-591.8 287.08,-588.71 290.17,-588.71 290.17,-588.71 368.83,-588.71 368.83,-588.71 371.92,-588.71 375,-591.8 375,-594.88 375,-594.88 375,-601.05 375,-601.05 375,-604.13 371.92,-607.21 368.83,-607.21"/>
<text text-anchor="start" x="292" y="-594.66" font-family="Helvetica,sans-Serif" font-size="9.00">TransitionGroup.ts</text>
</a>
</g>
</g>
<!-- src/index.ts&#45;&gt;src/components/TransitionGroup.ts -->
<g id="edge20" class="edge">
<title>src/index.ts&#45;&gt;src/components/TransitionGroup.ts</title>
<path fill="none" stroke="#000000" stroke-width="2" stroke-opacity="0.200000" d="M160.55,-486.65C162.23,-506.74 169.11,-552.97 197,-575.96 203.32,-581.17 242.86,-587.35 276.95,-591.83"/>
<polygon fill="#000000" fill-opacity="0.200000" stroke="#000000" stroke-width="2" stroke-opacity="0.200000" points="282.42,-594.66 276.74,-591.8 282.96,-590.49 282.42,-594.66"/>
</g>
<!-- src/directives/vModel.ts -->
<g id="node7" class="node">
<title>src/directives/vModel.ts</title>
<g id="a_node7"><a xlink:href="src/directives/vModel.ts" xlink:title="vModel.ts">
<path fill="#ddfeff" stroke="black" d="M253.83,-429.21C253.83,-429.21 211.17,-429.21 211.17,-429.21 208.08,-429.21 205,-426.13 205,-423.05 205,-423.05 205,-416.88 205,-416.88 205,-413.8 208.08,-410.71 211.17,-410.71 211.17,-410.71 253.83,-410.71 253.83,-410.71 256.92,-410.71 260,-413.8 260,-416.88 260,-416.88 260,-423.05 260,-423.05 260,-426.13 256.92,-429.21 253.83,-429.21"/>
<text text-anchor="start" x="213" y="-416.66" font-family="Helvetica,sans-Serif" font-size="9.00">vModel.ts</text>
</a>
</g>
</g>
<!-- src/index.ts&#45;&gt;src/directives/vModel.ts -->
<g id="edge21" class="edge">
<title>src/index.ts&#45;&gt;src/directives/vModel.ts</title>
<path fill="none" stroke="#000000" stroke-width="2" stroke-opacity="0.200000" d="M166.76,-467.49C173.57,-458.47 184.81,-444.96 197,-435.96 198.39,-434.93 199.87,-433.95 201.38,-433.01"/>
<polygon fill="#000000" fill-opacity="0.200000" stroke="#000000" stroke-width="2" stroke-opacity="0.200000" points="207.57,-431.92 201.31,-433.05 205.5,-428.27 207.57,-431.92"/>
</g>
<!-- src/directives/vOn.ts -->
<g id="node9" class="node">
<title>src/directives/vOn.ts</title>
<g id="a_node9"><a xlink:href="src/directives/vOn.ts" xlink:title="vOn.ts">
<path fill="#ddfeff" stroke="black" d="M253.33,-398.21C253.33,-398.21 211.67,-398.21 211.67,-398.21 208.58,-398.21 205.5,-395.13 205.5,-392.05 205.5,-392.05 205.5,-385.88 205.5,-385.88 205.5,-382.8 208.58,-379.71 211.67,-379.71 211.67,-379.71 253.33,-379.71 253.33,-379.71 256.42,-379.71 259.5,-382.8 259.5,-385.88 259.5,-385.88 259.5,-392.05 259.5,-392.05 259.5,-395.13 256.42,-398.21 253.33,-398.21"/>
<text text-anchor="start" x="219.75" y="-385.66" font-family="Helvetica,sans-Serif" font-size="9.00">vOn.ts</text>
</a>
</g>
</g>
<!-- src/index.ts&#45;&gt;src/directives/vOn.ts -->
<g id="edge22" class="edge">
<title>src/index.ts&#45;&gt;src/directives/vOn.ts</title>
<path fill="none" stroke="#000000" stroke-width="2" stroke-opacity="0.200000" d="M162.71,-467.33C167.39,-452.23 178.35,-422.88 197,-404.96 197.96,-404.04 198.99,-403.16 200.07,-402.32"/>
<polygon fill="#000000" fill-opacity="0.200000" stroke="#000000" stroke-width="2" stroke-opacity="0.200000" points="206.1,-400.82 199.94,-402.41 203.76,-397.33 206.1,-400.82"/>
</g>
<!-- src/directives/vShow.ts -->
<g id="node10" class="node">
<title>src/directives/vShow.ts</title>
<g id="a_node10"><a xlink:href="src/directives/vShow.ts" xlink:title="vShow.ts">
<path fill="#ddfeff" stroke="black" d="M253.33,-460.21C253.33,-460.21 211.67,-460.21 211.67,-460.21 208.58,-460.21 205.5,-457.13 205.5,-454.05 205.5,-454.05 205.5,-447.88 205.5,-447.88 205.5,-444.8 208.58,-441.71 211.67,-441.71 211.67,-441.71 253.33,-441.71 253.33,-441.71 256.42,-441.71 259.5,-444.8 259.5,-447.88 259.5,-447.88 259.5,-454.05 259.5,-454.05 259.5,-457.13 256.42,-460.21 253.33,-460.21"/>
<text text-anchor="start" x="214.5" y="-447.66" font-family="Helvetica,sans-Serif" font-size="9.00">vShow.ts</text>
</a>
</g>
</g>
<!-- src/index.ts&#45;&gt;src/directives/vShow.ts -->
<g id="edge23" class="edge">
<title>src/index.ts&#45;&gt;src/directives/vShow.ts</title>
<path fill="none" stroke="#000000" stroke-width="2" stroke-opacity="0.200000" d="M186.22,-467.43C190.3,-465.95 194.56,-464.4 198.76,-462.87"/>
<polygon fill="#000000" fill-opacity="0.200000" stroke="#000000" stroke-width="2" stroke-opacity="0.200000" points="205.06,-462.81 198.71,-462.89 203.63,-458.86 205.06,-462.81"/>
</g>
<!-- src/helpers/useCssModule.ts -->
<g id="node11" class="node">
<title>src/helpers/useCssModule.ts</title>
<g id="a_node11"><a xlink:href="src/helpers/useCssModule.ts" xlink:title="useCssModule.ts">
<path fill="#ddfeff" stroke="black" d="M471.33,-546.21C471.33,-546.21 397.17,-546.21 397.17,-546.21 394.08,-546.21 391,-543.13 391,-540.05 391,-540.05 391,-533.88 391,-533.88 391,-530.8 394.08,-527.71 397.17,-527.71 397.17,-527.71 471.33,-527.71 471.33,-527.71 474.42,-527.71 477.5,-530.8 477.5,-533.88 477.5,-533.88 477.5,-540.05 477.5,-540.05 477.5,-543.13 474.42,-546.21 471.33,-546.21"/>
<text text-anchor="start" x="399" y="-533.66" font-family="Helvetica,sans-Serif" font-size="9.00">useCssModule.ts</text>
</a>
</g>
</g>
<!-- src/index.ts&#45;&gt;src/helpers/useCssModule.ts -->
<g id="edge24" class="edge">
<title>src/index.ts&#45;&gt;src/helpers/useCssModule.ts</title>
<path fill="none" stroke="#000000" stroke-width="2" stroke-opacity="0.200000" d="M163.15,-486.44C168.16,-500.06 179.23,-525.06 197,-538.96 225.9,-561.57 239.7,-557.57 276,-562.96 319.52,-569.43 331.97,-572.13 375,-562.96 387.2,-560.36 399.94,-555.02 410.38,-549.85"/>
<polygon fill="#000000" fill-opacity="0.200000" stroke="#000000" stroke-width="2" stroke-opacity="0.200000" points="416.63,-549 410.33,-549.87 414.71,-545.27 416.63,-549"/>
</g>
<!-- src/helpers/useCssVars.ts -->
<g id="node12" class="node">
<title>src/helpers/useCssVars.ts</title>
<g id="a_node12"><a xlink:href="src/helpers/useCssVars.ts" xlink:title="useCssVars.ts">
<path fill="#ddfeff" stroke="black" d="M464.96,-515.21C464.96,-515.21 403.54,-515.21 403.54,-515.21 400.46,-515.21 397.38,-512.13 397.38,-509.05 397.38,-509.05 397.38,-502.88 397.38,-502.88 397.38,-499.8 400.46,-496.71 403.54,-496.71 403.54,-496.71 464.96,-496.71 464.96,-496.71 468.04,-496.71 471.12,-499.8 471.12,-502.88 471.12,-502.88 471.12,-509.05 471.12,-509.05 471.12,-512.13 468.04,-515.21 464.96,-515.21"/>
<text text-anchor="start" x="405.38" y="-502.66" font-family="Helvetica,sans-Serif" font-size="9.00">useCssVars.ts</text>
</a>
</g>
</g>
<!-- src/index.ts&#45;&gt;src/helpers/useCssVars.ts -->
<g id="edge25" class="edge">
<title>src/index.ts&#45;&gt;src/helpers/useCssVars.ts</title>
<path fill="none" stroke="#000000" stroke-width="2" stroke-opacity="0.200000" d="M166.38,-486.43C173.07,-495.76 184.37,-509.9 197,-518.96 227.92,-541.14 238.69,-544.48 276,-551.96 319.14,-560.61 340.11,-578.77 375,-551.96 385.94,-543.56 373.48,-531.95 383,-521.96 385.29,-519.56 387.93,-517.52 390.79,-515.79"/>
<polygon fill="#000000" fill-opacity="0.200000" stroke="#000000" stroke-width="2" stroke-opacity="0.200000" points="396.98,-514.96 390.69,-515.84 395.06,-511.23 396.98,-514.96"/>
</g>
<!-- src/jsx.ts -->
<g id="node13" class="node">
<title>src/jsx.ts</title>
<g id="a_node13"><a xlink:href="src/jsx.ts" xlink:title="jsx.ts">
<path fill="#ddfeff" stroke="black" d="M253.33,-617.21C253.33,-617.21 211.67,-617.21 211.67,-617.21 208.58,-617.21 205.5,-614.13 205.5,-611.05 205.5,-611.05 205.5,-604.88 205.5,-604.88 205.5,-601.8 208.58,-598.71 211.67,-598.71 211.67,-598.71 253.33,-598.71 253.33,-598.71 256.42,-598.71 259.5,-601.8 259.5,-604.88 259.5,-604.88 259.5,-611.05 259.5,-611.05 259.5,-614.13 256.42,-617.21 253.33,-617.21"/>
<text text-anchor="start" x="222.38" y="-604.66" font-family="Helvetica,sans-Serif" font-size="9.00">jsx.ts</text>
</a>
</g>
</g>
<!-- src/index.ts&#45;&gt;src/jsx.ts -->
<g id="edge26" class="edge">
<title>src/index.ts&#45;&gt;src/jsx.ts</title>
<path fill="none" stroke="#000000" stroke-width="2" stroke-opacity="0.200000" d="M160.74,-486.61C162.81,-507.73 170.44,-558.63 197,-589.96 198.31,-591.51 199.79,-592.94 201.37,-594.26"/>
<polygon fill="#000000" fill-opacity="0.200000" stroke="#000000" stroke-width="2" stroke-opacity="0.200000" points="205.08,-599.47 201.4,-594.28 207.51,-596.05 205.08,-599.47"/>
</g>
<!-- src/nodeOps.ts -->
<g id="node14" class="node">
<title>src/nodeOps.ts</title>
<g id="a_node14"><a xlink:href="src/nodeOps.ts" xlink:title="nodeOps.ts">
<path fill="#ddfeff" stroke="black" d="M459.33,-660.21C459.33,-660.21 409.17,-660.21 409.17,-660.21 406.08,-660.21 403,-657.13 403,-654.05 403,-654.05 403,-647.88 403,-647.88 403,-644.8 406.08,-641.71 409.17,-641.71 409.17,-641.71 459.33,-641.71 459.33,-641.71 462.42,-641.71 465.5,-644.8 465.5,-647.88 465.5,-647.88 465.5,-654.05 465.5,-654.05 465.5,-657.13 462.42,-660.21 459.33,-660.21"/>
<text text-anchor="start" x="411" y="-647.66" font-family="Helvetica,sans-Serif" font-size="9.00">nodeOps.ts</text>
</a>
</g>
</g>
<!-- src/index.ts&#45;&gt;src/nodeOps.ts -->
<g id="edge27" class="edge">
<title>src/index.ts&#45;&gt;src/nodeOps.ts</title>
<path fill="none" stroke="#000000" stroke-width="2" stroke-opacity="0.200000" d="M160.89,-486.35C163.95,-516.49 175.08,-609.88 197,-628.96 251.62,-676.53 342.66,-669.13 394.32,-659.84"/>
<polygon fill="#000000" fill-opacity="0.200000" stroke="#000000" stroke-width="2" stroke-opacity="0.200000" points="394.4,-661.96 399.9,-658.78 393.62,-657.83 394.4,-661.96"/>
</g>
<!-- src/patchProp.ts -->
<g id="node15" class="node">
<title>src/patchProp.ts</title>
<g id="a_node15"><a xlink:href="src/patchProp.ts" xlink:title="patchProp.ts">
<path fill="#ddfeff" stroke="black" d="M259.83,-513.21C259.83,-513.21 205.17,-513.21 205.17,-513.21 202.08,-513.21 199,-510.13 199,-507.05 199,-507.05 199,-500.88 199,-500.88 199,-497.8 202.08,-494.71 205.17,-494.71 205.17,-494.71 259.83,-494.71 259.83,-494.71 262.92,-494.71 266,-497.8 266,-500.88 266,-500.88 266,-507.05 266,-507.05 266,-510.13 262.92,-513.21 259.83,-513.21"/>
<text text-anchor="start" x="207" y="-500.66" font-family="Helvetica,sans-Serif" font-size="9.00">patchProp.ts</text>
</a>
</g>
</g>
<!-- src/index.ts&#45;&gt;src/patchProp.ts -->
<g id="edge28" class="edge">
<title>src/index.ts&#45;&gt;src/patchProp.ts</title>
<path fill="none" stroke="#000000" stroke-width="2" stroke-opacity="0.200000" d="M185.81,-486.71C189.71,-488.18 193.77,-489.72 197.81,-491.24"/>
<polygon fill="#000000" fill-opacity="0.200000" stroke="#000000" stroke-width="2" stroke-opacity="0.200000" points="196.78,-493.1 203.13,-493.25 198.26,-489.17 196.78,-493.1"/>
</g>
<!-- src/components/Transition.ts&#45;&gt;@vue/runtime&#45;core -->
<g id="edge4" class="edge">
<title>src/components/Transition.ts&#45;&gt;@vue/runtime&#45;core</title>
<g id="a_edge4"><a xlink:title="not&#45;to&#45;unresolvable">
<path fill="none" stroke="red" stroke-width="2" d="M467.2,-592.2C476.92,-588.95 486.79,-583.88 493.5,-575.96 522.76,-541.46 536.78,-400.52 540.98,-349.51"/>
<polygon fill="red" stroke="red" stroke-width="2" points="543.07,-349.73 541.45,-343.58 538.88,-349.39 543.07,-349.73"/>
</a>
</g>
<text text-anchor="middle" x="486.71" y="-461.45" font-family="Helvetica,sans-Serif" font-size="9.00" fill="red">not&#45;to&#45;unresolvable</text>
</g>
<!-- src/components/Transition.ts&#45;&gt;@vue/shared -->
<g id="edge5" class="edge">
<title>src/components/Transition.ts&#45;&gt;@vue/shared</title>
<g id="a_edge5"><a xlink:title="not&#45;to&#45;unresolvable">
<path fill="none" stroke="red" stroke-width="2" d="M467.39,-593.02C477.36,-589.83 487.34,-584.58 493.5,-575.96 510.3,-552.44 484.84,-339.58 501.5,-315.96 503.37,-313.32 505.74,-311.11 508.4,-309.26"/>
<polygon fill="red" stroke="red" stroke-width="2" points="509.01,-311.32 513.3,-306.62 507.02,-307.62 509.01,-311.32"/>
</a>
</g>
<text text-anchor="middle" x="457.92" y="-440.57" font-family="Helvetica,sans-Serif" font-size="9.00" fill="red">not&#45;to&#45;unresolvable</text>
</g>
<!-- src/components/TransitionGroup.ts&#45;&gt;@vue/runtime&#45;core -->
<g id="edge7" class="edge">
<title>src/components/TransitionGroup.ts&#45;&gt;@vue/runtime&#45;core</title>
<g id="a_edge7"><a xlink:title="not&#45;to&#45;unresolvable">
<path fill="none" stroke="red" stroke-width="2" d="M343.8,-588.24C354.16,-579.86 367.93,-566.81 375,-551.96 387.71,-525.29 364.79,-509.23 383,-485.96 415.38,-444.59 455.52,-480.27 493.5,-443.96 520.78,-417.89 533.68,-374.03 539.06,-349.32"/>
<polygon fill="red" stroke="red" stroke-width="2" points="541.09,-349.84 540.22,-343.55 536.98,-349.01 541.09,-349.84"/>
</a>
</g>
<text text-anchor="middle" x="402.6" y="-454.25" font-family="Helvetica,sans-Serif" font-size="9.00" fill="red">not&#45;to&#45;unresolvable</text>
</g>
<!-- src/components/TransitionGroup.ts&#45;&gt;@vue/shared -->
<g id="edge8" class="edge">
<title>src/components/TransitionGroup.ts&#45;&gt;@vue/shared</title>
<g id="a_edge8"><a xlink:title="not&#45;to&#45;unresolvable">
<path fill="none" stroke="red" stroke-width="2" d="M343.99,-588.33C354.46,-580.01 368.29,-566.98 375,-551.96 385.09,-529.39 369.01,-461.35 383,-440.96 413.71,-396.21 461.96,-433.14 493.5,-388.96 512.47,-362.4 481.66,-341.88 501.5,-315.96 503.47,-313.39 505.91,-311.23 508.61,-309.42"/>
<polygon fill="red" stroke="red" stroke-width="2" points="509.24,-311.47 513.56,-306.8 507.27,-307.75 509.24,-311.47"/>
</a>
</g>
<text text-anchor="middle" x="465.65" y="-407.52" font-family="Helvetica,sans-Serif" font-size="9.00" fill="red">not&#45;to&#45;unresolvable</text>
</g>
<!-- src/components/TransitionGroup.ts&#45;&gt;src/components/Transition.ts -->
<g id="edge6" class="edge">
<title>src/components/TransitionGroup.ts&#45;&gt;src/components/Transition.ts</title>
<path fill="none" stroke="#000000" stroke-width="2" stroke-opacity="0.200000" d="M375.27,-597.96C381.02,-597.96 386.88,-597.96 392.56,-597.96"/>
<polygon fill="#000000" fill-opacity="0.200000" stroke="#000000" stroke-width="2" stroke-opacity="0.200000" points="392.26,-600.06 398.26,-597.96 392.26,-595.86 392.26,-600.06"/>
</g>
<!-- src/directives/vModel.ts&#45;&gt;@vue/runtime&#45;core -->
<g id="edge10" class="edge">
<title>src/directives/vModel.ts&#45;&gt;@vue/runtime&#45;core</title>
<g id="a_edge10"><a xlink:title="not&#45;to&#45;unresolvable">
<path fill="none" stroke="red" stroke-width="2" d="M260.19,-410.76C263.13,-408.88 265.84,-406.63 268,-403.96 278.04,-391.56 266.3,-381.64 276,-368.96 308.74,-326.17 330.72,-325.02 383,-311.96 430.65,-300.06 445.23,-302.91 493.5,-311.96 494.03,-312.06 500.86,-314.69 509.25,-317.96"/>
<polygon fill="red" stroke="red" stroke-width="2" points="508.46,-319.9 514.81,-320.13 509.98,-315.99 508.46,-319.9"/>
</a>
</g>
<text text-anchor="middle" x="422.77" y="-303.41" font-family="Helvetica,sans-Serif" font-size="9.00" fill="red">not&#45;to&#45;unresolvable</text>
</g>
<!-- src/directives/vModel.ts&#45;&gt;@vue/shared -->
<g id="edge11" class="edge">
<title>src/directives/vModel.ts&#45;&gt;@vue/shared</title>
<g id="a_edge11"><a xlink:title="not&#45;to&#45;unresolvable">
<path fill="none" stroke="red" stroke-width="2" d="M260.23,-411.26C263.24,-409.29 265.96,-406.89 268,-403.96 280.26,-386.42 269.12,-328.23 276,-307.96 302.15,-230.91 346.4,-230.14 375,-153.96 379.26,-142.61 373.82,-107.89 383,-99.96 420.18,-67.88 454.87,-69.64 493.5,-99.96 522.25,-122.53 536.25,-236.66 540.73,-281.67"/>
<polygon fill="red" stroke="red" stroke-width="2" points="538.61,-281.62 541.27,-287.39 542.79,-281.22 538.61,-281.62"/>
</a>
</g>
<text text-anchor="middle" x="234.2" y="-345.27" font-family="Helvetica,sans-Serif" font-size="9.00" fill="red">not&#45;to&#45;unresolvable</text>
</g>
<!-- src/modules/events.ts -->
<g id="node8" class="node">
<title>src/modules/events.ts</title>
<g id="a_node8"><a xlink:href="src/modules/events.ts" xlink:title="events.ts">
<path fill="#ddfeff" stroke="black" d="M350.33,-398.21C350.33,-398.21 308.67,-398.21 308.67,-398.21 305.58,-398.21 302.5,-395.13 302.5,-392.05 302.5,-392.05 302.5,-385.88 302.5,-385.88 302.5,-382.8 305.58,-379.71 308.67,-379.71 308.67,-379.71 350.33,-379.71 350.33,-379.71 353.42,-379.71 356.5,-382.8 356.5,-385.88 356.5,-385.88 356.5,-392.05 356.5,-392.05 356.5,-395.13 353.42,-398.21 350.33,-398.21"/>
<text text-anchor="start" x="311.5" y="-385.66" font-family="Helvetica,sans-Serif" font-size="9.00">events.ts</text>
</a>
</g>
</g>
<!-- src/directives/vModel.ts&#45;&gt;src/modules/events.ts -->
<g id="edge9" class="edge">
<title>src/directives/vModel.ts&#45;&gt;src/modules/events.ts</title>
<path fill="none" stroke="#000000" stroke-width="2" stroke-opacity="0.200000" d="M260.42,-410.26C265.58,-408.46 270.95,-406.62 276,-404.96 281.72,-403.08 287.81,-401.16 293.74,-399.32"/>
<polygon fill="#000000" fill-opacity="0.200000" stroke="#000000" stroke-width="2" stroke-opacity="0.200000" points="294.24,-401.37 299.36,-397.6 293.01,-397.35 294.24,-401.37"/>
</g>
<!-- src/modules/events.ts&#45;&gt;@vue/runtime&#45;core -->
<g id="edge34" class="edge">
<title>src/modules/events.ts&#45;&gt;@vue/runtime&#45;core</title>
<g id="a_edge34"><a xlink:title="not&#45;to&#45;unresolvable">
<path fill="none" stroke="red" stroke-width="2" d="M346.66,-379.31C355.99,-373.06 367.34,-364.19 375,-353.96 380.74,-346.3 375.12,-339.41 383,-333.96 417.21,-310.33 466.17,-313.4 500.78,-319.98"/>
<polygon fill="red" stroke="red" stroke-width="2" points="499.99,-321.96 506.29,-321.11 500.83,-317.85 499.99,-321.96"/>
</a>
</g>
<text text-anchor="middle" x="461.12" y="-320.26" font-family="Helvetica,sans-Serif" font-size="9.00" fill="red">not&#45;to&#45;unresolvable</text>
</g>
<!-- src/modules/events.ts&#45;&gt;@vue/shared -->
<g id="edge35" class="edge">
<title>src/modules/events.ts&#45;&gt;@vue/shared</title>
<g id="a_edge35"><a xlink:title="not&#45;to&#45;unresolvable">
<path fill="none" stroke="red" stroke-width="2" d="M340.46,-379.26C351.22,-368.05 367.79,-348.49 375,-327.96 381.49,-309.49 368.85,-165.49 383,-151.96 418.51,-118.03 453.7,-123.19 493.5,-151.96 535.23,-182.13 541.93,-249.24 542.62,-281.69"/>
<polygon fill="red" stroke="red" stroke-width="2" points="540.52,-281.56 542.65,-287.54 544.72,-281.53 540.52,-281.56"/>
</a>
</g>
<text text-anchor="middle" x="336.1" y="-315.66" font-family="Helvetica,sans-Serif" font-size="9.00" fill="red">not&#45;to&#45;unresolvable</text>
</g>
<!-- src/directives/vOn.ts&#45;&gt;@vue/runtime&#45;core -->
<g id="edge12" class="edge">
<title>src/directives/vOn.ts&#45;&gt;@vue/runtime&#45;core</title>
<g id="a_edge12"><a xlink:title="not&#45;to&#45;unresolvable">
<path fill="none" stroke="red" stroke-width="2" d="M239.02,-379.31C246.25,-367.38 259.9,-347.06 276,-333.96 317.03,-300.61 331.47,-293.82 383,-281.96 430.86,-270.95 454.9,-251.6 493.5,-281.96 505.36,-291.29 491.57,-303.6 501.5,-314.96 501.78,-315.28 502.06,-315.59 502.35,-315.89"/>
<polygon fill="red" stroke="red" stroke-width="2" points="500.89,-317.41 506.88,-319.52 503.51,-314.13 500.89,-317.41"/>
</a>
</g>
<text text-anchor="middle" x="343.26" y="-273.41" font-family="Helvetica,sans-Serif" font-size="9.00" fill="red">not&#45;to&#45;unresolvable</text>
</g>
<!-- src/directives/vOn.ts&#45;&gt;@vue/shared -->
<g id="edge13" class="edge">
<title>src/directives/vOn.ts&#45;&gt;@vue/shared</title>
<g id="a_edge13"><a xlink:title="not&#45;to&#45;unresolvable">
<path fill="none" stroke="red" stroke-width="2" d="M234.43,-379.34C239.34,-334.45 266.66,-144.79 383,-73.96 424.95,-48.43 455.28,-43.12 493.5,-73.96 525.87,-100.08 537.86,-232 541.25,-281.32"/>
<polygon fill="red" stroke="red" stroke-width="2" points="539.15,-281.41 541.64,-287.26 543.35,-281.13 539.15,-281.41"/>
</a>
</g>
<text text-anchor="middle" x="208.03" y="-293.69" font-family="Helvetica,sans-Serif" font-size="9.00" fill="red">not&#45;to&#45;unresolvable</text>
</g>
<!-- src/helpers/useCssModule.ts&#45;&gt;@vue/runtime&#45;core -->
<g id="edge14" class="edge">
<title>src/helpers/useCssModule.ts&#45;&gt;@vue/runtime&#45;core</title>
<g id="a_edge14"><a xlink:title="not&#45;to&#45;unresolvable">
<path fill="none" stroke="red" stroke-width="2" d="M477.93,-530.96C483.73,-528.6 489.16,-525.37 493.5,-520.96 517.66,-496.41 534.15,-392.07 540.01,-349.33"/>
<polygon fill="red" stroke="red" stroke-width="2" points="542.07,-349.76 540.78,-343.53 537.91,-349.2 542.07,-349.76"/>
</a>
</g>
<text text-anchor="middle" x="563.35" y="-433.47" font-family="Helvetica,sans-Serif" font-size="9.00" fill="red">not&#45;to&#45;unresolvable</text>
</g>
<!-- src/helpers/useCssModule.ts&#45;&gt;@vue/shared -->
<g id="edge15" class="edge">
<title>src/helpers/useCssModule.ts&#45;&gt;@vue/shared</title>
<g id="a_edge15"><a xlink:title="not&#45;to&#45;unresolvable">
<path fill="none" stroke="red" stroke-width="2" d="M477.94,-532.1C483.96,-529.62 489.46,-526.06 493.5,-520.96 507.67,-503.11 488.29,-334.54 501.5,-315.96 503.38,-313.32 505.76,-311.12 508.42,-309.28"/>
<polygon fill="red" stroke="red" stroke-width="2" points="509.04,-311.33 513.33,-306.64 507.05,-307.64 509.04,-311.33"/>
</a>
</g>
<text text-anchor="middle" x="458.12" y="-420.96" font-family="Helvetica,sans-Serif" font-size="9.00" fill="red">not&#45;to&#45;unresolvable</text>
</g>
<!-- src/helpers/useCssVars.ts&#45;&gt;@vue/runtime&#45;core -->
<g id="edge16" class="edge">
<title>src/helpers/useCssVars.ts&#45;&gt;@vue/runtime&#45;core</title>
<g id="a_edge16"><a xlink:title="not&#45;to&#45;unresolvable">
<path fill="none" stroke="red" stroke-width="2" d="M471.55,-497.96C479.62,-494.74 487.55,-490.24 493.5,-483.96 529.69,-445.84 539.08,-380.91 541.52,-349.31"/>
<polygon fill="red" stroke="red" stroke-width="2" points="543.6,-349.79 541.88,-343.67 539.4,-349.52 543.6,-349.79"/>
</a>
</g>
<text text-anchor="middle" x="566.13" y="-417.66" font-family="Helvetica,sans-Serif" font-size="9.00" fill="red">not&#45;to&#45;unresolvable</text>
</g>
<!-- src/helpers/useCssVars.ts&#45;&gt;@vue/shared -->
<g id="edge17" class="edge">
<title>src/helpers/useCssVars.ts&#45;&gt;@vue/shared</title>
<g id="a_edge17"><a xlink:title="not&#45;to&#45;unresolvable">
<path fill="none" stroke="red" stroke-width="2" d="M446.2,-496.22C460.04,-483.16 483.27,-458.51 493.5,-431.96 502.79,-407.85 486.21,-336.79 501.5,-315.96 503.42,-313.35 505.82,-311.17 508.5,-309.34"/>
<polygon fill="red" stroke="red" stroke-width="2" points="509.12,-311.39 513.43,-306.71 507.14,-307.69 509.12,-311.39"/>
</a>
</g>
<text text-anchor="middle" x="536.18" y="-391.56" font-family="Helvetica,sans-Serif" font-size="9.00" fill="red">not&#45;to&#45;unresolvable</text>
</g>
<!-- src/nodeOps.ts&#45;&gt;@vue/runtime&#45;core -->
<g id="edge43" class="edge">
<title>src/nodeOps.ts&#45;&gt;@vue/runtime&#45;core</title>
<g id="a_edge43"><a xlink:title="not&#45;to&#45;unresolvable">
<path fill="none" stroke="red" stroke-width="2" d="M465.91,-650.21C476,-648.4 486.44,-644.6 493.5,-636.96 532.7,-594.6 540.52,-408.31 542.03,-349.1"/>
<polygon fill="red" stroke="red" stroke-width="2" points="544.12,-349.51 542.16,-343.46 539.92,-349.41 544.12,-349.51"/>
</a>
</g>
<text text-anchor="middle" x="571.63" y="-490.97" font-family="Helvetica,sans-Serif" font-size="9.00" fill="red">not&#45;to&#45;unresolvable</text>
</g>
<!-- src/patchProp.ts&#45;&gt;@vue/shared -->
<g id="edge49" class="edge">
<title>src/patchProp.ts&#45;&gt;@vue/shared</title>
<g id="a_edge49"><a xlink:title="not&#45;to&#45;unresolvable">
<path fill="none" stroke="red" stroke-width="2" d="M263.74,-494.42C265.34,-493.12 266.79,-491.64 268,-489.96 283.78,-468.12 266.45,-394.16 276,-368.96 301.48,-301.71 349.42,-308.18 375,-240.96 379.59,-228.89 373.56,-133.78 383,-124.96 418.9,-91.45 454.38,-95.27 493.5,-124.96 518.69,-144.08 534.4,-240.57 540.03,-281.53"/>
<polygon fill="red" stroke="red" stroke-width="2" points="537.94,-281.79 540.82,-287.46 542.11,-281.23 537.94,-281.79"/>
</a>
</g>
<text text-anchor="middle" x="285.69" y="-296.42" font-family="Helvetica,sans-Serif" font-size="9.00" fill="red">not&#45;to&#45;unresolvable</text>
</g>
<!-- src/patchProp.ts&#45;&gt;src/modules/events.ts -->
<g id="edge46" class="edge">
<title>src/patchProp.ts&#45;&gt;src/modules/events.ts</title>
<path fill="none" stroke="#000000" stroke-width="2" stroke-opacity="0.200000" d="M263.68,-494.38C265.3,-493.09 266.77,-491.62 268,-489.96 279.32,-474.74 264.01,-419.66 276,-404.96 280.49,-399.46 286.82,-395.81 293.53,-393.39"/>
<polygon fill="#000000" fill-opacity="0.200000" stroke="#000000" stroke-width="2" stroke-opacity="0.200000" points="294.02,-395.43 299.21,-391.77 292.87,-391.39 294.02,-395.43"/>
</g>
<!-- src/modules/attrs.ts -->
<g id="node16" class="node">
<title>src/modules/attrs.ts</title>
<g id="a_node16"><a xlink:href="src/modules/attrs.ts" xlink:title="attrs.ts">
<path fill="#ddfeff" stroke="black" d="M350.33,-460.21C350.33,-460.21 308.67,-460.21 308.67,-460.21 305.58,-460.21 302.5,-457.13 302.5,-454.05 302.5,-454.05 302.5,-447.88 302.5,-447.88 302.5,-444.8 305.58,-441.71 308.67,-441.71 308.67,-441.71 350.33,-441.71 350.33,-441.71 353.42,-441.71 356.5,-444.8 356.5,-447.88 356.5,-447.88 356.5,-454.05 356.5,-454.05 356.5,-457.13 353.42,-460.21 350.33,-460.21"/>
<text text-anchor="start" x="316.38" y="-447.66" font-family="Helvetica,sans-Serif" font-size="9.00">attrs.ts</text>
</a>
</g>
</g>
<!-- src/patchProp.ts&#45;&gt;src/modules/attrs.ts -->
<g id="edge44" class="edge">
<title>src/patchProp.ts&#45;&gt;src/modules/attrs.ts</title>
<path fill="none" stroke="#000000" stroke-width="2" stroke-opacity="0.200000" d="M262.92,-494.23C264.77,-492.97 266.49,-491.56 268,-489.96 275.46,-482.12 268.2,-474.47 276,-466.96 280.97,-462.18 287.33,-458.82 293.9,-456.47"/>
<polygon fill="#000000" fill-opacity="0.200000" stroke="#000000" stroke-width="2" stroke-opacity="0.200000" points="294.18,-458.57 299.34,-454.85 292.99,-454.55 294.18,-458.57"/>
</g>
<!-- src/modules/class.ts -->
<g id="node17" class="node">
<title>src/modules/class.ts</title>
<g id="a_node17"><a xlink:href="src/modules/class.ts" xlink:title="class.ts">
<path fill="#ddfeff" stroke="black" d="M350.33,-522.21C350.33,-522.21 308.67,-522.21 308.67,-522.21 305.58,-522.21 302.5,-519.13 302.5,-516.05 302.5,-516.05 302.5,-509.88 302.5,-509.88 302.5,-506.8 305.58,-503.71 308.67,-503.71 308.67,-503.71 350.33,-503.71 350.33,-503.71 353.42,-503.71 356.5,-506.8 356.5,-509.88 356.5,-509.88 356.5,-516.05 356.5,-516.05 356.5,-519.13 353.42,-522.21 350.33,-522.21"/>
<text text-anchor="start" x="314.5" y="-509.66" font-family="Helvetica,sans-Serif" font-size="9.00">class.ts</text>
</a>
</g>
</g>
<!-- src/patchProp.ts&#45;&gt;src/modules/class.ts -->
<g id="edge45" class="edge">
<title>src/patchProp.ts&#45;&gt;src/modules/class.ts</title>
<path fill="none" stroke="#000000" stroke-width="2" stroke-opacity="0.200000" d="M266.46,-507.09C275.13,-507.91 284.52,-508.8 293.3,-509.63"/>
<polygon fill="#000000" fill-opacity="0.200000" stroke="#000000" stroke-width="2" stroke-opacity="0.200000" points="293,-511.71 299.17,-510.18 293.39,-507.53 293,-511.71"/>
</g>
<!-- src/modules/props.ts -->
<g id="node18" class="node">
<title>src/modules/props.ts</title>
<g id="a_node18"><a xlink:href="src/modules/props.ts" xlink:title="props.ts">
<path fill="#ddfeff" stroke="black" d="M350.33,-491.21C350.33,-491.21 308.67,-491.21 308.67,-491.21 305.58,-491.21 302.5,-488.13 302.5,-485.05 302.5,-485.05 302.5,-478.88 302.5,-478.88 302.5,-475.8 305.58,-472.71 308.67,-472.71 308.67,-472.71 350.33,-472.71 350.33,-472.71 353.42,-472.71 356.5,-475.8 356.5,-478.88 356.5,-478.88 356.5,-485.05 356.5,-485.05 356.5,-488.13 353.42,-491.21 350.33,-491.21"/>
<text text-anchor="start" x="313.38" y="-478.66" font-family="Helvetica,sans-Serif" font-size="9.00">props.ts</text>
</a>
</g>
</g>
<!-- src/patchProp.ts&#45;&gt;src/modules/props.ts -->
<g id="edge47" class="edge">
<title>src/patchProp.ts&#45;&gt;src/modules/props.ts</title>
<path fill="none" stroke="#000000" stroke-width="2" stroke-opacity="0.200000" d="M266.46,-496.33C275.22,-494.3 284.71,-492.1 293.58,-490.05"/>
<polygon fill="#000000" fill-opacity="0.200000" stroke="#000000" stroke-width="2" stroke-opacity="0.200000" points="293.86,-492.14 299.23,-488.74 292.91,-488.05 293.86,-492.14"/>
</g>
<!-- src/modules/style.ts -->
<g id="node19" class="node">
<title>src/modules/style.ts</title>
<g id="a_node19"><a xlink:href="src/modules/style.ts" xlink:title="style.ts">
<path fill="#ddfeff" stroke="black" d="M350.33,-429.21C350.33,-429.21 308.67,-429.21 308.67,-429.21 305.58,-429.21 302.5,-426.13 302.5,-423.05 302.5,-423.05 302.5,-416.88 302.5,-416.88 302.5,-413.8 305.58,-410.71 308.67,-410.71 308.67,-410.71 350.33,-410.71 350.33,-410.71 353.42,-410.71 356.5,-413.8 356.5,-416.88 356.5,-416.88 356.5,-423.05 356.5,-423.05 356.5,-426.13 353.42,-429.21 350.33,-429.21"/>
<text text-anchor="start" x="315.62" y="-416.66" font-family="Helvetica,sans-Serif" font-size="9.00">style.ts</text>
</a>
</g>
</g>
<!-- src/patchProp.ts&#45;&gt;src/modules/style.ts -->
<g id="edge48" class="edge">
<title>src/patchProp.ts&#45;&gt;src/modules/style.ts</title>
<path fill="none" stroke="#000000" stroke-width="2" stroke-opacity="0.200000" d="M263.58,-494.3C265.22,-493.03 266.72,-491.59 268,-489.96 282.99,-470.89 260.17,-454.35 276,-435.96 280.59,-430.63 286.9,-427.05 293.56,-424.64"/>
<polygon fill="#000000" fill-opacity="0.200000" stroke="#000000" stroke-width="2" stroke-opacity="0.200000" points="293.98,-426.71 299.16,-423.02 292.81,-422.67 293.98,-426.71"/>
</g>
<!-- src/modules/attrs.ts&#45;&gt;@vue/runtime&#45;core -->
<g id="edge31" class="edge">
<title>src/modules/attrs.ts&#45;&gt;@vue/runtime&#45;core</title>
<g id="a_edge31"><a xlink:title="not&#45;to&#45;unresolvable">
<path fill="none" stroke="red" stroke-width="2" d="M356.76,-442.56C362.85,-440.33 369.24,-437.75 375,-434.96 430.65,-408.04 491.12,-367.32 521.89,-345.68"/>
<polygon fill="red" stroke="red" stroke-width="2" points="522.89,-347.54 526.58,-342.36 520.47,-344.11 522.89,-347.54"/>
</a>
</g>
<text text-anchor="middle" x="405.98" y="-387.25" font-family="Helvetica,sans-Serif" font-size="9.00" fill="red">not&#45;to&#45;unresolvable</text>
</g>
<!-- src/modules/attrs.ts&#45;&gt;@vue/shared -->
<g id="edge32" class="edge">
<title>src/modules/attrs.ts&#45;&gt;@vue/shared</title>
<g id="a_edge32"><a xlink:title="not&#45;to&#45;unresolvable">
<path fill="none" stroke="red" stroke-width="2" d="M356.59,-446.82C363.56,-444.46 370.42,-440.76 375,-434.96 394.95,-409.69 363.47,-388.56 383,-362.96 412.75,-323.99 470.24,-309.09 507.43,-303.41"/>
<polygon fill="red" stroke="red" stroke-width="2" points="507.3,-305.55 512.96,-302.64 506.72,-301.39 507.3,-305.55"/>
</a>
</g>
<text text-anchor="middle" x="422.75" y="-354.42" font-family="Helvetica,sans-Serif" font-size="9.00" fill="red">not&#45;to&#45;unresolvable</text>
</g>
<!-- src/modules/class.ts&#45;&gt;src/components/Transition.ts -->
<g id="edge33" class="edge">
<title>src/modules/class.ts&#45;&gt;src/components/Transition.ts</title>
<path fill="none" stroke="#000000" stroke-width="2" stroke-opacity="0.200000" d="M336.51,-522.71C345.27,-536.23 362.74,-560.74 383,-575.96 387.19,-579.12 391.91,-581.93 396.73,-584.41"/>
<polygon fill="#000000" fill-opacity="0.200000" stroke="#000000" stroke-width="2" stroke-opacity="0.200000" points="395.81,-586.29 402.13,-586.96 397.6,-582.49 395.81,-586.29"/>
</g>
<!-- src/modules/props.ts&#45;&gt;@vue/runtime&#45;core -->
<g id="edge37" class="edge">
<title>src/modules/props.ts&#45;&gt;@vue/runtime&#45;core</title>
<g id="a_edge37"><a xlink:title="not&#45;to&#45;unresolvable">
<path fill="none" stroke="red" stroke-width="2" d="M356.59,-473.19C362.69,-470.97 369.12,-468.5 375,-465.96 429.21,-442.6 449.55,-445.37 493.5,-405.96 511.83,-389.53 526.19,-364.72 534.47,-348.19"/>
<polygon fill="red" stroke="red" stroke-width="2" points="536.2,-349.43 536.92,-343.12 532.42,-347.61 536.2,-349.43"/>
</a>
</g>
<text text-anchor="middle" x="421.82" y="-432.18" font-family="Helvetica,sans-Serif" font-size="9.00" fill="red">not&#45;to&#45;unresolvable</text>
</g>
<!-- src/modules/props.ts&#45;&gt;@vue/shared -->
<g id="edge38" class="edge">
<title>src/modules/props.ts&#45;&gt;@vue/shared</title>
<g id="a_edge38"><a xlink:title="not&#45;to&#45;unresolvable">
<path fill="none" stroke="red" stroke-width="2" d="M356.92,-477.56C363.73,-475.19 370.42,-471.55 375,-465.96 390.38,-447.2 369.57,-432.17 383,-411.96 414.78,-364.13 458.86,-390.77 493.5,-344.96 501.56,-334.3 492.55,-325.9 501.5,-315.96 503.44,-313.81 505.7,-311.95 508.15,-310.33"/>
<polygon fill="red" stroke="red" stroke-width="2" points="508.94,-312.29 513.25,-307.61 506.97,-308.58 508.94,-312.29"/>
</a>
</g>
<text text-anchor="middle" x="392.91" y="-370.35" font-family="Helvetica,sans-Serif" font-size="9.00" fill="red">not&#45;to&#45;unresolvable</text>
</g>
<!-- src/modules/props.ts&#45;&gt;src/nodeOps.ts -->
<g id="edge36" class="edge">
<title>src/modules/props.ts&#45;&gt;src/nodeOps.ts</title>
<path fill="none" stroke="#000000" stroke-width="2" stroke-opacity="0.200000" d="M356.79,-485.95C363.77,-488.31 370.58,-492.04 375,-497.96 393.52,-522.75 363.59,-612.87 383,-636.96 386.05,-640.75 390.04,-643.57 394.43,-645.65"/>
<polygon fill="#000000" fill-opacity="0.200000" stroke="#000000" stroke-width="2" stroke-opacity="0.200000" points="393.47,-647.54 399.82,-647.62 394.91,-643.59 393.47,-647.54"/>
</g>
<!-- src/modules/style.ts&#45;&gt;@vue/runtime&#45;core -->
<g id="edge41" class="edge">
<title>src/modules/style.ts&#45;&gt;@vue/runtime&#45;core</title>
<g id="a_edge41"><a xlink:title="not&#45;to&#45;unresolvable">
<path fill="none" stroke="red" stroke-width="2" d="M356.81,-415.46C363.61,-413.09 370.33,-409.48 375,-403.96 387.85,-388.8 368.95,-374.02 383,-359.96 399.12,-343.84 458.73,-336.51 500.29,-333.3"/>
<polygon fill="red" stroke="red" stroke-width="2" points="500.27,-335.41 506.1,-332.88 499.96,-331.22 500.27,-335.41"/>
</a>
</g>
<text text-anchor="middle" x="386.73" y="-334.37" font-family="Helvetica,sans-Serif" font-size="9.00" fill="red">not&#45;to&#45;unresolvable</text>
</g>
<!-- src/modules/style.ts&#45;&gt;@vue/shared -->
<g id="edge42" class="edge">
<title>src/modules/style.ts&#45;&gt;@vue/shared</title>
<g id="a_edge42"><a xlink:title="not&#45;to&#45;unresolvable">
<path fill="none" stroke="red" stroke-width="2" d="M356.87,-416.03C363.85,-413.68 370.64,-409.93 375,-403.96 389.81,-383.67 364.92,-195.41 383,-177.96 418.34,-143.86 452.83,-150.44 493.5,-177.96 528.15,-201.41 538.24,-253.87 541.17,-281.74"/>
<polygon fill="red" stroke="red" stroke-width="2" points="539.06,-281.68 541.68,-287.47 543.24,-281.31 539.06,-281.68"/>
</a>
</g>
<text text-anchor="middle" x="340.21" y="-354.01" font-family="Helvetica,sans-Serif" font-size="9.00" fill="red">not&#45;to&#45;unresolvable</text>
</g>
<!-- src/modules/style.ts&#45;&gt;src/directives/vShow.ts -->
<g id="edge39" class="edge">
<title>src/modules/style.ts&#45;&gt;src/directives/vShow.ts</title>
<path fill="none" stroke="#000000" stroke-width="2" stroke-opacity="0.200000" d="M302.26,-427.72C293.85,-430.27 284.51,-433.17 276,-435.96 273.48,-436.79 270.88,-437.66 268.27,-438.55"/>
<polygon fill="#000000" fill-opacity="0.200000" stroke="#000000" stroke-width="2" stroke-opacity="0.200000" points="267.81,-436.49 262.83,-440.43 269.18,-440.46 267.81,-436.49"/>
</g>
<!-- src/modules/style.ts&#45;&gt;src/helpers/useCssVars.ts -->
<g id="edge40" class="edge">
<title>src/modules/style.ts&#45;&gt;src/helpers/useCssVars.ts</title>
<path fill="none" stroke="#000000" stroke-width="2" stroke-opacity="0.200000" d="M356.59,-426.74C362.94,-429.07 369.49,-432.1 375,-435.96 395.29,-450.17 412.56,-473.21 422.91,-488.95"/>
<polygon fill="#000000" fill-opacity="0.200000" stroke="#000000" stroke-width="2" stroke-opacity="0.200000" points="421.05,-489.94 426.05,-493.87 424.6,-487.68 421.05,-489.94"/>
</g>
</g>
</svg>
