<?xml version="1.0" encoding="UTF-8" standalone="no"?>
<!DOCTYPE svg PUBLIC "-//W3C//DTD SVG 1.1//EN"
 "http://www.w3.org/Graphics/SVG/1.1/DTD/svg11.dtd">
<!-- Generated by graphviz version 12.2.1 (20241206.2353)
 -->
<!-- Title: dependency&#45;cruiser output Pages: 1 -->
<svg width="510pt" height="337pt"
 viewBox="0.00 0.00 509.50 337.00" xmlns="http://www.w3.org/2000/svg" xmlns:xlink="http://www.w3.org/1999/xlink">
<g id="graph0" class="graph" transform="scale(1 1) rotate(0) translate(4 333)">
<title>dependency&#45;cruiser output</title>
<polygon fill="white" stroke="none" points="-4,4 -4,-333 505.5,-333 505.5,4 -4,4"/>
<g id="clust1" class="cluster">
<title>cluster_src</title>
<path fill="#ffffff" stroke="black" stroke-width="2" d="M20,-8C20,-8 481.5,-8 481.5,-8 487.5,-8 493.5,-14 493.5,-20 493.5,-20 493.5,-309 493.5,-309 493.5,-315 487.5,-321 481.5,-321 481.5,-321 20,-321 20,-321 14,-321 8,-315 8,-309 8,-309 8,-20 8,-20 8,-14 14,-8 20,-8"/>
<text text-anchor="middle" x="250.75" y="-308.45" font-family="Helvetica,sans-Serif" font-weight="bold" font-size="9.00">src</text>
</g>
<g id="clust2" class="cluster">
<title>cluster_src/components</title>
<path fill="#ffffff" stroke="black" stroke-width="2" d="M288,-22C288,-22 463,-22 463,-22 469,-22 475,-28 475,-34 475,-34 475,-63 475,-63 475,-69 469,-75 463,-75 463,-75 288,-75 288,-75 282,-75 276,-69 276,-63 276,-63 276,-34 276,-34 276,-28 282,-22 288,-22"/>
<text text-anchor="middle" x="375.5" y="-62.45" font-family="Helvetica,sans-Serif" font-weight="bold" font-size="9.00">components</text>
</g>
<g id="clust3" class="cluster">
<title>cluster_src/directives</title>
<path fill="#ffffff" stroke="black" stroke-width="2" d="M209,-107C209,-107 256,-107 256,-107 262,-107 268,-113 268,-119 268,-119 268,-210 268,-210 268,-216 262,-222 256,-222 256,-222 209,-222 209,-222 203,-222 197,-216 197,-210 197,-210 197,-119 197,-119 197,-113 203,-107 209,-107"/>
<text text-anchor="middle" x="232.5" y="-209.45" font-family="Helvetica,sans-Serif" font-weight="bold" font-size="9.00">directives</text>
</g>
<g id="clust4" class="cluster">
<title>cluster_src/helpers</title>
<path fill="#ffffff" stroke="black" stroke-width="2" d="M395,-83C395,-83 473.5,-83 473.5,-83 479.5,-83 485.5,-89 485.5,-95 485.5,-95 485.5,-155 485.5,-155 485.5,-161 479.5,-167 473.5,-167 473.5,-167 395,-167 395,-167 389,-167 383,-161 383,-155 383,-155 383,-95 383,-95 383,-89 389,-83 395,-83"/>
<text text-anchor="middle" x="434.25" y="-154.45" font-family="Helvetica,sans-Serif" font-weight="bold" font-size="9.00">helpers</text>
</g>
<g id="clust5" class="cluster">
<title>cluster_src/modules</title>
<path fill="#ffffff" stroke="black" stroke-width="2" d="M306.5,-107C306.5,-107 352.5,-107 352.5,-107 358.5,-107 364.5,-113 364.5,-119 364.5,-119 364.5,-272 364.5,-272 364.5,-278 358.5,-284 352.5,-284 352.5,-284 306.5,-284 306.5,-284 300.5,-284 294.5,-278 294.5,-272 294.5,-272 294.5,-119 294.5,-119 294.5,-113 300.5,-107 306.5,-107"/>
<text text-anchor="middle" x="329.5" y="-271.45" font-family="Helvetica,sans-Serif" font-weight="bold" font-size="9.00">modules</text>
</g>
<!-- src/apiCustomElement.ts -->
<g id="node1" class="node">
<title>src/apiCustomElement.ts</title>
<g id="a_node1"><a xlink:href="src/apiCustomElement.ts" xlink:title="apiCustomElement.ts">
<path fill="#ddfeff" stroke="black" d="M112.83,-148.25C112.83,-148.25 22.17,-148.25 22.17,-148.25 19.08,-148.25 16,-145.17 16,-142.08 16,-142.08 16,-135.92 16,-135.92 16,-132.83 19.08,-129.75 22.17,-129.75 22.17,-129.75 112.83,-129.75 112.83,-129.75 115.92,-129.75 119,-132.83 119,-135.92 119,-135.92 119,-142.08 119,-142.08 119,-145.17 115.92,-148.25 112.83,-148.25"/>
<text text-anchor="start" x="24" y="-135.7" font-family="Helvetica,sans-Serif" font-size="9.00">apiCustomElement.ts</text>
</a>
</g>
</g>
<!-- src/index.ts -->
<g id="node2" class="node">
<title>src/index.ts</title>
<g id="a_node2"><a xlink:href="src/index.ts" xlink:title="index.ts">
<path fill="#ddfeff" stroke="black" d="M179.83,-148.25C179.83,-148.25 138.17,-148.25 138.17,-148.25 135.08,-148.25 132,-145.17 132,-142.08 132,-142.08 132,-135.92 132,-135.92 132,-132.83 135.08,-129.75 138.17,-129.75 138.17,-129.75 179.83,-129.75 179.83,-129.75 182.92,-129.75 186,-132.83 186,-135.92 186,-135.92 186,-142.08 186,-142.08 186,-145.17 182.92,-148.25 179.83,-148.25"/>
<text text-anchor="start" x="143.25" y="-135.7" font-family="Helvetica,sans-Serif" font-size="9.00">index.ts</text>
</a>
</g>
</g>
<!-- src/apiCustomElement.ts&#45;&gt;src/index.ts -->
<g id="edge1" class="edge">
<title>src/apiCustomElement.ts&#45;&gt;src/index.ts</title>
<g id="a_edge1"><a xlink:title="no&#45;circular">
<path fill="none" stroke="orange" stroke-width="2" d="M119.26,-134.54C119.4,-134.54 119.53,-134.54 119.66,-134.54"/>
<polygon fill="orange" stroke="orange" stroke-width="2" points="122.59,-136.72 128.64,-134.78 122.7,-132.52 122.59,-136.72"/>
<polyline fill="none" stroke="orange" stroke-width="2" points="121.64,-134.59 118.64,-134.51"/>
<ellipse fill="none" stroke="orange" stroke-width="2" cx="115.25" cy="-134.42" rx="2.4" ry="2.4"/>
</a>
</g>
<text text-anchor="middle" x="141.39" y="-125.99" font-family="Helvetica,sans-Serif" font-size="9.00" fill="orange">no&#45;circular</text>
</g>
<!-- src/index.ts&#45;&gt;src/apiCustomElement.ts -->
<g id="edge4" class="edge">
<title>src/index.ts&#45;&gt;src/apiCustomElement.ts</title>
<g id="a_edge4"><a xlink:title="no&#45;circular">
<path fill="none" stroke="orange" stroke-width="2" d="M131.67,-143.14C131.54,-143.15 131.42,-143.15 131.3,-143.16"/>
<polygon fill="orange" stroke="orange" stroke-width="2" points="128.24,-141.13 122.29,-143.39 128.34,-145.33 128.24,-141.13"/>
<polyline fill="none" stroke="orange" stroke-width="2" points="129.29,-143.21 132.29,-143.13"/>
<ellipse fill="none" stroke="orange" stroke-width="2" cx="135.69" cy="-143.05" rx="2.4" ry="2.4"/>
</a>
</g>
<text text-anchor="middle" x="109.57" y="-145.11" font-family="Helvetica,sans-Serif" font-size="9.00" fill="orange">no&#45;circular</text>
</g>
<!-- src/components/Transition.ts -->
<g id="node3" class="node">
<title>src/components/Transition.ts</title>
<g id="a_node3"><a xlink:href="src/components/Transition.ts" xlink:title="Transition.ts">
<path fill="#ddfeff" stroke="black" d="M460.83,-48.25C460.83,-48.25 407.67,-48.25 407.67,-48.25 404.58,-48.25 401.5,-45.17 401.5,-42.08 401.5,-42.08 401.5,-35.92 401.5,-35.92 401.5,-32.83 404.58,-29.75 407.67,-29.75 407.67,-29.75 460.83,-29.75 460.83,-29.75 463.92,-29.75 467,-32.83 467,-35.92 467,-35.92 467,-42.08 467,-42.08 467,-45.17 463.92,-48.25 460.83,-48.25"/>
<text text-anchor="start" x="409.5" y="-35.7" font-family="Helvetica,sans-Serif" font-size="9.00">Transition.ts</text>
</a>
</g>
</g>
<!-- src/index.ts&#45;&gt;src/components/Transition.ts -->
<g id="edge5" class="edge">
<title>src/index.ts&#45;&gt;src/components/Transition.ts</title>
<path fill="none" stroke="#000000" stroke-width="2" stroke-opacity="0.200000" d="M160.95,-129.41C163.36,-110.38 171.47,-67.75 197,-45 252.26,4.24 346.96,-12.94 398.07,-27.38"/>
<polygon fill="#000000" fill-opacity="0.200000" stroke="#000000" stroke-width="2" stroke-opacity="0.200000" points="403.13,-31.04 397.96,-27.35 404.31,-27.01 403.13,-31.04"/>
</g>
<!-- src/components/TransitionGroup.ts -->
<g id="node4" class="node">
<title>src/components/TransitionGroup.ts</title>
<g id="a_node4"><a xlink:href="src/components/TransitionGroup.ts" xlink:title="TransitionGroup.ts">
<path fill="#ddfeff" stroke="black" d="M368.83,-48.25C368.83,-48.25 290.17,-48.25 290.17,-48.25 287.08,-48.25 284,-45.17 284,-42.08 284,-42.08 284,-35.92 284,-35.92 284,-32.83 287.08,-29.75 290.17,-29.75 290.17,-29.75 368.83,-29.75 368.83,-29.75 371.92,-29.75 375,-32.83 375,-35.92 375,-35.92 375,-42.08 375,-42.08 375,-45.17 371.92,-48.25 368.83,-48.25"/>
<text text-anchor="start" x="292" y="-35.7" font-family="Helvetica,sans-Serif" font-size="9.00">TransitionGroup.ts</text>
</a>
</g>
</g>
<!-- src/index.ts&#45;&gt;src/components/TransitionGroup.ts -->
<g id="edge6" class="edge">
<title>src/index.ts&#45;&gt;src/components/TransitionGroup.ts</title>
<path fill="none" stroke="#000000" stroke-width="2" stroke-opacity="0.200000" d="M163.53,-129.65C168.88,-116.73 180.21,-93.46 197,-80 219.78,-61.74 250.74,-51.57 276.9,-45.93"/>
<polygon fill="#000000" fill-opacity="0.200000" stroke="#000000" stroke-width="2" stroke-opacity="0.200000" points="283.23,-46.78 276.93,-45.92 282.39,-42.67 283.23,-46.78"/>
</g>
<!-- src/directives/vModel.ts -->
<g id="node5" class="node">
<title>src/directives/vModel.ts</title>
<g id="a_node5"><a xlink:href="src/directives/vModel.ts" xlink:title="vModel.ts">
<path fill="#ddfeff" stroke="black" d="M253.83,-195.25C253.83,-195.25 211.17,-195.25 211.17,-195.25 208.08,-195.25 205,-192.17 205,-189.08 205,-189.08 205,-182.92 205,-182.92 205,-179.83 208.08,-176.75 211.17,-176.75 211.17,-176.75 253.83,-176.75 253.83,-176.75 256.92,-176.75 260,-179.83 260,-182.92 260,-182.92 260,-189.08 260,-189.08 260,-192.17 256.92,-195.25 253.83,-195.25"/>
<text text-anchor="start" x="213" y="-182.7" font-family="Helvetica,sans-Serif" font-size="9.00">vModel.ts</text>
</a>
</g>
</g>
<!-- src/index.ts&#45;&gt;src/directives/vModel.ts -->
<g id="edge7" class="edge">
<title>src/index.ts&#45;&gt;src/directives/vModel.ts</title>
<path fill="none" stroke="#000000" stroke-width="2" stroke-opacity="0.200000" d="M170.11,-148.74C177.25,-155.28 187.24,-163.8 197,-170 198.67,-171.06 200.43,-172.09 202.22,-173.09"/>
<polygon fill="#000000" fill-opacity="0.200000" stroke="#000000" stroke-width="2" stroke-opacity="0.200000" points="206.55,-177.72 202.2,-173.08 208.5,-174 206.55,-177.72"/>
</g>
<!-- src/directives/vOn.ts -->
<g id="node7" class="node">
<title>src/directives/vOn.ts</title>
<g id="a_node7"><a xlink:href="src/directives/vOn.ts" xlink:title="vOn.ts">
<path fill="#ddfeff" stroke="black" d="M253.33,-133.25C253.33,-133.25 211.67,-133.25 211.67,-133.25 208.58,-133.25 205.5,-130.17 205.5,-127.08 205.5,-127.08 205.5,-120.92 205.5,-120.92 205.5,-117.83 208.58,-114.75 211.67,-114.75 211.67,-114.75 253.33,-114.75 253.33,-114.75 256.42,-114.75 259.5,-117.83 259.5,-120.92 259.5,-120.92 259.5,-127.08 259.5,-127.08 259.5,-130.17 256.42,-133.25 253.33,-133.25"/>
<text text-anchor="start" x="219.75" y="-120.7" font-family="Helvetica,sans-Serif" font-size="9.00">vOn.ts</text>
</a>
</g>
</g>
<!-- src/index.ts&#45;&gt;src/directives/vOn.ts -->
<g id="edge8" class="edge">
<title>src/index.ts&#45;&gt;src/directives/vOn.ts</title>
<path fill="none" stroke="#000000" stroke-width="2" stroke-opacity="0.200000" d="M186.22,-133.5C190.2,-132.66 194.35,-131.79 198.46,-130.93"/>
<polygon fill="#000000" fill-opacity="0.200000" stroke="#000000" stroke-width="2" stroke-opacity="0.200000" points="204.74,-131.76 198.43,-130.94 203.88,-127.65 204.74,-131.76"/>
</g>
<!-- src/directives/vShow.ts -->
<g id="node8" class="node">
<title>src/directives/vShow.ts</title>
<g id="a_node8"><a xlink:href="src/directives/vShow.ts" xlink:title="vShow.ts">
<path fill="#ddfeff" stroke="black" d="M253.33,-164.25C253.33,-164.25 211.67,-164.25 211.67,-164.25 208.58,-164.25 205.5,-161.17 205.5,-158.08 205.5,-158.08 205.5,-151.92 205.5,-151.92 205.5,-148.83 208.58,-145.75 211.67,-145.75 211.67,-145.75 253.33,-145.75 253.33,-145.75 256.42,-145.75 259.5,-148.83 259.5,-151.92 259.5,-151.92 259.5,-158.08 259.5,-158.08 259.5,-161.17 256.42,-164.25 253.33,-164.25"/>
<text text-anchor="start" x="214.5" y="-151.7" font-family="Helvetica,sans-Serif" font-size="9.00">vShow.ts</text>
</a>
</g>
</g>
<!-- src/index.ts&#45;&gt;src/directives/vShow.ts -->
<g id="edge9" class="edge">
<title>src/index.ts&#45;&gt;src/directives/vShow.ts</title>
<path fill="none" stroke="#000000" stroke-width="2" stroke-opacity="0.200000" d="M186.22,-144.87C190.2,-145.76 194.35,-146.69 198.46,-147.61"/>
<polygon fill="#000000" fill-opacity="0.200000" stroke="#000000" stroke-width="2" stroke-opacity="0.200000" points="203.85,-150.96 198.45,-147.61 204.77,-146.87 203.85,-150.96"/>
</g>
<!-- src/helpers/useCssModule.ts -->
<g id="node9" class="node">
<title>src/helpers/useCssModule.ts</title>
<g id="a_node9"><a xlink:href="src/helpers/useCssModule.ts" xlink:title="useCssModule.ts">
<path fill="#ddfeff" stroke="black" d="M471.33,-109.25C471.33,-109.25 397.17,-109.25 397.17,-109.25 394.08,-109.25 391,-106.17 391,-103.08 391,-103.08 391,-96.92 391,-96.92 391,-93.83 394.08,-90.75 397.17,-90.75 397.17,-90.75 471.33,-90.75 471.33,-90.75 474.42,-90.75 477.5,-93.83 477.5,-96.92 477.5,-96.92 477.5,-103.08 477.5,-103.08 477.5,-106.17 474.42,-109.25 471.33,-109.25"/>
<text text-anchor="start" x="399" y="-96.7" font-family="Helvetica,sans-Serif" font-size="9.00">useCssModule.ts</text>
</a>
</g>
</g>
<!-- src/index.ts&#45;&gt;src/helpers/useCssModule.ts -->
<g id="edge10" class="edge">
<title>src/index.ts&#45;&gt;src/helpers/useCssModule.ts</title>
<path fill="none" stroke="#000000" stroke-width="2" stroke-opacity="0.200000" d="M164.05,-129.31C169.56,-117.55 180.64,-98.28 197,-90 202.65,-87.14 362.07,-87.79 375,-89 377.88,-89.27 380.83,-89.61 383.81,-90.01"/>
<polygon fill="#000000" fill-opacity="0.200000" stroke="#000000" stroke-width="2" stroke-opacity="0.200000" points="389.46,-92.96 383.82,-90.01 390.07,-88.8 389.46,-92.96"/>
</g>
<!-- src/helpers/useCssVars.ts -->
<g id="node10" class="node">
<title>src/helpers/useCssVars.ts</title>
<g id="a_node10"><a xlink:href="src/helpers/useCssVars.ts" xlink:title="useCssVars.ts">
<path fill="#ddfeff" stroke="black" d="M464.96,-140.25C464.96,-140.25 403.54,-140.25 403.54,-140.25 400.46,-140.25 397.38,-137.17 397.38,-134.08 397.38,-134.08 397.38,-127.92 397.38,-127.92 397.38,-124.83 400.46,-121.75 403.54,-121.75 403.54,-121.75 464.96,-121.75 464.96,-121.75 468.04,-121.75 471.12,-124.83 471.12,-127.92 471.12,-127.92 471.12,-134.08 471.12,-134.08 471.12,-137.17 468.04,-140.25 464.96,-140.25"/>
<text text-anchor="start" x="405.38" y="-127.7" font-family="Helvetica,sans-Serif" font-size="9.00">useCssVars.ts</text>
</a>
</g>
</g>
<!-- src/index.ts&#45;&gt;src/helpers/useCssVars.ts -->
<g id="edge11" class="edge">
<title>src/index.ts&#45;&gt;src/helpers/useCssVars.ts</title>
<path fill="none" stroke="#000000" stroke-width="2" stroke-opacity="0.200000" d="M166.66,-129.49C173.25,-120.98 184.18,-109.1 197,-104 233.75,-89.37 339.75,-86.05 375,-104 380.39,-106.74 378.1,-111.46 383,-115 385.38,-116.72 387.95,-118.26 390.63,-119.63"/>
<polygon fill="#000000" fill-opacity="0.200000" stroke="#000000" stroke-width="2" stroke-opacity="0.200000" points="395.25,-124.06 390.67,-119.65 397,-120.24 395.25,-124.06"/>
</g>
<!-- src/jsx.ts -->
<g id="node11" class="node">
<title>src/jsx.ts</title>
<g id="a_node11"><a xlink:href="src/jsx.ts" xlink:title="jsx.ts">
<path fill="#ddfeff" stroke="black" d="M253.33,-294.25C253.33,-294.25 211.67,-294.25 211.67,-294.25 208.58,-294.25 205.5,-291.17 205.5,-288.08 205.5,-288.08 205.5,-281.92 205.5,-281.92 205.5,-278.83 208.58,-275.75 211.67,-275.75 211.67,-275.75 253.33,-275.75 253.33,-275.75 256.42,-275.75 259.5,-278.83 259.5,-281.92 259.5,-281.92 259.5,-288.08 259.5,-288.08 259.5,-291.17 256.42,-294.25 253.33,-294.25"/>
<text text-anchor="start" x="222.38" y="-281.7" font-family="Helvetica,sans-Serif" font-size="9.00">jsx.ts</text>
</a>
</g>
</g>
<!-- src/index.ts&#45;&gt;src/jsx.ts -->
<g id="edge12" class="edge">
<title>src/index.ts&#45;&gt;src/jsx.ts</title>
<path fill="none" stroke="#000000" stroke-width="2" stroke-opacity="0.200000" d="M160.28,-148.51C161.42,-171.46 167.27,-230.65 197,-267 198.28,-268.57 199.74,-270.02 201.31,-271.35"/>
<polygon fill="#000000" fill-opacity="0.200000" stroke="#000000" stroke-width="2" stroke-opacity="0.200000" points="204.97,-276.58 201.33,-271.37 207.43,-273.17 204.97,-276.58"/>
</g>
<!-- src/nodeOps.ts -->
<g id="node12" class="node">
<title>src/nodeOps.ts</title>
<g id="a_node12"><a xlink:href="src/nodeOps.ts" xlink:title="nodeOps.ts">
<path fill="#ddfeff" stroke="black" d="M459.33,-275.25C459.33,-275.25 409.17,-275.25 409.17,-275.25 406.08,-275.25 403,-272.17 403,-269.08 403,-269.08 403,-262.92 403,-262.92 403,-259.83 406.08,-256.75 409.17,-256.75 409.17,-256.75 459.33,-256.75 459.33,-256.75 462.42,-256.75 465.5,-259.83 465.5,-262.92 465.5,-262.92 465.5,-269.08 465.5,-269.08 465.5,-272.17 462.42,-275.25 459.33,-275.25"/>
<text text-anchor="start" x="411" y="-262.7" font-family="Helvetica,sans-Serif" font-size="9.00">nodeOps.ts</text>
</a>
</g>
</g>
<!-- src/index.ts&#45;&gt;src/nodeOps.ts -->
<g id="edge13" class="edge">
<title>src/index.ts&#45;&gt;src/nodeOps.ts</title>
<path fill="none" stroke="#000000" stroke-width="2" stroke-opacity="0.200000" d="M160.08,-148.7C160.82,-170.88 165.89,-225.56 197,-254 220.87,-275.83 242.77,-249.75 268,-270 274.51,-275.23 268.95,-282.53 276,-287 313.15,-310.58 331.66,-294.57 375,-287 384.55,-285.33 394.6,-282.23 403.61,-278.92"/>
<polygon fill="#000000" fill-opacity="0.200000" stroke="#000000" stroke-width="2" stroke-opacity="0.200000" points="404.23,-280.93 409.06,-276.81 402.71,-277.02 404.23,-280.93"/>
</g>
<!-- src/patchProp.ts -->
<g id="node13" class="node">
<title>src/patchProp.ts</title>
<g id="a_node13"><a xlink:href="src/patchProp.ts" xlink:title="patchProp.ts">
<path fill="#ddfeff" stroke="black" d="M259.83,-248.25C259.83,-248.25 205.17,-248.25 205.17,-248.25 202.08,-248.25 199,-245.17 199,-242.08 199,-242.08 199,-235.92 199,-235.92 199,-232.83 202.08,-229.75 205.17,-229.75 205.17,-229.75 259.83,-229.75 259.83,-229.75 262.92,-229.75 266,-232.83 266,-235.92 266,-235.92 266,-242.08 266,-242.08 266,-245.17 262.92,-248.25 259.83,-248.25"/>
<text text-anchor="start" x="207" y="-235.7" font-family="Helvetica,sans-Serif" font-size="9.00">patchProp.ts</text>
</a>
</g>
</g>
<!-- src/index.ts&#45;&gt;src/patchProp.ts -->
<g id="edge14" class="edge">
<title>src/index.ts&#45;&gt;src/patchProp.ts</title>
<path fill="none" stroke="#000000" stroke-width="2" stroke-opacity="0.200000" d="M161.66,-148.62C164.87,-164.73 173.35,-197.59 196.37,-223.06"/>
<polygon fill="#000000" fill-opacity="0.200000" stroke="#000000" stroke-width="2" stroke-opacity="0.200000" points="194.72,-224.38 200.42,-227.2 197.72,-221.44 194.72,-224.38"/>
</g>
<!-- src/components/TransitionGroup.ts&#45;&gt;src/components/Transition.ts -->
<g id="edge2" class="edge">
<title>src/components/TransitionGroup.ts&#45;&gt;src/components/Transition.ts</title>
<path fill="none" stroke="#000000" stroke-width="2" stroke-opacity="0.200000" d="M375.27,-39C381.02,-39 386.88,-39 392.56,-39"/>
<polygon fill="#000000" fill-opacity="0.200000" stroke="#000000" stroke-width="2" stroke-opacity="0.200000" points="392.26,-41.1 398.26,-39 392.26,-36.9 392.26,-41.1"/>
</g>
<!-- src/modules/events.ts -->
<g id="node6" class="node">
<title>src/modules/events.ts</title>
<g id="a_node6"><a xlink:href="src/modules/events.ts" xlink:title="events.ts">
<path fill="#ddfeff" stroke="black" d="M350.33,-164.25C350.33,-164.25 308.67,-164.25 308.67,-164.25 305.58,-164.25 302.5,-161.17 302.5,-158.08 302.5,-158.08 302.5,-151.92 302.5,-151.92 302.5,-148.83 305.58,-145.75 308.67,-145.75 308.67,-145.75 350.33,-145.75 350.33,-145.75 353.42,-145.75 356.5,-148.83 356.5,-151.92 356.5,-151.92 356.5,-158.08 356.5,-158.08 356.5,-161.17 353.42,-164.25 350.33,-164.25"/>
<text text-anchor="start" x="311.5" y="-151.7" font-family="Helvetica,sans-Serif" font-size="9.00">events.ts</text>
</a>
</g>
</g>
<!-- src/directives/vModel.ts&#45;&gt;src/modules/events.ts -->
<g id="edge3" class="edge">
<title>src/directives/vModel.ts&#45;&gt;src/modules/events.ts</title>
<path fill="none" stroke="#000000" stroke-width="2" stroke-opacity="0.200000" d="M260.42,-176.3C265.58,-174.5 270.95,-172.66 276,-171 281.72,-169.12 287.81,-167.2 293.74,-165.36"/>
<polygon fill="#000000" fill-opacity="0.200000" stroke="#000000" stroke-width="2" stroke-opacity="0.200000" points="294.24,-167.4 299.36,-163.64 293.01,-163.39 294.24,-167.4"/>
</g>
<!-- src/patchProp.ts&#45;&gt;src/modules/events.ts -->
<g id="edge21" class="edge">
<title>src/patchProp.ts&#45;&gt;src/modules/events.ts</title>
<path fill="none" stroke="#000000" stroke-width="2" stroke-opacity="0.200000" d="M263.58,-229.34C265.22,-228.06 266.72,-226.63 268,-225 282.99,-205.93 260.17,-189.38 276,-171 280.59,-165.67 286.9,-162.08 293.56,-159.68"/>
<polygon fill="#000000" fill-opacity="0.200000" stroke="#000000" stroke-width="2" stroke-opacity="0.200000" points="293.98,-161.74 299.16,-158.06 292.81,-157.71 293.98,-161.74"/>
</g>
<!-- src/modules/attrs.ts -->
<g id="node14" class="node">
<title>src/modules/attrs.ts</title>
<g id="a_node14"><a xlink:href="src/modules/attrs.ts" xlink:title="attrs.ts">
<path fill="#ddfeff" stroke="black" d="M350.33,-195.25C350.33,-195.25 308.67,-195.25 308.67,-195.25 305.58,-195.25 302.5,-192.17 302.5,-189.08 302.5,-189.08 302.5,-182.92 302.5,-182.92 302.5,-179.83 305.58,-176.75 308.67,-176.75 308.67,-176.75 350.33,-176.75 350.33,-176.75 353.42,-176.75 356.5,-179.83 356.5,-182.92 356.5,-182.92 356.5,-189.08 356.5,-189.08 356.5,-192.17 353.42,-195.25 350.33,-195.25"/>
<text text-anchor="start" x="316.38" y="-182.7" font-family="Helvetica,sans-Serif" font-size="9.00">attrs.ts</text>
</a>
</g>
</g>
<!-- src/patchProp.ts&#45;&gt;src/modules/attrs.ts -->
<g id="edge19" class="edge">
<title>src/patchProp.ts&#45;&gt;src/modules/attrs.ts</title>
<path fill="none" stroke="#000000" stroke-width="2" stroke-opacity="0.200000" d="M262.92,-229.27C264.77,-228.01 266.49,-226.59 268,-225 275.46,-217.16 268.2,-209.5 276,-202 280.97,-197.22 287.33,-193.86 293.9,-191.5"/>
<polygon fill="#000000" fill-opacity="0.200000" stroke="#000000" stroke-width="2" stroke-opacity="0.200000" points="294.18,-193.61 299.34,-189.89 292.99,-189.58 294.18,-193.61"/>
</g>
<!-- src/modules/class.ts -->
<g id="node15" class="node">
<title>src/modules/class.ts</title>
<g id="a_node15"><a xlink:href="src/modules/class.ts" xlink:title="class.ts">
<path fill="#ddfeff" stroke="black" d="M350.33,-226.25C350.33,-226.25 308.67,-226.25 308.67,-226.25 305.58,-226.25 302.5,-223.17 302.5,-220.08 302.5,-220.08 302.5,-213.92 302.5,-213.92 302.5,-210.83 305.58,-207.75 308.67,-207.75 308.67,-207.75 350.33,-207.75 350.33,-207.75 353.42,-207.75 356.5,-210.83 356.5,-213.92 356.5,-213.92 356.5,-220.08 356.5,-220.08 356.5,-223.17 353.42,-226.25 350.33,-226.25"/>
<text text-anchor="start" x="314.5" y="-213.7" font-family="Helvetica,sans-Serif" font-size="9.00">class.ts</text>
</a>
</g>
</g>
<!-- src/patchProp.ts&#45;&gt;src/modules/class.ts -->
<g id="edge20" class="edge">
<title>src/patchProp.ts&#45;&gt;src/modules/class.ts</title>
<path fill="none" stroke="#000000" stroke-width="2" stroke-opacity="0.200000" d="M266.46,-231.37C275.22,-229.34 284.71,-227.14 293.58,-225.09"/>
<polygon fill="#000000" fill-opacity="0.200000" stroke="#000000" stroke-width="2" stroke-opacity="0.200000" points="293.86,-227.18 299.23,-223.78 292.91,-223.09 293.86,-227.18"/>
</g>
<!-- src/modules/props.ts -->
<g id="node16" class="node">
<title>src/modules/props.ts</title>
<g id="a_node16"><a xlink:href="src/modules/props.ts" xlink:title="props.ts">
<path fill="#ddfeff" stroke="black" d="M350.33,-257.25C350.33,-257.25 308.67,-257.25 308.67,-257.25 305.58,-257.25 302.5,-254.17 302.5,-251.08 302.5,-251.08 302.5,-244.92 302.5,-244.92 302.5,-241.83 305.58,-238.75 308.67,-238.75 308.67,-238.75 350.33,-238.75 350.33,-238.75 353.42,-238.75 356.5,-241.83 356.5,-244.92 356.5,-244.92 356.5,-251.08 356.5,-251.08 356.5,-254.17 353.42,-257.25 350.33,-257.25"/>
<text text-anchor="start" x="313.38" y="-244.7" font-family="Helvetica,sans-Serif" font-size="9.00">props.ts</text>
</a>
</g>
</g>
<!-- src/patchProp.ts&#45;&gt;src/modules/props.ts -->
<g id="edge22" class="edge">
<title>src/patchProp.ts&#45;&gt;src/modules/props.ts</title>
<path fill="none" stroke="#000000" stroke-width="2" stroke-opacity="0.200000" d="M266.46,-242.12C275.13,-242.94 284.52,-243.83 293.3,-244.67"/>
<polygon fill="#000000" fill-opacity="0.200000" stroke="#000000" stroke-width="2" stroke-opacity="0.200000" points="293,-246.75 299.17,-245.22 293.39,-242.56 293,-246.75"/>
</g>
<!-- src/modules/style.ts -->
<g id="node17" class="node">
<title>src/modules/style.ts</title>
<g id="a_node17"><a xlink:href="src/modules/style.ts" xlink:title="style.ts">
<path fill="#ddfeff" stroke="black" d="M350.33,-133.25C350.33,-133.25 308.67,-133.25 308.67,-133.25 305.58,-133.25 302.5,-130.17 302.5,-127.08 302.5,-127.08 302.5,-120.92 302.5,-120.92 302.5,-117.83 305.58,-114.75 308.67,-114.75 308.67,-114.75 350.33,-114.75 350.33,-114.75 353.42,-114.75 356.5,-117.83 356.5,-120.92 356.5,-120.92 356.5,-127.08 356.5,-127.08 356.5,-130.17 353.42,-133.25 350.33,-133.25"/>
<text text-anchor="start" x="315.62" y="-120.7" font-family="Helvetica,sans-Serif" font-size="9.00">style.ts</text>
</a>
</g>
</g>
<!-- src/patchProp.ts&#45;&gt;src/modules/style.ts -->
<g id="edge23" class="edge">
<title>src/patchProp.ts&#45;&gt;src/modules/style.ts</title>
<path fill="none" stroke="#000000" stroke-width="2" stroke-opacity="0.200000" d="M263.68,-229.41C265.3,-228.12 266.77,-226.66 268,-225 279.32,-209.78 264.01,-154.7 276,-140 280.49,-134.5 286.82,-130.84 293.53,-128.43"/>
<polygon fill="#000000" fill-opacity="0.200000" stroke="#000000" stroke-width="2" stroke-opacity="0.200000" points="294.02,-130.47 299.21,-126.81 292.87,-126.43 294.02,-130.47"/>
</g>
<!-- src/modules/class.ts&#45;&gt;src/components/Transition.ts -->
<g id="edge15" class="edge">
<title>src/modules/class.ts&#45;&gt;src/components/Transition.ts</title>
<path fill="none" stroke="#000000" stroke-width="2" stroke-opacity="0.200000" d="M356.76,-212.99C363.73,-210.63 370.55,-206.9 375,-201 391.22,-179.48 370.65,-103.95 383,-80 388.54,-69.26 398.26,-60.32 407.69,-53.56"/>
<polygon fill="#000000" fill-opacity="0.200000" stroke="#000000" stroke-width="2" stroke-opacity="0.200000" points="408.76,-55.37 412.59,-50.29 406.43,-51.88 408.76,-55.37"/>
</g>
<!-- src/modules/props.ts&#45;&gt;src/nodeOps.ts -->
<g id="edge16" class="edge">
<title>src/modules/props.ts&#45;&gt;src/nodeOps.ts</title>
<path fill="none" stroke="#000000" stroke-width="2" stroke-opacity="0.200000" d="M356.96,-252.64C368.16,-254.6 381.44,-256.92 393.75,-259.08"/>
<polygon fill="#000000" fill-opacity="0.200000" stroke="#000000" stroke-width="2" stroke-opacity="0.200000" points="393.25,-261.13 399.52,-260.09 393.98,-256.99 393.25,-261.13"/>
</g>
<!-- src/modules/style.ts&#45;&gt;src/directives/vShow.ts -->
<g id="edge17" class="edge">
<title>src/modules/style.ts&#45;&gt;src/directives/vShow.ts</title>
<path fill="none" stroke="#000000" stroke-width="2" stroke-opacity="0.200000" d="M302.26,-131.75C293.85,-134.3 284.51,-137.2 276,-140 273.48,-140.83 270.88,-141.7 268.27,-142.59"/>
<polygon fill="#000000" fill-opacity="0.200000" stroke="#000000" stroke-width="2" stroke-opacity="0.200000" points="267.81,-140.53 262.83,-144.47 269.18,-144.5 267.81,-140.53"/>
</g>
<!-- src/modules/style.ts&#45;&gt;src/helpers/useCssVars.ts -->
<g id="edge18" class="edge">
<title>src/modules/style.ts&#45;&gt;src/helpers/useCssVars.ts</title>
<path fill="none" stroke="#000000" stroke-width="2" stroke-opacity="0.200000" d="M356.96,-125.8C366.53,-126.45 377.62,-127.21 388.33,-127.94"/>
<polygon fill="#000000" fill-opacity="0.200000" stroke="#000000" stroke-width="2" stroke-opacity="0.200000" points="388.05,-130.03 394.18,-128.34 388.33,-125.84 388.05,-130.03"/>
</g>
</g>
</svg>
