<?xml version="1.0" encoding="UTF-8" standalone="no"?>
<!DOCTYPE svg PUBLIC "-//W3C//DTD SVG 1.1//EN"
 "http://www.w3.org/Graphics/SVG/1.1/DTD/svg11.dtd">
<!-- Generated by graphviz version 12.2.1 (20241206.2353)
 -->
<!-- Title: dependency&#45;cruiser output Pages: 1 -->
<svg width="378pt" height="393pt"
 viewBox="0.00 0.00 377.50 393.00" xmlns="http://www.w3.org/2000/svg" xmlns:xlink="http://www.w3.org/1999/xlink">
<g id="graph0" class="graph" transform="scale(1 1) rotate(0) translate(4 389)">
<title>dependency&#45;cruiser output</title>
<polygon fill="white" stroke="none" points="-4,4 -4,-389 373.5,-389 373.5,4 -4,4"/>
<g id="clust1" class="cluster">
<title>cluster_src</title>
<path fill="#ffffff" stroke="black" stroke-width="2" d="M20,-8C20,-8 349.5,-8 349.5,-8 355.5,-8 361.5,-14 361.5,-20 361.5,-20 361.5,-365 361.5,-365 361.5,-371 355.5,-377 349.5,-377 349.5,-377 20,-377 20,-377 14,-377 8,-371 8,-365 8,-365 8,-20 8,-20 8,-14 14,-8 20,-8"/>
<text text-anchor="middle" x="184.75" y="-364.45" font-family="Helvetica,sans-Serif" font-weight="bold" font-size="9.00">src</text>
</g>
<!-- src/codeframe.ts -->
<g id="node1" class="node">
<title>src/codeframe.ts</title>
<g id="a_node1"><a xlink:href="src/codeframe.ts" xlink:title="codeframe.ts">
<path fill="#ddfeff" stroke="black" d="M154.71,-34.25C154.71,-34.25 98.54,-34.25 98.54,-34.25 95.46,-34.25 92.38,-31.17 92.38,-28.08 92.38,-28.08 92.38,-21.92 92.38,-21.92 92.38,-18.83 95.46,-15.75 98.54,-15.75 98.54,-15.75 154.71,-15.75 154.71,-15.75 157.79,-15.75 160.88,-18.83 160.88,-21.92 160.88,-21.92 160.88,-28.08 160.88,-28.08 160.88,-31.17 157.79,-34.25 154.71,-34.25"/>
<text text-anchor="start" x="100.38" y="-21.7" font-family="Helvetica,sans-Serif" font-size="9.00">codeframe.ts</text>
</a>
</g>
</g>
<!-- src/domAttrConfig.ts -->
<g id="node2" class="node">
<title>src/domAttrConfig.ts</title>
<g id="a_node2"><a xlink:href="src/domAttrConfig.ts" xlink:title="domAttrConfig.ts">
<path fill="#ddfeff" stroke="black" d="M264.71,-48.25C264.71,-48.25 193.54,-48.25 193.54,-48.25 190.46,-48.25 187.38,-45.17 187.38,-42.08 187.38,-42.08 187.38,-35.92 187.38,-35.92 187.38,-32.83 190.46,-29.75 193.54,-29.75 193.54,-29.75 264.71,-29.75 264.71,-29.75 267.79,-29.75 270.88,-32.83 270.88,-35.92 270.88,-35.92 270.88,-42.08 270.88,-42.08 270.88,-45.17 267.79,-48.25 264.71,-48.25"/>
<text text-anchor="start" x="195.38" y="-35.7" font-family="Helvetica,sans-Serif" font-size="9.00">domAttrConfig.ts</text>
</a>
</g>
</g>
<!-- src/makeMap.ts -->
<g id="node3" class="node">
<title>src/makeMap.ts</title>
<g id="a_node3"><a xlink:href="src/makeMap.ts" xlink:title="makeMap.ts">
<path fill="#ddfeff" stroke="black" d="M347.33,-92.25C347.33,-92.25 294.17,-92.25 294.17,-92.25 291.08,-92.25 288,-89.17 288,-86.08 288,-86.08 288,-79.92 288,-79.92 288,-76.83 291.08,-73.75 294.17,-73.75 294.17,-73.75 347.33,-73.75 347.33,-73.75 350.42,-73.75 353.5,-76.83 353.5,-79.92 353.5,-79.92 353.5,-86.08 353.5,-86.08 353.5,-89.17 350.42,-92.25 347.33,-92.25"/>
<text text-anchor="start" x="296" y="-79.7" font-family="Helvetica,sans-Serif" font-size="9.00">makeMap.ts</text>
</a>
</g>
</g>
<!-- src/domAttrConfig.ts&#45;&gt;src/makeMap.ts -->
<g id="edge1" class="edge">
<title>src/domAttrConfig.ts&#45;&gt;src/makeMap.ts</title>
<path fill="none" stroke="#000000" stroke-width="2" stroke-opacity="0.200000" d="M256.03,-48.65C262.32,-51.19 268.96,-54.06 275,-57 282.2,-60.51 289.81,-64.73 296.67,-68.74"/>
<polygon fill="#000000" fill-opacity="0.200000" stroke="#000000" stroke-width="2" stroke-opacity="0.200000" points="295.48,-70.47 301.71,-71.74 297.63,-66.86 295.48,-70.47"/>
</g>
<!-- src/domTagConfig.ts -->
<g id="node4" class="node">
<title>src/domTagConfig.ts</title>
<g id="a_node4"><a xlink:href="src/domTagConfig.ts" xlink:title="domTagConfig.ts">
<path fill="#ddfeff" stroke="black" d="M265.46,-92.25C265.46,-92.25 192.79,-92.25 192.79,-92.25 189.71,-92.25 186.62,-89.17 186.62,-86.08 186.62,-86.08 186.62,-79.92 186.62,-79.92 186.62,-76.83 189.71,-73.75 192.79,-73.75 192.79,-73.75 265.46,-73.75 265.46,-73.75 268.54,-73.75 271.62,-76.83 271.62,-79.92 271.62,-79.92 271.62,-86.08 271.62,-86.08 271.62,-89.17 268.54,-92.25 265.46,-92.25"/>
<text text-anchor="start" x="194.62" y="-79.7" font-family="Helvetica,sans-Serif" font-size="9.00">domTagConfig.ts</text>
</a>
</g>
</g>
<!-- src/domTagConfig.ts&#45;&gt;src/makeMap.ts -->
<g id="edge2" class="edge">
<title>src/domTagConfig.ts&#45;&gt;src/makeMap.ts</title>
<path fill="none" stroke="#000000" stroke-width="2" stroke-opacity="0.200000" d="M272.05,-83C274.32,-83 276.61,-83 278.87,-83"/>
<polygon fill="#000000" fill-opacity="0.200000" stroke="#000000" stroke-width="2" stroke-opacity="0.200000" points="278.48,-85.1 284.48,-83 278.48,-80.9 278.48,-85.1"/>
</g>
<!-- src/escapeHtml.ts -->
<g id="node5" class="node">
<title>src/escapeHtml.ts</title>
<g id="a_node5"><a xlink:href="src/escapeHtml.ts" xlink:title="escapeHtml.ts">
<path fill="#ddfeff" stroke="black" d="M157.33,-106.25C157.33,-106.25 95.92,-106.25 95.92,-106.25 92.83,-106.25 89.75,-103.17 89.75,-100.08 89.75,-100.08 89.75,-93.92 89.75,-93.92 89.75,-90.83 92.83,-87.75 95.92,-87.75 95.92,-87.75 157.33,-87.75 157.33,-87.75 160.42,-87.75 163.5,-90.83 163.5,-93.92 163.5,-93.92 163.5,-100.08 163.5,-100.08 163.5,-103.17 160.42,-106.25 157.33,-106.25"/>
<text text-anchor="start" x="97.75" y="-93.7" font-family="Helvetica,sans-Serif" font-size="9.00">escapeHtml.ts</text>
</a>
</g>
</g>
<!-- src/general.ts -->
<g id="node6" class="node">
<title>src/general.ts</title>
<g id="a_node6"><a xlink:href="src/general.ts" xlink:title="general.ts">
<path fill="#ddfeff" stroke="black" d="M251.21,-164.25C251.21,-164.25 207.04,-164.25 207.04,-164.25 203.96,-164.25 200.88,-161.17 200.88,-158.08 200.88,-158.08 200.88,-151.92 200.88,-151.92 200.88,-148.83 203.96,-145.75 207.04,-145.75 207.04,-145.75 251.21,-145.75 251.21,-145.75 254.29,-145.75 257.38,-148.83 257.38,-151.92 257.38,-151.92 257.38,-158.08 257.38,-158.08 257.38,-161.17 254.29,-164.25 251.21,-164.25"/>
<text text-anchor="start" x="208.88" y="-151.7" font-family="Helvetica,sans-Serif" font-size="9.00">general.ts</text>
</a>
</g>
</g>
<!-- src/general.ts&#45;&gt;src/makeMap.ts -->
<g id="edge3" class="edge">
<title>src/general.ts&#45;&gt;src/makeMap.ts</title>
<path fill="none" stroke="#000000" stroke-width="2" stroke-opacity="0.200000" d="M252.97,-145.25C260.34,-141.61 268.32,-137.1 275,-132 287.23,-122.66 298.88,-109.73 307.23,-99.49"/>
<polygon fill="#000000" fill-opacity="0.200000" stroke="#000000" stroke-width="2" stroke-opacity="0.200000" points="308.72,-100.99 310.8,-94.98 305.43,-98.38 308.72,-100.99"/>
</g>
<!-- src/globalsAllowList.ts -->
<g id="node7" class="node">
<title>src/globalsAllowList.ts</title>
<g id="a_node7"><a xlink:href="src/globalsAllowList.ts" xlink:title="globalsAllowList.ts">
<path fill="#ddfeff" stroke="black" d="M268.83,-126.25C268.83,-126.25 189.42,-126.25 189.42,-126.25 186.33,-126.25 183.25,-123.17 183.25,-120.08 183.25,-120.08 183.25,-113.92 183.25,-113.92 183.25,-110.83 186.33,-107.75 189.42,-107.75 189.42,-107.75 268.83,-107.75 268.83,-107.75 271.92,-107.75 275,-110.83 275,-113.92 275,-113.92 275,-120.08 275,-120.08 275,-123.17 271.92,-126.25 268.83,-126.25"/>
<text text-anchor="start" x="191.25" y="-113.7" font-family="Helvetica,sans-Serif" font-size="9.00">globalsAllowList.ts</text>
</a>
</g>
</g>
<!-- src/globalsAllowList.ts&#45;&gt;src/makeMap.ts -->
<g id="edge4" class="edge">
<title>src/globalsAllowList.ts&#45;&gt;src/makeMap.ts</title>
<path fill="none" stroke="#000000" stroke-width="2" stroke-opacity="0.200000" d="M255.57,-107.35C265.03,-103.76 275.92,-99.63 286.01,-95.8"/>
<polygon fill="#000000" fill-opacity="0.200000" stroke="#000000" stroke-width="2" stroke-opacity="0.200000" points="286.55,-97.84 291.41,-93.75 285.06,-93.91 286.55,-97.84"/>
</g>
<!-- src/index.ts -->
<g id="node8" class="node">
<title>src/index.ts</title>
<g id="a_node8"><a xlink:href="src/index.ts" xlink:title="index.ts">
<path fill="#ddfeff" stroke="black" d="M63.83,-153.25C63.83,-153.25 22.17,-153.25 22.17,-153.25 19.08,-153.25 16,-150.17 16,-147.08 16,-147.08 16,-140.92 16,-140.92 16,-137.83 19.08,-134.75 22.17,-134.75 22.17,-134.75 63.83,-134.75 63.83,-134.75 66.92,-134.75 70,-137.83 70,-140.92 70,-140.92 70,-147.08 70,-147.08 70,-150.17 66.92,-153.25 63.83,-153.25"/>
<text text-anchor="start" x="27.25" y="-140.7" font-family="Helvetica,sans-Serif" font-size="9.00">index.ts</text>
</a>
</g>
</g>
<!-- src/index.ts&#45;&gt;src/codeframe.ts -->
<g id="edge5" class="edge">
<title>src/index.ts&#45;&gt;src/codeframe.ts</title>
<path fill="none" stroke="#000000" stroke-width="2" stroke-opacity="0.200000" d="M45.2,-134.32C48.12,-114.6 57.36,-69.45 83,-43 84.62,-41.33 86.42,-39.8 88.34,-38.41"/>
<polygon fill="#000000" fill-opacity="0.200000" stroke="#000000" stroke-width="2" stroke-opacity="0.200000" points="94.65,-36.95 88.45,-38.35 92.43,-33.39 94.65,-36.95"/>
</g>
<!-- src/index.ts&#45;&gt;src/domAttrConfig.ts -->
<g id="edge6" class="edge">
<title>src/index.ts&#45;&gt;src/domAttrConfig.ts</title>
<path fill="none" stroke="#000000" stroke-width="2" stroke-opacity="0.200000" d="M45.21,-134.52C48.09,-116.21 57.17,-76.08 83,-57 98.03,-45.9 143.75,-41.61 179.9,-39.97"/>
<polygon fill="#000000" fill-opacity="0.200000" stroke="#000000" stroke-width="2" stroke-opacity="0.200000" points="186.08,-41.82 180,-39.97 185.91,-37.62 186.08,-41.82"/>
</g>
<!-- src/index.ts&#45;&gt;src/makeMap.ts -->
<g id="edge12" class="edge">
<title>src/index.ts&#45;&gt;src/makeMap.ts</title>
<path fill="none" stroke="#000000" stroke-width="2" stroke-opacity="0.200000" d="M45.51,-134.41C48.8,-117.14 58.4,-81.2 83,-66 89.71,-61.85 265.89,-66.42 275,-68 279.56,-68.79 284.28,-69.96 288.87,-71.3"/>
<polygon fill="#000000" fill-opacity="0.200000" stroke="#000000" stroke-width="2" stroke-opacity="0.200000" points="293.89,-75.08 288.8,-71.28 295.15,-71.07 293.89,-75.08"/>
</g>
<!-- src/index.ts&#45;&gt;src/domTagConfig.ts -->
<g id="edge7" class="edge">
<title>src/index.ts&#45;&gt;src/domTagConfig.ts</title>
<path fill="none" stroke="#000000" stroke-width="2" stroke-opacity="0.200000" d="M46.81,-134.26C51.58,-119.81 62.74,-93.19 83,-82 113.86,-64.95 154.34,-66.84 184.7,-72.06"/>
<polygon fill="#000000" fill-opacity="0.200000" stroke="#000000" stroke-width="2" stroke-opacity="0.200000" points="190.05,-75.17 184.53,-72.02 190.81,-71.04 190.05,-75.17"/>
</g>
<!-- src/index.ts&#45;&gt;src/escapeHtml.ts -->
<g id="edge8" class="edge">
<title>src/index.ts&#45;&gt;src/escapeHtml.ts</title>
<path fill="none" stroke="#000000" stroke-width="2" stroke-opacity="0.200000" d="M55.44,-134.34C62.96,-128.3 73.19,-120.61 83,-115 86.31,-113.11 89.86,-111.29 93.45,-109.6"/>
<polygon fill="#000000" fill-opacity="0.200000" stroke="#000000" stroke-width="2" stroke-opacity="0.200000" points="99.85,-109.01 93.52,-109.57 98.12,-105.19 99.85,-109.01"/>
</g>
<!-- src/index.ts&#45;&gt;src/general.ts -->
<g id="edge9" class="edge">
<title>src/index.ts&#45;&gt;src/general.ts</title>
<path fill="none" stroke="#000000" stroke-width="2" stroke-opacity="0.200000" d="M70.41,-140.92C74.61,-140.54 78.92,-140.21 83,-140 121.73,-138.02 131.78,-135.1 170.25,-140 177.9,-140.97 185.98,-142.65 193.6,-144.53"/>
<polygon fill="#000000" fill-opacity="0.200000" stroke="#000000" stroke-width="2" stroke-opacity="0.200000" points="198.94,-148.08 193.66,-144.55 200,-144.02 198.94,-148.08"/>
</g>
<!-- src/index.ts&#45;&gt;src/globalsAllowList.ts -->
<g id="edge10" class="edge">
<title>src/index.ts&#45;&gt;src/globalsAllowList.ts</title>
<path fill="none" stroke="#000000" stroke-width="2" stroke-opacity="0.200000" d="M70.33,-136.74C74.54,-135.72 78.88,-134.77 83,-134 113.58,-128.32 148.16,-124.18 175.89,-121.41"/>
<polygon fill="#000000" fill-opacity="0.200000" stroke="#000000" stroke-width="2" stroke-opacity="0.200000" points="181.99,-122.92 175.82,-121.41 181.58,-118.74 181.99,-122.92"/>
</g>
<!-- src/looseEqual.ts -->
<g id="node9" class="node">
<title>src/looseEqual.ts</title>
<g id="a_node9"><a xlink:href="src/looseEqual.ts" xlink:title="looseEqual.ts">
<path fill="#ddfeff" stroke="black" d="M156.21,-164.25C156.21,-164.25 97.04,-164.25 97.04,-164.25 93.96,-164.25 90.88,-161.17 90.88,-158.08 90.88,-158.08 90.88,-151.92 90.88,-151.92 90.88,-148.83 93.96,-145.75 97.04,-145.75 97.04,-145.75 156.21,-145.75 156.21,-145.75 159.29,-145.75 162.38,-148.83 162.38,-151.92 162.38,-151.92 162.38,-158.08 162.38,-158.08 162.38,-161.17 159.29,-164.25 156.21,-164.25"/>
<text text-anchor="start" x="98.88" y="-151.7" font-family="Helvetica,sans-Serif" font-size="9.00">looseEqual.ts</text>
</a>
</g>
</g>
<!-- src/index.ts&#45;&gt;src/looseEqual.ts -->
<g id="edge11" class="edge">
<title>src/index.ts&#45;&gt;src/looseEqual.ts</title>
<path fill="none" stroke="#000000" stroke-width="2" stroke-opacity="0.200000" d="M70.28,-147.54C74.5,-148.11 78.96,-148.71 83.44,-149.31"/>
<polygon fill="#000000" fill-opacity="0.200000" stroke="#000000" stroke-width="2" stroke-opacity="0.200000" points="89.19,-152.21 83.53,-149.33 89.76,-148.05 89.19,-152.21"/>
</g>
<!-- src/normalizeProp.ts -->
<g id="node10" class="node">
<title>src/normalizeProp.ts</title>
<g id="a_node10"><a xlink:href="src/normalizeProp.ts" xlink:title="normalizeProp.ts">
<path fill="#ddfeff" stroke="black" d="M162.96,-195.25C162.96,-195.25 90.29,-195.25 90.29,-195.25 87.21,-195.25 84.12,-192.17 84.12,-189.08 84.12,-189.08 84.12,-182.92 84.12,-182.92 84.12,-179.83 87.21,-176.75 90.29,-176.75 90.29,-176.75 162.96,-176.75 162.96,-176.75 166.04,-176.75 169.12,-179.83 169.12,-182.92 169.12,-182.92 169.12,-189.08 169.12,-189.08 169.12,-192.17 166.04,-195.25 162.96,-195.25"/>
<text text-anchor="start" x="92.12" y="-182.7" font-family="Helvetica,sans-Serif" font-size="9.00">normalizeProp.ts</text>
</a>
</g>
</g>
<!-- src/index.ts&#45;&gt;src/normalizeProp.ts -->
<g id="edge13" class="edge">
<title>src/index.ts&#45;&gt;src/normalizeProp.ts</title>
<path fill="none" stroke="#000000" stroke-width="2" stroke-opacity="0.200000" d="M56.9,-153.69C64.28,-158.95 73.88,-165.32 83,-170 85.53,-171.3 88.2,-172.55 90.9,-173.74"/>
<polygon fill="#000000" fill-opacity="0.200000" stroke="#000000" stroke-width="2" stroke-opacity="0.200000" points="95.52,-177.94 90.8,-173.69 97.15,-174.07 95.52,-177.94"/>
</g>
<!-- src/patchFlags.ts -->
<g id="node11" class="node">
<title>src/patchFlags.ts</title>
<g id="a_node11"><a xlink:href="src/patchFlags.ts" xlink:title="patchFlags.ts">
<path fill="#ddfeff" stroke="black" d="M155.46,-226.25C155.46,-226.25 97.79,-226.25 97.79,-226.25 94.71,-226.25 91.62,-223.17 91.62,-220.08 91.62,-220.08 91.62,-213.92 91.62,-213.92 91.62,-210.83 94.71,-207.75 97.79,-207.75 97.79,-207.75 155.46,-207.75 155.46,-207.75 158.54,-207.75 161.62,-210.83 161.62,-213.92 161.62,-213.92 161.62,-220.08 161.62,-220.08 161.62,-223.17 158.54,-226.25 155.46,-226.25"/>
<text text-anchor="start" x="99.62" y="-213.7" font-family="Helvetica,sans-Serif" font-size="9.00">patchFlags.ts</text>
</a>
</g>
</g>
<!-- src/index.ts&#45;&gt;src/patchFlags.ts -->
<g id="edge14" class="edge">
<title>src/index.ts&#45;&gt;src/patchFlags.ts</title>
<path fill="none" stroke="#000000" stroke-width="2" stroke-opacity="0.200000" d="M48.18,-153.41C54.19,-165.92 66.39,-187.98 83,-201 84.36,-202.07 85.8,-203.07 87.29,-204.01"/>
<polygon fill="#000000" fill-opacity="0.200000" stroke="#000000" stroke-width="2" stroke-opacity="0.200000" points="91.39,-208.68 87.16,-203.93 93.43,-205.01 91.39,-208.68"/>
</g>
<!-- src/shapeFlags.ts -->
<g id="node12" class="node">
<title>src/shapeFlags.ts</title>
<g id="a_node12"><a xlink:href="src/shapeFlags.ts" xlink:title="shapeFlags.ts">
<path fill="#ddfeff" stroke="black" d="M156.96,-257.25C156.96,-257.25 96.29,-257.25 96.29,-257.25 93.21,-257.25 90.12,-254.17 90.12,-251.08 90.12,-251.08 90.12,-244.92 90.12,-244.92 90.12,-241.83 93.21,-238.75 96.29,-238.75 96.29,-238.75 156.96,-238.75 156.96,-238.75 160.04,-238.75 163.12,-241.83 163.12,-244.92 163.12,-244.92 163.12,-251.08 163.12,-251.08 163.12,-254.17 160.04,-257.25 156.96,-257.25"/>
<text text-anchor="start" x="98.12" y="-244.7" font-family="Helvetica,sans-Serif" font-size="9.00">shapeFlags.ts</text>
</a>
</g>
</g>
<!-- src/index.ts&#45;&gt;src/shapeFlags.ts -->
<g id="edge15" class="edge">
<title>src/index.ts&#45;&gt;src/shapeFlags.ts</title>
<path fill="none" stroke="#000000" stroke-width="2" stroke-opacity="0.200000" d="M45.72,-153.62C49.39,-171.49 59.66,-209.98 83,-232 83.99,-232.94 85.04,-233.82 86.14,-234.65"/>
<polygon fill="#000000" fill-opacity="0.200000" stroke="#000000" stroke-width="2" stroke-opacity="0.200000" points="90,-239.63 86.09,-234.61 92.27,-236.09 90,-239.63"/>
</g>
<!-- src/slotFlags.ts -->
<g id="node13" class="node">
<title>src/slotFlags.ts</title>
<g id="a_node13"><a xlink:href="src/slotFlags.ts" xlink:title="slotFlags.ts">
<path fill="#ddfeff" stroke="black" d="M151.33,-288.25C151.33,-288.25 101.92,-288.25 101.92,-288.25 98.83,-288.25 95.75,-285.17 95.75,-282.08 95.75,-282.08 95.75,-275.92 95.75,-275.92 95.75,-272.83 98.83,-269.75 101.92,-269.75 101.92,-269.75 151.33,-269.75 151.33,-269.75 154.42,-269.75 157.5,-272.83 157.5,-275.92 157.5,-275.92 157.5,-282.08 157.5,-282.08 157.5,-285.17 154.42,-288.25 151.33,-288.25"/>
<text text-anchor="start" x="103.75" y="-275.7" font-family="Helvetica,sans-Serif" font-size="9.00">slotFlags.ts</text>
</a>
</g>
</g>
<!-- src/index.ts&#45;&gt;src/slotFlags.ts -->
<g id="edge16" class="edge">
<title>src/index.ts&#45;&gt;src/slotFlags.ts</title>
<path fill="none" stroke="#000000" stroke-width="2" stroke-opacity="0.200000" d="M44.44,-153.75C45.96,-176.08 52.76,-231.45 83,-263 84.97,-265.05 87.23,-266.85 89.65,-268.41"/>
<polygon fill="#000000" fill-opacity="0.200000" stroke="#000000" stroke-width="2" stroke-opacity="0.200000" points="93.68,-273.02 89.43,-268.29 95.7,-269.34 93.68,-273.02"/>
</g>
<!-- src/toDisplayString.ts -->
<g id="node14" class="node">
<title>src/toDisplayString.ts</title>
<g id="a_node14"><a xlink:href="src/toDisplayString.ts" xlink:title="toDisplayString.ts">
<path fill="#ddfeff" stroke="black" d="M164.08,-319.25C164.08,-319.25 89.17,-319.25 89.17,-319.25 86.08,-319.25 83,-316.17 83,-313.08 83,-313.08 83,-306.92 83,-306.92 83,-303.83 86.08,-300.75 89.17,-300.75 89.17,-300.75 164.08,-300.75 164.08,-300.75 167.17,-300.75 170.25,-303.83 170.25,-306.92 170.25,-306.92 170.25,-313.08 170.25,-313.08 170.25,-316.17 167.17,-319.25 164.08,-319.25"/>
<text text-anchor="start" x="91" y="-306.7" font-family="Helvetica,sans-Serif" font-size="9.00">toDisplayString.ts</text>
</a>
</g>
</g>
<!-- src/index.ts&#45;&gt;src/toDisplayString.ts -->
<g id="edge17" class="edge">
<title>src/index.ts&#45;&gt;src/toDisplayString.ts</title>
<path fill="none" stroke="#000000" stroke-width="2" stroke-opacity="0.200000" d="M43.65,-153.46C43.21,-179.38 45.55,-252.41 83,-294 83.69,-294.77 84.43,-295.5 85.2,-296.2"/>
<polygon fill="#000000" fill-opacity="0.200000" stroke="#000000" stroke-width="2" stroke-opacity="0.200000" points="88.67,-301.41 85.11,-296.14 91.18,-298.04 88.67,-301.41"/>
</g>
<!-- src/typeUtils.ts -->
<g id="node15" class="node">
<title>src/typeUtils.ts</title>
<g id="a_node15"><a xlink:href="src/typeUtils.ts" xlink:title="typeUtils.ts">
<path fill="#ddfeff" stroke="black" d="M150.58,-350.25C150.58,-350.25 102.67,-350.25 102.67,-350.25 99.58,-350.25 96.5,-347.17 96.5,-344.08 96.5,-344.08 96.5,-337.92 96.5,-337.92 96.5,-334.83 99.58,-331.75 102.67,-331.75 102.67,-331.75 150.58,-331.75 150.58,-331.75 153.67,-331.75 156.75,-334.83 156.75,-337.92 156.75,-337.92 156.75,-344.08 156.75,-344.08 156.75,-347.17 153.67,-350.25 150.58,-350.25"/>
<text text-anchor="start" x="104.5" y="-337.7" font-family="Helvetica,sans-Serif" font-size="9.00">typeUtils.ts</text>
</a>
</g>
</g>
<!-- src/index.ts&#45;&gt;src/typeUtils.ts -->
<g id="edge18" class="edge">
<title>src/index.ts&#45;&gt;src/typeUtils.ts</title>
<path fill="none" stroke="#000000" stroke-width="2" stroke-opacity="0.200000" d="M44.85,-153.48C48.04,-186.9 60.21,-298.6 83,-325 84.98,-327.29 87.31,-329.25 89.86,-330.93"/>
<polygon fill="#000000" fill-opacity="0.200000" stroke="#000000" stroke-width="2" stroke-opacity="0.200000" points="94.22,-335.73 89.97,-331 96.24,-332.05 94.22,-335.73"/>
</g>
<!-- src/looseEqual.ts&#45;&gt;src/general.ts -->
<g id="edge19" class="edge">
<title>src/looseEqual.ts&#45;&gt;src/general.ts</title>
<path fill="none" stroke="#000000" stroke-width="2" stroke-opacity="0.200000" d="M162.78,-155C172.13,-155 182.25,-155 191.67,-155"/>
<polygon fill="#000000" fill-opacity="0.200000" stroke="#000000" stroke-width="2" stroke-opacity="0.200000" points="191.41,-157.1 197.41,-155 191.41,-152.9 191.41,-157.1"/>
</g>
<!-- src/normalizeProp.ts&#45;&gt;src/general.ts -->
<g id="edge20" class="edge">
<title>src/normalizeProp.ts&#45;&gt;src/general.ts</title>
<path fill="none" stroke="#000000" stroke-width="2" stroke-opacity="0.200000" d="M159.15,-176.28C169.6,-173.05 181.3,-169.44 192.06,-166.12"/>
<polygon fill="#000000" fill-opacity="0.200000" stroke="#000000" stroke-width="2" stroke-opacity="0.200000" points="192.44,-168.2 197.56,-164.43 191.2,-164.19 192.44,-168.2"/>
</g>
<!-- src/toDisplayString.ts&#45;&gt;src/general.ts -->
<g id="edge21" class="edge">
<title>src/toDisplayString.ts&#45;&gt;src/general.ts</title>
<path fill="none" stroke="#000000" stroke-width="2" stroke-opacity="0.200000" d="M161.33,-300.46C164.58,-298.66 167.63,-296.53 170.25,-294 205.06,-260.4 219.79,-202.73 225.28,-173.36"/>
<polygon fill="#000000" fill-opacity="0.200000" stroke="#000000" stroke-width="2" stroke-opacity="0.200000" points="227.33,-173.81 226.28,-167.54 223.19,-173.09 227.33,-173.81"/>
</g>
</g>
</svg>
