<?xml version="1.0" encoding="UTF-8" standalone="no"?>
<!DOCTYPE svg PUBLIC "-//W3C//DTD SVG 1.1//EN"
 "http://www.w3.org/Graphics/SVG/1.1/DTD/svg11.dtd">
<!-- Generated by graphviz version 12.2.1 (20241206.2353)
 -->
<!-- Title: dependency&#45;cruiser output Pages: 1 -->
<svg width="378pt" height="453pt"
 viewBox="0.00 0.00 377.50 453.00" xmlns="http://www.w3.org/2000/svg" xmlns:xlink="http://www.w3.org/1999/xlink">
<g id="graph0" class="graph" transform="scale(1 1) rotate(0) translate(4 449)">
<title>dependency&#45;cruiser output</title>
<polygon fill="white" stroke="none" points="-4,4 -4,-449 373.5,-449 373.5,4 -4,4"/>
<g id="clust1" class="cluster">
<title>cluster_@vue</title>
<path fill="#ffffff" stroke="black" stroke-width="2" d="M206.12,-8C206.12,-8 252.12,-8 252.12,-8 258.12,-8 264.12,-14 264.12,-20 264.12,-20 264.12,-49 264.12,-49 264.12,-55 258.12,-61 252.12,-61 252.12,-61 206.12,-61 206.12,-61 200.12,-61 194.12,-55 194.12,-49 194.12,-49 194.12,-20 194.12,-20 194.12,-14 200.12,-8 206.12,-8"/>
<text text-anchor="middle" x="229.12" y="-48.45" font-family="Helvetica,sans-Serif" font-weight="bold" font-size="9.00">@vue</text>
</g>
<g id="clust2" class="cluster">
<title>cluster_src</title>
<path fill="#ffffff" stroke="black" stroke-width="2" d="M20,-69C20,-69 349.5,-69 349.5,-69 355.5,-69 361.5,-75 361.5,-81 361.5,-81 361.5,-425 361.5,-425 361.5,-431 355.5,-437 349.5,-437 349.5,-437 20,-437 20,-437 14,-437 8,-431 8,-425 8,-425 8,-81 8,-81 8,-75 14,-69 20,-69"/>
<text text-anchor="middle" x="184.75" y="-424.45" font-family="Helvetica,sans-Serif" font-weight="bold" font-size="9.00">src</text>
</g>
<!-- @vue/reactivity -->
<g id="node1" class="node">
<title>@vue/reactivity</title>
<g id="a_node1"><a xlink:title="reactivity">
<path fill="#ffffcc" stroke="black" d="M249.96,-34.25C249.96,-34.25 208.29,-34.25 208.29,-34.25 205.21,-34.25 202.12,-31.17 202.12,-28.08 202.12,-28.08 202.12,-21.92 202.12,-21.92 202.12,-18.83 205.21,-15.75 208.29,-15.75 208.29,-15.75 249.96,-15.75 249.96,-15.75 253.04,-15.75 256.12,-18.83 256.12,-21.92 256.12,-21.92 256.12,-28.08 256.12,-28.08 256.12,-31.17 253.04,-34.25 249.96,-34.25"/>
<text text-anchor="start" x="211.12" y="-21.7" font-family="Helvetica,sans-Serif" font-size="9.00">reactivity</text>
</a>
</g>
</g>
<!-- src/codeframe.ts -->
<g id="node2" class="node">
<title>src/codeframe.ts</title>
<g id="a_node2"><a xlink:href="src/codeframe.ts" xlink:title="codeframe.ts">
<path fill="#ddfeff" stroke="black" d="M154.71,-95.25C154.71,-95.25 98.54,-95.25 98.54,-95.25 95.46,-95.25 92.38,-92.17 92.38,-89.08 92.38,-89.08 92.38,-82.92 92.38,-82.92 92.38,-79.83 95.46,-76.75 98.54,-76.75 98.54,-76.75 154.71,-76.75 154.71,-76.75 157.79,-76.75 160.88,-79.83 160.88,-82.92 160.88,-82.92 160.88,-89.08 160.88,-89.08 160.88,-92.17 157.79,-95.25 154.71,-95.25"/>
<text text-anchor="start" x="100.38" y="-82.7" font-family="Helvetica,sans-Serif" font-size="9.00">codeframe.ts</text>
</a>
</g>
</g>
<!-- src/domAttrConfig.ts -->
<g id="node3" class="node">
<title>src/domAttrConfig.ts</title>
<g id="a_node3"><a xlink:href="src/domAttrConfig.ts" xlink:title="domAttrConfig.ts">
<path fill="#ddfeff" stroke="black" d="M264.71,-128.25C264.71,-128.25 193.54,-128.25 193.54,-128.25 190.46,-128.25 187.38,-125.17 187.38,-122.08 187.38,-122.08 187.38,-115.92 187.38,-115.92 187.38,-112.83 190.46,-109.75 193.54,-109.75 193.54,-109.75 264.71,-109.75 264.71,-109.75 267.79,-109.75 270.88,-112.83 270.88,-115.92 270.88,-115.92 270.88,-122.08 270.88,-122.08 270.88,-125.17 267.79,-128.25 264.71,-128.25"/>
<text text-anchor="start" x="195.38" y="-115.7" font-family="Helvetica,sans-Serif" font-size="9.00">domAttrConfig.ts</text>
</a>
</g>
</g>
<!-- src/makeMap.ts -->
<g id="node4" class="node">
<title>src/makeMap.ts</title>
<g id="a_node4"><a xlink:href="src/makeMap.ts" xlink:title="makeMap.ts">
<path fill="#ddfeff" stroke="black" d="M347.33,-185.25C347.33,-185.25 294.17,-185.25 294.17,-185.25 291.08,-185.25 288,-182.17 288,-179.08 288,-179.08 288,-172.92 288,-172.92 288,-169.83 291.08,-166.75 294.17,-166.75 294.17,-166.75 347.33,-166.75 347.33,-166.75 350.42,-166.75 353.5,-169.83 353.5,-172.92 353.5,-172.92 353.5,-179.08 353.5,-179.08 353.5,-182.17 350.42,-185.25 347.33,-185.25"/>
<text text-anchor="start" x="296" y="-172.7" font-family="Helvetica,sans-Serif" font-size="9.00">makeMap.ts</text>
</a>
</g>
</g>
<!-- src/domAttrConfig.ts&#45;&gt;src/makeMap.ts -->
<g id="edge1" class="edge">
<title>src/domAttrConfig.ts&#45;&gt;src/makeMap.ts</title>
<path fill="none" stroke="#000000" stroke-width="2" stroke-opacity="0.200000" d="M245.33,-128.67C259.49,-137.68 280.8,-151.23 296.99,-161.52"/>
<polygon fill="#000000" fill-opacity="0.200000" stroke="#000000" stroke-width="2" stroke-opacity="0.200000" points="295.73,-163.21 301.92,-164.66 297.98,-159.67 295.73,-163.21"/>
</g>
<!-- src/domTagConfig.ts -->
<g id="node5" class="node">
<title>src/domTagConfig.ts</title>
<g id="a_node5"><a xlink:href="src/domTagConfig.ts" xlink:title="domTagConfig.ts">
<path fill="#ddfeff" stroke="black" d="M265.46,-185.25C265.46,-185.25 192.79,-185.25 192.79,-185.25 189.71,-185.25 186.62,-182.17 186.62,-179.08 186.62,-179.08 186.62,-172.92 186.62,-172.92 186.62,-169.83 189.71,-166.75 192.79,-166.75 192.79,-166.75 265.46,-166.75 265.46,-166.75 268.54,-166.75 271.62,-169.83 271.62,-172.92 271.62,-172.92 271.62,-179.08 271.62,-179.08 271.62,-182.17 268.54,-185.25 265.46,-185.25"/>
<text text-anchor="start" x="194.62" y="-172.7" font-family="Helvetica,sans-Serif" font-size="9.00">domTagConfig.ts</text>
</a>
</g>
</g>
<!-- src/domTagConfig.ts&#45;&gt;src/makeMap.ts -->
<g id="edge2" class="edge">
<title>src/domTagConfig.ts&#45;&gt;src/makeMap.ts</title>
<path fill="none" stroke="#000000" stroke-width="2" stroke-opacity="0.200000" d="M272.05,-176C274.32,-176 276.61,-176 278.87,-176"/>
<polygon fill="#000000" fill-opacity="0.200000" stroke="#000000" stroke-width="2" stroke-opacity="0.200000" points="278.48,-178.1 284.48,-176 278.48,-173.9 278.48,-178.1"/>
</g>
<!-- src/escapeHtml.ts -->
<g id="node6" class="node">
<title>src/escapeHtml.ts</title>
<g id="a_node6"><a xlink:href="src/escapeHtml.ts" xlink:title="escapeHtml.ts">
<path fill="#ddfeff" stroke="black" d="M157.33,-183.25C157.33,-183.25 95.92,-183.25 95.92,-183.25 92.83,-183.25 89.75,-180.17 89.75,-177.08 89.75,-177.08 89.75,-170.92 89.75,-170.92 89.75,-167.83 92.83,-164.75 95.92,-164.75 95.92,-164.75 157.33,-164.75 157.33,-164.75 160.42,-164.75 163.5,-167.83 163.5,-170.92 163.5,-170.92 163.5,-177.08 163.5,-177.08 163.5,-180.17 160.42,-183.25 157.33,-183.25"/>
<text text-anchor="start" x="97.75" y="-170.7" font-family="Helvetica,sans-Serif" font-size="9.00">escapeHtml.ts</text>
</a>
</g>
</g>
<!-- src/general.ts -->
<g id="node7" class="node">
<title>src/general.ts</title>
<g id="a_node7"><a xlink:href="src/general.ts" xlink:title="general.ts">
<path fill="#ddfeff" stroke="black" d="M251.21,-247.25C251.21,-247.25 207.04,-247.25 207.04,-247.25 203.96,-247.25 200.88,-244.17 200.88,-241.08 200.88,-241.08 200.88,-234.92 200.88,-234.92 200.88,-231.83 203.96,-228.75 207.04,-228.75 207.04,-228.75 251.21,-228.75 251.21,-228.75 254.29,-228.75 257.38,-231.83 257.38,-234.92 257.38,-234.92 257.38,-241.08 257.38,-241.08 257.38,-244.17 254.29,-247.25 251.21,-247.25"/>
<text text-anchor="start" x="208.88" y="-234.7" font-family="Helvetica,sans-Serif" font-size="9.00">general.ts</text>
</a>
</g>
</g>
<!-- src/general.ts&#45;&gt;src/makeMap.ts -->
<g id="edge3" class="edge">
<title>src/general.ts&#45;&gt;src/makeMap.ts</title>
<path fill="none" stroke="#000000" stroke-width="2" stroke-opacity="0.200000" d="M257.64,-230.43C263.61,-228.19 269.71,-225.4 275,-222 287.25,-214.13 298.66,-202.31 306.89,-192.62"/>
<polygon fill="#000000" fill-opacity="0.200000" stroke="#000000" stroke-width="2" stroke-opacity="0.200000" points="308.43,-194.05 310.61,-188.07 305.18,-191.39 308.43,-194.05"/>
</g>
<!-- src/globalsAllowList.ts -->
<g id="node8" class="node">
<title>src/globalsAllowList.ts</title>
<g id="a_node8"><a xlink:href="src/globalsAllowList.ts" xlink:title="globalsAllowList.ts">
<path fill="#ddfeff" stroke="black" d="M268.83,-216.25C268.83,-216.25 189.42,-216.25 189.42,-216.25 186.33,-216.25 183.25,-213.17 183.25,-210.08 183.25,-210.08 183.25,-203.92 183.25,-203.92 183.25,-200.83 186.33,-197.75 189.42,-197.75 189.42,-197.75 268.83,-197.75 268.83,-197.75 271.92,-197.75 275,-200.83 275,-203.92 275,-203.92 275,-210.08 275,-210.08 275,-213.17 271.92,-216.25 268.83,-216.25"/>
<text text-anchor="start" x="191.25" y="-203.7" font-family="Helvetica,sans-Serif" font-size="9.00">globalsAllowList.ts</text>
</a>
</g>
</g>
<!-- src/globalsAllowList.ts&#45;&gt;src/makeMap.ts -->
<g id="edge4" class="edge">
<title>src/globalsAllowList.ts&#45;&gt;src/makeMap.ts</title>
<path fill="none" stroke="#000000" stroke-width="2" stroke-opacity="0.200000" d="M257.99,-197.36C266.01,-194.59 274.87,-191.52 283.32,-188.6"/>
<polygon fill="#000000" fill-opacity="0.200000" stroke="#000000" stroke-width="2" stroke-opacity="0.200000" points="283.75,-190.67 288.73,-186.73 282.37,-186.71 283.75,-190.67"/>
</g>
<!-- src/index.ts -->
<g id="node9" class="node">
<title>src/index.ts</title>
<g id="a_node9"><a xlink:href="src/index.ts" xlink:title="index.ts">
<path fill="#ddfeff" stroke="black" d="M63.83,-226.25C63.83,-226.25 22.17,-226.25 22.17,-226.25 19.08,-226.25 16,-223.17 16,-220.08 16,-220.08 16,-213.92 16,-213.92 16,-210.83 19.08,-207.75 22.17,-207.75 22.17,-207.75 63.83,-207.75 63.83,-207.75 66.92,-207.75 70,-210.83 70,-213.92 70,-213.92 70,-220.08 70,-220.08 70,-223.17 66.92,-226.25 63.83,-226.25"/>
<text text-anchor="start" x="27.25" y="-213.7" font-family="Helvetica,sans-Serif" font-size="9.00">index.ts</text>
</a>
</g>
</g>
<!-- src/index.ts&#45;&gt;src/codeframe.ts -->
<g id="edge5" class="edge">
<title>src/index.ts&#45;&gt;src/codeframe.ts</title>
<path fill="none" stroke="#000000" stroke-width="2" stroke-opacity="0.200000" d="M44.71,-207.5C46.79,-186.23 54.65,-134.32 83,-104 84.59,-102.3 86.37,-100.75 88.27,-99.35"/>
<polygon fill="#000000" fill-opacity="0.200000" stroke="#000000" stroke-width="2" stroke-opacity="0.200000" points="94.56,-97.85 88.37,-99.28 92.31,-94.3 94.56,-97.85"/>
</g>
<!-- src/index.ts&#45;&gt;src/domAttrConfig.ts -->
<g id="edge6" class="edge">
<title>src/index.ts&#45;&gt;src/domAttrConfig.ts</title>
<path fill="none" stroke="#000000" stroke-width="2" stroke-opacity="0.200000" d="M44.32,-207.26C45.59,-186.16 51.92,-136.39 83,-115 98.28,-104.48 143.96,-107.38 180.04,-111.75"/>
<polygon fill="#000000" fill-opacity="0.200000" stroke="#000000" stroke-width="2" stroke-opacity="0.200000" points="185.86,-114.59 180.17,-111.76 186.38,-110.43 185.86,-114.59"/>
</g>
<!-- src/index.ts&#45;&gt;src/makeMap.ts -->
<g id="edge12" class="edge">
<title>src/index.ts&#45;&gt;src/makeMap.ts</title>
<path fill="none" stroke="#000000" stroke-width="2" stroke-opacity="0.200000" d="M47.17,-207.41C52.27,-193.77 63.72,-169.27 83,-159 90.53,-154.99 266.87,-159.59 275,-161 279.56,-161.79 284.28,-162.96 288.87,-164.3"/>
<polygon fill="#000000" fill-opacity="0.200000" stroke="#000000" stroke-width="2" stroke-opacity="0.200000" points="293.89,-168.08 288.8,-164.28 295.15,-164.07 293.89,-168.08"/>
</g>
<!-- src/index.ts&#45;&gt;src/domTagConfig.ts -->
<g id="edge7" class="edge">
<title>src/index.ts&#45;&gt;src/domTagConfig.ts</title>
<path fill="none" stroke="#000000" stroke-width="2" stroke-opacity="0.200000" d="M70.39,-210.05C74.6,-209 78.91,-207.94 83,-207 121.58,-198.08 131.54,-197.34 170.25,-189 173.28,-188.35 176.39,-187.67 179.53,-186.98"/>
<polygon fill="#000000" fill-opacity="0.200000" stroke="#000000" stroke-width="2" stroke-opacity="0.200000" points="185.89,-187.73 179.58,-186.97 184.99,-183.63 185.89,-187.73"/>
</g>
<!-- src/index.ts&#45;&gt;src/escapeHtml.ts -->
<g id="edge8" class="edge">
<title>src/index.ts&#45;&gt;src/escapeHtml.ts</title>
<path fill="none" stroke="#000000" stroke-width="2" stroke-opacity="0.200000" d="M57.73,-207.38C65.05,-202.46 74.32,-196.57 83,-192 86.64,-190.08 90.53,-188.21 94.43,-186.44"/>
<polygon fill="#000000" fill-opacity="0.200000" stroke="#000000" stroke-width="2" stroke-opacity="0.200000" points="100.88,-185.9 94.54,-186.39 99.19,-182.06 100.88,-185.9"/>
</g>
<!-- src/index.ts&#45;&gt;src/general.ts -->
<g id="edge9" class="edge">
<title>src/index.ts&#45;&gt;src/general.ts</title>
<path fill="none" stroke="#000000" stroke-width="2" stroke-opacity="0.200000" d="M70.12,-219.82C95.66,-222.6 135.64,-226.99 170.25,-231 177.79,-231.87 185.89,-232.84 193.56,-233.76"/>
<polygon fill="#000000" fill-opacity="0.200000" stroke="#000000" stroke-width="2" stroke-opacity="0.200000" points="199.21,-236.56 193.51,-233.76 199.72,-232.39 199.21,-236.56"/>
</g>
<!-- src/index.ts&#45;&gt;src/globalsAllowList.ts -->
<g id="edge10" class="edge">
<title>src/index.ts&#45;&gt;src/globalsAllowList.ts</title>
<path fill="none" stroke="#000000" stroke-width="2" stroke-opacity="0.200000" d="M70.38,-215.57C97.88,-214.07 141.7,-211.69 176.18,-209.82"/>
<polygon fill="#000000" fill-opacity="0.200000" stroke="#000000" stroke-width="2" stroke-opacity="0.200000" points="182.06,-211.6 175.96,-209.83 181.83,-207.41 182.06,-211.6"/>
</g>
<!-- src/looseEqual.ts -->
<g id="node10" class="node">
<title>src/looseEqual.ts</title>
<g id="a_node10"><a xlink:href="src/looseEqual.ts" xlink:title="looseEqual.ts">
<path fill="#ddfeff" stroke="black" d="M156.21,-255.25C156.21,-255.25 97.04,-255.25 97.04,-255.25 93.96,-255.25 90.88,-252.17 90.88,-249.08 90.88,-249.08 90.88,-242.92 90.88,-242.92 90.88,-239.83 93.96,-236.75 97.04,-236.75 97.04,-236.75 156.21,-236.75 156.21,-236.75 159.29,-236.75 162.38,-239.83 162.38,-242.92 162.38,-242.92 162.38,-249.08 162.38,-249.08 162.38,-252.17 159.29,-255.25 156.21,-255.25"/>
<text text-anchor="start" x="98.88" y="-242.7" font-family="Helvetica,sans-Serif" font-size="9.00">looseEqual.ts</text>
</a>
</g>
</g>
<!-- src/index.ts&#45;&gt;src/looseEqual.ts -->
<g id="edge11" class="edge">
<title>src/index.ts&#45;&gt;src/looseEqual.ts</title>
<path fill="none" stroke="#000000" stroke-width="2" stroke-opacity="0.200000" d="M70.28,-226.34C77.13,-228.77 84.61,-231.43 91.79,-233.98"/>
<polygon fill="#000000" fill-opacity="0.200000" stroke="#000000" stroke-width="2" stroke-opacity="0.200000" points="96.63,-237.93 91.68,-233.94 98.04,-233.97 96.63,-237.93"/>
</g>
<!-- src/normalizeProp.ts -->
<g id="node11" class="node">
<title>src/normalizeProp.ts</title>
<g id="a_node11"><a xlink:href="src/normalizeProp.ts" xlink:title="normalizeProp.ts">
<path fill="#ddfeff" stroke="black" d="M162.96,-379.25C162.96,-379.25 90.29,-379.25 90.29,-379.25 87.21,-379.25 84.12,-376.17 84.12,-373.08 84.12,-373.08 84.12,-366.92 84.12,-366.92 84.12,-363.83 87.21,-360.75 90.29,-360.75 90.29,-360.75 162.96,-360.75 162.96,-360.75 166.04,-360.75 169.12,-363.83 169.12,-366.92 169.12,-366.92 169.12,-373.08 169.12,-373.08 169.12,-376.17 166.04,-379.25 162.96,-379.25"/>
<text text-anchor="start" x="92.12" y="-366.7" font-family="Helvetica,sans-Serif" font-size="9.00">normalizeProp.ts</text>
</a>
</g>
</g>
<!-- src/index.ts&#45;&gt;src/normalizeProp.ts -->
<g id="edge13" class="edge">
<title>src/index.ts&#45;&gt;src/normalizeProp.ts</title>
<path fill="none" stroke="#000000" stroke-width="2" stroke-opacity="0.200000" d="M43.94,-226.71C44.3,-251.29 48.65,-316.72 83,-354 83.7,-354.76 84.45,-355.49 85.22,-356.18"/>
<polygon fill="#000000" fill-opacity="0.200000" stroke="#000000" stroke-width="2" stroke-opacity="0.200000" points="88.73,-361.37 85.14,-356.12 91.22,-357.98 88.73,-361.37"/>
</g>
<!-- src/patchFlags.ts -->
<g id="node12" class="node">
<title>src/patchFlags.ts</title>
<g id="a_node12"><a xlink:href="src/patchFlags.ts" xlink:title="patchFlags.ts">
<path fill="#ddfeff" stroke="black" d="M155.46,-286.25C155.46,-286.25 97.79,-286.25 97.79,-286.25 94.71,-286.25 91.62,-283.17 91.62,-280.08 91.62,-280.08 91.62,-273.92 91.62,-273.92 91.62,-270.83 94.71,-267.75 97.79,-267.75 97.79,-267.75 155.46,-267.75 155.46,-267.75 158.54,-267.75 161.62,-270.83 161.62,-273.92 161.62,-273.92 161.62,-280.08 161.62,-280.08 161.62,-283.17 158.54,-286.25 155.46,-286.25"/>
<text text-anchor="start" x="99.62" y="-273.7" font-family="Helvetica,sans-Serif" font-size="9.00">patchFlags.ts</text>
</a>
</g>
</g>
<!-- src/index.ts&#45;&gt;src/patchFlags.ts -->
<g id="edge14" class="edge">
<title>src/index.ts&#45;&gt;src/patchFlags.ts</title>
<path fill="none" stroke="#000000" stroke-width="2" stroke-opacity="0.200000" d="M50.4,-226.65C57.38,-236.5 69.37,-251.63 83,-261 84.65,-262.13 86.39,-263.2 88.18,-264.2"/>
<polygon fill="#000000" fill-opacity="0.200000" stroke="#000000" stroke-width="2" stroke-opacity="0.200000" points="92.62,-268.78 88.2,-264.21 94.51,-265.03 92.62,-268.78"/>
</g>
<!-- src/shapeFlags.ts -->
<g id="node13" class="node">
<title>src/shapeFlags.ts</title>
<g id="a_node13"><a xlink:href="src/shapeFlags.ts" xlink:title="shapeFlags.ts">
<path fill="#ddfeff" stroke="black" d="M156.96,-317.25C156.96,-317.25 96.29,-317.25 96.29,-317.25 93.21,-317.25 90.12,-314.17 90.12,-311.08 90.12,-311.08 90.12,-304.92 90.12,-304.92 90.12,-301.83 93.21,-298.75 96.29,-298.75 96.29,-298.75 156.96,-298.75 156.96,-298.75 160.04,-298.75 163.12,-301.83 163.12,-304.92 163.12,-304.92 163.12,-311.08 163.12,-311.08 163.12,-314.17 160.04,-317.25 156.96,-317.25"/>
<text text-anchor="start" x="98.12" y="-304.7" font-family="Helvetica,sans-Serif" font-size="9.00">shapeFlags.ts</text>
</a>
</g>
</g>
<!-- src/index.ts&#45;&gt;src/shapeFlags.ts -->
<g id="edge15" class="edge">
<title>src/index.ts&#45;&gt;src/shapeFlags.ts</title>
<path fill="none" stroke="#000000" stroke-width="2" stroke-opacity="0.200000" d="M46.57,-226.69C51.24,-242.51 62.57,-273.89 83,-292 84.15,-293.02 85.38,-293.98 86.66,-294.88"/>
<polygon fill="#000000" fill-opacity="0.200000" stroke="#000000" stroke-width="2" stroke-opacity="0.200000" points="90.61,-299.74 86.57,-294.83 92.79,-296.15 90.61,-299.74"/>
</g>
<!-- src/slotFlags.ts -->
<g id="node14" class="node">
<title>src/slotFlags.ts</title>
<g id="a_node14"><a xlink:href="src/slotFlags.ts" xlink:title="slotFlags.ts">
<path fill="#ddfeff" stroke="black" d="M151.33,-348.25C151.33,-348.25 101.92,-348.25 101.92,-348.25 98.83,-348.25 95.75,-345.17 95.75,-342.08 95.75,-342.08 95.75,-335.92 95.75,-335.92 95.75,-332.83 98.83,-329.75 101.92,-329.75 101.92,-329.75 151.33,-329.75 151.33,-329.75 154.42,-329.75 157.5,-332.83 157.5,-335.92 157.5,-335.92 157.5,-342.08 157.5,-342.08 157.5,-345.17 154.42,-348.25 151.33,-348.25"/>
<text text-anchor="start" x="103.75" y="-335.7" font-family="Helvetica,sans-Serif" font-size="9.00">slotFlags.ts</text>
</a>
</g>
</g>
<!-- src/index.ts&#45;&gt;src/slotFlags.ts -->
<g id="edge16" class="edge">
<title>src/index.ts&#45;&gt;src/slotFlags.ts</title>
<path fill="none" stroke="#000000" stroke-width="2" stroke-opacity="0.200000" d="M44.88,-226.62C47.27,-247.11 55.64,-295.46 83,-323 85.01,-325.02 87.29,-326.79 89.74,-328.33"/>
<polygon fill="#000000" fill-opacity="0.200000" stroke="#000000" stroke-width="2" stroke-opacity="0.200000" points="93.8,-332.93 89.52,-328.22 95.8,-329.23 93.8,-332.93"/>
</g>
<!-- src/toDisplayString.ts -->
<g id="node15" class="node">
<title>src/toDisplayString.ts</title>
<g id="a_node15"><a xlink:href="src/toDisplayString.ts" xlink:title="toDisplayString.ts">
<path fill="#ddfeff" stroke="black" d="M164.08,-139.25C164.08,-139.25 89.17,-139.25 89.17,-139.25 86.08,-139.25 83,-136.17 83,-133.08 83,-133.08 83,-126.92 83,-126.92 83,-123.83 86.08,-120.75 89.17,-120.75 89.17,-120.75 164.08,-120.75 164.08,-120.75 167.17,-120.75 170.25,-123.83 170.25,-126.92 170.25,-126.92 170.25,-133.08 170.25,-133.08 170.25,-136.17 167.17,-139.25 164.08,-139.25"/>
<text text-anchor="start" x="91" y="-126.7" font-family="Helvetica,sans-Serif" font-size="9.00">toDisplayString.ts</text>
</a>
</g>
</g>
<!-- src/index.ts&#45;&gt;src/toDisplayString.ts -->
<g id="edge17" class="edge">
<title>src/index.ts&#45;&gt;src/toDisplayString.ts</title>
<path fill="none" stroke="#000000" stroke-width="2" stroke-opacity="0.200000" d="M47.03,-207.69C52.22,-193.12 64.1,-164.85 83,-148 85.09,-146.14 87.4,-144.45 89.84,-142.92"/>
<polygon fill="#000000" fill-opacity="0.200000" stroke="#000000" stroke-width="2" stroke-opacity="0.200000" points="95.85,-141.96 89.59,-143.06 93.8,-138.29 95.85,-141.96"/>
</g>
<!-- src/typeUtils.ts -->
<g id="node16" class="node">
<title>src/typeUtils.ts</title>
<g id="a_node16"><a xlink:href="src/typeUtils.ts" xlink:title="typeUtils.ts">
<path fill="#ddfeff" stroke="black" d="M150.58,-410.25C150.58,-410.25 102.67,-410.25 102.67,-410.25 99.58,-410.25 96.5,-407.17 96.5,-404.08 96.5,-404.08 96.5,-397.92 96.5,-397.92 96.5,-394.83 99.58,-391.75 102.67,-391.75 102.67,-391.75 150.58,-391.75 150.58,-391.75 153.67,-391.75 156.75,-394.83 156.75,-397.92 156.75,-397.92 156.75,-404.08 156.75,-404.08 156.75,-407.17 153.67,-410.25 150.58,-410.25"/>
<text text-anchor="start" x="104.5" y="-397.7" font-family="Helvetica,sans-Serif" font-size="9.00">typeUtils.ts</text>
</a>
</g>
</g>
<!-- src/index.ts&#45;&gt;src/typeUtils.ts -->
<g id="edge18" class="edge">
<title>src/index.ts&#45;&gt;src/typeUtils.ts</title>
<path fill="none" stroke="#000000" stroke-width="2" stroke-opacity="0.200000" d="M45.05,-226.69C48.69,-258.75 61.78,-360.8 83,-385 84.99,-387.27 87.34,-389.22 89.9,-390.9"/>
<polygon fill="#000000" fill-opacity="0.200000" stroke="#000000" stroke-width="2" stroke-opacity="0.200000" points="94.27,-395.69 90.02,-390.96 96.29,-392 94.27,-395.69"/>
</g>
<!-- src/looseEqual.ts&#45;&gt;src/general.ts -->
<g id="edge19" class="edge">
<title>src/looseEqual.ts&#45;&gt;src/general.ts</title>
<path fill="none" stroke="#000000" stroke-width="2" stroke-opacity="0.200000" d="M162.78,-243.2C172.13,-242.46 182.25,-241.65 191.67,-240.9"/>
<polygon fill="#000000" fill-opacity="0.200000" stroke="#000000" stroke-width="2" stroke-opacity="0.200000" points="191.6,-243.01 197.42,-240.44 191.27,-238.83 191.6,-243.01"/>
</g>
<!-- src/normalizeProp.ts&#45;&gt;src/general.ts -->
<g id="edge20" class="edge">
<title>src/normalizeProp.ts&#45;&gt;src/general.ts</title>
<path fill="none" stroke="#000000" stroke-width="2" stroke-opacity="0.200000" d="M161.16,-360.28C164.44,-358.51 167.55,-356.43 170.25,-354 200.05,-327.14 216.41,-281.46 223.6,-256.18"/>
<polygon fill="#000000" fill-opacity="0.200000" stroke="#000000" stroke-width="2" stroke-opacity="0.200000" points="225.59,-256.83 225.13,-250.49 221.54,-255.74 225.59,-256.83"/>
</g>
<!-- src/toDisplayString.ts&#45;&gt;@vue/reactivity -->
<g id="edge22" class="edge">
<title>src/toDisplayString.ts&#45;&gt;@vue/reactivity</title>
<g id="a_edge22"><a xlink:title="not&#45;to&#45;unresolvable">
<path fill="none" stroke="red" stroke-width="2" d="M147.04,-120.29C155.14,-115.43 164.07,-108.89 170.25,-101 180.48,-87.94 173.98,-79.76 183.25,-66 189.89,-56.16 199.36,-47.05 207.89,-39.93"/>
<polygon fill="red" stroke="red" stroke-width="2" points="209.01,-41.72 212.38,-36.33 206.39,-38.44 209.01,-41.72"/>
</a>
</g>
<text text-anchor="middle" x="138.7" y="-67.97" font-family="Helvetica,sans-Serif" font-size="9.00" fill="red">not&#45;to&#45;unresolvable</text>
</g>
<!-- src/toDisplayString.ts&#45;&gt;src/general.ts -->
<g id="edge21" class="edge">
<title>src/toDisplayString.ts&#45;&gt;src/general.ts</title>
<path fill="none" stroke="#000000" stroke-width="2" stroke-opacity="0.200000" d="M148.07,-139.55C156.15,-144.3 164.79,-150.81 170.25,-159 186.12,-182.78 164.49,-200.43 183.25,-222 185.89,-225.03 189.14,-227.49 192.67,-229.48"/>
<polygon fill="#000000" fill-opacity="0.200000" stroke="#000000" stroke-width="2" stroke-opacity="0.200000" points="191.66,-231.32 197.99,-231.89 193.39,-227.5 191.66,-231.32"/>
</g>
</g>
</svg>
