<?xml version="1.0" encoding="UTF-8" standalone="no"?>
<!DOCTYPE svg PUBLIC "-//W3C//DTD SVG 1.1//EN"
 "http://www.w3.org/Graphics/SVG/1.1/DTD/svg11.dtd">
<!-- Generated by graphviz version 12.2.1 (20241206.2353)
 -->
<!-- Title: G Pages: 1 -->
<svg width="3219pt" height="1588pt"
 viewBox="0.00 0.00 3218.70 1588.14" xmlns="http://www.w3.org/2000/svg" xmlns:xlink="http://www.w3.org/1999/xlink">
<g id="graph0" class="graph" transform="scale(1 1) rotate(0) translate(21.6 1566.54)">
<title>G</title>
<polygon fill="#111111" stroke="none" points="-21.6,21.6 -21.6,-1566.54 3197.1,-1566.54 3197.1,21.6 -21.6,21.6"/>
<!-- packages/reactivity/src/arrayInstrumentations.ts -->
<g id="node1" class="node">
<title>packages/reactivity/src/arrayInstrumentations.ts</title>
<path fill="none" stroke="#ff6c60" d="M293.83,-940.81C293.83,-940.81 7.92,-940.81 7.92,-940.81 3.96,-940.81 0,-936.85 0,-932.89 0,-932.89 0,-924.98 0,-924.98 0,-921.02 3.96,-917.06 7.92,-917.06 7.92,-917.06 293.83,-917.06 293.83,-917.06 297.79,-917.06 301.75,-921.02 301.75,-924.98 301.75,-924.98 301.75,-932.89 301.75,-932.89 301.75,-936.85 297.79,-940.81 293.83,-940.81"/>
<text text-anchor="middle" x="150.88" y="-923.51" font-family="Arial" font-size="14.00" fill="#ff6c60">packages/reactivity/src/arrayInstrumentations.ts</text>
</g>
<!-- packages/reactivity/src/constants.ts -->
<g id="node2" class="node">
<title>packages/reactivity/src/constants.ts</title>
<path fill="none" stroke="#cfffac" d="M3167.58,-644.81C3167.58,-644.81 2955.17,-644.81 2955.17,-644.81 2951.21,-644.81 2947.25,-640.85 2947.25,-636.89 2947.25,-636.89 2947.25,-628.98 2947.25,-628.98 2947.25,-625.02 2951.21,-621.06 2955.17,-621.06 2955.17,-621.06 3167.58,-621.06 3167.58,-621.06 3171.54,-621.06 3175.5,-625.02 3175.5,-628.98 3175.5,-628.98 3175.5,-636.89 3175.5,-636.89 3175.5,-640.85 3171.54,-644.81 3167.58,-644.81"/>
<text text-anchor="middle" x="3061.38" y="-627.51" font-family="Arial" font-size="14.00" fill="#cfffac">packages/reactivity/src/constants.ts</text>
</g>
<!-- packages/reactivity/src/arrayInstrumentations.ts&#45;&gt;packages/reactivity/src/constants.ts -->
<g id="edge1" class="edge">
<title>packages/reactivity/src/arrayInstrumentations.ts&#45;&gt;packages/reactivity/src/constants.ts</title>
<path fill="none" stroke="#757575" d="M153.24,-941.08C160.49,-1000.23 199.52,-1261.19 337.75,-1407.94 446.57,-1523.46 508.8,-1544.94 667.5,-1544.94 667.5,-1544.94 667.5,-1544.94 2552.62,-1544.94 2738.23,-1544.94 2803.16,-1481.82 2911.25,-1330.94 2992.38,-1217.69 3046.03,-764.92 3057.89,-656.4"/>
<polygon fill="#757575" stroke="#757575" points="3061.35,-656.99 3058.94,-646.67 3054.39,-656.24 3061.35,-656.99"/>
</g>
<!-- packages/reactivity/src/dep.ts -->
<g id="node3" class="node">
<title>packages/reactivity/src/dep.ts</title>
<path fill="none" stroke="#ff6c60" d="M522.83,-570.81C522.83,-570.81 345.67,-570.81 345.67,-570.81 341.71,-570.81 337.75,-566.85 337.75,-562.89 337.75,-562.89 337.75,-554.98 337.75,-554.98 337.75,-551.02 341.71,-547.06 345.67,-547.06 345.67,-547.06 522.83,-547.06 522.83,-547.06 526.79,-547.06 530.75,-551.02 530.75,-554.98 530.75,-554.98 530.75,-562.89 530.75,-562.89 530.75,-566.85 526.79,-570.81 522.83,-570.81"/>
<text text-anchor="middle" x="434.25" y="-553.51" font-family="Arial" font-size="14.00" fill="#ff6c60">packages/reactivity/src/dep.ts</text>
</g>
<!-- packages/reactivity/src/arrayInstrumentations.ts&#45;&gt;packages/reactivity/src/dep.ts -->
<g id="edge2" class="edge">
<title>packages/reactivity/src/arrayInstrumentations.ts&#45;&gt;packages/reactivity/src/dep.ts</title>
<path fill="none" stroke="#757575" d="M161.24,-916.63C202.05,-862.96 364.67,-649.11 416.97,-580.35"/>
<polygon fill="#757575" stroke="#757575" points="419.67,-582.58 422.94,-572.5 414.1,-578.34 419.67,-582.58"/>
</g>
<!-- packages/reactivity/src/effect.ts -->
<g id="node4" class="node">
<title>packages/reactivity/src/effect.ts</title>
<path fill="none" stroke="#ff6c60" d="M762.33,-219.81C762.33,-219.81 574.67,-219.81 574.67,-219.81 570.71,-219.81 566.75,-215.85 566.75,-211.89 566.75,-211.89 566.75,-203.98 566.75,-203.98 566.75,-200.02 570.71,-196.06 574.67,-196.06 574.67,-196.06 762.33,-196.06 762.33,-196.06 766.29,-196.06 770.25,-200.02 770.25,-203.98 770.25,-203.98 770.25,-211.89 770.25,-211.89 770.25,-215.85 766.29,-219.81 762.33,-219.81"/>
<text text-anchor="middle" x="668.5" y="-202.51" font-family="Arial" font-size="14.00" fill="#ff6c60">packages/reactivity/src/effect.ts</text>
</g>
<!-- packages/reactivity/src/arrayInstrumentations.ts&#45;&gt;packages/reactivity/src/effect.ts -->
<g id="edge3" class="edge">
<title>packages/reactivity/src/arrayInstrumentations.ts&#45;&gt;packages/reactivity/src/effect.ts</title>
<path fill="none" stroke="#757575" d="M152.63,-916.78C157.22,-852.65 186.48,-549.92 337.75,-374.94 409.6,-291.82 532.84,-245.18 606.59,-223.41"/>
<polygon fill="#757575" stroke="#757575" points="607.45,-226.8 616.09,-220.67 605.51,-220.08 607.45,-226.8"/>
</g>
<!-- packages/reactivity/src/reactive.ts -->
<g id="node5" class="node">
<title>packages/reactivity/src/reactive.ts</title>
<path fill="none" stroke="#ff6c60" d="M2085.83,-652.81C2085.83,-652.81 1883.92,-652.81 1883.92,-652.81 1879.96,-652.81 1876,-648.85 1876,-644.89 1876,-644.89 1876,-636.98 1876,-636.98 1876,-633.02 1879.96,-629.06 1883.92,-629.06 1883.92,-629.06 2085.83,-629.06 2085.83,-629.06 2089.79,-629.06 2093.75,-633.02 2093.75,-636.98 2093.75,-636.98 2093.75,-644.89 2093.75,-644.89 2093.75,-648.85 2089.79,-652.81 2085.83,-652.81"/>
<text text-anchor="middle" x="1984.88" y="-635.51" font-family="Arial" font-size="14.00" fill="#ff6c60">packages/reactivity/src/reactive.ts</text>
</g>
<!-- packages/reactivity/src/arrayInstrumentations.ts&#45;&gt;packages/reactivity/src/reactive.ts -->
<g id="edge4" class="edge">
<title>packages/reactivity/src/arrayInstrumentations.ts&#45;&gt;packages/reactivity/src/reactive.ts</title>
<path fill="none" stroke="#757575" d="M157.48,-940.87C192.48,-1013.5 388.71,-1392.94 667.5,-1392.94 667.5,-1392.94 667.5,-1392.94 902.62,-1392.94 1071.56,-1392.94 1121.85,-1426.93 1282.25,-1373.94 1559.09,-1282.47 1642.16,-1234.59 1828,-1009.94 1919.65,-899.15 1964.93,-726.62 1978.96,-664.35"/>
<polygon fill="#757575" stroke="#757575" points="1982.38,-665.1 1981.1,-654.58 1975.54,-663.6 1982.38,-665.1"/>
</g>
<!-- packages/shared/src/index.ts -->
<g id="node6" class="node">
<title>packages/shared/src/index.ts</title>
<path fill="none" stroke="#ff6c60" d="M989.08,-940.81C989.08,-940.81 814.17,-940.81 814.17,-940.81 810.21,-940.81 806.25,-936.85 806.25,-932.89 806.25,-932.89 806.25,-924.98 806.25,-924.98 806.25,-921.02 810.21,-917.06 814.17,-917.06 814.17,-917.06 989.08,-917.06 989.08,-917.06 993.04,-917.06 997,-921.02 997,-924.98 997,-924.98 997,-932.89 997,-932.89 997,-936.85 993.04,-940.81 989.08,-940.81"/>
<text text-anchor="middle" x="901.62" y="-923.51" font-family="Arial" font-size="14.00" fill="#ff6c60">packages/shared/src/index.ts</text>
</g>
<!-- packages/reactivity/src/arrayInstrumentations.ts&#45;&gt;packages/shared/src/index.ts -->
<g id="edge5" class="edge">
<title>packages/reactivity/src/arrayInstrumentations.ts&#45;&gt;packages/shared/src/index.ts</title>
<path fill="none" stroke="#757575" d="M302.05,-928.94C447.91,-928.94 665.68,-928.94 794.41,-928.94"/>
<polygon fill="#757575" stroke="#757575" points="794.31,-932.44 804.31,-928.94 794.31,-925.44 794.31,-932.44"/>
</g>
<!-- packages/reactivity/src/dep.ts&#45;&gt;packages/reactivity/src/constants.ts -->
<g id="edge25" class="edge">
<title>packages/reactivity/src/dep.ts&#45;&gt;packages/reactivity/src/constants.ts</title>
<path fill="none" stroke="#757575" d="M436.03,-571.06C441.75,-656.91 479.45,-1173.3 566.75,-1298.94 661.77,-1435.68 734.11,-1468.94 900.62,-1468.94 900.62,-1468.94 900.62,-1468.94 2552.62,-1468.94 2943.74,-1468.94 3042.08,-792.24 3057.88,-656.49"/>
<polygon fill="#757575" stroke="#757575" points="3061.35,-656.91 3058.99,-646.58 3054.4,-656.13 3061.35,-656.91"/>
</g>
<!-- packages/reactivity/src/dep.ts&#45;&gt;packages/reactivity/src/effect.ts -->
<g id="edge26" class="edge">
<title>packages/reactivity/src/dep.ts&#45;&gt;packages/reactivity/src/effect.ts</title>
<path fill="none" stroke="#757575" d="M441.7,-546.76C472.44,-495 604.37,-295.19 651.05,-229.12"/>
<polygon fill="#757575" stroke="#757575" points="653.69,-231.44 656.66,-221.27 648,-227.37 653.69,-231.44"/>
</g>
<!-- packages/reactivity/src/dep.ts&#45;&gt;packages/shared/src/index.ts -->
<g id="edge27" class="edge">
<title>packages/reactivity/src/dep.ts&#45;&gt;packages/shared/src/index.ts</title>
<path fill="none" stroke="#757575" d="M450.73,-571.25C518.92,-625.46 792.74,-843.16 876.29,-909.59"/>
<polygon fill="#757575" stroke="#757575" points="873.89,-912.15 883.9,-915.64 878.25,-906.67 873.89,-912.15"/>
</g>
<!-- packages/reactivity/src/computed.ts -->
<g id="node11" class="node">
<title>packages/reactivity/src/computed.ts</title>
<path fill="none" stroke="#ff6c60" d="M2903.33,-371.81C2903.33,-371.81 2688.67,-371.81 2688.67,-371.81 2684.71,-371.81 2680.75,-367.85 2680.75,-363.89 2680.75,-363.89 2680.75,-355.98 2680.75,-355.98 2680.75,-352.02 2684.71,-348.06 2688.67,-348.06 2688.67,-348.06 2903.33,-348.06 2903.33,-348.06 2907.29,-348.06 2911.25,-352.02 2911.25,-355.98 2911.25,-355.98 2911.25,-363.89 2911.25,-363.89 2911.25,-367.85 2907.29,-371.81 2903.33,-371.81"/>
<text text-anchor="middle" x="2796" y="-354.51" font-family="Arial" font-size="14.00" fill="#ff6c60">packages/reactivity/src/computed.ts</text>
</g>
<!-- packages/reactivity/src/dep.ts&#45;&gt;packages/reactivity/src/computed.ts -->
<g id="edge24" class="edge">
<title>packages/reactivity/src/dep.ts&#45;&gt;packages/reactivity/src/computed.ts</title>
<path fill="none" stroke="#757575" d="M460.93,-546.64C530.79,-520.65 730.41,-464.94 900.62,-464.94 900.62,-464.94 900.62,-464.94 1719.38,-464.94 1884.71,-464.94 2294,-396.48 2458.5,-379.94 2528.12,-372.93 2605.96,-366.16 2669.22,-361.83"/>
<polygon fill="#757575" stroke="#757575" points="2669.2,-365.34 2678.94,-361.18 2668.73,-358.36 2669.2,-365.34"/>
</g>
<!-- packages/reactivity/src/effect.ts&#45;&gt;packages/reactivity/src/constants.ts -->
<g id="edge29" class="edge">
<title>packages/reactivity/src/effect.ts&#45;&gt;packages/reactivity/src/constants.ts</title>
<path fill="none" stroke="#757575" d="M683.97,-195.7C707.79,-176.28 757.49,-138.65 806.25,-119.94 953.54,-63.39 998.86,-62.94 1156.62,-62.94 1156.62,-62.94 1156.62,-62.94 2283.12,-62.94 2576.24,-62.94 2713.77,-47.33 2911.25,-263.94 2961.23,-318.76 2921.13,-357.5 2947.25,-426.94 2974.05,-498.19 3021.88,-575.01 3045.84,-611.43"/>
<polygon fill="#757575" stroke="#757575" points="3042.91,-613.34 3051.36,-619.73 3048.74,-609.46 3042.91,-613.34"/>
</g>
<!-- packages/reactivity/src/effect.ts&#45;&gt;packages/reactivity/src/dep.ts -->
<g id="edge30" class="edge">
<title>packages/reactivity/src/effect.ts&#45;&gt;packages/reactivity/src/dep.ts</title>
<path fill="none" stroke="#757575" d="M661.11,-220.01C630.5,-271.6 498.47,-471.55 451.73,-537.71"/>
<polygon fill="#757575" stroke="#757575" points="449.08,-535.41 446.11,-545.58 454.77,-539.48 449.08,-535.41"/>
</g>
<!-- packages/reactivity/src/effect.ts&#45;&gt;packages/shared/src/index.ts -->
<g id="edge33" class="edge">
<title>packages/reactivity/src/effect.ts&#45;&gt;packages/shared/src/index.ts</title>
<path fill="none" stroke="#757575" d="M673.41,-220.15C700.26,-303.89 857.13,-793.26 893.22,-905.85"/>
<polygon fill="#757575" stroke="#757575" points="889.83,-906.72 896.21,-915.17 896.49,-904.58 889.83,-906.72"/>
</g>
<!-- packages/reactivity/src/warning.ts -->
<g id="node9" class="node">
<title>packages/reactivity/src/warning.ts</title>
<path fill="none" stroke="#cfffac" d="M3162.33,-417.81C3162.33,-417.81 2960.42,-417.81 2960.42,-417.81 2956.46,-417.81 2952.5,-413.85 2952.5,-409.89 2952.5,-409.89 2952.5,-401.98 2952.5,-401.98 2952.5,-398.02 2956.46,-394.06 2960.42,-394.06 2960.42,-394.06 3162.33,-394.06 3162.33,-394.06 3166.29,-394.06 3170.25,-398.02 3170.25,-401.98 3170.25,-401.98 3170.25,-409.89 3170.25,-409.89 3170.25,-413.85 3166.29,-417.81 3162.33,-417.81"/>
<text text-anchor="middle" x="3061.38" y="-400.51" font-family="Arial" font-size="14.00" fill="#cfffac">packages/reactivity/src/warning.ts</text>
</g>
<!-- packages/reactivity/src/effect.ts&#45;&gt;packages/reactivity/src/warning.ts -->
<g id="edge32" class="edge">
<title>packages/reactivity/src/effect.ts&#45;&gt;packages/reactivity/src/warning.ts</title>
<path fill="none" stroke="#757575" d="M675.44,-195.95C691.51,-165.02 739.19,-82.53 806.25,-48.94 945.8,20.98 1000.54,-24.94 1156.62,-24.94 1156.62,-24.94 1156.62,-24.94 2552.62,-24.94 2712.37,-24.94 2781.33,44.01 2911.25,-48.94 3025.44,-130.63 3052.58,-316.93 3058.69,-382.54"/>
<polygon fill="#757575" stroke="#757575" points="3055.17,-382.48 3059.5,-392.16 3062.15,-381.9 3055.17,-382.48"/>
</g>
<!-- packages/reactivity/src/effect.ts&#45;&gt;packages/reactivity/src/computed.ts -->
<g id="edge28" class="edge">
<title>packages/reactivity/src/effect.ts&#45;&gt;packages/reactivity/src/computed.ts</title>
<path fill="none" stroke="#757575" d="M692.99,-195.75C762.72,-167.2 975.04,-100.94 1156.62,-100.94 1156.62,-100.94 1156.62,-100.94 1719.38,-100.94 2137.62,-100.94 2255.07,-120.03 2644.75,-271.94 2693.14,-290.8 2746.1,-321.13 2774.42,-341.13"/>
<polygon fill="#757575" stroke="#757575" points="2772.02,-343.71 2782.14,-346.84 2776.18,-338.08 2772.02,-343.71"/>
</g>
<!-- packages/reactivity/src/effectScope.ts -->
<g id="node12" class="node">
<title>packages/reactivity/src/effectScope.ts</title>
<path fill="none" stroke="#ff6c60" d="M2097.83,-170.81C2097.83,-170.81 1871.92,-170.81 1871.92,-170.81 1867.96,-170.81 1864,-166.85 1864,-162.89 1864,-162.89 1864,-154.98 1864,-154.98 1864,-151.02 1867.96,-147.06 1871.92,-147.06 1871.92,-147.06 2097.83,-147.06 2097.83,-147.06 2101.79,-147.06 2105.75,-151.02 2105.75,-154.98 2105.75,-154.98 2105.75,-162.89 2105.75,-162.89 2105.75,-166.85 2101.79,-170.81 2097.83,-170.81"/>
<text text-anchor="middle" x="1984.88" y="-153.51" font-family="Arial" font-size="14.00" fill="#ff6c60">packages/reactivity/src/effectScope.ts</text>
</g>
<!-- packages/reactivity/src/effect.ts&#45;&gt;packages/reactivity/src/effectScope.ts -->
<g id="edge31" class="edge">
<title>packages/reactivity/src/effect.ts&#45;&gt;packages/reactivity/src/effectScope.ts</title>
<path fill="none" stroke="#757575" d="M724.92,-195.56C815.21,-181.74 999.74,-162.94 1156.62,-162.94 1156.62,-162.94 1156.62,-162.94 1446.5,-162.94 1584.97,-162.94 1743.44,-158.57 1852.22,-156.65"/>
<polygon fill="#757575" stroke="#757575" points="1852.12,-160.15 1862.06,-156.48 1852,-153.15 1852.12,-160.15"/>
</g>
<!-- packages/reactivity/src/reactive.ts&#45;&gt;packages/reactivity/src/constants.ts -->
<g id="edge47" class="edge">
<title>packages/reactivity/src/reactive.ts&#45;&gt;packages/reactivity/src/constants.ts</title>
<path fill="none" stroke="#757575" d="M2094.02,-646.42C2110.02,-647.05 2126.31,-647.59 2141.75,-647.94 2425.55,-654.31 2758.72,-644.57 2935.46,-638.04"/>
<polygon fill="#757575" stroke="#757575" points="2935.5,-641.54 2945.36,-637.67 2935.24,-634.55 2935.5,-641.54"/>
</g>
<!-- packages/reactivity/src/reactive.ts&#45;&gt;packages/shared/src/index.ts -->
<g id="edge50" class="edge">
<title>packages/reactivity/src/reactive.ts&#45;&gt;packages/shared/src/index.ts</title>
<path fill="none" stroke="#757575" d="M1875.59,-641.53C1641.34,-643.63 1102.93,-653.21 1033,-696.94 955.7,-745.27 920.11,-856.93 907.85,-905.58"/>
<polygon fill="#757575" stroke="#757575" points="904.45,-904.75 905.52,-915.29 911.26,-906.38 904.45,-904.75"/>
</g>
<!-- packages/reactivity/src/baseHandlers.ts -->
<g id="node7" class="node">
<title>packages/reactivity/src/baseHandlers.ts</title>
<path fill="none" stroke="#ff6c60" d="M2401.08,-742.81C2401.08,-742.81 2163.17,-742.81 2163.17,-742.81 2159.21,-742.81 2155.25,-738.85 2155.25,-734.89 2155.25,-734.89 2155.25,-726.98 2155.25,-726.98 2155.25,-723.02 2159.21,-719.06 2163.17,-719.06 2163.17,-719.06 2401.08,-719.06 2401.08,-719.06 2405.04,-719.06 2409,-723.02 2409,-726.98 2409,-726.98 2409,-734.89 2409,-734.89 2409,-738.85 2405.04,-742.81 2401.08,-742.81"/>
<text text-anchor="middle" x="2282.12" y="-725.51" font-family="Arial" font-size="14.00" fill="#ff6c60">packages/reactivity/src/baseHandlers.ts</text>
</g>
<!-- packages/reactivity/src/reactive.ts&#45;&gt;packages/reactivity/src/baseHandlers.ts -->
<g id="edge45" class="edge">
<title>packages/reactivity/src/reactive.ts&#45;&gt;packages/reactivity/src/baseHandlers.ts</title>
<path fill="none" stroke="#757575" d="M2094.21,-652.16C2098.18,-653.92 2102.04,-655.85 2105.75,-657.94 2126.02,-669.35 2121.32,-684.82 2141.75,-695.94 2160.35,-706.06 2182.19,-712.32 2202.99,-716.5"/>
<polygon fill="#757575" stroke="#757575" points="2202.12,-719.9 2212.6,-718.29 2203.41,-713.02 2202.12,-719.9"/>
</g>
<!-- packages/reactivity/src/ref.ts -->
<g id="node8" class="node">
<title>packages/reactivity/src/ref.ts</title>
<path fill="none" stroke="#ff6c60" d="M2636.83,-586.81C2636.83,-586.81 2466.42,-586.81 2466.42,-586.81 2462.46,-586.81 2458.5,-582.85 2458.5,-578.89 2458.5,-578.89 2458.5,-570.98 2458.5,-570.98 2458.5,-567.02 2462.46,-563.06 2466.42,-563.06 2466.42,-563.06 2636.83,-563.06 2636.83,-563.06 2640.79,-563.06 2644.75,-567.02 2644.75,-570.98 2644.75,-570.98 2644.75,-578.89 2644.75,-578.89 2644.75,-582.85 2640.79,-586.81 2636.83,-586.81"/>
<text text-anchor="middle" x="2551.62" y="-569.51" font-family="Arial" font-size="14.00" fill="#ff6c60">packages/reactivity/src/ref.ts</text>
</g>
<!-- packages/reactivity/src/reactive.ts&#45;&gt;packages/reactivity/src/ref.ts -->
<g id="edge48" class="edge">
<title>packages/reactivity/src/reactive.ts&#45;&gt;packages/reactivity/src/ref.ts</title>
<path fill="none" stroke="#757575" d="M2093.82,-632.42C2182.64,-628.16 2311.5,-621.13 2422.5,-601.94 2423.22,-601.81 2443.16,-596.23 2467.11,-590.04"/>
<polygon fill="#757575" stroke="#757575" points="2467.66,-593.51 2476.48,-587.64 2465.93,-586.72 2467.66,-593.51"/>
</g>
<!-- packages/reactivity/src/reactive.ts&#45;&gt;packages/reactivity/src/warning.ts -->
<g id="edge49" class="edge">
<title>packages/reactivity/src/reactive.ts&#45;&gt;packages/reactivity/src/warning.ts</title>
<path fill="none" stroke="#757575" d="M2030.73,-628.67C2140.83,-598.82 2433.48,-521.13 2680.75,-469.94 2777.13,-449.98 2888.24,-431.81 2965.25,-419.97"/>
<polygon fill="#757575" stroke="#757575" points="2965.5,-423.47 2974.86,-418.5 2964.44,-416.55 2965.5,-423.47"/>
</g>
<!-- packages/reactivity/src/collectionHandlers.ts -->
<g id="node10" class="node">
<title>packages/reactivity/src/collectionHandlers.ts</title>
<path fill="none" stroke="#ff6c60" d="M2414.58,-822.81C2414.58,-822.81 2149.67,-822.81 2149.67,-822.81 2145.71,-822.81 2141.75,-818.85 2141.75,-814.89 2141.75,-814.89 2141.75,-806.98 2141.75,-806.98 2141.75,-803.02 2145.71,-799.06 2149.67,-799.06 2149.67,-799.06 2414.58,-799.06 2414.58,-799.06 2418.54,-799.06 2422.5,-803.02 2422.5,-806.98 2422.5,-806.98 2422.5,-814.89 2422.5,-814.89 2422.5,-818.85 2418.54,-822.81 2414.58,-822.81"/>
<text text-anchor="middle" x="2282.12" y="-805.51" font-family="Arial" font-size="14.00" fill="#ff6c60">packages/reactivity/src/collectionHandlers.ts</text>
</g>
<!-- packages/reactivity/src/reactive.ts&#45;&gt;packages/reactivity/src/collectionHandlers.ts -->
<g id="edge46" class="edge">
<title>packages/reactivity/src/reactive.ts&#45;&gt;packages/reactivity/src/collectionHandlers.ts</title>
<path fill="none" stroke="#757575" d="M2008.58,-653.31C2038.03,-674.06 2091.58,-714.9 2141.75,-742.94 2178.36,-763.4 2223.5,-781.28 2252.3,-794.02"/>
<polygon fill="#757575" stroke="#757575" points="2250.55,-797.08 2261.11,-798.03 2253.45,-790.7 2250.55,-797.08"/>
</g>
<!-- packages/shared/src/codeframe.ts -->
<g id="node15" class="node">
<title>packages/shared/src/codeframe.ts</title>
<path fill="none" stroke="#cfffac" d="M1261.21,-1364.81C1261.21,-1364.81 1054.04,-1364.81 1054.04,-1364.81 1050.08,-1364.81 1046.12,-1360.85 1046.12,-1356.89 1046.12,-1356.89 1046.12,-1348.98 1046.12,-1348.98 1046.12,-1345.02 1050.08,-1341.06 1054.04,-1341.06 1054.04,-1341.06 1261.21,-1341.06 1261.21,-1341.06 1265.17,-1341.06 1269.12,-1345.02 1269.12,-1348.98 1269.12,-1348.98 1269.12,-1356.89 1269.12,-1356.89 1269.12,-1360.85 1265.17,-1364.81 1261.21,-1364.81"/>
<text text-anchor="middle" x="1157.62" y="-1347.51" font-family="Arial" font-size="14.00" fill="#cfffac">packages/shared/src/codeframe.ts</text>
</g>
<!-- packages/shared/src/index.ts&#45;&gt;packages/shared/src/codeframe.ts -->
<g id="edge69" class="edge">
<title>packages/shared/src/index.ts&#45;&gt;packages/shared/src/codeframe.ts</title>
<path fill="none" stroke="#757575" d="M902.39,-941.2C902.04,-996.45 908.42,-1224.18 1033,-1331.94 1034.11,-1332.9 1035.25,-1333.82 1036.41,-1334.71"/>
<polygon fill="#757575" stroke="#757575" points="1034.25,-1337.48 1044.53,-1340.05 1038.09,-1331.63 1034.25,-1337.48"/>
</g>
<!-- packages/shared/src/domAttrConfig.ts -->
<g id="node16" class="node">
<title>packages/shared/src/domAttrConfig.ts</title>
<path fill="none" stroke="#c6c5fe" d="M1560.33,-844.81C1560.33,-844.81 1330.67,-844.81 1330.67,-844.81 1326.71,-844.81 1322.75,-840.85 1322.75,-836.89 1322.75,-836.89 1322.75,-828.98 1322.75,-828.98 1322.75,-825.02 1326.71,-821.06 1330.67,-821.06 1330.67,-821.06 1560.33,-821.06 1560.33,-821.06 1564.29,-821.06 1568.25,-825.02 1568.25,-828.98 1568.25,-828.98 1568.25,-836.89 1568.25,-836.89 1568.25,-840.85 1564.29,-844.81 1560.33,-844.81"/>
<text text-anchor="middle" x="1445.5" y="-827.51" font-family="Arial" font-size="14.00" fill="#c6c5fe">packages/shared/src/domAttrConfig.ts</text>
</g>
<!-- packages/shared/src/index.ts&#45;&gt;packages/shared/src/domAttrConfig.ts -->
<g id="edge70" class="edge">
<title>packages/shared/src/index.ts&#45;&gt;packages/shared/src/domAttrConfig.ts</title>
<path fill="none" stroke="#757575" d="M910.58,-916.76C928.59,-890.44 975.45,-828.8 1033,-805.94 1157.3,-756.56 1319.32,-793.62 1397.81,-817.27"/>
<polygon fill="#757575" stroke="#757575" points="1396.74,-820.6 1407.33,-820.2 1398.8,-813.91 1396.74,-820.6"/>
</g>
<!-- packages/shared/src/makeMap.ts -->
<g id="node17" class="node">
<title>packages/shared/src/makeMap.ts</title>
<path fill="none" stroke="#cfffac" d="M1820.08,-1000.81C1820.08,-1000.81 1616.67,-1000.81 1616.67,-1000.81 1612.71,-1000.81 1608.75,-996.85 1608.75,-992.89 1608.75,-992.89 1608.75,-984.98 1608.75,-984.98 1608.75,-981.02 1612.71,-977.06 1616.67,-977.06 1616.67,-977.06 1820.08,-977.06 1820.08,-977.06 1824.04,-977.06 1828,-981.02 1828,-984.98 1828,-984.98 1828,-992.89 1828,-992.89 1828,-996.85 1824.04,-1000.81 1820.08,-1000.81"/>
<text text-anchor="middle" x="1718.38" y="-983.51" font-family="Arial" font-size="14.00" fill="#cfffac">packages/shared/src/makeMap.ts</text>
</g>
<!-- packages/shared/src/index.ts&#45;&gt;packages/shared/src/makeMap.ts -->
<g id="edge76" class="edge">
<title>packages/shared/src/index.ts&#45;&gt;packages/shared/src/makeMap.ts</title>
<path fill="none" stroke="#757575" d="M933.38,-941.27C959.43,-951.07 998.02,-964.07 1033,-969.94 1228.4,-1002.72 1459.49,-1000.87 1596.95,-995.58"/>
<polygon fill="#757575" stroke="#757575" points="1596.96,-999.08 1606.81,-995.19 1596.68,-992.09 1596.96,-999.08"/>
</g>
<!-- packages/shared/src/domTagConfig.ts -->
<g id="node18" class="node">
<title>packages/shared/src/domTagConfig.ts</title>
<path fill="none" stroke="#c6c5fe" d="M1560.71,-1140.81C1560.71,-1140.81 1330.29,-1140.81 1330.29,-1140.81 1326.33,-1140.81 1322.38,-1136.85 1322.38,-1132.89 1322.38,-1132.89 1322.38,-1124.98 1322.38,-1124.98 1322.38,-1121.02 1326.33,-1117.06 1330.29,-1117.06 1330.29,-1117.06 1560.71,-1117.06 1560.71,-1117.06 1564.67,-1117.06 1568.62,-1121.02 1568.62,-1124.98 1568.62,-1124.98 1568.62,-1132.89 1568.62,-1132.89 1568.62,-1136.85 1564.67,-1140.81 1560.71,-1140.81"/>
<text text-anchor="middle" x="1445.5" y="-1123.51" font-family="Arial" font-size="14.00" fill="#c6c5fe">packages/shared/src/domTagConfig.ts</text>
</g>
<!-- packages/shared/src/index.ts&#45;&gt;packages/shared/src/domTagConfig.ts -->
<g id="edge71" class="edge">
<title>packages/shared/src/index.ts&#45;&gt;packages/shared/src/domTagConfig.ts</title>
<path fill="none" stroke="#757575" d="M906.07,-941.24C917.14,-978.14 955.7,-1087.94 1033,-1129.94 1148.26,-1192.56 1309.87,-1164.84 1392.05,-1144.15"/>
<polygon fill="#757575" stroke="#757575" points="1392.84,-1147.56 1401.64,-1141.67 1391.08,-1140.79 1392.84,-1147.56"/>
</g>
<!-- packages/shared/src/escapeHtml.ts -->
<g id="node19" class="node">
<title>packages/shared/src/escapeHtml.ts</title>
<path fill="none" stroke="#cfffac" d="M1264.96,-1322.81C1264.96,-1322.81 1050.29,-1322.81 1050.29,-1322.81 1046.33,-1322.81 1042.38,-1318.85 1042.38,-1314.89 1042.38,-1314.89 1042.38,-1306.98 1042.38,-1306.98 1042.38,-1303.02 1046.33,-1299.06 1050.29,-1299.06 1050.29,-1299.06 1264.96,-1299.06 1264.96,-1299.06 1268.92,-1299.06 1272.88,-1303.02 1272.88,-1306.98 1272.88,-1306.98 1272.88,-1314.89 1272.88,-1314.89 1272.88,-1318.85 1268.92,-1322.81 1264.96,-1322.81"/>
<text text-anchor="middle" x="1157.62" y="-1305.51" font-family="Arial" font-size="14.00" fill="#cfffac">packages/shared/src/escapeHtml.ts</text>
</g>
<!-- packages/shared/src/index.ts&#45;&gt;packages/shared/src/escapeHtml.ts -->
<g id="edge72" class="edge">
<title>packages/shared/src/index.ts&#45;&gt;packages/shared/src/escapeHtml.ts</title>
<path fill="none" stroke="#757575" d="M902.89,-940.98C904.74,-992.35 919.24,-1194.85 1033,-1289.94 1034.13,-1290.88 1035.28,-1291.79 1036.46,-1292.66"/>
<polygon fill="#757575" stroke="#757575" points="1034.35,-1295.46 1044.66,-1297.9 1038.11,-1289.56 1034.35,-1295.46"/>
</g>
<!-- packages/shared/src/general.ts -->
<g id="node20" class="node">
<title>packages/shared/src/general.ts</title>
<path fill="none" stroke="#c6c5fe" d="M1539.33,-920.81C1539.33,-920.81 1351.67,-920.81 1351.67,-920.81 1347.71,-920.81 1343.75,-916.85 1343.75,-912.89 1343.75,-912.89 1343.75,-904.98 1343.75,-904.98 1343.75,-901.02 1347.71,-897.06 1351.67,-897.06 1351.67,-897.06 1539.33,-897.06 1539.33,-897.06 1543.29,-897.06 1547.25,-901.02 1547.25,-904.98 1547.25,-904.98 1547.25,-912.89 1547.25,-912.89 1547.25,-916.85 1543.29,-920.81 1539.33,-920.81"/>
<text text-anchor="middle" x="1445.5" y="-903.51" font-family="Arial" font-size="14.00" fill="#c6c5fe">packages/shared/src/general.ts</text>
</g>
<!-- packages/shared/src/index.ts&#45;&gt;packages/shared/src/general.ts -->
<g id="edge73" class="edge">
<title>packages/shared/src/index.ts&#45;&gt;packages/shared/src/general.ts</title>
<path fill="none" stroke="#757575" d="M997.32,-925.44C1090.65,-922 1233.28,-916.73 1332.26,-913.08"/>
<polygon fill="#757575" stroke="#757575" points="1332.12,-916.59 1341.99,-912.72 1331.87,-909.59 1332.12,-916.59"/>
</g>
<!-- packages/shared/src/globalsAllowList.ts -->
<g id="node21" class="node">
<title>packages/shared/src/globalsAllowList.ts</title>
<path fill="none" stroke="#c6c5fe" d="M1564.83,-1040.81C1564.83,-1040.81 1326.17,-1040.81 1326.17,-1040.81 1322.21,-1040.81 1318.25,-1036.85 1318.25,-1032.89 1318.25,-1032.89 1318.25,-1024.98 1318.25,-1024.98 1318.25,-1021.02 1322.21,-1017.06 1326.17,-1017.06 1326.17,-1017.06 1564.83,-1017.06 1564.83,-1017.06 1568.79,-1017.06 1572.75,-1021.02 1572.75,-1024.98 1572.75,-1024.98 1572.75,-1032.89 1572.75,-1032.89 1572.75,-1036.85 1568.79,-1040.81 1564.83,-1040.81"/>
<text text-anchor="middle" x="1445.5" y="-1023.51" font-family="Arial" font-size="14.00" fill="#c6c5fe">packages/shared/src/globalsAllowList.ts</text>
</g>
<!-- packages/shared/src/index.ts&#45;&gt;packages/shared/src/globalsAllowList.ts -->
<g id="edge74" class="edge">
<title>packages/shared/src/index.ts&#45;&gt;packages/shared/src/globalsAllowList.ts</title>
<path fill="none" stroke="#757575" d="M918.4,-941.09C941.89,-958.41 988.1,-989.56 1033,-1002.94 1121.61,-1029.35 1225.57,-1035.73 1306.83,-1035.56"/>
<polygon fill="#757575" stroke="#757575" points="1306.65,-1039.06 1316.63,-1035.51 1306.61,-1032.06 1306.65,-1039.06"/>
</g>
<!-- packages/shared/src/looseEqual.ts -->
<g id="node22" class="node">
<title>packages/shared/src/looseEqual.ts</title>
<path fill="none" stroke="#c6c5fe" d="M1262.33,-880.81C1262.33,-880.81 1052.92,-880.81 1052.92,-880.81 1048.96,-880.81 1045,-876.85 1045,-872.89 1045,-872.89 1045,-864.98 1045,-864.98 1045,-861.02 1048.96,-857.06 1052.92,-857.06 1052.92,-857.06 1262.33,-857.06 1262.33,-857.06 1266.29,-857.06 1270.25,-861.02 1270.25,-864.98 1270.25,-864.98 1270.25,-872.89 1270.25,-872.89 1270.25,-876.85 1266.29,-880.81 1262.33,-880.81"/>
<text text-anchor="middle" x="1157.62" y="-863.51" font-family="Arial" font-size="14.00" fill="#c6c5fe">packages/shared/src/looseEqual.ts</text>
</g>
<!-- packages/shared/src/index.ts&#45;&gt;packages/shared/src/looseEqual.ts -->
<g id="edge75" class="edge">
<title>packages/shared/src/index.ts&#45;&gt;packages/shared/src/looseEqual.ts</title>
<path fill="none" stroke="#757575" d="M947.75,-916.6C972.79,-909.9 1004.54,-901.64 1033,-894.94 1049.55,-891.04 1067.41,-887.12 1084.27,-883.55"/>
<polygon fill="#757575" stroke="#757575" points="1084.64,-887.05 1093.71,-881.56 1083.2,-880.2 1084.64,-887.05"/>
</g>
<!-- packages/shared/src/normalizeProp.ts -->
<g id="node23" class="node">
<title>packages/shared/src/normalizeProp.ts</title>
<path fill="none" stroke="#c6c5fe" d="M1272.83,-960.81C1272.83,-960.81 1042.42,-960.81 1042.42,-960.81 1038.46,-960.81 1034.5,-956.85 1034.5,-952.89 1034.5,-952.89 1034.5,-944.98 1034.5,-944.98 1034.5,-941.02 1038.46,-937.06 1042.42,-937.06 1042.42,-937.06 1272.83,-937.06 1272.83,-937.06 1276.79,-937.06 1280.75,-941.02 1280.75,-944.98 1280.75,-944.98 1280.75,-952.89 1280.75,-952.89 1280.75,-956.85 1276.79,-960.81 1272.83,-960.81"/>
<text text-anchor="middle" x="1157.62" y="-943.51" font-family="Arial" font-size="14.00" fill="#c6c5fe">packages/shared/src/normalizeProp.ts</text>
</g>
<!-- packages/shared/src/index.ts&#45;&gt;packages/shared/src/normalizeProp.ts -->
<g id="edge77" class="edge">
<title>packages/shared/src/index.ts&#45;&gt;packages/shared/src/normalizeProp.ts</title>
<path fill="none" stroke="#757575" d="M997.21,-936.38C1005.64,-937.05 1014.28,-937.73 1022.96,-938.41"/>
<polygon fill="#757575" stroke="#757575" points="1022.63,-941.9 1032.87,-939.19 1023.18,-934.92 1022.63,-941.9"/>
</g>
<!-- packages/shared/src/patchFlags.ts -->
<g id="node24" class="node">
<title>packages/shared/src/patchFlags.ts</title>
<path fill="none" stroke="#cfffac" d="M1261.96,-1280.81C1261.96,-1280.81 1053.29,-1280.81 1053.29,-1280.81 1049.33,-1280.81 1045.38,-1276.85 1045.38,-1272.89 1045.38,-1272.89 1045.38,-1264.98 1045.38,-1264.98 1045.38,-1261.02 1049.33,-1257.06 1053.29,-1257.06 1053.29,-1257.06 1261.96,-1257.06 1261.96,-1257.06 1265.92,-1257.06 1269.88,-1261.02 1269.88,-1264.98 1269.88,-1264.98 1269.88,-1272.89 1269.88,-1272.89 1269.88,-1276.85 1265.92,-1280.81 1261.96,-1280.81"/>
<text text-anchor="middle" x="1157.62" y="-1263.51" font-family="Arial" font-size="14.00" fill="#cfffac">packages/shared/src/patchFlags.ts</text>
</g>
<!-- packages/shared/src/index.ts&#45;&gt;packages/shared/src/patchFlags.ts -->
<g id="edge78" class="edge">
<title>packages/shared/src/index.ts&#45;&gt;packages/shared/src/patchFlags.ts</title>
<path fill="none" stroke="#757575" d="M903.54,-941.2C907.83,-989.2 930.29,-1165.63 1033,-1247.94 1034.17,-1248.87 1035.37,-1249.78 1036.59,-1250.65"/>
<polygon fill="#757575" stroke="#757575" points="1034.75,-1253.62 1045.1,-1255.87 1038.41,-1247.66 1034.75,-1253.62"/>
</g>
<!-- packages/shared/src/shapeFlags.ts -->
<g id="node25" class="node">
<title>packages/shared/src/shapeFlags.ts</title>
<path fill="none" stroke="#cfffac" d="M1263.83,-1238.81C1263.83,-1238.81 1051.42,-1238.81 1051.42,-1238.81 1047.46,-1238.81 1043.5,-1234.85 1043.5,-1230.89 1043.5,-1230.89 1043.5,-1222.98 1043.5,-1222.98 1043.5,-1219.02 1047.46,-1215.06 1051.42,-1215.06 1051.42,-1215.06 1263.83,-1215.06 1263.83,-1215.06 1267.79,-1215.06 1271.75,-1219.02 1271.75,-1222.98 1271.75,-1222.98 1271.75,-1230.89 1271.75,-1230.89 1271.75,-1234.85 1267.79,-1238.81 1263.83,-1238.81"/>
<text text-anchor="middle" x="1157.62" y="-1221.51" font-family="Arial" font-size="14.00" fill="#cfffac">packages/shared/src/shapeFlags.ts</text>
</g>
<!-- packages/shared/src/index.ts&#45;&gt;packages/shared/src/shapeFlags.ts -->
<g id="edge79" class="edge">
<title>packages/shared/src/index.ts&#45;&gt;packages/shared/src/shapeFlags.ts</title>
<path fill="none" stroke="#757575" d="M904.56,-941.07C912.09,-984.12 943.62,-1130.77 1033,-1200.94 1037.25,-1204.27 1041.83,-1207.21 1046.63,-1209.79"/>
<polygon fill="#757575" stroke="#757575" points="1044.87,-1212.83 1055.4,-1213.95 1047.87,-1206.5 1044.87,-1212.83"/>
</g>
<!-- packages/shared/src/slotFlags.ts -->
<g id="node26" class="node">
<title>packages/shared/src/slotFlags.ts</title>
<path fill="none" stroke="#cfffac" d="M1255.96,-1120.81C1255.96,-1120.81 1059.29,-1120.81 1059.29,-1120.81 1055.33,-1120.81 1051.38,-1116.85 1051.38,-1112.89 1051.38,-1112.89 1051.38,-1104.98 1051.38,-1104.98 1051.38,-1101.02 1055.33,-1097.06 1059.29,-1097.06 1059.29,-1097.06 1255.96,-1097.06 1255.96,-1097.06 1259.92,-1097.06 1263.88,-1101.02 1263.88,-1104.98 1263.88,-1104.98 1263.88,-1112.89 1263.88,-1112.89 1263.88,-1116.85 1259.92,-1120.81 1255.96,-1120.81"/>
<text text-anchor="middle" x="1157.62" y="-1103.51" font-family="Arial" font-size="14.00" fill="#cfffac">packages/shared/src/slotFlags.ts</text>
</g>
<!-- packages/shared/src/index.ts&#45;&gt;packages/shared/src/slotFlags.ts -->
<g id="edge80" class="edge">
<title>packages/shared/src/index.ts&#45;&gt;packages/shared/src/slotFlags.ts</title>
<path fill="none" stroke="#757575" d="M908.55,-940.98C924.18,-971.34 969.72,-1051.19 1033,-1087.94 1035.64,-1089.47 1038.37,-1090.9 1041.16,-1092.23"/>
<polygon fill="#757575" stroke="#757575" points="1039.56,-1095.36 1050.13,-1096.05 1042.3,-1088.91 1039.56,-1095.36"/>
</g>
<!-- packages/shared/src/toDisplayString.ts -->
<g id="node27" class="node">
<title>packages/shared/src/toDisplayString.ts</title>
<path fill="none" stroke="#ff6c60" d="M1274.33,-838.81C1274.33,-838.81 1040.92,-838.81 1040.92,-838.81 1036.96,-838.81 1033,-834.85 1033,-830.89 1033,-830.89 1033,-822.98 1033,-822.98 1033,-819.02 1036.96,-815.06 1040.92,-815.06 1040.92,-815.06 1274.33,-815.06 1274.33,-815.06 1278.29,-815.06 1282.25,-819.02 1282.25,-822.98 1282.25,-822.98 1282.25,-830.89 1282.25,-830.89 1282.25,-834.85 1278.29,-838.81 1274.33,-838.81"/>
<text text-anchor="middle" x="1157.62" y="-821.51" font-family="Arial" font-size="14.00" fill="#ff6c60">packages/shared/src/toDisplayString.ts</text>
</g>
<!-- packages/shared/src/index.ts&#45;&gt;packages/shared/src/toDisplayString.ts -->
<g id="edge81" class="edge">
<title>packages/shared/src/index.ts&#45;&gt;packages/shared/src/toDisplayString.ts</title>
<path fill="none" stroke="#757575" d="M917.64,-916.85C940.88,-898.81 987.65,-865.12 1033,-847.94 1038.6,-845.82 1044.42,-843.91 1050.35,-842.19"/>
<polygon fill="#757575" stroke="#757575" points="1050.91,-845.67 1059.67,-839.7 1049.1,-838.9 1050.91,-845.67"/>
</g>
<!-- packages/shared/src/typeUtils.ts -->
<g id="node28" class="node">
<title>packages/shared/src/typeUtils.ts</title>
<path fill="none" stroke="#cfffac" d="M1254.83,-1078.81C1254.83,-1078.81 1060.42,-1078.81 1060.42,-1078.81 1056.46,-1078.81 1052.5,-1074.85 1052.5,-1070.89 1052.5,-1070.89 1052.5,-1062.98 1052.5,-1062.98 1052.5,-1059.02 1056.46,-1055.06 1060.42,-1055.06 1060.42,-1055.06 1254.83,-1055.06 1254.83,-1055.06 1258.79,-1055.06 1262.75,-1059.02 1262.75,-1062.98 1262.75,-1062.98 1262.75,-1070.89 1262.75,-1070.89 1262.75,-1074.85 1258.79,-1078.81 1254.83,-1078.81"/>
<text text-anchor="middle" x="1157.62" y="-1061.51" font-family="Arial" font-size="14.00" fill="#cfffac">packages/shared/src/typeUtils.ts</text>
</g>
<!-- packages/shared/src/index.ts&#45;&gt;packages/shared/src/typeUtils.ts -->
<g id="edge82" class="edge">
<title>packages/shared/src/index.ts&#45;&gt;packages/shared/src/typeUtils.ts</title>
<path fill="none" stroke="#757575" d="M912.73,-940.95C932.98,-964.21 981.09,-1015.31 1033,-1040.94 1041.34,-1045.05 1050.31,-1048.52 1059.47,-1051.44"/>
<polygon fill="#757575" stroke="#757575" points="1058.25,-1054.73 1068.83,-1054.19 1060.23,-1048.01 1058.25,-1054.73"/>
</g>
<!-- packages/reactivity/src/baseHandlers.ts&#45;&gt;packages/reactivity/src/arrayInstrumentations.ts -->
<g id="edge6" class="edge">
<title>packages/reactivity/src/baseHandlers.ts&#45;&gt;packages/reactivity/src/arrayInstrumentations.ts</title>
<path fill="none" stroke="#757575" d="M2239.71,-743.22C2210.66,-753.05 2171.79,-768.71 2141.75,-789.94 1779.25,-1046.1 1890.38,-1506.94 1446.5,-1506.94 667.5,-1506.94 667.5,-1506.94 667.5,-1506.94 364.83,-1506.94 195.8,-1060.14 159.38,-952.2"/>
<polygon fill="#757575" stroke="#757575" points="162.7,-951.1 156.24,-942.71 156.06,-953.31 162.7,-951.1"/>
</g>
<!-- packages/reactivity/src/baseHandlers.ts&#45;&gt;packages/reactivity/src/constants.ts -->
<g id="edge7" class="edge">
<title>packages/reactivity/src/baseHandlers.ts&#45;&gt;packages/reactivity/src/constants.ts</title>
<path fill="none" stroke="#757575" d="M2409.2,-740.56C2537.58,-746.93 2741.33,-747.53 2911.25,-704.94 2955.9,-693.74 3003.04,-668.39 3032.08,-650.96"/>
<polygon fill="#757575" stroke="#757575" points="3033.57,-654.15 3040.27,-645.95 3029.92,-648.18 3033.57,-654.15"/>
</g>
<!-- packages/reactivity/src/baseHandlers.ts&#45;&gt;packages/reactivity/src/dep.ts -->
<g id="edge8" class="edge">
<title>packages/reactivity/src/baseHandlers.ts&#45;&gt;packages/reactivity/src/dep.ts</title>
<path fill="none" stroke="#757575" d="M2217.54,-718.58C2078.36,-692.65 1736.02,-634.94 1446.5,-634.94 900.62,-634.94 900.62,-634.94 900.62,-634.94 751.03,-634.94 577.87,-596.21 491.02,-574.05"/>
<polygon fill="#757575" stroke="#757575" points="492.13,-570.72 481.57,-571.61 490.38,-577.5 492.13,-570.72"/>
</g>
<!-- packages/reactivity/src/baseHandlers.ts&#45;&gt;packages/reactivity/src/reactive.ts -->
<g id="edge9" class="edge">
<title>packages/reactivity/src/baseHandlers.ts&#45;&gt;packages/reactivity/src/reactive.ts</title>
<path fill="none" stroke="#757575" d="M2154.85,-720.24C2150.35,-718.33 2145.97,-716.23 2141.75,-713.94 2121.32,-702.82 2126.02,-687.35 2105.75,-675.94 2087.99,-665.93 2066.74,-659.77 2047.11,-655.51"/>
<polygon fill="#757575" stroke="#757575" points="2048.06,-652.13 2037.57,-653.57 2046.67,-658.99 2048.06,-652.13"/>
</g>
<!-- packages/reactivity/src/baseHandlers.ts&#45;&gt;packages/shared/src/index.ts -->
<g id="edge12" class="edge">
<title>packages/reactivity/src/baseHandlers.ts&#45;&gt;packages/shared/src/index.ts</title>
<path fill="none" stroke="#757575" d="M2154.98,-724.7C1857.52,-710.93 1129.94,-683.09 1033,-734.94 963.99,-771.85 924.96,-863.26 909.91,-906.09"/>
<polygon fill="#757575" stroke="#757575" points="906.66,-904.78 906.78,-915.37 913.29,-907.01 906.66,-904.78"/>
</g>
<!-- packages/reactivity/src/baseHandlers.ts&#45;&gt;packages/reactivity/src/ref.ts -->
<g id="edge10" class="edge">
<title>packages/reactivity/src/baseHandlers.ts&#45;&gt;packages/reactivity/src/ref.ts</title>
<path fill="none" stroke="#757575" d="M2327.54,-718.66C2357.24,-708.65 2395.64,-692.01 2422.5,-666.94 2446.93,-644.14 2432.38,-621.77 2458.5,-600.94 2462.74,-597.55 2467.4,-594.61 2472.3,-592.05"/>
<polygon fill="#757575" stroke="#757575" points="2473.63,-595.29 2481.27,-587.94 2470.72,-588.92 2473.63,-595.29"/>
</g>
<!-- packages/reactivity/src/baseHandlers.ts&#45;&gt;packages/reactivity/src/warning.ts -->
<g id="edge11" class="edge">
<title>packages/reactivity/src/baseHandlers.ts&#45;&gt;packages/reactivity/src/warning.ts</title>
<path fill="none" stroke="#757575" d="M2302.61,-718.58C2334.18,-699.04 2399.02,-660.99 2458.5,-638.94 2538.16,-609.41 2562.49,-617.15 2644.75,-595.94 2764.02,-565.18 2801.17,-575.19 2911.25,-519.94 2961.75,-494.58 3012.26,-451.27 3039.59,-425.97"/>
<polygon fill="#757575" stroke="#757575" points="3041.94,-428.56 3046.84,-419.16 3037.15,-423.46 3041.94,-428.56"/>
</g>
<!-- packages/reactivity/src/ref.ts&#45;&gt;packages/reactivity/src/constants.ts -->
<g id="edge52" class="edge">
<title>packages/reactivity/src/ref.ts&#45;&gt;packages/reactivity/src/constants.ts</title>
<path fill="none" stroke="#757575" d="M2645.16,-585.51C2728.14,-594.99 2850.38,-608.95 2940.76,-619.27"/>
<polygon fill="#757575" stroke="#757575" points="2940.34,-622.75 2950.67,-620.4 2941.13,-615.79 2940.34,-622.75"/>
</g>
<!-- packages/reactivity/src/ref.ts&#45;&gt;packages/reactivity/src/dep.ts -->
<g id="edge53" class="edge">
<title>packages/reactivity/src/ref.ts&#45;&gt;packages/reactivity/src/dep.ts</title>
<path fill="none" stroke="#757575" d="M2458.22,-580.75C2346.42,-587.26 2152.44,-596.94 1985.88,-596.94 1717.38,-596.94 1717.38,-596.94 1717.38,-596.94 1281.25,-596.94 762.04,-574.7 542.12,-564.25"/>
<polygon fill="#757575" stroke="#757575" points="542.59,-560.76 532.43,-563.78 542.25,-567.76 542.59,-560.76"/>
</g>
<!-- packages/reactivity/src/ref.ts&#45;&gt;packages/reactivity/src/reactive.ts -->
<g id="edge54" class="edge">
<title>packages/reactivity/src/ref.ts&#45;&gt;packages/reactivity/src/reactive.ts</title>
<path fill="none" stroke="#757575" d="M2526.83,-587.26C2490.14,-601.01 2423.82,-619.71 2422.5,-619.94 2316.17,-638.33 2193.43,-645.55 2105.22,-646.79"/>
<polygon fill="#757575" stroke="#757575" points="2105.3,-643.29 2095.34,-646.9 2105.38,-650.29 2105.3,-643.29"/>
</g>
<!-- packages/reactivity/src/ref.ts&#45;&gt;packages/shared/src/index.ts -->
<g id="edge56" class="edge">
<title>packages/reactivity/src/ref.ts&#45;&gt;packages/shared/src/index.ts</title>
<path fill="none" stroke="#757575" d="M2542.69,-587.18C2517.57,-625.71 2440.45,-742.56 2422.5,-751.94 2285.64,-823.44 1172.8,-712.35 1033,-777.94 975,-805.15 932.75,-871.87 913.77,-906.8"/>
<polygon fill="#757575" stroke="#757575" points="910.7,-905.12 909.14,-915.6 916.89,-908.38 910.7,-905.12"/>
</g>
<!-- packages/reactivity/src/ref.ts&#45;&gt;packages/reactivity/src/warning.ts -->
<g id="edge55" class="edge">
<title>packages/reactivity/src/ref.ts&#45;&gt;packages/reactivity/src/warning.ts</title>
<path fill="none" stroke="#757575" d="M2601.66,-562.59C2671.28,-544.61 2802.43,-509.06 2911.25,-469.94 2950.45,-455.85 2994.11,-436.68 3024,-423.01"/>
<polygon fill="#757575" stroke="#757575" points="3025.37,-426.23 3032.98,-418.87 3022.44,-419.88 3025.37,-426.23"/>
</g>
<!-- packages/reactivity/src/ref.ts&#45;&gt;packages/reactivity/src/computed.ts -->
<g id="edge51" class="edge">
<title>packages/reactivity/src/ref.ts&#45;&gt;packages/reactivity/src/computed.ts</title>
<path fill="none" stroke="#757575" d="M2563.04,-562.75C2598.43,-526.85 2714.8,-423.13 2768.01,-379.44"/>
<polygon fill="#757575" stroke="#757575" points="2770.14,-382.21 2775.71,-373.2 2765.73,-376.78 2770.14,-382.21"/>
</g>
<!-- packages/reactivity/src/collectionHandlers.ts&#45;&gt;packages/reactivity/src/constants.ts -->
<g id="edge13" class="edge">
<title>packages/reactivity/src/collectionHandlers.ts&#45;&gt;packages/reactivity/src/constants.ts</title>
<path fill="none" stroke="#757575" d="M2422.74,-813.29C2553.13,-811.12 2751.13,-796.51 2911.25,-735.94 2962.02,-716.73 3012.08,-676.64 3039.33,-652.53"/>
<polygon fill="#757575" stroke="#757575" points="3041.46,-655.33 3046.54,-646.04 3036.77,-650.13 3041.46,-655.33"/>
</g>
<!-- packages/reactivity/src/collectionHandlers.ts&#45;&gt;packages/reactivity/src/dep.ts -->
<g id="edge14" class="edge">
<title>packages/reactivity/src/collectionHandlers.ts&#45;&gt;packages/reactivity/src/dep.ts</title>
<path fill="none" stroke="#757575" d="M2277.2,-823.04C2248.34,-909.59 2060.35,-1430.94 1719.38,-1430.94 900.62,-1430.94 900.62,-1430.94 900.62,-1430.94 504.58,-1430.94 444.39,-722.19 436.38,-582.63"/>
<polygon fill="#757575" stroke="#757575" points="439.88,-582.57 435.85,-572.77 432.89,-582.95 439.88,-582.57"/>
</g>
<!-- packages/reactivity/src/collectionHandlers.ts&#45;&gt;packages/reactivity/src/reactive.ts -->
<g id="edge15" class="edge">
<title>packages/reactivity/src/collectionHandlers.ts&#45;&gt;packages/reactivity/src/reactive.ts</title>
<path fill="none" stroke="#757575" d="M2225.2,-798.68C2199.2,-789.2 2168.24,-775.74 2141.75,-760.94 2088.37,-731.1 2031.16,-686.78 2003.23,-660.89"/>
<polygon fill="#757575" stroke="#757575" points="2005.95,-658.65 1996.32,-654.22 2001.09,-663.68 2005.95,-658.65"/>
</g>
<!-- packages/reactivity/src/collectionHandlers.ts&#45;&gt;packages/shared/src/index.ts -->
<g id="edge17" class="edge">
<title>packages/reactivity/src/collectionHandlers.ts&#45;&gt;packages/shared/src/index.ts</title>
<path fill="none" stroke="#757575" d="M2262.76,-823.22C2184.16,-875.01 1866.68,-1076.28 1572.75,-1149.94 1570.95,-1150.39 1066.17,-1182.43 1033,-1162.94 953.53,-1116.24 918.96,-1001.58 907.41,-952.19"/>
<polygon fill="#757575" stroke="#757575" points="910.86,-951.6 905.28,-942.6 904.03,-953.12 910.86,-951.6"/>
</g>
<!-- packages/reactivity/src/collectionHandlers.ts&#45;&gt;packages/reactivity/src/warning.ts -->
<g id="edge16" class="edge">
<title>packages/reactivity/src/collectionHandlers.ts&#45;&gt;packages/reactivity/src/warning.ts</title>
<path fill="none" stroke="#757575" d="M2366.82,-798.63C2385.36,-794.99 2404.76,-790.46 2422.5,-784.94 2649.59,-714.19 2717.89,-705.45 2911.25,-566.94 2968.48,-525.94 3020.78,-460.26 3045.45,-426.88"/>
<polygon fill="#757575" stroke="#757575" points="3047.98,-429.36 3051.04,-419.21 3042.32,-425.23 3047.98,-429.36"/>
</g>
<!-- packages/reactivity/src/computed.ts&#45;&gt;packages/reactivity/src/constants.ts -->
<g id="edge18" class="edge">
<title>packages/reactivity/src/computed.ts&#45;&gt;packages/reactivity/src/constants.ts</title>
<path fill="none" stroke="#757575" d="M2808.66,-372.02C2849.87,-414.74 2988.98,-558.94 3040.75,-612.6"/>
<polygon fill="#757575" stroke="#757575" points="3038.04,-614.83 3047.5,-619.59 3043.08,-609.97 3038.04,-614.83"/>
</g>
<!-- packages/reactivity/src/computed.ts&#45;&gt;packages/reactivity/src/dep.ts -->
<g id="edge19" class="edge">
<title>packages/reactivity/src/computed.ts&#45;&gt;packages/reactivity/src/dep.ts</title>
<path fill="none" stroke="#757575" d="M2725.02,-372.28C2656.92,-379.82 2550.54,-388.68 2458.5,-397.94 2294,-414.48 1884.71,-482.94 1719.38,-482.94 900.62,-482.94 900.62,-482.94 900.62,-482.94 759.1,-482.94 597.25,-521.45 506.56,-543.88"/>
<polygon fill="#757575" stroke="#757575" points="505.92,-540.43 497.06,-546.24 507.61,-547.23 505.92,-540.43"/>
</g>
<!-- packages/reactivity/src/computed.ts&#45;&gt;packages/reactivity/src/effect.ts -->
<g id="edge20" class="edge">
<title>packages/reactivity/src/computed.ts&#45;&gt;packages/reactivity/src/effect.ts</title>
<path fill="none" stroke="#757575" d="M2763.45,-347.65C2733.71,-332.15 2687.45,-306.58 2644.75,-289.94 2255.07,-138.03 2137.62,-118.94 1719.38,-118.94 1156.62,-118.94 1156.62,-118.94 1156.62,-118.94 1002.23,-118.94 825.63,-166.84 733.33,-192.58"/>
<polygon fill="#757575" stroke="#757575" points="732.65,-189.14 723.96,-195.2 734.53,-195.88 732.65,-189.14"/>
</g>
<!-- packages/reactivity/src/computed.ts&#45;&gt;packages/shared/src/index.ts -->
<g id="edge23" class="edge">
<title>packages/reactivity/src/computed.ts&#45;&gt;packages/shared/src/index.ts</title>
<path fill="none" stroke="#757575" d="M2737.99,-372.25C2620.22,-397.48 2341.36,-456.09 2105.75,-496.94 1868.3,-538.11 1226.84,-512.75 1033,-655.94 947.95,-718.76 916.04,-851.61 906.29,-905.49"/>
<polygon fill="#757575" stroke="#757575" points="902.88,-904.64 904.65,-915.08 909.78,-905.81 902.88,-904.64"/>
</g>
<!-- packages/reactivity/src/computed.ts&#45;&gt;packages/reactivity/src/ref.ts -->
<g id="edge21" class="edge">
<title>packages/reactivity/src/computed.ts&#45;&gt;packages/reactivity/src/ref.ts</title>
<path fill="none" stroke="#757575" d="M2784.52,-372.2C2748.98,-408.23 2632.31,-512.21 2579.28,-555.71"/>
<polygon fill="#757575" stroke="#757575" points="2577.19,-552.9 2571.62,-561.91 2581.6,-558.34 2577.19,-552.9"/>
</g>
<!-- packages/reactivity/src/computed.ts&#45;&gt;packages/reactivity/src/warning.ts -->
<g id="edge22" class="edge">
<title>packages/reactivity/src/computed.ts&#45;&gt;packages/reactivity/src/warning.ts</title>
<path fill="none" stroke="#757575" d="M2867.58,-372.26C2901.68,-378.22 2942.8,-385.4 2978.29,-391.6"/>
<polygon fill="#757575" stroke="#757575" points="2977.66,-395.04 2988.11,-393.31 2978.86,-388.15 2977.66,-395.04"/>
</g>
<!-- packages/reactivity/src/effectScope.ts&#45;&gt;packages/reactivity/src/effect.ts -->
<g id="edge34" class="edge">
<title>packages/reactivity/src/effectScope.ts&#45;&gt;packages/reactivity/src/effect.ts</title>
<path fill="none" stroke="#757575" d="M1863.58,-170.57C1754.68,-176.26 1589.87,-180.94 1446.5,-180.94 1156.62,-180.94 1156.62,-180.94 1156.62,-180.94 1027.82,-180.94 880.37,-193.61 781.75,-202.04"/>
<polygon fill="#757575" stroke="#757575" points="781.74,-198.53 772.07,-202.86 782.34,-205.5 781.74,-198.53"/>
</g>
<!-- packages/reactivity/src/effectScope.ts&#45;&gt;packages/reactivity/src/warning.ts -->
<g id="edge35" class="edge">
<title>packages/reactivity/src/effectScope.ts&#45;&gt;packages/reactivity/src/warning.ts</title>
<path fill="none" stroke="#757575" d="M2017.62,-146.56C2142.45,-100.09 2607.66,52.41 2911.25,-128.94 3006.5,-185.83 3044.48,-326.85 3056.11,-382.66"/>
<polygon fill="#757575" stroke="#757575" points="3052.64,-383.17 3058.01,-392.3 3059.51,-381.81 3052.64,-383.17"/>
</g>
<!-- packages/reactivity/src/index.ts -->
<g id="node13" class="node">
<title>packages/reactivity/src/index.ts</title>
<path fill="none" stroke="#ff6c60" d="M1538.96,-400.81C1538.96,-400.81 1352.04,-400.81 1352.04,-400.81 1348.08,-400.81 1344.12,-396.85 1344.12,-392.89 1344.12,-392.89 1344.12,-384.98 1344.12,-384.98 1344.12,-381.02 1348.08,-377.06 1352.04,-377.06 1352.04,-377.06 1538.96,-377.06 1538.96,-377.06 1542.92,-377.06 1546.88,-381.02 1546.88,-384.98 1546.88,-384.98 1546.88,-392.89 1546.88,-392.89 1546.88,-396.85 1542.92,-400.81 1538.96,-400.81"/>
<text text-anchor="middle" x="1445.5" y="-383.51" font-family="Arial" font-size="14.00" fill="#ff6c60">packages/reactivity/src/index.ts</text>
</g>
<!-- packages/reactivity/src/index.ts&#45;&gt;packages/reactivity/src/arrayInstrumentations.ts -->
<g id="edge36" class="edge">
<title>packages/reactivity/src/index.ts&#45;&gt;packages/reactivity/src/arrayInstrumentations.ts</title>
<path fill="none" stroke="#757575" d="M1343.63,-388.94C1234.81,-388.94 1056.44,-388.94 902.62,-388.94 667.5,-388.94 667.5,-388.94 667.5,-388.94 506.68,-388.94 448.05,-420.9 337.75,-537.94 230,-652.27 174.29,-840.57 157.47,-905.82"/>
<polygon fill="#757575" stroke="#757575" points="154.11,-904.84 155.07,-915.39 160.9,-906.54 154.11,-904.84"/>
</g>
<!-- packages/reactivity/src/index.ts&#45;&gt;packages/reactivity/src/constants.ts -->
<g id="edge38" class="edge">
<title>packages/reactivity/src/index.ts&#45;&gt;packages/reactivity/src/constants.ts</title>
<path fill="none" stroke="#757575" d="M1547.11,-392.86C1624.15,-396.45 1732.98,-402.77 1828,-412.94 2312.85,-464.79 2437,-473.54 2911.25,-586.94 2946.18,-595.29 2984.92,-607.33 3014.16,-616.99"/>
<polygon fill="#757575" stroke="#757575" points="3012.85,-620.24 3023.44,-620.09 3015.06,-613.6 3012.85,-620.24"/>
</g>
<!-- packages/reactivity/src/index.ts&#45;&gt;packages/reactivity/src/dep.ts -->
<g id="edge39" class="edge">
<title>packages/reactivity/src/index.ts&#45;&gt;packages/reactivity/src/dep.ts</title>
<path fill="none" stroke="#757575" d="M1343.69,-397.94C1323.36,-399.67 1302.12,-401.41 1282.25,-402.94 1123.36,-415.12 714.9,-392.23 566.75,-450.94 519.3,-469.74 476,-512.36 452.86,-538.08"/>
<polygon fill="#757575" stroke="#757575" points="450.24,-535.75 446.28,-545.58 455.5,-540.37 450.24,-535.75"/>
</g>
<!-- packages/reactivity/src/index.ts&#45;&gt;packages/reactivity/src/effect.ts -->
<g id="edge40" class="edge">
<title>packages/reactivity/src/index.ts&#45;&gt;packages/reactivity/src/effect.ts</title>
<path fill="none" stroke="#757575" d="M1367.53,-376.61C1246.74,-356.46 1005.87,-313.04 806.25,-256.94 773.6,-247.76 737.52,-234.7 710.62,-224.38"/>
<polygon fill="#757575" stroke="#757575" points="712.06,-221.18 701.47,-220.83 709.53,-227.71 712.06,-221.18"/>
</g>
<!-- packages/reactivity/src/index.ts&#45;&gt;packages/reactivity/src/reactive.ts -->
<g id="edge42" class="edge">
<title>packages/reactivity/src/index.ts&#45;&gt;packages/reactivity/src/reactive.ts</title>
<path fill="none" stroke="#757575" d="M1472.78,-401.26C1560.82,-442.54 1845.47,-576.03 1947.26,-623.77"/>
<polygon fill="#757575" stroke="#757575" points="1945.73,-626.92 1956.27,-627.99 1948.7,-620.58 1945.73,-626.92"/>
</g>
<!-- packages/reactivity/src/index.ts&#45;&gt;packages/reactivity/src/ref.ts -->
<g id="edge43" class="edge">
<title>packages/reactivity/src/index.ts&#45;&gt;packages/reactivity/src/ref.ts</title>
<path fill="none" stroke="#757575" d="M1519.8,-401.28C1716.78,-434.47 2256.79,-525.44 2466.14,-560.7"/>
<polygon fill="#757575" stroke="#757575" points="2465.42,-564.13 2475.86,-562.34 2466.58,-557.23 2465.42,-564.13"/>
</g>
<!-- packages/reactivity/src/index.ts&#45;&gt;packages/reactivity/src/computed.ts -->
<g id="edge37" class="edge">
<title>packages/reactivity/src/index.ts&#45;&gt;packages/reactivity/src/computed.ts</title>
<path fill="none" stroke="#757575" d="M1461.44,-376.79C1488.73,-355.42 1549.32,-311.68 1608.75,-293.94 1768.71,-246.18 1816.94,-274.94 1983.88,-274.94 1983.88,-274.94 1983.88,-274.94 2283.12,-274.94 2445.09,-274.94 2485.76,-289.03 2644.75,-319.94 2678.08,-326.42 2714.94,-336.19 2743.81,-344.45"/>
<polygon fill="#757575" stroke="#757575" points="2742.82,-347.81 2753.4,-347.23 2744.77,-341.08 2742.82,-347.81"/>
</g>
<!-- packages/reactivity/src/index.ts&#45;&gt;packages/reactivity/src/effectScope.ts -->
<g id="edge41" class="edge">
<title>packages/reactivity/src/index.ts&#45;&gt;packages/reactivity/src/effectScope.ts</title>
<path fill="none" stroke="#757575" d="M1458.38,-376.86C1483.75,-351.74 1546.01,-293.49 1608.75,-260.94 1621.88,-254.12 1849.67,-188.62 1864,-184.94 1879.42,-180.98 1896.05,-177.11 1911.88,-173.62"/>
<polygon fill="#757575" stroke="#757575" points="1912.17,-177.14 1921.2,-171.6 1910.69,-170.3 1912.17,-177.14"/>
</g>
<!-- packages/reactivity/src/watch.ts -->
<g id="node14" class="node">
<title>packages/reactivity/src/watch.ts</title>
<path fill="none" stroke="#ff6c60" d="M1813.33,-326.81C1813.33,-326.81 1623.42,-326.81 1623.42,-326.81 1619.46,-326.81 1615.5,-322.85 1615.5,-318.89 1615.5,-318.89 1615.5,-310.98 1615.5,-310.98 1615.5,-307.02 1619.46,-303.06 1623.42,-303.06 1623.42,-303.06 1813.33,-303.06 1813.33,-303.06 1817.29,-303.06 1821.25,-307.02 1821.25,-310.98 1821.25,-310.98 1821.25,-318.89 1821.25,-318.89 1821.25,-322.85 1817.29,-326.81 1813.33,-326.81"/>
<text text-anchor="middle" x="1718.38" y="-309.51" font-family="Arial" font-size="14.00" fill="#ff6c60">packages/reactivity/src/watch.ts</text>
</g>
<!-- packages/reactivity/src/index.ts&#45;&gt;packages/reactivity/src/watch.ts -->
<g id="edge44" class="edge">
<title>packages/reactivity/src/index.ts&#45;&gt;packages/reactivity/src/watch.ts</title>
<path fill="none" stroke="#757575" d="M1491.53,-376.63C1538.11,-363.91 1610.93,-344.02 1661.23,-330.28"/>
<polygon fill="#757575" stroke="#757575" points="1662.05,-333.68 1670.77,-327.67 1660.2,-326.93 1662.05,-333.68"/>
</g>
<!-- packages/reactivity/src/watch.ts&#45;&gt;packages/reactivity/src/constants.ts -->
<g id="edge58" class="edge">
<title>packages/reactivity/src/watch.ts&#45;&gt;packages/reactivity/src/constants.ts</title>
<path fill="none" stroke="#757575" d="M1811.53,-302.61C2061.79,-271.28 2746.3,-200.46 2911.25,-338.94 2943.61,-366.11 2929.05,-388.8 2947.25,-426.94 2980.04,-495.64 3025.12,-573.63 3047.16,-610.87"/>
<polygon fill="#757575" stroke="#757575" points="3044.09,-612.55 3052.21,-619.35 3050.11,-608.97 3044.09,-612.55"/>
</g>
<!-- packages/reactivity/src/watch.ts&#45;&gt;packages/reactivity/src/effect.ts -->
<g id="edge59" class="edge">
<title>packages/reactivity/src/watch.ts&#45;&gt;packages/reactivity/src/effect.ts</title>
<path fill="none" stroke="#757575" d="M1615.01,-304.48C1417.79,-284.35 986.63,-240.32 781.82,-219.41"/>
<polygon fill="#757575" stroke="#757575" points="782.26,-215.93 771.96,-218.4 781.55,-222.9 782.26,-215.93"/>
</g>
<!-- packages/reactivity/src/watch.ts&#45;&gt;packages/reactivity/src/reactive.ts -->
<g id="edge61" class="edge">
<title>packages/reactivity/src/watch.ts&#45;&gt;packages/reactivity/src/reactive.ts</title>
<path fill="none" stroke="#757575" d="M1729.1,-326.93C1768.47,-375.45 1916.29,-557.63 1966.82,-619.91"/>
<polygon fill="#757575" stroke="#757575" points="1964.09,-622.1 1973.11,-627.66 1969.52,-617.69 1964.09,-622.1"/>
</g>
<!-- packages/reactivity/src/watch.ts&#45;&gt;packages/shared/src/index.ts -->
<g id="edge64" class="edge">
<title>packages/reactivity/src/watch.ts&#45;&gt;packages/shared/src/index.ts</title>
<path fill="none" stroke="#757575" d="M1701.74,-327.28C1676.09,-347.04 1622.9,-385.98 1572.75,-409.94 1345.45,-518.53 1215.54,-409.33 1033,-582.94 936.83,-674.4 910.96,-843.81 904.57,-905.61"/>
<polygon fill="#757575" stroke="#757575" points="901.11,-904.99 903.65,-915.28 908.08,-905.65 901.11,-904.99"/>
</g>
<!-- packages/reactivity/src/watch.ts&#45;&gt;packages/reactivity/src/ref.ts -->
<g id="edge62" class="edge">
<title>packages/reactivity/src/watch.ts&#45;&gt;packages/reactivity/src/ref.ts</title>
<path fill="none" stroke="#757575" d="M1785.09,-327.3C1911.6,-352.31 2196.45,-414.49 2422.5,-506.94 2457.53,-521.26 2495.59,-542.21 2521.05,-557.06"/>
<polygon fill="#757575" stroke="#757575" points="2519.12,-559.98 2529.51,-562.05 2522.67,-553.95 2519.12,-559.98"/>
</g>
<!-- packages/reactivity/src/watch.ts&#45;&gt;packages/reactivity/src/warning.ts -->
<g id="edge63" class="edge">
<title>packages/reactivity/src/watch.ts&#45;&gt;packages/reactivity/src/warning.ts</title>
<path fill="none" stroke="#757575" d="M1737.48,-302.74C1773.15,-278.82 1850.24,-227.65 1864,-222.94 1974.23,-185.15 2809.35,-110.41 2911.25,-166.94 2996.39,-214.17 3039.3,-332.48 3054.17,-382.75"/>
<polygon fill="#757575" stroke="#757575" points="3050.77,-383.6 3056.87,-392.27 3057.5,-381.69 3050.77,-383.6"/>
</g>
<!-- packages/reactivity/src/watch.ts&#45;&gt;packages/reactivity/src/computed.ts -->
<g id="edge57" class="edge">
<title>packages/reactivity/src/watch.ts&#45;&gt;packages/reactivity/src/computed.ts</title>
<path fill="none" stroke="#757575" d="M1821.63,-313.1C1992.47,-310.98 2346.6,-310.68 2644.75,-336.94 2667.8,-338.97 2692.69,-342.3 2715.45,-345.82"/>
<polygon fill="#757575" stroke="#757575" points="2714.87,-349.27 2725.29,-347.37 2715.96,-342.35 2714.87,-349.27"/>
</g>
<!-- packages/reactivity/src/watch.ts&#45;&gt;packages/reactivity/src/effectScope.ts -->
<g id="edge60" class="edge">
<title>packages/reactivity/src/watch.ts&#45;&gt;packages/reactivity/src/effectScope.ts</title>
<path fill="none" stroke="#757575" d="M1741.58,-302.75C1764.91,-289.24 1801.77,-265.76 1828,-238.94 1848.17,-218.31 1840.16,-201.18 1864,-184.94 1869.35,-181.29 1875.13,-178.14 1881.15,-175.42"/>
<polygon fill="#757575" stroke="#757575" points="1882.12,-178.81 1890.08,-171.81 1879.5,-172.32 1882.12,-178.81"/>
</g>
<!-- packages/shared/src/domAttrConfig.ts&#45;&gt;packages/shared/src/makeMap.ts -->
<g id="edge65" class="edge">
<title>packages/shared/src/domAttrConfig.ts&#45;&gt;packages/shared/src/makeMap.ts</title>
<path fill="none" stroke="#757575" d="M1479.53,-845.23C1505.51,-855.4 1542.29,-870.89 1572.75,-887.94 1617.21,-912.82 1664.97,-948.02 1692.96,-969.62"/>
<polygon fill="#757575" stroke="#757575" points="1690.76,-972.34 1700.8,-975.72 1695.06,-966.82 1690.76,-972.34"/>
</g>
<!-- packages/shared/src/domTagConfig.ts&#45;&gt;packages/shared/src/makeMap.ts -->
<g id="edge66" class="edge">
<title>packages/shared/src/domTagConfig.ts&#45;&gt;packages/shared/src/makeMap.ts</title>
<path fill="none" stroke="#757575" d="M1470.06,-1116.76C1518.19,-1091.88 1627.92,-1035.17 1683.61,-1006.39"/>
<polygon fill="#757575" stroke="#757575" points="1685.05,-1009.58 1692.33,-1001.88 1681.84,-1003.36 1685.05,-1009.58"/>
</g>
<!-- packages/shared/src/general.ts&#45;&gt;packages/shared/src/makeMap.ts -->
<g id="edge67" class="edge">
<title>packages/shared/src/general.ts&#45;&gt;packages/shared/src/makeMap.ts</title>
<path fill="none" stroke="#757575" d="M1488.23,-921.26C1535.65,-935.27 1613.14,-958.15 1664.69,-973.38"/>
<polygon fill="#757575" stroke="#757575" points="1663.56,-976.69 1674.15,-976.17 1665.55,-969.98 1663.56,-976.69"/>
</g>
<!-- packages/shared/src/globalsAllowList.ts&#45;&gt;packages/shared/src/makeMap.ts -->
<g id="edge68" class="edge">
<title>packages/shared/src/globalsAllowList.ts&#45;&gt;packages/shared/src/makeMap.ts</title>
<path fill="none" stroke="#757575" d="M1529.98,-1016.61C1559.2,-1012.29 1592.23,-1007.42 1622.33,-1002.97"/>
<polygon fill="#757575" stroke="#757575" points="1622.82,-1006.44 1632.21,-1001.51 1621.8,-999.51 1622.82,-1006.44"/>
</g>
<!-- packages/shared/src/looseEqual.ts&#45;&gt;packages/shared/src/general.ts -->
<g id="edge83" class="edge">
<title>packages/shared/src/looseEqual.ts&#45;&gt;packages/shared/src/general.ts</title>
<path fill="none" stroke="#757575" d="M1246.73,-881.26C1277.84,-885.62 1313.04,-890.54 1345.03,-895.02"/>
<polygon fill="#757575" stroke="#757575" points="1344.31,-898.45 1354.7,-896.37 1345.28,-891.52 1344.31,-898.45"/>
</g>
<!-- packages/shared/src/normalizeProp.ts&#45;&gt;packages/shared/src/general.ts -->
<g id="edge84" class="edge">
<title>packages/shared/src/normalizeProp.ts&#45;&gt;packages/shared/src/general.ts</title>
<path fill="none" stroke="#757575" d="M1246.73,-936.61C1277.84,-932.26 1313.04,-927.33 1345.03,-922.86"/>
<polygon fill="#757575" stroke="#757575" points="1345.28,-926.35 1354.7,-921.5 1344.31,-919.42 1345.28,-926.35"/>
</g>
<!-- packages/shared/src/toDisplayString.ts&#45;&gt;packages/reactivity/src/index.ts -->
<g id="edge85" class="edge">
<title>packages/shared/src/toDisplayString.ts&#45;&gt;packages/reactivity/src/index.ts</title>
<path fill="none" stroke="#757575" d="M1166.57,-814.76C1205.84,-754.6 1379.35,-488.76 1430.35,-410.61"/>
<polygon fill="#757575" stroke="#757575" points="1433.1,-412.81 1435.63,-402.52 1427.23,-408.99 1433.1,-412.81"/>
</g>
<!-- packages/shared/src/toDisplayString.ts&#45;&gt;packages/shared/src/general.ts -->
<g id="edge86" class="edge">
<title>packages/shared/src/toDisplayString.ts&#45;&gt;packages/shared/src/general.ts</title>
<path fill="none" stroke="#757575" d="M1244.21,-839.28C1257.05,-841.76 1270.06,-844.64 1282.25,-847.94 1325.71,-859.68 1373.78,-878.53 1406.23,-892.17"/>
<polygon fill="#757575" stroke="#757575" points="1404.64,-895.3 1415.22,-895.98 1407.38,-888.85 1404.64,-895.3"/>
</g>
</g>
</svg>
