<?xml version="1.0" encoding="UTF-8" standalone="no"?>
<!DOCTYPE svg PUBLIC "-//W3C//DTD SVG 1.1//EN"
 "http://www.w3.org/Graphics/SVG/1.1/DTD/svg11.dtd">
<!-- Generated by graphviz version 12.2.1 (20241206.2353)
 -->
<!-- Title: G Pages: 1 -->
<svg width="2507pt" height="1578pt"
 viewBox="0.00 0.00 2506.95 1578.14" xmlns="http://www.w3.org/2000/svg" xmlns:xlink="http://www.w3.org/1999/xlink">
<g id="graph0" class="graph" transform="scale(1 1) rotate(0) translate(21.6 1556.54)">
<title>G</title>
<polygon fill="#111111" stroke="none" points="-21.6,21.6 -21.6,-1556.54 2485.35,-1556.54 2485.35,21.6 -21.6,21.6"/>
<!-- ../../reactivity/src/arrayInstrumentations.ts -->
<g id="node1" class="node">
<title>../../reactivity/src/arrayInstrumentations.ts</title>
<path fill="none" stroke="#ff6c60" d="M254.83,-930.82C254.83,-930.82 7.92,-930.82 7.92,-930.82 3.96,-930.82 0,-926.86 0,-922.9 0,-922.9 0,-914.98 0,-914.98 0,-911.03 3.96,-907.07 7.92,-907.07 7.92,-907.07 254.83,-907.07 254.83,-907.07 258.79,-907.07 262.75,-911.03 262.75,-914.98 262.75,-914.98 262.75,-922.9 262.75,-922.9 262.75,-926.86 258.79,-930.82 254.83,-930.82"/>
<text text-anchor="middle" x="131.38" y="-913.52" font-family="Arial" font-size="14.00" fill="#ff6c60">../../reactivity/src/arrayInstrumentations.ts</text>
</g>
<!-- ../../reactivity/src/constants.ts -->
<g id="node2" class="node">
<title>../../reactivity/src/constants.ts</title>
<path fill="none" stroke="#cfffac" d="M2455.83,-634.82C2455.83,-634.82 2282.42,-634.82 2282.42,-634.82 2278.46,-634.82 2274.5,-630.86 2274.5,-626.9 2274.5,-626.9 2274.5,-618.98 2274.5,-618.98 2274.5,-615.03 2278.46,-611.07 2282.42,-611.07 2282.42,-611.07 2455.83,-611.07 2455.83,-611.07 2459.79,-611.07 2463.75,-615.03 2463.75,-618.98 2463.75,-618.98 2463.75,-626.9 2463.75,-626.9 2463.75,-630.86 2459.79,-634.82 2455.83,-634.82"/>
<text text-anchor="middle" x="2369.12" y="-617.52" font-family="Arial" font-size="14.00" fill="#cfffac">../../reactivity/src/constants.ts</text>
</g>
<!-- ../../reactivity/src/arrayInstrumentations.ts&#45;&gt;../../reactivity/src/constants.ts -->
<g id="edge1" class="edge">
<title>../../reactivity/src/arrayInstrumentations.ts&#45;&gt;../../reactivity/src/constants.ts</title>
<path fill="none" stroke="#757575" d="M133,-931.15C136.74,-991.78 160.9,-1263.73 298.75,-1417.94 386.25,-1515.83 438.71,-1534.94 570,-1534.94 570,-1534.94 570,-1534.94 1938.38,-1534.94 2092.78,-1534.94 2150.23,-1486.64 2238.5,-1359.94 2322.25,-1239.72 2359.05,-759.21 2366.61,-646.63"/>
<polygon fill="#757575" stroke="#757575" points="2370.1,-647.01 2367.26,-636.81 2363.11,-646.55 2370.1,-647.01"/>
</g>
<!-- ../../reactivity/src/dep.ts -->
<g id="node3" class="node">
<title>../../reactivity/src/dep.ts</title>
<path fill="none" stroke="#ff6c60" d="M444.83,-560.82C444.83,-560.82 306.67,-560.82 306.67,-560.82 302.71,-560.82 298.75,-556.86 298.75,-552.9 298.75,-552.9 298.75,-544.98 298.75,-544.98 298.75,-541.03 302.71,-537.07 306.67,-537.07 306.67,-537.07 444.83,-537.07 444.83,-537.07 448.79,-537.07 452.75,-541.03 452.75,-544.98 452.75,-544.98 452.75,-552.9 452.75,-552.9 452.75,-556.86 448.79,-560.82 444.83,-560.82"/>
<text text-anchor="middle" x="375.75" y="-543.52" font-family="Arial" font-size="14.00" fill="#ff6c60">../../reactivity/src/dep.ts</text>
</g>
<!-- ../../reactivity/src/arrayInstrumentations.ts&#45;&gt;../../reactivity/src/dep.ts -->
<g id="edge2" class="edge">
<title>../../reactivity/src/arrayInstrumentations.ts&#45;&gt;../../reactivity/src/dep.ts</title>
<path fill="none" stroke="#757575" d="M140.44,-906.63C175.52,-853.08 315.1,-639.99 360.44,-570.78"/>
<polygon fill="#757575" stroke="#757575" points="363.27,-572.85 365.83,-562.57 357.42,-569.01 363.27,-572.85"/>
</g>
<!-- ../../reactivity/src/effect.ts -->
<g id="node4" class="node">
<title>../../reactivity/src/effect.ts</title>
<path fill="none" stroke="#ff6c60" d="M645.33,-209.82C645.33,-209.82 496.67,-209.82 496.67,-209.82 492.71,-209.82 488.75,-205.86 488.75,-201.9 488.75,-201.9 488.75,-193.98 488.75,-193.98 488.75,-190.03 492.71,-186.07 496.67,-186.07 496.67,-186.07 645.33,-186.07 645.33,-186.07 649.29,-186.07 653.25,-190.03 653.25,-193.98 653.25,-193.98 653.25,-201.9 653.25,-201.9 653.25,-205.86 649.29,-209.82 645.33,-209.82"/>
<text text-anchor="middle" x="571" y="-192.52" font-family="Arial" font-size="14.00" fill="#ff6c60">../../reactivity/src/effect.ts</text>
</g>
<!-- ../../reactivity/src/arrayInstrumentations.ts&#45;&gt;../../reactivity/src/effect.ts -->
<g id="edge3" class="edge">
<title>../../reactivity/src/arrayInstrumentations.ts&#45;&gt;../../reactivity/src/effect.ts</title>
<path fill="none" stroke="#757575" d="M132.93,-906.61C136.36,-842.79 159.52,-546.08 298.75,-364.94 357.89,-288.01 463.39,-238.08 523.91,-214.28"/>
<polygon fill="#757575" stroke="#757575" points="524.82,-217.69 532.9,-210.82 522.31,-211.15 524.82,-217.69"/>
</g>
<!-- ../../reactivity/src/reactive.ts -->
<g id="node5" class="node">
<title>../../reactivity/src/reactive.ts</title>
<path fill="none" stroke="#ff6c60" d="M1530.08,-642.82C1530.08,-642.82 1367.17,-642.82 1367.17,-642.82 1363.21,-642.82 1359.25,-638.86 1359.25,-634.9 1359.25,-634.9 1359.25,-626.98 1359.25,-626.98 1359.25,-623.03 1363.21,-619.07 1367.17,-619.07 1367.17,-619.07 1530.08,-619.07 1530.08,-619.07 1534.04,-619.07 1538,-623.03 1538,-626.98 1538,-626.98 1538,-634.9 1538,-634.9 1538,-638.86 1534.04,-642.82 1530.08,-642.82"/>
<text text-anchor="middle" x="1448.62" y="-625.52" font-family="Arial" font-size="14.00" fill="#ff6c60">../../reactivity/src/reactive.ts</text>
</g>
<!-- ../../reactivity/src/arrayInstrumentations.ts&#45;&gt;../../reactivity/src/reactive.ts -->
<g id="edge4" class="edge">
<title>../../reactivity/src/arrayInstrumentations.ts&#45;&gt;../../reactivity/src/reactive.ts</title>
<path fill="none" stroke="#757575" d="M136.59,-930.88C163.06,-1003.51 313.65,-1382.94 570,-1382.94 570,-1382.94 570,-1382.94 721.5,-1382.94 805.15,-1382.94 832.31,-1397.91 908.75,-1363.94 1129.16,-1266 1176.1,-1199.71 1311.25,-999.94 1390.2,-883.25 1430.46,-715.02 1443.13,-654.08"/>
<polygon fill="#757575" stroke="#757575" points="1446.5,-655.05 1445.05,-644.55 1439.64,-653.66 1446.5,-655.05"/>
</g>
<!-- index.ts -->
<g id="node6" class="node">
<title>index.ts</title>
<path fill="none" stroke="#ff6c60" d="M743.83,-930.82C743.83,-930.82 697.17,-930.82 697.17,-930.82 693.21,-930.82 689.25,-926.86 689.25,-922.9 689.25,-922.9 689.25,-914.98 689.25,-914.98 689.25,-911.03 693.21,-907.07 697.17,-907.07 697.17,-907.07 743.83,-907.07 743.83,-907.07 747.79,-907.07 751.75,-911.03 751.75,-914.98 751.75,-914.98 751.75,-922.9 751.75,-922.9 751.75,-926.86 747.79,-930.82 743.83,-930.82"/>
<text text-anchor="middle" x="720.5" y="-913.52" font-family="Arial" font-size="14.00" fill="#ff6c60">index.ts</text>
</g>
<!-- ../../reactivity/src/arrayInstrumentations.ts&#45;&gt;index.ts -->
<g id="edge5" class="edge">
<title>../../reactivity/src/arrayInstrumentations.ts&#45;&gt;index.ts</title>
<path fill="none" stroke="#757575" d="M263.04,-918.94C395.36,-918.94 592.28,-918.94 677.59,-918.94"/>
<polygon fill="#757575" stroke="#757575" points="677.35,-922.44 687.35,-918.94 677.35,-915.44 677.35,-922.44"/>
</g>
<!-- ../../reactivity/src/dep.ts&#45;&gt;../../reactivity/src/constants.ts -->
<g id="edge25" class="edge">
<title>../../reactivity/src/dep.ts&#45;&gt;../../reactivity/src/constants.ts</title>
<path fill="none" stroke="#757575" d="M377.67,-561.09C384.04,-642.83 423.15,-1113.36 488.75,-1238.94 554.36,-1364.54 577.8,-1458.94 719.5,-1458.94 719.5,-1458.94 719.5,-1458.94 1938.38,-1458.94 2314.24,-1458.94 2361.64,-782.25 2367.37,-646.49"/>
<polygon fill="#757575" stroke="#757575" points="2370.86,-646.72 2367.74,-636.6 2363.86,-646.46 2370.86,-646.72"/>
</g>
<!-- ../../reactivity/src/dep.ts&#45;&gt;../../reactivity/src/effect.ts -->
<g id="edge26" class="edge">
<title>../../reactivity/src/dep.ts&#45;&gt;../../reactivity/src/effect.ts</title>
<path fill="none" stroke="#757575" d="M382.12,-536.77C407.64,-485.11 517.02,-286.02 556.07,-219.53"/>
<polygon fill="#757575" stroke="#757575" points="558.84,-221.73 560.94,-211.34 552.82,-218.15 558.84,-221.73"/>
</g>
<!-- ../../reactivity/src/dep.ts&#45;&gt;index.ts -->
<g id="edge27" class="edge">
<title>../../reactivity/src/dep.ts&#45;&gt;index.ts</title>
<path fill="none" stroke="#757575" d="M388.15,-561.25C438.07,-615.14 637.59,-830.52 700.44,-898.37"/>
<polygon fill="#757575" stroke="#757575" points="697.66,-900.52 707.02,-905.48 702.8,-895.76 697.66,-900.52"/>
</g>
<!-- ../../reactivity/src/computed.ts -->
<g id="node11" class="node">
<title>../../reactivity/src/computed.ts</title>
<path fill="none" stroke="#ff6c60" d="M2230.58,-361.82C2230.58,-361.82 2054.92,-361.82 2054.92,-361.82 2050.96,-361.82 2047,-357.86 2047,-353.9 2047,-353.9 2047,-345.98 2047,-345.98 2047,-342.03 2050.96,-338.07 2054.92,-338.07 2054.92,-338.07 2230.58,-338.07 2230.58,-338.07 2234.54,-338.07 2238.5,-342.03 2238.5,-345.98 2238.5,-345.98 2238.5,-353.9 2238.5,-353.9 2238.5,-357.86 2234.54,-361.82 2230.58,-361.82"/>
<text text-anchor="middle" x="2142.75" y="-344.52" font-family="Arial" font-size="14.00" fill="#ff6c60">../../reactivity/src/computed.ts</text>
</g>
<!-- ../../reactivity/src/dep.ts&#45;&gt;../../reactivity/src/computed.ts -->
<g id="edge24" class="edge">
<title>../../reactivity/src/dep.ts&#45;&gt;../../reactivity/src/computed.ts</title>
<path fill="none" stroke="#757575" d="M395.3,-536.74C446.12,-510.79 592.29,-454.94 719.5,-454.94 719.5,-454.94 719.5,-454.94 1228.88,-454.94 1371.25,-454.94 1722.36,-385.63 1863.75,-368.94 1920.41,-362.25 1983.69,-355.8 2035.55,-351.65"/>
<polygon fill="#757575" stroke="#757575" points="2035.56,-355.16 2045.26,-350.89 2035.02,-348.18 2035.56,-355.16"/>
</g>
<!-- ../../reactivity/src/effect.ts&#45;&gt;../../reactivity/src/constants.ts -->
<g id="edge29" class="edge">
<title>../../reactivity/src/effect.ts&#45;&gt;../../reactivity/src/constants.ts</title>
<path fill="none" stroke="#757575" d="M584.48,-185.58C621.27,-150.52 733.83,-52.94 847.25,-52.94 847.25,-52.94 847.25,-52.94 1707.88,-52.94 1955.52,-52.94 2074.82,-37.11 2238.5,-222.94 2296.46,-288.75 2248.16,-333.3 2274.5,-416.94 2296.51,-486.86 2336.17,-564.29 2356.06,-601.14"/>
<polygon fill="#757575" stroke="#757575" points="2352.75,-602.38 2360.61,-609.49 2358.9,-599.03 2352.75,-602.38"/>
</g>
<!-- ../../reactivity/src/effect.ts&#45;&gt;../../reactivity/src/dep.ts -->
<g id="edge30" class="edge">
<title>../../reactivity/src/effect.ts&#45;&gt;../../reactivity/src/dep.ts</title>
<path fill="none" stroke="#757575" d="M564.68,-210.02C539.26,-261.5 429.8,-460.74 390.7,-527.31"/>
<polygon fill="#757575" stroke="#757575" points="387.93,-525.13 385.83,-535.51 393.95,-528.7 387.93,-525.13"/>
</g>
<!-- ../../reactivity/src/effect.ts&#45;&gt;index.ts -->
<g id="edge33" class="edge">
<title>../../reactivity/src/effect.ts&#45;&gt;index.ts</title>
<path fill="none" stroke="#757575" d="M574.5,-210.15C591.61,-293.81 691.54,-782.27 714.71,-895.51"/>
<polygon fill="#757575" stroke="#757575" points="711.24,-896.04 716.68,-905.14 718.1,-894.64 711.24,-896.04"/>
</g>
<!-- ../../reactivity/src/warning.ts -->
<g id="node9" class="node">
<title>../../reactivity/src/warning.ts</title>
<path fill="none" stroke="#cfffac" d="M2450.58,-407.82C2450.58,-407.82 2287.67,-407.82 2287.67,-407.82 2283.71,-407.82 2279.75,-403.86 2279.75,-399.9 2279.75,-399.9 2279.75,-391.98 2279.75,-391.98 2279.75,-388.03 2283.71,-384.07 2287.67,-384.07 2287.67,-384.07 2450.58,-384.07 2450.58,-384.07 2454.54,-384.07 2458.5,-388.03 2458.5,-391.98 2458.5,-391.98 2458.5,-399.9 2458.5,-399.9 2458.5,-403.86 2454.54,-407.82 2450.58,-407.82"/>
<text text-anchor="middle" x="2369.12" y="-390.52" font-family="Arial" font-size="14.00" fill="#cfffac">../../reactivity/src/warning.ts</text>
</g>
<!-- ../../reactivity/src/effect.ts&#45;&gt;../../reactivity/src/warning.ts -->
<g id="edge32" class="edge">
<title>../../reactivity/src/effect.ts&#45;&gt;../../reactivity/src/warning.ts</title>
<path fill="none" stroke="#757575" d="M576.94,-185.85C590.08,-155.38 629.06,-75.28 689.25,-38.94 750.06,-2.24 776.22,-14.94 847.25,-14.94 847.25,-14.94 847.25,-14.94 1938.38,-14.94 2072.57,-14.94 2132.64,34.53 2238.5,-47.94 2344.35,-130.41 2363.77,-308.8 2367.33,-372.64"/>
<polygon fill="#757575" stroke="#757575" points="2363.81,-372.47 2367.78,-382.3 2370.81,-372.15 2363.81,-372.47"/>
</g>
<!-- ../../reactivity/src/effect.ts&#45;&gt;../../reactivity/src/computed.ts -->
<g id="edge28" class="edge">
<title>../../reactivity/src/effect.ts&#45;&gt;../../reactivity/src/computed.ts</title>
<path fill="none" stroke="#757575" d="M584.88,-185.76C623.19,-157.2 740.47,-90.94 847.25,-90.94 847.25,-90.94 847.25,-90.94 1228.88,-90.94 1585.08,-90.94 1684.99,-122.41 2011,-265.94 2052.23,-284.1 2097.13,-311.75 2122.13,-330.65"/>
<polygon fill="#757575" stroke="#757575" points="2119.78,-333.26 2129.79,-336.74 2124.13,-327.78 2119.78,-333.26"/>
</g>
<!-- ../../reactivity/src/effectScope.ts -->
<g id="node12" class="node">
<title>../../reactivity/src/effectScope.ts</title>
<path fill="none" stroke="#ff6c60" d="M1542.08,-160.82C1542.08,-160.82 1355.17,-160.82 1355.17,-160.82 1351.21,-160.82 1347.25,-156.86 1347.25,-152.9 1347.25,-152.9 1347.25,-144.98 1347.25,-144.98 1347.25,-141.03 1351.21,-137.07 1355.17,-137.07 1355.17,-137.07 1542.08,-137.07 1542.08,-137.07 1546.04,-137.07 1550,-141.03 1550,-144.98 1550,-144.98 1550,-152.9 1550,-152.9 1550,-156.86 1546.04,-160.82 1542.08,-160.82"/>
<text text-anchor="middle" x="1448.62" y="-143.52" font-family="Arial" font-size="14.00" fill="#ff6c60">../../reactivity/src/effectScope.ts</text>
</g>
<!-- ../../reactivity/src/effect.ts&#45;&gt;../../reactivity/src/effectScope.ts -->
<g id="edge31" class="edge">
<title>../../reactivity/src/effect.ts&#45;&gt;../../reactivity/src/effectScope.ts</title>
<path fill="none" stroke="#757575" d="M603.2,-185.57C654.05,-171.74 758.09,-152.94 847.25,-152.94 847.25,-152.94 847.25,-152.94 1027.62,-152.94 1132.07,-152.94 1251.05,-148.88 1335.65,-146.87"/>
<polygon fill="#757575" stroke="#757575" points="1335.66,-150.37 1345.58,-146.64 1335.5,-143.37 1335.66,-150.37"/>
</g>
<!-- ../../reactivity/src/reactive.ts&#45;&gt;../../reactivity/src/constants.ts -->
<g id="edge47" class="edge">
<title>../../reactivity/src/reactive.ts&#45;&gt;../../reactivity/src/constants.ts</title>
<path fill="none" stroke="#757575" d="M1538.37,-635.41C1554.23,-636.05 1570.6,-636.6 1586,-636.94 1828.16,-642.27 2112.53,-633.38 2262.75,-627.49"/>
<polygon fill="#757575" stroke="#757575" points="2262.85,-630.99 2272.7,-627.1 2262.57,-624 2262.85,-630.99"/>
</g>
<!-- ../../reactivity/src/reactive.ts&#45;&gt;index.ts -->
<g id="edge50" class="edge">
<title>../../reactivity/src/reactive.ts&#45;&gt;index.ts</title>
<path fill="none" stroke="#757575" d="M1358.94,-626.48C1199.4,-620.35 872.69,-617.03 787.75,-686.94 755.19,-713.74 732.86,-841.91 724.82,-895.41"/>
<polygon fill="#757575" stroke="#757575" points="721.36,-894.84 723.38,-905.25 728.29,-895.86 721.36,-894.84"/>
</g>
<!-- ../../reactivity/src/baseHandlers.ts -->
<g id="node7" class="node">
<title>../../reactivity/src/baseHandlers.ts</title>
<path fill="none" stroke="#ff6c60" d="M1806.33,-732.82C1806.33,-732.82 1607.42,-732.82 1607.42,-732.82 1603.46,-732.82 1599.5,-728.86 1599.5,-724.9 1599.5,-724.9 1599.5,-716.98 1599.5,-716.98 1599.5,-713.03 1603.46,-709.07 1607.42,-709.07 1607.42,-709.07 1806.33,-709.07 1806.33,-709.07 1810.29,-709.07 1814.25,-713.03 1814.25,-716.98 1814.25,-716.98 1814.25,-724.9 1814.25,-724.9 1814.25,-728.86 1810.29,-732.82 1806.33,-732.82"/>
<text text-anchor="middle" x="1706.88" y="-715.52" font-family="Arial" font-size="14.00" fill="#ff6c60">../../reactivity/src/baseHandlers.ts</text>
</g>
<!-- ../../reactivity/src/reactive.ts&#45;&gt;../../reactivity/src/baseHandlers.ts -->
<g id="edge45" class="edge">
<title>../../reactivity/src/reactive.ts&#45;&gt;../../reactivity/src/baseHandlers.ts</title>
<path fill="none" stroke="#757575" d="M1538.35,-641.9C1542.37,-643.74 1546.28,-645.75 1550,-647.94 1570.04,-659.76 1565.73,-674.52 1586,-685.94 1603.76,-695.95 1625.01,-702.11 1644.64,-706.37"/>
<polygon fill="#757575" stroke="#757575" points="1643.69,-709.74 1654.18,-708.31 1645.08,-702.89 1643.69,-709.74"/>
</g>
<!-- ../../reactivity/src/ref.ts -->
<g id="node8" class="node">
<title>../../reactivity/src/ref.ts</title>
<path fill="none" stroke="#ff6c60" d="M2003.08,-576.82C2003.08,-576.82 1871.67,-576.82 1871.67,-576.82 1867.71,-576.82 1863.75,-572.86 1863.75,-568.9 1863.75,-568.9 1863.75,-560.98 1863.75,-560.98 1863.75,-557.03 1867.71,-553.07 1871.67,-553.07 1871.67,-553.07 2003.08,-553.07 2003.08,-553.07 2007.04,-553.07 2011,-557.03 2011,-560.98 2011,-560.98 2011,-568.9 2011,-568.9 2011,-572.86 2007.04,-576.82 2003.08,-576.82"/>
<text text-anchor="middle" x="1937.38" y="-559.52" font-family="Arial" font-size="14.00" fill="#ff6c60">../../reactivity/src/ref.ts</text>
</g>
<!-- ../../reactivity/src/reactive.ts&#45;&gt;../../reactivity/src/ref.ts -->
<g id="edge48" class="edge">
<title>../../reactivity/src/reactive.ts&#45;&gt;../../reactivity/src/ref.ts</title>
<path fill="none" stroke="#757575" d="M1538.32,-622.78C1615.49,-618.6 1729.96,-611.72 1827.75,-591.94 1836.1,-590.25 1851.03,-585.66 1867.21,-580.63"/>
<polygon fill="#757575" stroke="#757575" points="1868.01,-584.05 1876.52,-577.74 1865.93,-577.37 1868.01,-584.05"/>
</g>
<!-- ../../reactivity/src/reactive.ts&#45;&gt;../../reactivity/src/warning.ts -->
<g id="edge49" class="edge">
<title>../../reactivity/src/reactive.ts&#45;&gt;../../reactivity/src/warning.ts</title>
<path fill="none" stroke="#757575" d="M1488.47,-618.62C1583.25,-588.82 1834.17,-511.52 2047,-459.94 2127.95,-440.32 2221.43,-422.2 2286.59,-410.28"/>
<polygon fill="#757575" stroke="#757575" points="2286.9,-413.78 2296.11,-408.55 2285.65,-406.9 2286.9,-413.78"/>
</g>
<!-- ../../reactivity/src/collectionHandlers.ts -->
<g id="node10" class="node">
<title>../../reactivity/src/collectionHandlers.ts</title>
<path fill="none" stroke="#ff6c60" d="M1819.83,-812.82C1819.83,-812.82 1593.92,-812.82 1593.92,-812.82 1589.96,-812.82 1586,-808.86 1586,-804.9 1586,-804.9 1586,-796.98 1586,-796.98 1586,-793.03 1589.96,-789.07 1593.92,-789.07 1593.92,-789.07 1819.83,-789.07 1819.83,-789.07 1823.79,-789.07 1827.75,-793.03 1827.75,-796.98 1827.75,-796.98 1827.75,-804.9 1827.75,-804.9 1827.75,-808.86 1823.79,-812.82 1819.83,-812.82"/>
<text text-anchor="middle" x="1706.88" y="-795.52" font-family="Arial" font-size="14.00" fill="#ff6c60">../../reactivity/src/collectionHandlers.ts</text>
</g>
<!-- ../../reactivity/src/reactive.ts&#45;&gt;../../reactivity/src/collectionHandlers.ts -->
<g id="edge46" class="edge">
<title>../../reactivity/src/reactive.ts&#45;&gt;../../reactivity/src/collectionHandlers.ts</title>
<path fill="none" stroke="#757575" d="M1469.32,-643.17C1494.89,-663.76 1541.54,-704.43 1586,-732.94 1616.78,-752.69 1655.12,-770.49 1680.03,-783.36"/>
<polygon fill="#757575" stroke="#757575" points="1678.33,-786.42 1688.8,-788.02 1681.62,-780.24 1678.33,-786.42"/>
</g>
<!-- codeframe.ts -->
<g id="node15" class="node">
<title>codeframe.ts</title>
<path fill="none" stroke="#cfffac" d="M887.71,-1354.82C887.71,-1354.82 808.79,-1354.82 808.79,-1354.82 804.83,-1354.82 800.88,-1350.86 800.88,-1346.9 800.88,-1346.9 800.88,-1338.98 800.88,-1338.98 800.88,-1335.03 804.83,-1331.07 808.79,-1331.07 808.79,-1331.07 887.71,-1331.07 887.71,-1331.07 891.67,-1331.07 895.62,-1335.03 895.62,-1338.98 895.62,-1338.98 895.62,-1346.9 895.62,-1346.9 895.62,-1350.86 891.67,-1354.82 887.71,-1354.82"/>
<text text-anchor="middle" x="848.25" y="-1337.52" font-family="Arial" font-size="14.00" fill="#cfffac">codeframe.ts</text>
</g>
<!-- index.ts&#45;&gt;codeframe.ts -->
<g id="edge69" class="edge">
<title>index.ts&#45;&gt;codeframe.ts</title>
<path fill="none" stroke="#757575" d="M721.88,-931.31C724.01,-992.28 736.19,-1260.38 787.75,-1321.94 788.85,-1323.25 790.04,-1324.49 791.29,-1325.64"/>
<polygon fill="#757575" stroke="#757575" points="789.09,-1328.37 799.27,-1331.31 793.15,-1322.66 789.09,-1328.37"/>
</g>
<!-- domAttrConfig.ts -->
<g id="node16" class="node">
<title>domAttrConfig.ts</title>
<path fill="none" stroke="#c6c5fe" d="M1077.33,-834.82C1077.33,-834.82 975.92,-834.82 975.92,-834.82 971.96,-834.82 968,-830.86 968,-826.9 968,-826.9 968,-818.98 968,-818.98 968,-815.03 971.96,-811.07 975.92,-811.07 975.92,-811.07 1077.33,-811.07 1077.33,-811.07 1081.29,-811.07 1085.25,-815.03 1085.25,-818.98 1085.25,-818.98 1085.25,-826.9 1085.25,-826.9 1085.25,-830.86 1081.29,-834.82 1077.33,-834.82"/>
<text text-anchor="middle" x="1026.62" y="-817.52" font-family="Arial" font-size="14.00" fill="#c6c5fe">domAttrConfig.ts</text>
</g>
<!-- index.ts&#45;&gt;domAttrConfig.ts -->
<g id="edge70" class="edge">
<title>index.ts&#45;&gt;domAttrConfig.ts</title>
<path fill="none" stroke="#757575" d="M723.81,-906.65C729.44,-880.68 746.52,-820.57 787.75,-795.94 850.95,-758.2 940.55,-785.6 989.78,-806.08"/>
<polygon fill="#757575" stroke="#757575" points="988.27,-809.24 998.84,-809.97 991.03,-802.81 988.27,-809.24"/>
</g>
<!-- makeMap.ts -->
<g id="node17" class="node">
<title>makeMap.ts</title>
<path fill="none" stroke="#cfffac" d="M1265.46,-990.82C1265.46,-990.82 1190.29,-990.82 1190.29,-990.82 1186.33,-990.82 1182.38,-986.86 1182.38,-982.9 1182.38,-982.9 1182.38,-974.98 1182.38,-974.98 1182.38,-971.03 1186.33,-967.07 1190.29,-967.07 1190.29,-967.07 1265.46,-967.07 1265.46,-967.07 1269.42,-967.07 1273.38,-971.03 1273.38,-974.98 1273.38,-974.98 1273.38,-982.9 1273.38,-982.9 1273.38,-986.86 1269.42,-990.82 1265.46,-990.82"/>
<text text-anchor="middle" x="1227.88" y="-973.52" font-family="Arial" font-size="14.00" fill="#cfffac">makeMap.ts</text>
</g>
<!-- index.ts&#45;&gt;makeMap.ts -->
<g id="edge76" class="edge">
<title>index.ts&#45;&gt;makeMap.ts</title>
<path fill="none" stroke="#757575" d="M736.2,-931.14C748.95,-940.92 768.36,-953.97 787.75,-959.94 920.09,-1000.69 1085.46,-993.22 1170.53,-985.41"/>
<polygon fill="#757575" stroke="#757575" points="1170.87,-988.9 1180.49,-984.46 1170.2,-981.93 1170.87,-988.9"/>
</g>
<!-- domTagConfig.ts -->
<g id="node18" class="node">
<title>domTagConfig.ts</title>
<path fill="none" stroke="#c6c5fe" d="M1077.71,-1130.82C1077.71,-1130.82 975.54,-1130.82 975.54,-1130.82 971.58,-1130.82 967.62,-1126.86 967.62,-1122.9 967.62,-1122.9 967.62,-1114.98 967.62,-1114.98 967.62,-1111.03 971.58,-1107.07 975.54,-1107.07 975.54,-1107.07 1077.71,-1107.07 1077.71,-1107.07 1081.67,-1107.07 1085.62,-1111.03 1085.62,-1114.98 1085.62,-1114.98 1085.62,-1122.9 1085.62,-1122.9 1085.62,-1126.86 1081.67,-1130.82 1077.71,-1130.82"/>
<text text-anchor="middle" x="1026.62" y="-1113.52" font-family="Arial" font-size="14.00" fill="#c6c5fe">domTagConfig.ts</text>
</g>
<!-- index.ts&#45;&gt;domTagConfig.ts -->
<g id="edge71" class="edge">
<title>index.ts&#45;&gt;domTagConfig.ts</title>
<path fill="none" stroke="#757575" d="M721.1,-931.18C720.66,-967.42 724.93,-1074.51 787.75,-1119.94 843.09,-1159.97 926.19,-1147.87 978.1,-1134.28"/>
<polygon fill="#757575" stroke="#757575" points="978.82,-1137.71 987.54,-1131.69 976.97,-1130.96 978.82,-1137.71"/>
</g>
<!-- escapeHtml.ts -->
<g id="node19" class="node">
<title>escapeHtml.ts</title>
<path fill="none" stroke="#cfffac" d="M891.46,-1312.82C891.46,-1312.82 805.04,-1312.82 805.04,-1312.82 801.08,-1312.82 797.12,-1308.86 797.12,-1304.9 797.12,-1304.9 797.12,-1296.98 797.12,-1296.98 797.12,-1293.03 801.08,-1289.07 805.04,-1289.07 805.04,-1289.07 891.46,-1289.07 891.46,-1289.07 895.42,-1289.07 899.38,-1293.03 899.38,-1296.98 899.38,-1296.98 899.38,-1304.9 899.38,-1304.9 899.38,-1308.86 895.42,-1312.82 891.46,-1312.82"/>
<text text-anchor="middle" x="848.25" y="-1295.52" font-family="Arial" font-size="14.00" fill="#cfffac">escapeHtml.ts</text>
</g>
<!-- index.ts&#45;&gt;escapeHtml.ts -->
<g id="edge72" class="edge">
<title>index.ts&#45;&gt;escapeHtml.ts</title>
<path fill="none" stroke="#757575" d="M722.13,-931.14C725.3,-987.87 741.21,-1225.42 787.75,-1279.94 788.21,-1280.48 788.68,-1281 789.16,-1281.5"/>
<polygon fill="#757575" stroke="#757575" points="786.84,-1284.13 796.83,-1287.67 791.23,-1278.67 786.84,-1284.13"/>
</g>
<!-- general.ts -->
<g id="node20" class="node">
<title>general.ts</title>
<path fill="none" stroke="#c6c5fe" d="M1056.33,-910.82C1056.33,-910.82 996.92,-910.82 996.92,-910.82 992.96,-910.82 989,-906.86 989,-902.9 989,-902.9 989,-894.98 989,-894.98 989,-891.03 992.96,-887.07 996.92,-887.07 996.92,-887.07 1056.33,-887.07 1056.33,-887.07 1060.29,-887.07 1064.25,-891.03 1064.25,-894.98 1064.25,-894.98 1064.25,-902.9 1064.25,-902.9 1064.25,-906.86 1060.29,-910.82 1056.33,-910.82"/>
<text text-anchor="middle" x="1026.62" y="-893.52" font-family="Arial" font-size="14.00" fill="#c6c5fe">general.ts</text>
</g>
<!-- index.ts&#45;&gt;general.ts -->
<g id="edge73" class="edge">
<title>index.ts&#45;&gt;general.ts</title>
<path fill="none" stroke="#757575" d="M752.05,-916.93C804.95,-913.46 913.97,-906.29 977.25,-902.12"/>
<polygon fill="#757575" stroke="#757575" points="977.25,-905.63 987,-901.48 976.79,-898.65 977.25,-905.63"/>
</g>
<!-- globalsAllowList.ts -->
<g id="node21" class="node">
<title>globalsAllowList.ts</title>
<path fill="none" stroke="#c6c5fe" d="M1081.83,-1030.82C1081.83,-1030.82 971.42,-1030.82 971.42,-1030.82 967.46,-1030.82 963.5,-1026.86 963.5,-1022.9 963.5,-1022.9 963.5,-1014.98 963.5,-1014.98 963.5,-1011.03 967.46,-1007.07 971.42,-1007.07 971.42,-1007.07 1081.83,-1007.07 1081.83,-1007.07 1085.79,-1007.07 1089.75,-1011.03 1089.75,-1014.98 1089.75,-1014.98 1089.75,-1022.9 1089.75,-1022.9 1089.75,-1026.86 1085.79,-1030.82 1081.83,-1030.82"/>
<text text-anchor="middle" x="1026.62" y="-1013.52" font-family="Arial" font-size="14.00" fill="#c6c5fe">globalsAllowList.ts</text>
</g>
<!-- index.ts&#45;&gt;globalsAllowList.ts -->
<g id="edge74" class="edge">
<title>index.ts&#45;&gt;globalsAllowList.ts</title>
<path fill="none" stroke="#757575" d="M728.42,-931.17C738.85,-948.28 760.3,-978.83 787.75,-992.94 838.21,-1018.87 902.52,-1024.54 951.54,-1024.18"/>
<polygon fill="#757575" stroke="#757575" points="951.57,-1027.68 961.51,-1024.01 951.45,-1020.68 951.57,-1027.68"/>
</g>
<!-- looseEqual.ts -->
<g id="node22" class="node">
<title>looseEqual.ts</title>
<path fill="none" stroke="#c6c5fe" d="M888.83,-870.82C888.83,-870.82 807.67,-870.82 807.67,-870.82 803.71,-870.82 799.75,-866.86 799.75,-862.9 799.75,-862.9 799.75,-854.98 799.75,-854.98 799.75,-851.03 803.71,-847.07 807.67,-847.07 807.67,-847.07 888.83,-847.07 888.83,-847.07 892.79,-847.07 896.75,-851.03 896.75,-854.98 896.75,-854.98 896.75,-862.9 896.75,-862.9 896.75,-866.86 892.79,-870.82 888.83,-870.82"/>
<text text-anchor="middle" x="848.25" y="-853.52" font-family="Arial" font-size="14.00" fill="#c6c5fe">looseEqual.ts</text>
</g>
<!-- index.ts&#45;&gt;looseEqual.ts -->
<g id="edge75" class="edge">
<title>index.ts&#45;&gt;looseEqual.ts</title>
<path fill="none" stroke="#757575" d="M744.63,-906.63C757.27,-900.01 773.27,-891.82 787.75,-884.94 794.17,-881.9 801.03,-878.78 807.73,-875.8"/>
<polygon fill="#757575" stroke="#757575" points="808.9,-879.11 816.65,-871.89 806.08,-872.7 808.9,-879.11"/>
</g>
<!-- normalizeProp.ts -->
<g id="node23" class="node">
<title>normalizeProp.ts</title>
<path fill="none" stroke="#c6c5fe" d="M899.33,-950.82C899.33,-950.82 797.17,-950.82 797.17,-950.82 793.21,-950.82 789.25,-946.86 789.25,-942.9 789.25,-942.9 789.25,-934.98 789.25,-934.98 789.25,-931.03 793.21,-927.07 797.17,-927.07 797.17,-927.07 899.33,-927.07 899.33,-927.07 903.29,-927.07 907.25,-931.03 907.25,-934.98 907.25,-934.98 907.25,-942.9 907.25,-942.9 907.25,-946.86 903.29,-950.82 899.33,-950.82"/>
<text text-anchor="middle" x="848.25" y="-933.52" font-family="Arial" font-size="14.00" fill="#c6c5fe">normalizeProp.ts</text>
</g>
<!-- index.ts&#45;&gt;normalizeProp.ts -->
<g id="edge77" class="edge">
<title>index.ts&#45;&gt;normalizeProp.ts</title>
<path fill="none" stroke="#757575" d="M751.94,-923.78C759.9,-925.05 768.81,-926.47 777.91,-927.91"/>
<polygon fill="#757575" stroke="#757575" points="777.12,-931.33 787.54,-929.45 778.22,-924.42 777.12,-931.33"/>
</g>
<!-- patchFlags.ts -->
<g id="node24" class="node">
<title>patchFlags.ts</title>
<path fill="none" stroke="#cfffac" d="M888.46,-1270.82C888.46,-1270.82 808.04,-1270.82 808.04,-1270.82 804.08,-1270.82 800.12,-1266.86 800.12,-1262.9 800.12,-1262.9 800.12,-1254.98 800.12,-1254.98 800.12,-1251.03 804.08,-1247.07 808.04,-1247.07 808.04,-1247.07 888.46,-1247.07 888.46,-1247.07 892.42,-1247.07 896.38,-1251.03 896.38,-1254.98 896.38,-1254.98 896.38,-1262.9 896.38,-1262.9 896.38,-1266.86 892.42,-1270.82 888.46,-1270.82"/>
<text text-anchor="middle" x="848.25" y="-1253.52" font-family="Arial" font-size="14.00" fill="#cfffac">patchFlags.ts</text>
</g>
<!-- index.ts&#45;&gt;patchFlags.ts -->
<g id="edge78" class="edge">
<title>index.ts&#45;&gt;patchFlags.ts</title>
<path fill="none" stroke="#757575" d="M722.45,-931.11C726.78,-983.64 746.25,-1190.45 787.75,-1237.94 788.7,-1239.03 789.72,-1240.07 790.78,-1241.05"/>
<polygon fill="#757575" stroke="#757575" points="788.42,-1243.66 798.58,-1246.67 792.52,-1237.98 788.42,-1243.66"/>
</g>
<!-- shapeFlags.ts -->
<g id="node25" class="node">
<title>shapeFlags.ts</title>
<path fill="none" stroke="#cfffac" d="M890.33,-1228.82C890.33,-1228.82 806.17,-1228.82 806.17,-1228.82 802.21,-1228.82 798.25,-1224.86 798.25,-1220.9 798.25,-1220.9 798.25,-1212.98 798.25,-1212.98 798.25,-1209.03 802.21,-1205.07 806.17,-1205.07 806.17,-1205.07 890.33,-1205.07 890.33,-1205.07 894.29,-1205.07 898.25,-1209.03 898.25,-1212.98 898.25,-1212.98 898.25,-1220.9 898.25,-1220.9 898.25,-1224.86 894.29,-1228.82 890.33,-1228.82"/>
<text text-anchor="middle" x="848.25" y="-1211.52" font-family="Arial" font-size="14.00" fill="#cfffac">shapeFlags.ts</text>
</g>
<!-- index.ts&#45;&gt;shapeFlags.ts -->
<g id="edge79" class="edge">
<title>index.ts&#45;&gt;shapeFlags.ts</title>
<path fill="none" stroke="#757575" d="M720.89,-931.19C719.48,-972.83 720.37,-1110.76 787.75,-1190.94 790.14,-1193.79 792.91,-1196.34 795.91,-1198.61"/>
<polygon fill="#757575" stroke="#757575" points="793.88,-1201.47 804.21,-1203.84 797.61,-1195.55 793.88,-1201.47"/>
</g>
<!-- slotFlags.ts -->
<g id="node26" class="node">
<title>slotFlags.ts</title>
<path fill="none" stroke="#cfffac" d="M882.46,-1110.82C882.46,-1110.82 814.04,-1110.82 814.04,-1110.82 810.08,-1110.82 806.12,-1106.86 806.12,-1102.9 806.12,-1102.9 806.12,-1094.98 806.12,-1094.98 806.12,-1091.03 810.08,-1087.07 814.04,-1087.07 814.04,-1087.07 882.46,-1087.07 882.46,-1087.07 886.42,-1087.07 890.38,-1091.03 890.38,-1094.98 890.38,-1094.98 890.38,-1102.9 890.38,-1102.9 890.38,-1106.86 886.42,-1110.82 882.46,-1110.82"/>
<text text-anchor="middle" x="848.25" y="-1093.52" font-family="Arial" font-size="14.00" fill="#cfffac">slotFlags.ts</text>
</g>
<!-- index.ts&#45;&gt;slotFlags.ts -->
<g id="edge80" class="edge">
<title>index.ts&#45;&gt;slotFlags.ts</title>
<path fill="none" stroke="#757575" d="M723.17,-931.2C727.83,-960.69 743.65,-1036.22 787.75,-1077.94 790.14,-1080.2 792.78,-1082.22 795.59,-1084.02"/>
<polygon fill="#757575" stroke="#757575" points="793.83,-1087.05 804.3,-1088.64 797.11,-1080.87 793.83,-1087.05"/>
</g>
<!-- toDisplayString.ts -->
<g id="node27" class="node">
<title>toDisplayString.ts</title>
<path fill="none" stroke="#ff6c60" d="M900.83,-828.82C900.83,-828.82 795.67,-828.82 795.67,-828.82 791.71,-828.82 787.75,-824.86 787.75,-820.9 787.75,-820.9 787.75,-812.98 787.75,-812.98 787.75,-809.03 791.71,-805.07 795.67,-805.07 795.67,-805.07 900.83,-805.07 900.83,-805.07 904.79,-805.07 908.75,-809.03 908.75,-812.98 908.75,-812.98 908.75,-820.9 908.75,-820.9 908.75,-824.86 904.79,-828.82 900.83,-828.82"/>
<text text-anchor="middle" x="848.25" y="-811.52" font-family="Arial" font-size="14.00" fill="#ff6c60">toDisplayString.ts</text>
</g>
<!-- index.ts&#45;&gt;toDisplayString.ts -->
<g id="edge81" class="edge">
<title>index.ts&#45;&gt;toDisplayString.ts</title>
<path fill="none" stroke="#757575" d="M728.47,-906.73C739.11,-889.15 760.99,-856.74 787.75,-837.94 789.57,-836.67 791.47,-835.46 793.43,-834.33"/>
<polygon fill="#757575" stroke="#757575" points="794.91,-837.5 802.27,-829.87 791.76,-831.25 794.91,-837.5"/>
</g>
<!-- typeUtils.ts -->
<g id="node28" class="node">
<title>typeUtils.ts</title>
<path fill="none" stroke="#cfffac" d="M881.33,-1068.82C881.33,-1068.82 815.17,-1068.82 815.17,-1068.82 811.21,-1068.82 807.25,-1064.86 807.25,-1060.9 807.25,-1060.9 807.25,-1052.98 807.25,-1052.98 807.25,-1049.03 811.21,-1045.07 815.17,-1045.07 815.17,-1045.07 881.33,-1045.07 881.33,-1045.07 885.29,-1045.07 889.25,-1049.03 889.25,-1052.98 889.25,-1052.98 889.25,-1060.9 889.25,-1060.9 889.25,-1064.86 885.29,-1068.82 881.33,-1068.82"/>
<text text-anchor="middle" x="848.25" y="-1051.52" font-family="Arial" font-size="14.00" fill="#cfffac">typeUtils.ts</text>
</g>
<!-- index.ts&#45;&gt;typeUtils.ts -->
<g id="edge82" class="edge">
<title>index.ts&#45;&gt;typeUtils.ts</title>
<path fill="none" stroke="#757575" d="M725.76,-931.05C734.24,-953.57 755.26,-1002.2 787.75,-1030.94 791.26,-1034.05 795.21,-1036.84 799.35,-1039.32"/>
<polygon fill="#757575" stroke="#757575" points="797.45,-1042.28 807.93,-1043.88 800.74,-1036.1 797.45,-1042.28"/>
</g>
<!-- ../../reactivity/src/baseHandlers.ts&#45;&gt;../../reactivity/src/arrayInstrumentations.ts -->
<g id="edge6" class="edge">
<title>../../reactivity/src/baseHandlers.ts&#45;&gt;../../reactivity/src/arrayInstrumentations.ts</title>
<path fill="none" stroke="#757575" d="M1670.93,-733.25C1645.63,-743.27 1611.54,-759.15 1586,-779.94 1272.77,-1034.93 1431.52,-1496.94 1027.62,-1496.94 570,-1496.94 570,-1496.94 570,-1496.94 286.71,-1496.94 163.28,-1050.15 137.59,-942.21"/>
<polygon fill="#757575" stroke="#757575" points="141.06,-941.71 135.39,-932.76 134.25,-943.29 141.06,-941.71"/>
</g>
<!-- ../../reactivity/src/baseHandlers.ts&#45;&gt;../../reactivity/src/constants.ts -->
<g id="edge7" class="edge">
<title>../../reactivity/src/baseHandlers.ts&#45;&gt;../../reactivity/src/constants.ts</title>
<path fill="none" stroke="#757575" d="M1814.63,-729.73C1923.45,-735.47 2096.04,-735.6 2238.5,-694.94 2277.62,-683.78 2317.83,-658.96 2342.89,-641.6"/>
<polygon fill="#757575" stroke="#757575" points="2344.65,-644.64 2350.79,-636.01 2340.61,-638.93 2344.65,-644.64"/>
</g>
<!-- ../../reactivity/src/baseHandlers.ts&#45;&gt;../../reactivity/src/dep.ts -->
<g id="edge8" class="edge">
<title>../../reactivity/src/baseHandlers.ts&#45;&gt;../../reactivity/src/dep.ts</title>
<path fill="none" stroke="#757575" d="M1636.46,-708.59C1488.43,-682.66 1145.66,-624.94 1027.62,-624.94 719.5,-624.94 719.5,-624.94 719.5,-624.94 609.45,-624.94 484.14,-587.14 419.84,-564.85"/>
<polygon fill="#757575" stroke="#757575" points="421.33,-561.67 410.73,-561.66 419.01,-568.27 421.33,-561.67"/>
</g>
<!-- ../../reactivity/src/baseHandlers.ts&#45;&gt;../../reactivity/src/reactive.ts -->
<g id="edge9" class="edge">
<title>../../reactivity/src/baseHandlers.ts&#45;&gt;../../reactivity/src/reactive.ts</title>
<path fill="none" stroke="#757575" d="M1599.03,-710.37C1594.54,-708.43 1590.17,-706.29 1586,-703.94 1565.73,-692.52 1570.04,-677.76 1550,-665.94 1533.97,-656.49 1514.53,-650.43 1497.03,-645.98"/>
<polygon fill="#757575" stroke="#757575" points="1497.89,-642.58 1487.35,-643.62 1496.23,-649.38 1497.89,-642.58"/>
</g>
<!-- ../../reactivity/src/baseHandlers.ts&#45;&gt;index.ts -->
<g id="edge12" class="edge">
<title>../../reactivity/src/baseHandlers.ts&#45;&gt;index.ts</title>
<path fill="none" stroke="#757575" d="M1599.17,-714.57C1371.22,-701.92 852.15,-678.67 787.75,-724.94 732.62,-764.55 722.87,-852.82 721.47,-895.26"/>
<polygon fill="#757575" stroke="#757575" points="717.98,-895.05 721.3,-905.11 724.98,-895.18 717.98,-895.05"/>
</g>
<!-- ../../reactivity/src/baseHandlers.ts&#45;&gt;../../reactivity/src/ref.ts -->
<g id="edge10" class="edge">
<title>../../reactivity/src/baseHandlers.ts&#45;&gt;../../reactivity/src/ref.ts</title>
<path fill="none" stroke="#757575" d="M1742.78,-708.64C1768.71,-698.12 1803.62,-680.86 1827.75,-656.94 1851.48,-633.42 1838.36,-612.66 1863.75,-590.94 1867.57,-587.67 1871.84,-584.8 1876.34,-582.28"/>
<polygon fill="#757575" stroke="#757575" points="1877.67,-585.53 1885.11,-577.98 1874.59,-579.24 1877.67,-585.53"/>
</g>
<!-- ../../reactivity/src/baseHandlers.ts&#45;&gt;../../reactivity/src/warning.ts -->
<g id="edge11" class="edge">
<title>../../reactivity/src/baseHandlers.ts&#45;&gt;../../reactivity/src/warning.ts</title>
<path fill="none" stroke="#757575" d="M1725.34,-708.66C1753.38,-689.39 1810.69,-651.92 1863.75,-628.94 1926.31,-601.85 1946.01,-606.56 2011,-585.94 2112.88,-553.62 2145.82,-561.19 2238.5,-507.94 2282.6,-482.61 2325.62,-441.15 2349.33,-416.41"/>
<polygon fill="#757575" stroke="#757575" points="2351.8,-418.89 2356.12,-409.21 2346.71,-414.08 2351.8,-418.89"/>
</g>
<!-- ../../reactivity/src/ref.ts&#45;&gt;../../reactivity/src/constants.ts -->
<g id="edge52" class="edge">
<title>../../reactivity/src/ref.ts&#45;&gt;../../reactivity/src/constants.ts</title>
<path fill="none" stroke="#757575" d="M2011.28,-574.78C2081.01,-584.19 2186.84,-598.48 2265.16,-609.05"/>
<polygon fill="#757575" stroke="#757575" points="2264.63,-612.51 2275.01,-610.38 2265.57,-605.57 2264.63,-612.51"/>
</g>
<!-- ../../reactivity/src/ref.ts&#45;&gt;../../reactivity/src/dep.ts -->
<g id="edge53" class="edge">
<title>../../reactivity/src/ref.ts&#45;&gt;../../reactivity/src/dep.ts</title>
<path fill="none" stroke="#757575" d="M1863.44,-570.3C1768.29,-576.81 1596.6,-586.94 1449.62,-586.94 1226.88,-586.94 1226.88,-586.94 1226.88,-586.94 948.16,-586.94 618.56,-566.31 464.43,-555.45"/>
<polygon fill="#757575" stroke="#757575" points="464.92,-551.97 454.7,-554.76 464.43,-558.96 464.92,-551.97"/>
</g>
<!-- ../../reactivity/src/ref.ts&#45;&gt;../../reactivity/src/reactive.ts -->
<g id="edge54" class="edge">
<title>../../reactivity/src/ref.ts&#45;&gt;../../reactivity/src/reactive.ts</title>
<path fill="none" stroke="#757575" d="M1918.41,-577.3C1892.38,-589.86 1845.37,-606.38 1827.75,-609.94 1734.55,-628.8 1626.18,-635.93 1549.42,-636.94"/>
<polygon fill="#757575" stroke="#757575" points="1549.8,-633.44 1539.84,-637.04 1549.87,-640.44 1549.8,-633.44"/>
</g>
<!-- ../../reactivity/src/ref.ts&#45;&gt;index.ts -->
<g id="edge56" class="edge">
<title>../../reactivity/src/ref.ts&#45;&gt;index.ts</title>
<path fill="none" stroke="#757575" d="M1929.76,-577.16C1908.83,-615.63 1844.4,-732.3 1827.75,-741.94 1627.68,-857.85 980.22,-644.82 787.75,-772.94 745.86,-800.83 730.09,-862.15 724.45,-895.77"/>
<polygon fill="#757575" stroke="#757575" points="721.04,-894.88 723.02,-905.29 727.96,-895.92 721.04,-894.88"/>
</g>
<!-- ../../reactivity/src/ref.ts&#45;&gt;../../reactivity/src/warning.ts -->
<g id="edge55" class="edge">
<title>../../reactivity/src/ref.ts&#45;&gt;../../reactivity/src/warning.ts</title>
<path fill="none" stroke="#757575" d="M1978.28,-552.7C2036.35,-534.49 2147.14,-498.31 2238.5,-459.94 2272.26,-445.76 2309.64,-426.96 2335.55,-413.41"/>
<polygon fill="#757575" stroke="#757575" points="2337.01,-416.59 2344.23,-408.84 2333.75,-410.4 2337.01,-416.59"/>
</g>
<!-- ../../reactivity/src/ref.ts&#45;&gt;../../reactivity/src/computed.ts -->
<g id="edge51" class="edge">
<title>../../reactivity/src/ref.ts&#45;&gt;../../reactivity/src/computed.ts</title>
<path fill="none" stroke="#757575" d="M1947.11,-552.75C1976.68,-517 2073.64,-413.99 2118.55,-369.99"/>
<polygon fill="#757575" stroke="#757575" points="2120.7,-372.77 2125.46,-363.3 2115.84,-367.74 2120.7,-372.77"/>
</g>
<!-- ../../reactivity/src/collectionHandlers.ts&#45;&gt;../../reactivity/src/constants.ts -->
<g id="edge13" class="edge">
<title>../../reactivity/src/collectionHandlers.ts&#45;&gt;../../reactivity/src/constants.ts</title>
<path fill="none" stroke="#757575" d="M1828.03,-801.31C1938.8,-797.65 2105.68,-781.8 2238.5,-724.94 2283.28,-705.77 2325.79,-667.04 2349.26,-643.21"/>
<polygon fill="#757575" stroke="#757575" points="2351.55,-645.88 2355.97,-636.26 2346.51,-641.02 2351.55,-645.88"/>
</g>
<!-- ../../reactivity/src/collectionHandlers.ts&#45;&gt;../../reactivity/src/dep.ts -->
<g id="edge14" class="edge">
<title>../../reactivity/src/collectionHandlers.ts&#45;&gt;../../reactivity/src/dep.ts</title>
<path fill="none" stroke="#757575" d="M1703.15,-813.05C1682.9,-899.6 1547.69,-1420.94 1228.88,-1420.94 719.5,-1420.94 719.5,-1420.94 719.5,-1420.94 531.6,-1420.94 403.7,-710.77 380.53,-572.22"/>
<polygon fill="#757575" stroke="#757575" points="384.06,-572.06 378.97,-562.76 377.15,-573.2 384.06,-572.06"/>
</g>
<!-- ../../reactivity/src/collectionHandlers.ts&#45;&gt;../../reactivity/src/reactive.ts -->
<g id="edge15" class="edge">
<title>../../reactivity/src/collectionHandlers.ts&#45;&gt;../../reactivity/src/reactive.ts</title>
<path fill="none" stroke="#757575" d="M1658.14,-788.63C1635.62,-779.06 1608.75,-765.53 1586,-750.94 1539.11,-720.87 1489.77,-677.27 1465.3,-651.45"/>
<polygon fill="#757575" stroke="#757575" points="1468.06,-649.28 1458.75,-644.23 1462.88,-653.98 1468.06,-649.28"/>
</g>
<!-- ../../reactivity/src/collectionHandlers.ts&#45;&gt;index.ts -->
<g id="edge17" class="edge">
<title>../../reactivity/src/collectionHandlers.ts&#45;&gt;index.ts</title>
<path fill="none" stroke="#757575" d="M1690.97,-813.1C1626.53,-864.8 1363.63,-1067.1 1108.5,-1139.94 1053.26,-1155.71 810.77,-1165.25 787.75,-1147.94 754.44,-1122.91 732.54,-995.58 724.71,-942.37"/>
<polygon fill="#757575" stroke="#757575" points="728.2,-941.99 723.32,-932.59 721.27,-942.98 728.2,-941.99"/>
</g>
<!-- ../../reactivity/src/collectionHandlers.ts&#45;&gt;../../reactivity/src/warning.ts -->
<g id="edge16" class="edge">
<title>../../reactivity/src/collectionHandlers.ts&#45;&gt;../../reactivity/src/warning.ts</title>
<path fill="none" stroke="#757575" d="M1780.43,-788.58C1796.26,-784.95 1812.76,-780.44 1827.75,-774.94 2021.97,-703.67 2078.92,-687.61 2238.5,-555.94 2288.76,-514.47 2333.16,-450.94 2354.57,-417.79"/>
<polygon fill="#757575" stroke="#757575" points="2357.47,-419.76 2359.88,-409.44 2351.56,-416 2357.47,-419.76"/>
</g>
<!-- ../../reactivity/src/computed.ts&#45;&gt;../../reactivity/src/constants.ts -->
<g id="edge18" class="edge">
<title>../../reactivity/src/computed.ts&#45;&gt;../../reactivity/src/constants.ts</title>
<path fill="none" stroke="#757575" d="M2153.68,-362.03C2188.64,-404.57 2306.33,-547.75 2350.86,-601.93"/>
<polygon fill="#757575" stroke="#757575" points="2348.04,-604.02 2357.09,-609.52 2353.45,-599.57 2348.04,-604.02"/>
</g>
<!-- ../../reactivity/src/computed.ts&#45;&gt;../../reactivity/src/dep.ts -->
<g id="edge19" class="edge">
<title>../../reactivity/src/computed.ts&#45;&gt;../../reactivity/src/dep.ts</title>
<path fill="none" stroke="#757575" d="M2082.3,-362.29C2025.97,-369.59 1939.02,-378.06 1863.75,-386.94 1722.36,-403.63 1371.25,-472.94 1228.88,-472.94 719.5,-472.94 719.5,-472.94 719.5,-472.94 615.26,-472.94 498.28,-510.44 431.48,-532.99"/>
<polygon fill="#757575" stroke="#757575" points="430.58,-529.6 422.23,-536.12 432.83,-536.23 430.58,-529.6"/>
</g>
<!-- ../../reactivity/src/computed.ts&#45;&gt;../../reactivity/src/effect.ts -->
<g id="edge20" class="edge">
<title>../../reactivity/src/computed.ts&#45;&gt;../../reactivity/src/effect.ts</title>
<path fill="none" stroke="#757575" d="M2112.06,-337.63C2086.16,-323.1 2047.17,-299.87 2011,-283.94 1684.99,-140.41 1585.08,-108.94 1228.88,-108.94 847.25,-108.94 847.25,-108.94 847.25,-108.94 758.75,-108.94 663.02,-154.47 611.03,-180.61"/>
<polygon fill="#757575" stroke="#757575" points="609.63,-177.4 602.28,-185.03 612.78,-183.65 609.63,-177.4"/>
</g>
<!-- ../../reactivity/src/computed.ts&#45;&gt;index.ts -->
<g id="edge23" class="edge">
<title>../../reactivity/src/computed.ts&#45;&gt;index.ts</title>
<path fill="none" stroke="#757575" d="M2090.81,-362.27C1988.52,-386.9 1750.73,-443.57 1550,-486.94 1212.26,-559.92 1036.32,-399.93 787.75,-639.94 750.8,-675.62 730.38,-835.02 723.84,-895.53"/>
<polygon fill="#757575" stroke="#757575" points="720.37,-895.05 722.81,-905.36 727.34,-895.78 720.37,-895.05"/>
</g>
<!-- ../../reactivity/src/computed.ts&#45;&gt;../../reactivity/src/ref.ts -->
<g id="edge21" class="edge">
<title>../../reactivity/src/computed.ts&#45;&gt;../../reactivity/src/ref.ts</title>
<path fill="none" stroke="#757575" d="M2132.95,-362.2C2103.32,-398.01 2006.45,-500.93 1961.58,-544.9"/>
<polygon fill="#757575" stroke="#757575" points="1959.17,-542.35 1954.42,-551.82 1964.04,-547.39 1959.17,-542.35"/>
</g>
<!-- ../../reactivity/src/computed.ts&#45;&gt;../../reactivity/src/warning.ts -->
<g id="edge22" class="edge">
<title>../../reactivity/src/computed.ts&#45;&gt;../../reactivity/src/warning.ts</title>
<path fill="none" stroke="#757575" d="M2203.88,-362.27C2232.42,-368.12 2266.75,-375.16 2296.62,-381.28"/>
<polygon fill="#757575" stroke="#757575" points="2295.85,-384.7 2306.35,-383.28 2297.25,-377.84 2295.85,-384.7"/>
</g>
<!-- ../../reactivity/src/effectScope.ts&#45;&gt;../../reactivity/src/effect.ts -->
<g id="edge34" class="edge">
<title>../../reactivity/src/effectScope.ts&#45;&gt;../../reactivity/src/effect.ts</title>
<path fill="none" stroke="#757575" d="M1347.09,-161C1262.02,-166.49 1136.87,-170.94 1027.62,-170.94 847.25,-170.94 847.25,-170.94 847.25,-170.94 786.06,-170.94 717.86,-179.8 664.65,-187.63"/>
<polygon fill="#757575" stroke="#757575" points="664.41,-184.12 655.03,-189.06 665.44,-191.05 664.41,-184.12"/>
</g>
<!-- ../../reactivity/src/effectScope.ts&#45;&gt;../../reactivity/src/warning.ts -->
<g id="edge35" class="edge">
<title>../../reactivity/src/effectScope.ts&#45;&gt;../../reactivity/src/warning.ts</title>
<path fill="none" stroke="#757575" d="M1479.56,-136.7C1590.69,-93.4 1986.11,41.61 2238.5,-118.94 2329.5,-176.83 2357.7,-317.26 2365.47,-372.79"/>
<polygon fill="#757575" stroke="#757575" points="2361.95,-372.89 2366.7,-382.36 2368.89,-371.99 2361.95,-372.89"/>
</g>
<!-- ../../reactivity/src/index.ts -->
<g id="node13" class="node">
<title>../../reactivity/src/index.ts</title>
<path fill="none" stroke="#ff6c60" d="M1100.58,-390.82C1100.58,-390.82 952.67,-390.82 952.67,-390.82 948.71,-390.82 944.75,-386.86 944.75,-382.9 944.75,-382.9 944.75,-374.98 944.75,-374.98 944.75,-371.03 948.71,-367.07 952.67,-367.07 952.67,-367.07 1100.58,-367.07 1100.58,-367.07 1104.54,-367.07 1108.5,-371.03 1108.5,-374.98 1108.5,-374.98 1108.5,-382.9 1108.5,-382.9 1108.5,-386.86 1104.54,-390.82 1100.58,-390.82"/>
<text text-anchor="middle" x="1026.62" y="-373.52" font-family="Arial" font-size="14.00" fill="#ff6c60">../../reactivity/src/index.ts</text>
</g>
<!-- ../../reactivity/src/index.ts&#45;&gt;../../reactivity/src/arrayInstrumentations.ts -->
<g id="edge36" class="edge">
<title>../../reactivity/src/index.ts&#45;&gt;../../reactivity/src/arrayInstrumentations.ts</title>
<path fill="none" stroke="#757575" d="M944.3,-378.94C883.05,-378.94 797,-378.94 721.5,-378.94 570,-378.94 570,-378.94 570,-378.94 432.45,-378.94 384.99,-420.79 298.75,-527.94 202.28,-647.8 152.57,-831.88 137.46,-895.98"/>
<polygon fill="#757575" stroke="#757575" points="134.13,-894.83 135.3,-905.36 140.96,-896.4 134.13,-894.83"/>
</g>
<!-- ../../reactivity/src/index.ts&#45;&gt;../../reactivity/src/constants.ts -->
<g id="edge38" class="edge">
<title>../../reactivity/src/index.ts&#45;&gt;../../reactivity/src/constants.ts</title>
<path fill="none" stroke="#757575" d="M1108.8,-383.41C1165.61,-386.99 1243.21,-392.76 1311.25,-400.94 1727.72,-451.02 1834.78,-463.09 2238.5,-576.94 2268.33,-585.35 2301.23,-597.06 2326.42,-606.56"/>
<polygon fill="#757575" stroke="#757575" points="2325.06,-609.79 2335.65,-610.07 2327.55,-603.24 2325.06,-609.79"/>
</g>
<!-- ../../reactivity/src/index.ts&#45;&gt;../../reactivity/src/dep.ts -->
<g id="edge39" class="edge">
<title>../../reactivity/src/index.ts&#45;&gt;../../reactivity/src/dep.ts</title>
<path fill="none" stroke="#757575" d="M944.53,-388.71C932.53,-390.14 920.32,-391.59 908.75,-392.94 722.14,-414.78 658.7,-360.83 488.75,-440.94 447.12,-460.57 411.29,-501.91 391.98,-527.37"/>
<polygon fill="#757575" stroke="#757575" points="389.21,-525.23 386.09,-535.36 394.84,-529.39 389.21,-525.23"/>
</g>
<!-- ../../reactivity/src/index.ts&#45;&gt;../../reactivity/src/effect.ts -->
<g id="edge40" class="edge">
<title>../../reactivity/src/index.ts&#45;&gt;../../reactivity/src/effect.ts</title>
<path fill="none" stroke="#757575" d="M993.53,-366.62C933.58,-343.54 800.6,-292.05 689.25,-246.94 663.24,-236.41 634.14,-224.25 611.43,-214.67"/>
<polygon fill="#757575" stroke="#757575" points="612.81,-211.46 602.23,-210.79 610.08,-217.9 612.81,-211.46"/>
</g>
<!-- ../../reactivity/src/index.ts&#45;&gt;../../reactivity/src/reactive.ts -->
<g id="edge42" class="edge">
<title>../../reactivity/src/index.ts&#45;&gt;../../reactivity/src/reactive.ts</title>
<path fill="none" stroke="#757575" d="M1048.17,-391.27C1116.55,-432.3 1336.76,-564.42 1417.54,-612.89"/>
<polygon fill="#757575" stroke="#757575" points="1415.45,-615.72 1425.82,-617.86 1419.05,-609.72 1415.45,-615.72"/>
</g>
<!-- ../../reactivity/src/index.ts&#45;&gt;../../reactivity/src/ref.ts -->
<g id="edge43" class="edge">
<title>../../reactivity/src/index.ts&#45;&gt;../../reactivity/src/ref.ts</title>
<path fill="none" stroke="#757575" d="M1087.95,-391.29C1249.51,-424.36 1691.44,-514.81 1865.03,-550.34"/>
<polygon fill="#757575" stroke="#757575" points="1864.09,-553.72 1874.58,-552.3 1865.49,-546.86 1864.09,-553.72"/>
</g>
<!-- ../../reactivity/src/index.ts&#45;&gt;../../reactivity/src/computed.ts -->
<g id="edge37" class="edge">
<title>../../reactivity/src/index.ts&#45;&gt;../../reactivity/src/computed.ts</title>
<path fill="none" stroke="#757575" d="M1037.7,-366.86C1056.26,-345.6 1098.23,-302.03 1144.5,-283.94 1270.23,-234.81 1312.64,-264.94 1447.62,-264.94 1447.62,-264.94 1447.62,-264.94 1707.88,-264.94 1850.46,-264.94 2014.57,-309.7 2093.89,-334.26"/>
<polygon fill="#757575" stroke="#757575" points="2092.48,-337.48 2103.06,-337.13 2094.57,-330.8 2092.48,-337.48"/>
</g>
<!-- ../../reactivity/src/index.ts&#45;&gt;../../reactivity/src/effectScope.ts -->
<g id="edge41" class="edge">
<title>../../reactivity/src/index.ts&#45;&gt;../../reactivity/src/effectScope.ts</title>
<path fill="none" stroke="#757575" d="M1035.83,-366.59C1053.09,-341.46 1095.65,-283.99 1144.5,-250.94 1224.21,-197.03 1255.49,-203.94 1347.25,-174.94 1359.33,-171.13 1372.36,-167.44 1384.89,-164.11"/>
<polygon fill="#757575" stroke="#757575" points="1385.49,-167.57 1394.28,-161.65 1383.72,-160.79 1385.49,-167.57"/>
</g>
<!-- ../../reactivity/src/watch.ts -->
<g id="node14" class="node">
<title>../../reactivity/src/watch.ts</title>
<path fill="none" stroke="#ff6c60" d="M1303.33,-316.82C1303.33,-316.82 1152.42,-316.82 1152.42,-316.82 1148.46,-316.82 1144.5,-312.86 1144.5,-308.9 1144.5,-308.9 1144.5,-300.98 1144.5,-300.98 1144.5,-297.03 1148.46,-293.07 1152.42,-293.07 1152.42,-293.07 1303.33,-293.07 1303.33,-293.07 1307.29,-293.07 1311.25,-297.03 1311.25,-300.98 1311.25,-300.98 1311.25,-308.9 1311.25,-308.9 1311.25,-312.86 1307.29,-316.82 1303.33,-316.82"/>
<text text-anchor="middle" x="1227.88" y="-299.52" font-family="Arial" font-size="14.00" fill="#ff6c60">../../reactivity/src/watch.ts</text>
</g>
<!-- ../../reactivity/src/index.ts&#45;&gt;../../reactivity/src/watch.ts -->
<g id="edge44" class="edge">
<title>../../reactivity/src/index.ts&#45;&gt;../../reactivity/src/watch.ts</title>
<path fill="none" stroke="#757575" d="M1060.53,-366.72C1094.03,-354.28 1146.16,-334.92 1183.12,-321.19"/>
<polygon fill="#757575" stroke="#757575" points="1184.02,-324.59 1192.17,-317.83 1181.58,-318.03 1184.02,-324.59"/>
</g>
<!-- ../../reactivity/src/watch.ts&#45;&gt;../../reactivity/src/constants.ts -->
<g id="edge58" class="edge">
<title>../../reactivity/src/watch.ts&#45;&gt;../../reactivity/src/constants.ts</title>
<path fill="none" stroke="#757575" d="M1261.92,-292.71C1400.69,-243.68 1942.75,-75.89 2238.5,-328.94 2270.61,-356.42 2257.75,-378.14 2274.5,-416.94 2303.56,-484.28 2340.03,-562.96 2357.64,-600.62"/>
<polygon fill="#757575" stroke="#757575" points="2354.42,-602 2361.83,-609.57 2360.76,-599.03 2354.42,-602"/>
</g>
<!-- ../../reactivity/src/watch.ts&#45;&gt;../../reactivity/src/effect.ts -->
<g id="edge59" class="edge">
<title>../../reactivity/src/watch.ts&#45;&gt;../../reactivity/src/effect.ts</title>
<path fill="none" stroke="#757575" d="M1151.2,-292.58C1028.67,-272.56 787.55,-233.16 658.44,-212.07"/>
<polygon fill="#757575" stroke="#757575" points="659.37,-208.67 648.94,-210.51 658.24,-215.58 659.37,-208.67"/>
</g>
<!-- ../../reactivity/src/watch.ts&#45;&gt;../../reactivity/src/reactive.ts -->
<g id="edge61" class="edge">
<title>../../reactivity/src/watch.ts&#45;&gt;../../reactivity/src/reactive.ts</title>
<path fill="none" stroke="#757575" d="M1236.92,-316.93C1269.41,-365.35 1391.23,-546.89 1433.26,-609.53"/>
<polygon fill="#757575" stroke="#757575" points="1430.19,-611.23 1438.66,-617.59 1436,-607.33 1430.19,-611.23"/>
</g>
<!-- ../../reactivity/src/watch.ts&#45;&gt;index.ts -->
<g id="edge64" class="edge">
<title>../../reactivity/src/watch.ts&#45;&gt;index.ts</title>
<path fill="none" stroke="#757575" d="M1213.29,-317.21C1191.91,-336.2 1148.69,-373.3 1108.5,-399.94 973.51,-489.44 883.52,-442.32 787.75,-572.94 749.62,-624.95 729.35,-826.05 723.4,-895.33"/>
<polygon fill="#757575" stroke="#757575" points="719.92,-894.9 722.57,-905.16 726.89,-895.48 719.92,-894.9"/>
</g>
<!-- ../../reactivity/src/watch.ts&#45;&gt;../../reactivity/src/ref.ts -->
<g id="edge62" class="edge">
<title>../../reactivity/src/watch.ts&#45;&gt;../../reactivity/src/ref.ts</title>
<path fill="none" stroke="#757575" d="M1283.56,-317.3C1391.13,-342.72 1636.36,-406.18 1827.75,-496.94 1857.43,-511.02 1889,-531.47 1910.41,-546.27"/>
<polygon fill="#757575" stroke="#757575" points="1908.33,-549.08 1918.53,-551.95 1912.35,-543.35 1908.33,-549.08"/>
</g>
<!-- ../../reactivity/src/watch.ts&#45;&gt;../../reactivity/src/warning.ts -->
<g id="edge63" class="edge">
<title>../../reactivity/src/watch.ts&#45;&gt;../../reactivity/src/warning.ts</title>
<path fill="none" stroke="#757575" d="M1242.62,-292.68C1268.51,-269.87 1323.97,-222.36 1347.25,-212.94 1439.23,-175.74 2153.24,-106.19 2238.5,-156.94 2319.08,-204.91 2352.66,-322.36 2363.66,-372.56"/>
<polygon fill="#757575" stroke="#757575" points="2360.22,-373.23 2365.67,-382.31 2367.08,-371.81 2360.22,-373.23"/>
</g>
<!-- ../../reactivity/src/watch.ts&#45;&gt;../../reactivity/src/computed.ts -->
<g id="edge57" class="edge">
<title>../../reactivity/src/watch.ts&#45;&gt;../../reactivity/src/computed.ts</title>
<path fill="none" stroke="#757575" d="M1311.62,-303.31C1454.62,-301.38 1757.1,-301.18 2011,-326.94 2030.65,-328.94 2051.79,-332.17 2071.23,-335.59"/>
<polygon fill="#757575" stroke="#757575" points="2070.5,-339.02 2080.96,-337.35 2071.74,-332.13 2070.5,-339.02"/>
</g>
<!-- ../../reactivity/src/watch.ts&#45;&gt;../../reactivity/src/effectScope.ts -->
<g id="edge60" class="edge">
<title>../../reactivity/src/watch.ts&#45;&gt;../../reactivity/src/effectScope.ts</title>
<path fill="none" stroke="#757575" d="M1244.17,-292.73C1261.52,-278.47 1290.15,-253.65 1311.25,-228.94 1329.98,-207.01 1323.74,-191.66 1347.25,-174.94 1352.29,-171.36 1357.79,-168.26 1363.53,-165.6"/>
<polygon fill="#757575" stroke="#757575" points="1364.77,-168.87 1372.68,-161.82 1362.1,-162.4 1364.77,-168.87"/>
</g>
<!-- domAttrConfig.ts&#45;&gt;makeMap.ts -->
<g id="edge65" class="edge">
<title>domAttrConfig.ts&#45;&gt;makeMap.ts</title>
<path fill="none" stroke="#757575" d="M1046.99,-835.26C1063.64,-846.05 1088.12,-862.39 1108.5,-877.94 1143.39,-904.56 1181.66,-938.06 1204.98,-959"/>
<polygon fill="#757575" stroke="#757575" points="1202.54,-961.51 1212.31,-965.61 1207.23,-956.31 1202.54,-961.51"/>
</g>
<!-- domTagConfig.ts&#45;&gt;makeMap.ts -->
<g id="edge66" class="edge">
<title>domTagConfig.ts&#45;&gt;makeMap.ts</title>
<path fill="none" stroke="#757575" d="M1044.96,-1106.76C1079.84,-1082.25 1158.73,-1026.82 1200.22,-997.67"/>
<polygon fill="#757575" stroke="#757575" points="1202.03,-1000.68 1208.2,-992.06 1198.01,-994.95 1202.03,-1000.68"/>
</g>
<!-- general.ts&#45;&gt;makeMap.ts -->
<g id="edge67" class="edge">
<title>general.ts&#45;&gt;makeMap.ts</title>
<path fill="none" stroke="#757575" d="M1058.32,-911.27C1092.4,-924.95 1147.58,-947.11 1185.47,-962.32"/>
<polygon fill="#757575" stroke="#757575" points="1184.16,-965.56 1194.74,-966.04 1186.76,-959.07 1184.16,-965.56"/>
</g>
<!-- globalsAllowList.ts&#45;&gt;makeMap.ts -->
<g id="edge68" class="edge">
<title>globalsAllowList.ts&#45;&gt;makeMap.ts</title>
<path fill="none" stroke="#757575" d="M1089.03,-1006.61C1115.23,-1001.36 1145.58,-995.26 1171.12,-990.14"/>
<polygon fill="#757575" stroke="#757575" points="1171.52,-993.63 1180.63,-988.23 1170.14,-986.76 1171.52,-993.63"/>
</g>
<!-- looseEqual.ts&#45;&gt;general.ts -->
<g id="edge83" class="edge">
<title>looseEqual.ts&#45;&gt;general.ts</title>
<path fill="none" stroke="#757575" d="M896.98,-869.77C922.02,-875.45 952.61,-882.38 977.68,-888.07"/>
<polygon fill="#757575" stroke="#757575" points="976.77,-891.45 987.29,-890.25 978.31,-884.62 976.77,-891.45"/>
</g>
<!-- normalizeProp.ts&#45;&gt;general.ts -->
<g id="edge84" class="edge">
<title>normalizeProp.ts&#45;&gt;general.ts</title>
<path fill="none" stroke="#757575" d="M903.61,-926.61C927.25,-921.25 954.71,-915.03 977.58,-909.84"/>
<polygon fill="#757575" stroke="#757575" points="978.29,-913.27 987.27,-907.64 976.74,-906.44 978.29,-913.27"/>
</g>
<!-- toDisplayString.ts&#45;&gt;../../reactivity/src/index.ts -->
<g id="edge85" class="edge">
<title>toDisplayString.ts&#45;&gt;../../reactivity/src/index.ts</title>
<path fill="none" stroke="#757575" d="M854.15,-804.77C878.28,-744.85 984.55,-480.93 1016.51,-401.58"/>
<polygon fill="#757575" stroke="#757575" points="1019.61,-403.25 1020.1,-392.67 1013.12,-400.64 1019.61,-403.25"/>
</g>
<!-- toDisplayString.ts&#45;&gt;general.ts -->
<g id="edge86" class="edge">
<title>toDisplayString.ts&#45;&gt;general.ts</title>
<path fill="none" stroke="#757575" d="M886.7,-829.25C894.08,-831.93 901.72,-834.88 908.75,-837.94 938.6,-850.92 971.36,-868.31 994.58,-881.2"/>
<polygon fill="#757575" stroke="#757575" points="992.77,-884.2 1003.21,-886.03 996.19,-878.09 992.77,-884.2"/>
</g>
</g>
</svg>
