<?xml version="1.0" encoding="UTF-8" standalone="no"?>
<!DOCTYPE svg PUBLIC "-//W3C//DTD SVG 1.1//EN"
 "http://www.w3.org/Graphics/SVG/1.1/DTD/svg11.dtd">
<!-- Generated by graphviz version 12.2.1 (20241206.2353)
 -->
<!-- Title: dependency&#45;cruiser output Pages: 1 -->
<svg width="259pt" height="183pt"
 viewBox="0.00 0.00 259.00 183.00" xmlns="http://www.w3.org/2000/svg" xmlns:xlink="http://www.w3.org/1999/xlink">
<g id="graph0" class="graph" transform="scale(1 1) rotate(0) translate(4 179)">
<title>dependency&#45;cruiser output</title>
<polygon fill="white" stroke="none" points="-4,4 -4,-179 255,-179 255,4 -4,4"/>
<g id="clust1" class="cluster">
<title>cluster_@vue</title>
<path fill="#ffffff" stroke="black" stroke-width="2" d="M166.75,-8C166.75,-8 231,-8 231,-8 237,-8 243,-14 243,-20 243,-20 243,-111 243,-111 243,-117 237,-123 231,-123 231,-123 166.75,-123 166.75,-123 160.75,-123 154.75,-117 154.75,-111 154.75,-111 154.75,-20 154.75,-20 154.75,-14 160.75,-8 166.75,-8"/>
<text text-anchor="middle" x="198.88" y="-110.45" font-family="Helvetica,sans-Serif" font-weight="bold" font-size="9.00">@vue</text>
</g>
<g id="clust2" class="cluster">
<title>cluster_src</title>
<path fill="#ffffff" stroke="black" stroke-width="2" d="M20,-83C20,-83 134.75,-83 134.75,-83 140.75,-83 146.75,-89 146.75,-95 146.75,-95 146.75,-155 146.75,-155 146.75,-161 140.75,-167 134.75,-167 134.75,-167 20,-167 20,-167 14,-167 8,-161 8,-155 8,-155 8,-95 8,-95 8,-89 14,-83 20,-83"/>
<text text-anchor="middle" x="77.38" y="-154.45" font-family="Helvetica,sans-Serif" font-weight="bold" font-size="9.00">src</text>
</g>
<!-- @vue/compiler&#45;dom -->
<g id="node1" class="node">
<title>@vue/compiler&#45;dom</title>
<g id="a_node1"><a xlink:title="compiler&#45;dom">
<path fill="#ffffcc" stroke="black" d="M228.83,-34.25C228.83,-34.25 168.92,-34.25 168.92,-34.25 165.83,-34.25 162.75,-31.17 162.75,-28.08 162.75,-28.08 162.75,-21.92 162.75,-21.92 162.75,-18.83 165.83,-15.75 168.92,-15.75 168.92,-15.75 228.83,-15.75 228.83,-15.75 231.92,-15.75 235,-18.83 235,-21.92 235,-21.92 235,-28.08 235,-28.08 235,-31.17 231.92,-34.25 228.83,-34.25"/>
<text text-anchor="start" x="170.75" y="-21.7" font-family="Helvetica,sans-Serif" font-size="9.00">compiler&#45;dom</text>
</a>
</g>
</g>
<!-- @vue/runtime&#45;dom -->
<g id="node2" class="node">
<title>@vue/runtime&#45;dom</title>
<g id="a_node2"><a xlink:title="runtime&#45;dom">
<path fill="#ffffcc" stroke="black" d="M226.58,-96.25C226.58,-96.25 171.17,-96.25 171.17,-96.25 168.08,-96.25 165,-93.17 165,-90.08 165,-90.08 165,-83.92 165,-83.92 165,-80.83 168.08,-77.75 171.17,-77.75 171.17,-77.75 226.58,-77.75 226.58,-77.75 229.67,-77.75 232.75,-80.83 232.75,-83.92 232.75,-83.92 232.75,-90.08 232.75,-90.08 232.75,-93.17 229.67,-96.25 226.58,-96.25"/>
<text text-anchor="start" x="173" y="-83.7" font-family="Helvetica,sans-Serif" font-size="9.00">runtime&#45;dom</text>
</a>
</g>
</g>
<!-- @vue/shared -->
<g id="node3" class="node">
<title>@vue/shared</title>
<g id="a_node3"><a xlink:title="shared">
<path fill="#ffffcc" stroke="black" d="M219.71,-65.25C219.71,-65.25 178.04,-65.25 178.04,-65.25 174.96,-65.25 171.88,-62.17 171.88,-59.08 171.88,-59.08 171.88,-52.92 171.88,-52.92 171.88,-49.83 174.96,-46.75 178.04,-46.75 178.04,-46.75 219.71,-46.75 219.71,-46.75 222.79,-46.75 225.88,-49.83 225.88,-52.92 225.88,-52.92 225.88,-59.08 225.88,-59.08 225.88,-62.17 222.79,-65.25 219.71,-65.25"/>
<text text-anchor="start" x="184.62" y="-52.7" font-family="Helvetica,sans-Serif" font-size="9.00">shared</text>
</a>
</g>
</g>
<!-- src/dev.ts -->
<g id="node4" class="node">
<title>src/dev.ts</title>
<g id="a_node4"><a xlink:href="src/dev.ts" xlink:title="dev.ts">
<path fill="#ddfeff" stroke="black" d="M132.58,-140.25C132.58,-140.25 90.92,-140.25 90.92,-140.25 87.83,-140.25 84.75,-137.17 84.75,-134.08 84.75,-134.08 84.75,-127.92 84.75,-127.92 84.75,-124.83 87.83,-121.75 90.92,-121.75 90.92,-121.75 132.58,-121.75 132.58,-121.75 135.67,-121.75 138.75,-124.83 138.75,-127.92 138.75,-127.92 138.75,-134.08 138.75,-134.08 138.75,-137.17 135.67,-140.25 132.58,-140.25"/>
<text text-anchor="start" x="100.12" y="-127.7" font-family="Helvetica,sans-Serif" font-size="9.00">dev.ts</text>
</a>
</g>
</g>
<!-- src/dev.ts&#45;&gt;@vue/runtime&#45;dom -->
<g id="edge1" class="edge">
<title>src/dev.ts&#45;&gt;@vue/runtime&#45;dom</title>
<g id="a_edge1"><a xlink:title="not&#45;to&#45;unresolvable">
<path fill="none" stroke="red" stroke-width="2" d="M131.22,-121.45C142.96,-115.38 158.36,-107.43 171.39,-100.69"/>
<polygon fill="red" stroke="red" stroke-width="2" points="172.09,-102.69 176.46,-98.07 170.16,-98.96 172.09,-102.69"/>
</a>
</g>
<text text-anchor="middle" x="195.14" y="-100.41" font-family="Helvetica,sans-Serif" font-size="9.00" fill="red">not&#45;to&#45;unresolvable</text>
</g>
<!-- src/index.ts -->
<g id="node5" class="node">
<title>src/index.ts</title>
<g id="a_node5"><a xlink:href="src/index.ts" xlink:title="index.ts">
<path fill="#ddfeff" stroke="black" d="M64.71,-109.25C64.71,-109.25 23.04,-109.25 23.04,-109.25 19.96,-109.25 16.88,-106.17 16.88,-103.08 16.88,-103.08 16.88,-96.92 16.88,-96.92 16.88,-93.83 19.96,-90.75 23.04,-90.75 23.04,-90.75 64.71,-90.75 64.71,-90.75 67.79,-90.75 70.88,-93.83 70.88,-96.92 70.88,-96.92 70.88,-103.08 70.88,-103.08 70.88,-106.17 67.79,-109.25 64.71,-109.25"/>
<text text-anchor="start" x="28.12" y="-96.7" font-family="Helvetica,sans-Serif" font-size="9.00">index.ts</text>
</a>
</g>
</g>
<!-- src/index.ts&#45;&gt;@vue/compiler&#45;dom -->
<g id="edge3" class="edge">
<title>src/index.ts&#45;&gt;@vue/compiler&#45;dom</title>
<g id="a_edge3"><a xlink:title="not&#45;to&#45;unresolvable">
<path fill="none" stroke="red" stroke-width="2" d="M53.59,-90.56C61.19,-82.8 72.83,-71.99 84.75,-65 106.25,-52.4 132.36,-42.84 154.07,-36.23"/>
<polygon fill="red" stroke="red" stroke-width="2" points="154.4,-38.33 159.56,-34.61 153.21,-34.3 154.4,-38.33"/>
</a>
</g>
<text text-anchor="middle" x="64.58" y="-46.28" font-family="Helvetica,sans-Serif" font-size="9.00" fill="red">not&#45;to&#45;unresolvable</text>
</g>
<!-- src/index.ts&#45;&gt;@vue/runtime&#45;dom -->
<g id="edge4" class="edge">
<title>src/index.ts&#45;&gt;@vue/runtime&#45;dom</title>
<g id="a_edge4"><a xlink:title="not&#45;to&#45;unresolvable">
<path fill="none" stroke="red" stroke-width="2" d="M70.98,-94.95C75.55,-94.2 80.28,-93.51 84.75,-93 108.17,-90.33 134.47,-88.85 155.8,-88.02"/>
<polygon fill="red" stroke="red" stroke-width="2" points="155.68,-90.13 161.6,-87.82 155.53,-85.93 155.68,-90.13"/>
</a>
</g>
<text text-anchor="middle" x="77.88" y="-81.5" font-family="Helvetica,sans-Serif" font-size="9.00" fill="red">not&#45;to&#45;unresolvable</text>
</g>
<!-- src/index.ts&#45;&gt;@vue/shared -->
<g id="edge5" class="edge">
<title>src/index.ts&#45;&gt;@vue/shared</title>
<g id="a_edge5"><a xlink:title="not&#45;to&#45;unresolvable">
<path fill="none" stroke="red" stroke-width="2" d="M69.19,-90.37C74.29,-88.49 79.67,-86.6 84.75,-85 110.7,-76.82 140.52,-69.25 163.04,-63.89"/>
<polygon fill="red" stroke="red" stroke-width="2" points="163.28,-65.99 168.64,-62.58 162.32,-61.9 163.28,-65.99"/>
</a>
</g>
<text text-anchor="middle" x="80.03" y="-66.28" font-family="Helvetica,sans-Serif" font-size="9.00" fill="red">not&#45;to&#45;unresolvable</text>
</g>
<!-- src/index.ts&#45;&gt;src/dev.ts -->
<g id="edge2" class="edge">
<title>src/index.ts&#45;&gt;src/dev.ts</title>
<path fill="none" stroke="#000000" stroke-width="2" stroke-opacity="0.200000" d="M65.36,-109.64C70.64,-112.12 76.41,-114.84 82.03,-117.48"/>
<polygon fill="#000000" fill-opacity="0.200000" stroke="#000000" stroke-width="2" stroke-opacity="0.200000" points="80.99,-119.32 87.31,-119.97 82.78,-115.52 80.99,-119.32"/>
</g>
<!-- src/runtime.ts -->
<g id="node6" class="node">
<title>src/runtime.ts</title>
<g id="a_node6"><a xlink:href="src/runtime.ts" xlink:title="runtime.ts">
<path fill="#ddfeff" stroke="black" d="M65.58,-140.25C65.58,-140.25 22.17,-140.25 22.17,-140.25 19.08,-140.25 16,-137.17 16,-134.08 16,-134.08 16,-127.92 16,-127.92 16,-124.83 19.08,-121.75 22.17,-121.75 22.17,-121.75 65.58,-121.75 65.58,-121.75 68.67,-121.75 71.75,-124.83 71.75,-127.92 71.75,-127.92 71.75,-134.08 71.75,-134.08 71.75,-137.17 68.67,-140.25 65.58,-140.25"/>
<text text-anchor="start" x="24" y="-127.7" font-family="Helvetica,sans-Serif" font-size="9.00">runtime.ts</text>
</a>
</g>
</g>
<!-- src/runtime.ts&#45;&gt;@vue/runtime&#45;dom -->
<g id="edge7" class="edge">
<title>src/runtime.ts&#45;&gt;@vue/runtime&#45;dom</title>
<g id="a_edge7"><a xlink:title="not&#45;to&#45;unresolvable">
<path fill="none" stroke="red" stroke-width="2" d="M69.19,-121.37C74.29,-119.49 79.67,-117.6 84.75,-116 108.2,-108.61 134.83,-101.71 156.35,-96.5"/>
<polygon fill="red" stroke="red" stroke-width="2" points="156.65,-98.59 161.99,-95.15 155.67,-94.5 156.65,-98.59"/>
</a>
</g>
<text text-anchor="middle" x="77.2" y="-108.55" font-family="Helvetica,sans-Serif" font-size="9.00" fill="red">not&#45;to&#45;unresolvable</text>
</g>
<!-- src/runtime.ts&#45;&gt;src/dev.ts -->
<g id="edge6" class="edge">
<title>src/runtime.ts&#45;&gt;src/dev.ts</title>
<path fill="none" stroke="#000000" stroke-width="2" stroke-opacity="0.200000" d="M72.05,-131C73.21,-131 74.37,-131 75.54,-131"/>
<polygon fill="#000000" fill-opacity="0.200000" stroke="#000000" stroke-width="2" stroke-opacity="0.200000" points="75.46,-133.1 81.46,-131 75.46,-128.9 75.46,-133.1"/>
</g>
</g>
</svg>
