<?xml version="1.0" encoding="UTF-8" standalone="no"?>
<!DOCTYPE svg PUBLIC "-//W3C//DTD SVG 1.1//EN"
 "http://www.w3.org/Graphics/SVG/1.1/DTD/svg11.dtd">
<!-- Generated by graphviz version 12.2.1 (20241206.2353)
 -->
<!-- Title: dependency&#45;cruiser output Pages: 1 -->
<svg width="163pt" height="108pt"
 viewBox="0.00 0.00 162.75 108.00" xmlns="http://www.w3.org/2000/svg" xmlns:xlink="http://www.w3.org/1999/xlink">
<g id="graph0" class="graph" transform="scale(1 1) rotate(0) translate(4 104)">
<title>dependency&#45;cruiser output</title>
<polygon fill="white" stroke="none" points="-4,4 -4,-104 158.75,-104 158.75,4 -4,4"/>
<g id="clust1" class="cluster">
<title>cluster_src</title>
<path fill="#ffffff" stroke="black" stroke-width="2" d="M20,-8C20,-8 134.75,-8 134.75,-8 140.75,-8 146.75,-14 146.75,-20 146.75,-20 146.75,-80 146.75,-80 146.75,-86 140.75,-92 134.75,-92 134.75,-92 20,-92 20,-92 14,-92 8,-86 8,-80 8,-80 8,-20 8,-20 8,-14 14,-8 20,-8"/>
<text text-anchor="middle" x="77.38" y="-79.45" font-family="Helvetica,sans-Serif" font-weight="bold" font-size="9.00">src</text>
</g>
<!-- src/dev.ts -->
<g id="node1" class="node">
<title>src/dev.ts</title>
<g id="a_node1"><a xlink:href="src/dev.ts" xlink:title="dev.ts">
<path fill="#ddfeff" stroke="black" d="M132.58,-49.25C132.58,-49.25 90.92,-49.25 90.92,-49.25 87.83,-49.25 84.75,-46.17 84.75,-43.08 84.75,-43.08 84.75,-36.92 84.75,-36.92 84.75,-33.83 87.83,-30.75 90.92,-30.75 90.92,-30.75 132.58,-30.75 132.58,-30.75 135.67,-30.75 138.75,-33.83 138.75,-36.92 138.75,-36.92 138.75,-43.08 138.75,-43.08 138.75,-46.17 135.67,-49.25 132.58,-49.25"/>
<text text-anchor="start" x="100.12" y="-36.7" font-family="Helvetica,sans-Serif" font-size="9.00">dev.ts</text>
</a>
</g>
</g>
<!-- src/index.ts -->
<g id="node2" class="node">
<title>src/index.ts</title>
<g id="a_node2"><a xlink:href="src/index.ts" xlink:title="index.ts">
<path fill="#ddfeff" stroke="black" d="M64.71,-34.25C64.71,-34.25 23.04,-34.25 23.04,-34.25 19.96,-34.25 16.88,-31.17 16.88,-28.08 16.88,-28.08 16.88,-21.92 16.88,-21.92 16.88,-18.83 19.96,-15.75 23.04,-15.75 23.04,-15.75 64.71,-15.75 64.71,-15.75 67.79,-15.75 70.88,-18.83 70.88,-21.92 70.88,-21.92 70.88,-28.08 70.88,-28.08 70.88,-31.17 67.79,-34.25 64.71,-34.25"/>
<text text-anchor="start" x="28.12" y="-21.7" font-family="Helvetica,sans-Serif" font-size="9.00">index.ts</text>
</a>
</g>
</g>
<!-- src/index.ts&#45;&gt;src/dev.ts -->
<g id="edge1" class="edge">
<title>src/index.ts&#45;&gt;src/dev.ts</title>
<path fill="none" stroke="#000000" stroke-width="2" stroke-opacity="0.200000" d="M71.29,-31.01C72.77,-31.35 74.26,-31.69 75.76,-32.03"/>
<polygon fill="#000000" fill-opacity="0.200000" stroke="#000000" stroke-width="2" stroke-opacity="0.200000" points="75.06,-34.03 81.38,-33.31 75.99,-29.93 75.06,-34.03"/>
</g>
<!-- src/runtime.ts -->
<g id="node3" class="node">
<title>src/runtime.ts</title>
<g id="a_node3"><a xlink:href="src/runtime.ts" xlink:title="runtime.ts">
<path fill="#ddfeff" stroke="black" d="M65.58,-65.25C65.58,-65.25 22.17,-65.25 22.17,-65.25 19.08,-65.25 16,-62.17 16,-59.08 16,-59.08 16,-52.92 16,-52.92 16,-49.83 19.08,-46.75 22.17,-46.75 22.17,-46.75 65.58,-46.75 65.58,-46.75 68.67,-46.75 71.75,-49.83 71.75,-52.92 71.75,-52.92 71.75,-59.08 71.75,-59.08 71.75,-62.17 68.67,-65.25 65.58,-65.25"/>
<text text-anchor="start" x="24" y="-52.7" font-family="Helvetica,sans-Serif" font-size="9.00">runtime.ts</text>
</a>
</g>
</g>
<!-- src/runtime.ts&#45;&gt;src/dev.ts -->
<g id="edge2" class="edge">
<title>src/runtime.ts&#45;&gt;src/dev.ts</title>
<path fill="none" stroke="#000000" stroke-width="2" stroke-opacity="0.200000" d="M72.05,-49.4C73.33,-49.09 74.63,-48.77 75.93,-48.46"/>
<polygon fill="#000000" fill-opacity="0.200000" stroke="#000000" stroke-width="2" stroke-opacity="0.200000" points="76.21,-50.55 81.55,-47.09 75.22,-46.47 76.21,-50.55"/>
</g>
</g>
</svg>
