<?xml version="1.0" encoding="UTF-8" standalone="no"?>
<!DOCTYPE svg PUBLIC "-//W3C//DTD SVG 1.1//EN"
 "http://www.w3.org/Graphics/SVG/1.1/DTD/svg11.dtd">
<!-- Generated by graphviz version 12.2.1 (20241206.2353)
 -->
<!-- Title: dependency&#45;cruiser output Pages: 1 -->
<svg width="437pt" height="420pt"
 viewBox="0.00 0.00 436.50 420.00" xmlns="http://www.w3.org/2000/svg" xmlns:xlink="http://www.w3.org/1999/xlink">
<g id="graph0" class="graph" transform="scale(1 1) rotate(0) translate(4 416)">
<title>dependency&#45;cruiser output</title>
<polygon fill="white" stroke="none" points="-4,4 -4,-416 432.5,-416 432.5,4 -4,4"/>
<g id="clust1" class="cluster">
<title>cluster_src</title>
<path fill="#ffffff" stroke="black" stroke-width="2" d="M20,-8C20,-8 408.5,-8 408.5,-8 414.5,-8 420.5,-14 420.5,-20 420.5,-20 420.5,-392 420.5,-392 420.5,-398 414.5,-404 408.5,-404 408.5,-404 20,-404 20,-404 14,-404 8,-398 8,-392 8,-392 8,-20 8,-20 8,-14 14,-8 20,-8"/>
<text text-anchor="middle" x="214.25" y="-391.45" font-family="Helvetica,sans-Serif" font-weight="bold" font-size="9.00">src</text>
</g>
<g id="clust2" class="cluster">
<title>cluster_src/helpers</title>
<path fill="#ffffff" stroke="black" stroke-width="2" d="M194,-22C194,-22 400.5,-22 400.5,-22 406.5,-22 412.5,-28 412.5,-34 412.5,-34 412.5,-311 412.5,-311 412.5,-317 406.5,-323 400.5,-323 400.5,-323 194,-323 194,-323 188,-323 182,-317 182,-311 182,-311 182,-34 182,-34 182,-28 188,-22 194,-22"/>
<text text-anchor="middle" x="297.25" y="-310.45" font-family="Helvetica,sans-Serif" font-weight="bold" font-size="9.00">helpers</text>
</g>
<!-- src/helpers/ssrCompile.ts -->
<g id="node1" class="node">
<title>src/helpers/ssrCompile.ts</title>
<g id="a_node1"><a xlink:href="src/helpers/ssrCompile.ts" xlink:title="ssrCompile.ts">
<path fill="#ddfeff" stroke="black" d="M277.46,-296.25C277.46,-296.25 218.29,-296.25 218.29,-296.25 215.21,-296.25 212.12,-293.17 212.12,-290.08 212.12,-290.08 212.12,-283.92 212.12,-283.92 212.12,-280.83 215.21,-277.75 218.29,-277.75 218.29,-277.75 277.46,-277.75 277.46,-277.75 280.54,-277.75 283.62,-280.83 283.62,-283.92 283.62,-283.92 283.62,-290.08 283.62,-290.08 283.62,-293.17 280.54,-296.25 277.46,-296.25"/>
<text text-anchor="start" x="220.12" y="-283.7" font-family="Helvetica,sans-Serif" font-size="9.00">ssrCompile.ts</text>
</a>
</g>
</g>
<!-- src/internal.ts -->
<g id="node2" class="node">
<title>src/internal.ts</title>
<g id="a_node2"><a xlink:href="src/internal.ts" xlink:title="internal.ts">
<path fill="#ddfeff" stroke="black" d="M150.21,-188.25C150.21,-188.25 106.79,-188.25 106.79,-188.25 103.71,-188.25 100.62,-185.17 100.62,-182.08 100.62,-182.08 100.62,-175.92 100.62,-175.92 100.62,-172.83 103.71,-169.75 106.79,-169.75 106.79,-169.75 150.21,-169.75 150.21,-169.75 153.29,-169.75 156.38,-172.83 156.38,-175.92 156.38,-175.92 156.38,-182.08 156.38,-182.08 156.38,-185.17 153.29,-188.25 150.21,-188.25"/>
<text text-anchor="start" x="108.62" y="-175.7" font-family="Helvetica,sans-Serif" font-size="9.00">internal.ts</text>
</a>
</g>
</g>
<!-- src/helpers/ssrCompile.ts&#45;&gt;src/internal.ts -->
<g id="edge1" class="edge">
<title>src/helpers/ssrCompile.ts&#45;&gt;src/internal.ts</title>
<g id="a_edge1"><a xlink:title="no&#45;circular">
<path fill="none" stroke="orange" stroke-width="2" d="M211.93,-283.71C201.52,-281.39 190.61,-277.5 182,-271 160.43,-254.7 146.32,-226.78 138.22,-205.97"/>
<polygon fill="orange" stroke="orange" stroke-width="2" points="137.09,-196.34 133.14,-191.36 133.13,-197.72 137.09,-196.34"/>
<polyline fill="none" stroke="orange" stroke-width="2" points="135.44,-197.97 136.42,-200.81"/>
<ellipse fill="none" stroke="orange" stroke-width="2" cx="137.54" cy="-204.02" rx="2.4" ry="2.4"/>
</a>
</g>
<text text-anchor="middle" x="136.46" y="-236.49" font-family="Helvetica,sans-Serif" font-size="9.00" fill="orange">no&#45;circular</text>
</g>
<!-- src/helpers/ssrGetDirectiveProps.ts -->
<g id="node3" class="node">
<title>src/helpers/ssrGetDirectiveProps.ts</title>
<g id="a_node3"><a xlink:href="src/helpers/ssrGetDirectiveProps.ts" xlink:title="ssrGetDirectiveProps.ts">
<path fill="#ddfeff" stroke="black" d="M297.33,-79.25C297.33,-79.25 198.42,-79.25 198.42,-79.25 195.33,-79.25 192.25,-76.17 192.25,-73.08 192.25,-73.08 192.25,-66.92 192.25,-66.92 192.25,-63.83 195.33,-60.75 198.42,-60.75 198.42,-60.75 297.33,-60.75 297.33,-60.75 300.42,-60.75 303.5,-63.83 303.5,-66.92 303.5,-66.92 303.5,-73.08 303.5,-73.08 303.5,-76.17 300.42,-79.25 297.33,-79.25"/>
<text text-anchor="start" x="200.25" y="-66.7" font-family="Helvetica,sans-Serif" font-size="9.00">ssrGetDirectiveProps.ts</text>
</a>
</g>
</g>
<!-- src/internal.ts&#45;&gt;src/helpers/ssrGetDirectiveProps.ts -->
<g id="edge9" class="edge">
<title>src/internal.ts&#45;&gt;src/helpers/ssrGetDirectiveProps.ts</title>
<path fill="none" stroke="#000000" stroke-width="2" stroke-opacity="0.200000" d="M132.12,-169.4C137.82,-150.38 153.2,-107.86 182,-86 183.41,-84.93 184.89,-83.92 186.42,-82.99"/>
<polygon fill="#000000" fill-opacity="0.200000" stroke="#000000" stroke-width="2" stroke-opacity="0.200000" points="192.65,-82.02 186.37,-83.01 190.66,-78.32 192.65,-82.02"/>
</g>
<!-- src/helpers/ssrInterpolate.ts -->
<g id="node4" class="node">
<title>src/helpers/ssrInterpolate.ts</title>
<g id="a_node4"><a xlink:href="src/helpers/ssrInterpolate.ts" xlink:title="ssrInterpolate.ts">
<path fill="#ddfeff" stroke="black" d="M281.96,-110.25C281.96,-110.25 213.79,-110.25 213.79,-110.25 210.71,-110.25 207.62,-107.17 207.62,-104.08 207.62,-104.08 207.62,-97.92 207.62,-97.92 207.62,-94.83 210.71,-91.75 213.79,-91.75 213.79,-91.75 281.96,-91.75 281.96,-91.75 285.04,-91.75 288.12,-94.83 288.12,-97.92 288.12,-97.92 288.12,-104.08 288.12,-104.08 288.12,-107.17 285.04,-110.25 281.96,-110.25"/>
<text text-anchor="start" x="215.62" y="-97.7" font-family="Helvetica,sans-Serif" font-size="9.00">ssrInterpolate.ts</text>
</a>
</g>
</g>
<!-- src/internal.ts&#45;&gt;src/helpers/ssrInterpolate.ts -->
<g id="edge10" class="edge">
<title>src/internal.ts&#45;&gt;src/helpers/ssrInterpolate.ts</title>
<path fill="none" stroke="#000000" stroke-width="2" stroke-opacity="0.200000" d="M134.93,-169.39C143.23,-155.59 160.42,-130.38 182,-117 187.69,-113.47 194.12,-110.72 200.66,-108.57"/>
<polygon fill="#000000" fill-opacity="0.200000" stroke="#000000" stroke-width="2" stroke-opacity="0.200000" points="206.85,-108.92 200.5,-108.62 205.65,-104.9 206.85,-108.92"/>
</g>
<!-- src/helpers/ssrRenderAttrs.ts -->
<g id="node5" class="node">
<title>src/helpers/ssrRenderAttrs.ts</title>
<g id="a_node5"><a xlink:href="src/helpers/ssrRenderAttrs.ts" xlink:title="ssrRenderAttrs.ts">
<path fill="#ddfeff" stroke="black" d="M398.33,-48.25C398.33,-48.25 324.92,-48.25 324.92,-48.25 321.83,-48.25 318.75,-45.17 318.75,-42.08 318.75,-42.08 318.75,-35.92 318.75,-35.92 318.75,-32.83 321.83,-29.75 324.92,-29.75 324.92,-29.75 398.33,-29.75 398.33,-29.75 401.42,-29.75 404.5,-32.83 404.5,-35.92 404.5,-35.92 404.5,-42.08 404.5,-42.08 404.5,-45.17 401.42,-48.25 398.33,-48.25"/>
<text text-anchor="start" x="326.75" y="-35.7" font-family="Helvetica,sans-Serif" font-size="9.00">ssrRenderAttrs.ts</text>
</a>
</g>
</g>
<!-- src/internal.ts&#45;&gt;src/helpers/ssrRenderAttrs.ts -->
<g id="edge11" class="edge">
<title>src/internal.ts&#45;&gt;src/helpers/ssrRenderAttrs.ts</title>
<path fill="none" stroke="#000000" stroke-width="2" stroke-opacity="0.200000" d="M129.28,-169.55C129.21,-141.58 133.28,-58.93 182,-24 227.06,8.32 295.94,-11.62 333.64,-26.73"/>
<polygon fill="#000000" fill-opacity="0.200000" stroke="#000000" stroke-width="2" stroke-opacity="0.200000" points="338.14,-30.85 333.39,-26.63 339.74,-26.97 338.14,-30.85"/>
</g>
<!-- src/helpers/ssrRenderComponent.ts -->
<g id="node6" class="node">
<title>src/helpers/ssrRenderComponent.ts</title>
<g id="a_node6"><a xlink:href="src/helpers/ssrRenderComponent.ts" xlink:title="ssrRenderComponent.ts">
<path fill="#ddfeff" stroke="black" d="M299.58,-141.25C299.58,-141.25 196.17,-141.25 196.17,-141.25 193.08,-141.25 190,-138.17 190,-135.08 190,-135.08 190,-128.92 190,-128.92 190,-125.83 193.08,-122.75 196.17,-122.75 196.17,-122.75 299.58,-122.75 299.58,-122.75 302.67,-122.75 305.75,-125.83 305.75,-128.92 305.75,-128.92 305.75,-135.08 305.75,-135.08 305.75,-138.17 302.67,-141.25 299.58,-141.25"/>
<text text-anchor="start" x="198" y="-128.7" font-family="Helvetica,sans-Serif" font-size="9.00">ssrRenderComponent.ts</text>
</a>
</g>
</g>
<!-- src/internal.ts&#45;&gt;src/helpers/ssrRenderComponent.ts -->
<g id="edge12" class="edge">
<title>src/internal.ts&#45;&gt;src/helpers/ssrRenderComponent.ts</title>
<g id="a_edge12"><a xlink:title="no&#45;circular">
<path fill="none" stroke="orange" stroke-width="2" d="M143.18,-169.41C153.45,-162.6 168.08,-153.68 182,-148 182.18,-147.93 182.36,-147.85 182.54,-147.78"/>
<polygon fill="orange" stroke="orange" stroke-width="2" points="192.41,-146.64 197.41,-142.72 191.05,-142.66 192.41,-146.64"/>
<polyline fill="none" stroke="orange" stroke-width="2" points="190.78,-144.97 187.94,-145.94"/>
<ellipse fill="none" stroke="orange" stroke-width="2" cx="184.72" cy="-147.04" rx="2.4" ry="2.4"/>
</a>
</g>
<text text-anchor="middle" x="149.1" y="-144.56" font-family="Helvetica,sans-Serif" font-size="9.00" fill="orange">no&#45;circular</text>
</g>
<!-- src/render.ts -->
<g id="node7" class="node">
<title>src/render.ts</title>
<g id="a_node7"><a xlink:href="src/render.ts" xlink:title="render.ts">
<path fill="#ddfeff" stroke="black" d="M382.46,-349.25C382.46,-349.25 340.79,-349.25 340.79,-349.25 337.71,-349.25 334.62,-346.17 334.62,-343.08 334.62,-343.08 334.62,-336.92 334.62,-336.92 334.62,-333.83 337.71,-330.75 340.79,-330.75 340.79,-330.75 382.46,-330.75 382.46,-330.75 385.54,-330.75 388.62,-333.83 388.62,-336.92 388.62,-336.92 388.62,-343.08 388.62,-343.08 388.62,-346.17 385.54,-349.25 382.46,-349.25"/>
<text text-anchor="start" x="344" y="-336.7" font-family="Helvetica,sans-Serif" font-size="9.00">render.ts</text>
</a>
</g>
</g>
<!-- src/internal.ts&#45;&gt;src/render.ts -->
<g id="edge18" class="edge">
<title>src/internal.ts&#45;&gt;src/render.ts</title>
<g id="a_edge18"><a xlink:title="no&#45;circular">
<path fill="none" stroke="orange" stroke-width="2" d="M129.61,-188.57C130.49,-215.39 137.01,-291.59 182,-326 187.25,-330.01 264.24,-334.87 315.42,-337.68"/>
<polygon fill="orange" stroke="orange" stroke-width="2" points="325.08,-340.3 331.18,-338.52 325.3,-336.1 325.08,-340.3"/>
<polyline fill="none" stroke="orange" stroke-width="2" points="324.19,-338.15 321.2,-337.99"/>
<ellipse fill="none" stroke="orange" stroke-width="2" cx="317.8" cy="-337.81" rx="2.4" ry="2.4"/>
</a>
</g>
<text text-anchor="middle" x="204.28" y="-323.3" font-family="Helvetica,sans-Serif" font-size="9.00" fill="orange">no&#45;circular</text>
</g>
<!-- src/helpers/ssrRenderList.ts -->
<g id="node8" class="node">
<title>src/helpers/ssrRenderList.ts</title>
<g id="a_node8"><a xlink:href="src/helpers/ssrRenderList.ts" xlink:title="ssrRenderList.ts">
<path fill="#ddfeff" stroke="black" d="M282.71,-172.25C282.71,-172.25 213.04,-172.25 213.04,-172.25 209.96,-172.25 206.88,-169.17 206.88,-166.08 206.88,-166.08 206.88,-159.92 206.88,-159.92 206.88,-156.83 209.96,-153.75 213.04,-153.75 213.04,-153.75 282.71,-153.75 282.71,-153.75 285.79,-153.75 288.88,-156.83 288.88,-159.92 288.88,-159.92 288.88,-166.08 288.88,-166.08 288.88,-169.17 285.79,-172.25 282.71,-172.25"/>
<text text-anchor="start" x="214.88" y="-159.7" font-family="Helvetica,sans-Serif" font-size="9.00">ssrRenderList.ts</text>
</a>
</g>
</g>
<!-- src/internal.ts&#45;&gt;src/helpers/ssrRenderList.ts -->
<g id="edge13" class="edge">
<title>src/internal.ts&#45;&gt;src/helpers/ssrRenderList.ts</title>
<path fill="none" stroke="#000000" stroke-width="2" stroke-opacity="0.200000" d="M156.72,-175.29C169.41,-173.56 184.88,-171.45 199.4,-169.47"/>
<polygon fill="#000000" fill-opacity="0.200000" stroke="#000000" stroke-width="2" stroke-opacity="0.200000" points="205.73,-170.73 199.5,-169.46 205.17,-166.57 205.73,-170.73"/>
</g>
<!-- src/helpers/ssrRenderSlot.ts -->
<g id="node9" class="node">
<title>src/helpers/ssrRenderSlot.ts</title>
<g id="a_node9"><a xlink:href="src/helpers/ssrRenderSlot.ts" xlink:title="ssrRenderSlot.ts">
<path fill="#ddfeff" stroke="black" d="M283.46,-203.25C283.46,-203.25 212.29,-203.25 212.29,-203.25 209.21,-203.25 206.12,-200.17 206.12,-197.08 206.12,-197.08 206.12,-190.92 206.12,-190.92 206.12,-187.83 209.21,-184.75 212.29,-184.75 212.29,-184.75 283.46,-184.75 283.46,-184.75 286.54,-184.75 289.62,-187.83 289.62,-190.92 289.62,-190.92 289.62,-197.08 289.62,-197.08 289.62,-200.17 286.54,-203.25 283.46,-203.25"/>
<text text-anchor="start" x="214.12" y="-190.7" font-family="Helvetica,sans-Serif" font-size="9.00">ssrRenderSlot.ts</text>
</a>
</g>
</g>
<!-- src/internal.ts&#45;&gt;src/helpers/ssrRenderSlot.ts -->
<g id="edge14" class="edge">
<title>src/internal.ts&#45;&gt;src/helpers/ssrRenderSlot.ts</title>
<g id="a_edge14"><a xlink:title="no&#45;circular">
<path fill="none" stroke="orange" stroke-width="2" d="M156.72,-182.48C165.98,-183.66 176.72,-185.03 187.49,-186.41"/>
<polygon fill="orange" stroke="orange" stroke-width="2" points="196.77,-189.71 202.99,-188.39 197.3,-185.55 196.77,-189.71"/>
<polyline fill="none" stroke="orange" stroke-width="2" points="196.04,-187.5 193.07,-187.12"/>
<ellipse fill="none" stroke="orange" stroke-width="2" cx="189.69" cy="-186.69" rx="2.4" ry="2.4"/>
</a>
</g>
<text text-anchor="middle" x="203.19" y="-177.09" font-family="Helvetica,sans-Serif" font-size="9.00" fill="orange">no&#45;circular</text>
</g>
<!-- src/helpers/ssrRenderSuspense.ts -->
<g id="node10" class="node">
<title>src/helpers/ssrRenderSuspense.ts</title>
<g id="a_node10"><a xlink:href="src/helpers/ssrRenderSuspense.ts" xlink:title="ssrRenderSuspense.ts">
<path fill="#ddfeff" stroke="black" d="M296.21,-234.25C296.21,-234.25 199.54,-234.25 199.54,-234.25 196.46,-234.25 193.38,-231.17 193.38,-228.08 193.38,-228.08 193.38,-221.92 193.38,-221.92 193.38,-218.83 196.46,-215.75 199.54,-215.75 199.54,-215.75 296.21,-215.75 296.21,-215.75 299.29,-215.75 302.38,-218.83 302.38,-221.92 302.38,-221.92 302.38,-228.08 302.38,-228.08 302.38,-231.17 299.29,-234.25 296.21,-234.25"/>
<text text-anchor="start" x="201.38" y="-221.7" font-family="Helvetica,sans-Serif" font-size="9.00">ssrRenderSuspense.ts</text>
</a>
</g>
</g>
<!-- src/internal.ts&#45;&gt;src/helpers/ssrRenderSuspense.ts -->
<g id="edge15" class="edge">
<title>src/internal.ts&#45;&gt;src/helpers/ssrRenderSuspense.ts</title>
<path fill="none" stroke="#000000" stroke-width="2" stroke-opacity="0.200000" d="M143.66,-188.53C153.93,-195.08 168.35,-203.54 182,-209 185.8,-210.52 189.77,-211.92 193.82,-213.21"/>
<polygon fill="#000000" fill-opacity="0.200000" stroke="#000000" stroke-width="2" stroke-opacity="0.200000" points="199.09,-217 193.95,-213.25 200.3,-212.98 199.09,-217"/>
</g>
<!-- src/helpers/ssrRenderTeleport.ts -->
<g id="node11" class="node">
<title>src/helpers/ssrRenderTeleport.ts</title>
<g id="a_node11"><a xlink:href="src/helpers/ssrRenderTeleport.ts" xlink:title="ssrRenderTeleport.ts">
<path fill="#ddfeff" stroke="black" d="M292.08,-265.25C292.08,-265.25 203.67,-265.25 203.67,-265.25 200.58,-265.25 197.5,-262.17 197.5,-259.08 197.5,-259.08 197.5,-252.92 197.5,-252.92 197.5,-249.83 200.58,-246.75 203.67,-246.75 203.67,-246.75 292.08,-246.75 292.08,-246.75 295.17,-246.75 298.25,-249.83 298.25,-252.92 298.25,-252.92 298.25,-259.08 298.25,-259.08 298.25,-262.17 295.17,-265.25 292.08,-265.25"/>
<text text-anchor="start" x="205.5" y="-252.7" font-family="Helvetica,sans-Serif" font-size="9.00">ssrRenderTeleport.ts</text>
</a>
</g>
</g>
<!-- src/internal.ts&#45;&gt;src/helpers/ssrRenderTeleport.ts -->
<g id="edge16" class="edge">
<title>src/internal.ts&#45;&gt;src/helpers/ssrRenderTeleport.ts</title>
<g id="a_edge16"><a xlink:title="no&#45;circular">
<path fill="none" stroke="orange" stroke-width="2" d="M134.97,-188.46C142.02,-199.9 155.4,-219.36 181.32,-237.34"/>
<polygon fill="orange" stroke="orange" stroke-width="2" points="188.27,-244.14 194.48,-245.53 190.49,-240.58 188.27,-244.14"/>
<polyline fill="none" stroke="orange" stroke-width="2" points="188.53,-241.83 185.98,-240.25"/>
<ellipse fill="none" stroke="orange" stroke-width="2" cx="183.1" cy="-238.45" rx="2.4" ry="2.4"/>
</a>
</g>
<text text-anchor="middle" x="140.31" y="-213.27" font-family="Helvetica,sans-Serif" font-size="9.00" fill="orange">no&#45;circular</text>
</g>
<!-- src/helpers/ssrVModelHelpers.ts -->
<g id="node12" class="node">
<title>src/helpers/ssrVModelHelpers.ts</title>
<g id="a_node12"><a xlink:href="src/helpers/ssrVModelHelpers.ts" xlink:title="ssrVModelHelpers.ts">
<path fill="#ddfeff" stroke="black" d="M292.08,-48.25C292.08,-48.25 203.67,-48.25 203.67,-48.25 200.58,-48.25 197.5,-45.17 197.5,-42.08 197.5,-42.08 197.5,-35.92 197.5,-35.92 197.5,-32.83 200.58,-29.75 203.67,-29.75 203.67,-29.75 292.08,-29.75 292.08,-29.75 295.17,-29.75 298.25,-32.83 298.25,-35.92 298.25,-35.92 298.25,-42.08 298.25,-42.08 298.25,-45.17 295.17,-48.25 292.08,-48.25"/>
<text text-anchor="start" x="205.5" y="-35.7" font-family="Helvetica,sans-Serif" font-size="9.00">ssrVModelHelpers.ts</text>
</a>
</g>
</g>
<!-- src/internal.ts&#45;&gt;src/helpers/ssrVModelHelpers.ts -->
<g id="edge17" class="edge">
<title>src/internal.ts&#45;&gt;src/helpers/ssrVModelHelpers.ts</title>
<path fill="none" stroke="#000000" stroke-width="2" stroke-opacity="0.200000" d="M130.63,-169.56C133.92,-146.31 145.71,-85.94 182,-55 184.62,-52.77 187.51,-50.83 190.56,-49.17"/>
<polygon fill="#000000" fill-opacity="0.200000" stroke="#000000" stroke-width="2" stroke-opacity="0.200000" points="197.03,-48.42 190.71,-49.1 195.23,-44.63 197.03,-48.42"/>
</g>
<!-- src/helpers/ssrRenderComponent.ts&#45;&gt;src/render.ts -->
<g id="edge2" class="edge">
<title>src/helpers/ssrRenderComponent.ts&#45;&gt;src/render.ts</title>
<g id="a_edge2"><a xlink:title="no&#45;circular">
<path fill="none" stroke="orange" stroke-width="2" d="M298.54,-141.47C301.23,-143.3 303.67,-145.46 305.75,-148 328.19,-175.48 301.41,-271.17 324.02,-320.82"/>
<polygon fill="orange" stroke="orange" stroke-width="2" points="327.5,-329.9 332.56,-333.74 331.01,-327.58 327.5,-329.9"/>
<polyline fill="none" stroke="orange" stroke-width="2" points="328.7,-327.9 327.05,-325.4"/>
<ellipse fill="none" stroke="orange" stroke-width="2" cx="325.17" cy="-322.56" rx="2.4" ry="2.4"/>
</a>
</g>
<text text-anchor="middle" x="336.2" y="-230.23" font-family="Helvetica,sans-Serif" font-size="9.00" fill="orange">no&#45;circular</text>
</g>
<!-- src/render.ts&#45;&gt;src/helpers/ssrCompile.ts -->
<g id="edge19" class="edge">
<title>src/render.ts&#45;&gt;src/helpers/ssrCompile.ts</title>
<g id="a_edge19"><a xlink:title="no&#45;circular">
<path fill="none" stroke="orange" stroke-width="2" d="M334.16,-334.63C328.63,-332.6 323.15,-329.82 318.75,-326 308.99,-317.53 315.91,-307.98 305.75,-300 304.39,-298.93 302.96,-297.95 301.47,-297.04"/>
<polygon fill="orange" stroke="orange" stroke-width="2" points="293.27,-291.47 286.92,-291.17 291.7,-295.36 293.27,-291.47"/>
<polyline fill="none" stroke="orange" stroke-width="2" points="293.41,-293.79 296.2,-294.91"/>
<ellipse fill="none" stroke="orange" stroke-width="2" cx="299.35" cy="-296.19" rx="2.4" ry="2.4"/>
</a>
</g>
<text text-anchor="middle" x="334.01" y="-303.43" font-family="Helvetica,sans-Serif" font-size="9.00" fill="orange">no&#45;circular</text>
</g>
<!-- src/render.ts&#45;&gt;src/helpers/ssrRenderAttrs.ts -->
<g id="edge20" class="edge">
<title>src/render.ts&#45;&gt;src/helpers/ssrRenderAttrs.ts</title>
<path fill="none" stroke="#000000" stroke-width="2" stroke-opacity="0.200000" d="M361.62,-330.33C361.62,-239.39 361.62,-148.44 361.62,-57.5"/>
<polygon fill="#000000" fill-opacity="0.200000" stroke="#000000" stroke-width="2" stroke-opacity="0.200000" points="363.73,-57.73 361.63,-51.73 359.53,-57.73 363.73,-57.73"/>
</g>
<!-- src/render.ts&#45;&gt;src/helpers/ssrRenderTeleport.ts -->
<g id="edge21" class="edge">
<title>src/render.ts&#45;&gt;src/helpers/ssrRenderTeleport.ts</title>
<g id="a_edge21"><a xlink:title="no&#45;circular">
<path fill="none" stroke="orange" stroke-width="2" d="M334.34,-341.47C328.54,-339.58 322.89,-336.52 318.75,-332 302.06,-313.81 322.87,-295.78 305.75,-278 304.33,-276.52 302.78,-275.18 301.14,-273.95"/>
<polygon fill="orange" stroke="orange" stroke-width="2" points="293.51,-267.84 287.2,-267.06 291.65,-271.61 293.51,-267.84"/>
<polyline fill="none" stroke="orange" stroke-width="2" points="293.48,-270.17 296.17,-271.5"/>
<ellipse fill="none" stroke="orange" stroke-width="2" cx="299.22" cy="-273" rx="2.4" ry="2.4"/>
</a>
</g>
<text text-anchor="middle" x="290.75" y="-295.45" font-family="Helvetica,sans-Serif" font-size="9.00" fill="orange">no&#45;circular</text>
</g>
<!-- src/helpers/ssrRenderSlot.ts&#45;&gt;src/render.ts -->
<g id="edge3" class="edge">
<title>src/helpers/ssrRenderSlot.ts&#45;&gt;src/render.ts</title>
<g id="a_edge3"><a xlink:title="no&#45;circular">
<path fill="none" stroke="orange" stroke-width="2" d="M289.98,-199.17C296,-201.6 301.57,-205.07 305.75,-210 335.99,-245.6 295.87,-278.43 322.78,-321.48"/>
<polygon fill="orange" stroke="orange" stroke-width="2" points="327.12,-330.38 332.49,-333.79 330.42,-327.78 327.12,-330.38"/>
<polyline fill="none" stroke="orange" stroke-width="2" points="328.15,-328.29 326.3,-325.93"/>
<ellipse fill="none" stroke="orange" stroke-width="2" cx="324.19" cy="-323.27" rx="2.4" ry="2.4"/>
</a>
</g>
<text text-anchor="middle" x="336.46" y="-259.5" font-family="Helvetica,sans-Serif" font-size="9.00" fill="orange">no&#45;circular</text>
</g>
<!-- src/helpers/ssrRenderTeleport.ts&#45;&gt;src/render.ts -->
<g id="edge4" class="edge">
<title>src/helpers/ssrRenderTeleport.ts&#45;&gt;src/render.ts</title>
<g id="a_edge4"><a xlink:title="no&#45;circular">
<path fill="none" stroke="orange" stroke-width="2" d="M298.6,-260.22C301.2,-261.87 303.62,-263.78 305.75,-266 322.87,-283.78 302.06,-301.81 318.75,-320 319.03,-320.3 319.31,-320.6 319.61,-320.89"/>
<polygon fill="orange" stroke="orange" stroke-width="2" points="326.8,-327.56 333.04,-328.8 328.93,-323.94 326.8,-327.56"/>
<polyline fill="none" stroke="orange" stroke-width="2" points="327.01,-325.25 324.42,-323.73"/>
<ellipse fill="none" stroke="orange" stroke-width="2" cx="321.49" cy="-322" rx="2.4" ry="2.4"/>
</a>
</g>
<text text-anchor="middle" x="333.94" y="-286.41" font-family="Helvetica,sans-Serif" font-size="9.00" fill="orange">no&#45;circular</text>
</g>
<!-- src/helpers/ssrVModelHelpers.ts&#45;&gt;src/helpers/ssrRenderAttrs.ts -->
<g id="edge5" class="edge">
<title>src/helpers/ssrVModelHelpers.ts&#45;&gt;src/helpers/ssrRenderAttrs.ts</title>
<path fill="none" stroke="#000000" stroke-width="2" stroke-opacity="0.200000" d="M298.54,-39C302.18,-39 305.84,-39 309.49,-39"/>
<polygon fill="#000000" fill-opacity="0.200000" stroke="#000000" stroke-width="2" stroke-opacity="0.200000" points="309.42,-41.1 315.42,-39 309.42,-36.9 309.42,-41.1"/>
</g>
<!-- src/index.ts -->
<g id="node13" class="node">
<title>src/index.ts</title>
<g id="a_node13"><a xlink:href="src/index.ts" xlink:title="index.ts">
<path fill="#ddfeff" stroke="black" d="M63.83,-355.25C63.83,-355.25 22.17,-355.25 22.17,-355.25 19.08,-355.25 16,-352.17 16,-349.08 16,-349.08 16,-342.92 16,-342.92 16,-339.83 19.08,-336.75 22.17,-336.75 22.17,-336.75 63.83,-336.75 63.83,-336.75 66.92,-336.75 70,-339.83 70,-342.92 70,-342.92 70,-349.08 70,-349.08 70,-352.17 66.92,-355.25 63.83,-355.25"/>
<text text-anchor="start" x="27.25" y="-342.7" font-family="Helvetica,sans-Serif" font-size="9.00">index.ts</text>
</a>
</g>
</g>
<!-- src/index.ts&#45;&gt;src/internal.ts -->
<g id="edge6" class="edge">
<title>src/index.ts&#45;&gt;src/internal.ts</title>
<path fill="none" stroke="#000000" stroke-width="2" stroke-opacity="0.200000" d="M48.73,-336.54C62.51,-308.99 102.72,-228.56 119.74,-194.52"/>
<polygon fill="#000000" fill-opacity="0.200000" stroke="#000000" stroke-width="2" stroke-opacity="0.200000" points="124.25,-190.19 119.69,-194.61 120.5,-188.31 124.25,-190.19"/>
</g>
<!-- src/renderToStream.ts -->
<g id="node14" class="node">
<title>src/renderToStream.ts</title>
<g id="a_node14"><a xlink:href="src/renderToStream.ts" xlink:title="renderToStream.ts">
<path fill="#ddfeff" stroke="black" d="M167.83,-355.25C167.83,-355.25 89.17,-355.25 89.17,-355.25 86.08,-355.25 83,-352.17 83,-349.08 83,-349.08 83,-342.92 83,-342.92 83,-339.83 86.08,-336.75 89.17,-336.75 89.17,-336.75 167.83,-336.75 167.83,-336.75 170.92,-336.75 174,-339.83 174,-342.92 174,-342.92 174,-349.08 174,-349.08 174,-352.17 170.92,-355.25 167.83,-355.25"/>
<text text-anchor="start" x="91" y="-342.7" font-family="Helvetica,sans-Serif" font-size="9.00">renderToStream.ts</text>
</a>
</g>
</g>
<!-- src/index.ts&#45;&gt;src/renderToStream.ts -->
<g id="edge7" class="edge">
<title>src/index.ts&#45;&gt;src/renderToStream.ts</title>
<path fill="none" stroke="#000000" stroke-width="2" stroke-opacity="0.200000" d="M70.42,-346C72.13,-346 73.89,-346 75.67,-346"/>
<polygon fill="#000000" fill-opacity="0.200000" stroke="#000000" stroke-width="2" stroke-opacity="0.200000" points="81.63,-348.1 75.63,-346 81.63,-343.9 81.63,-348.1"/>
</g>
<!-- src/renderToString.ts -->
<g id="node15" class="node">
<title>src/renderToString.ts</title>
<g id="a_node15"><a xlink:href="src/renderToString.ts" xlink:title="renderToString.ts">
<path fill="#ddfeff" stroke="black" d="M284.58,-377.25C284.58,-377.25 211.17,-377.25 211.17,-377.25 208.08,-377.25 205,-374.17 205,-371.08 205,-371.08 205,-364.92 205,-364.92 205,-361.83 208.08,-358.75 211.17,-358.75 211.17,-358.75 284.58,-358.75 284.58,-358.75 287.67,-358.75 290.75,-361.83 290.75,-364.92 290.75,-364.92 290.75,-371.08 290.75,-371.08 290.75,-374.17 287.67,-377.25 284.58,-377.25"/>
<text text-anchor="start" x="213" y="-364.7" font-family="Helvetica,sans-Serif" font-size="9.00">renderToString.ts</text>
</a>
</g>
</g>
<!-- src/index.ts&#45;&gt;src/renderToString.ts -->
<g id="edge8" class="edge">
<title>src/index.ts&#45;&gt;src/renderToString.ts</title>
<path fill="none" stroke="#000000" stroke-width="2" stroke-opacity="0.200000" d="M65.49,-355.69C71.08,-357.82 77.18,-359.79 83,-361 121,-368.9 164.99,-370.37 197.82,-370.02"/>
<polygon fill="#000000" fill-opacity="0.200000" stroke="#000000" stroke-width="2" stroke-opacity="0.200000" points="203.69,-372.03 197.65,-370.02 203.62,-367.83 203.69,-372.03"/>
</g>
<!-- src/renderToStream.ts&#45;&gt;src/render.ts -->
<g id="edge22" class="edge">
<title>src/renderToStream.ts&#45;&gt;src/render.ts</title>
<path fill="none" stroke="#000000" stroke-width="2" stroke-opacity="0.200000" d="M174.34,-344.84C218.42,-343.69 284.83,-341.97 325.3,-340.92"/>
<polygon fill="#000000" fill-opacity="0.200000" stroke="#000000" stroke-width="2" stroke-opacity="0.200000" points="325.29,-343.02 331.24,-340.76 325.18,-338.82 325.29,-343.02"/>
</g>
<!-- src/renderToStream.ts&#45;&gt;src/renderToString.ts -->
<g id="edge23" class="edge">
<title>src/renderToStream.ts&#45;&gt;src/renderToString.ts</title>
<path fill="none" stroke="#000000" stroke-width="2" stroke-opacity="0.200000" d="M174.21,-354.38C181.38,-355.72 188.85,-357.12 196.15,-358.49"/>
<polygon fill="#000000" fill-opacity="0.200000" stroke="#000000" stroke-width="2" stroke-opacity="0.200000" points="195.35,-360.48 201.63,-359.52 196.12,-356.35 195.35,-360.48"/>
</g>
<!-- src/renderToString.ts&#45;&gt;src/render.ts -->
<g id="edge24" class="edge">
<title>src/renderToString.ts&#45;&gt;src/render.ts</title>
<path fill="none" stroke="#000000" stroke-width="2" stroke-opacity="0.200000" d="M287.65,-358.29C300.02,-355.18 313.64,-351.77 325.73,-348.74"/>
<polygon fill="#000000" fill-opacity="0.200000" stroke="#000000" stroke-width="2" stroke-opacity="0.200000" points="325.97,-350.85 331.28,-347.35 324.95,-346.77 325.97,-350.85"/>
</g>
</g>
</svg>
