<?xml version="1.0" encoding="UTF-8" standalone="no"?>
<!DOCTYPE svg PUBLIC "-//W3C//DTD SVG 1.1//EN"
 "http://www.w3.org/Graphics/SVG/1.1/DTD/svg11.dtd">
<!-- Generated by graphviz version 12.2.1 (20241206.2353)
 -->
<!-- Title: dependency&#45;cruiser output Pages: 1 -->
<svg width="623pt" height="372pt"
 viewBox="0.00 0.00 622.50 371.68" xmlns="http://www.w3.org/2000/svg" xmlns:xlink="http://www.w3.org/1999/xlink">
<g id="graph0" class="graph" transform="scale(1 1) rotate(0) translate(4 367.68)">
<title>dependency&#45;cruiser output</title>
<polygon fill="white" stroke="none" points="-4,4 -4,-367.68 618.5,-367.68 618.5,4 -4,4"/>
<g id="clust1" class="cluster">
<title>cluster_src</title>
<path fill="#ffffff" stroke="black" stroke-width="2" d="M20,-8C20,-8 594.5,-8 594.5,-8 600.5,-8 606.5,-14 606.5,-20 606.5,-20 606.5,-341 606.5,-341 606.5,-347 600.5,-353 594.5,-353 594.5,-353 20,-353 20,-353 14,-353 8,-347 8,-341 8,-341 8,-20 8,-20 8,-14 14,-8 20,-8"/>
<text text-anchor="middle" x="307.25" y="-340.45" font-family="Helvetica,sans-Serif" font-weight="bold" font-size="9.00">src</text>
</g>
<g id="clust2" class="cluster">
<title>cluster_src/transforms</title>
<path fill="#ffffff" stroke="black" stroke-width="2" d="M90,-16C90,-16 490.5,-16 490.5,-16 496.5,-16 502.5,-22 502.5,-28 502.5,-28 502.5,-274 502.5,-274 502.5,-280 496.5,-286 490.5,-286 490.5,-286 90,-286 90,-286 84,-286 78,-280 78,-274 78,-274 78,-28 78,-28 78,-22 84,-16 90,-16"/>
<text text-anchor="middle" x="290.25" y="-273.45" font-family="Helvetica,sans-Serif" font-weight="bold" font-size="9.00">transforms</text>
</g>
<!-- src/errors.ts -->
<g id="node1" class="node">
<title>src/errors.ts</title>
<g id="a_node1"><a xlink:href="src/errors.ts" xlink:title="errors.ts">
<path fill="#ddfeff" stroke="black" d="M575.33,-259.25C575.33,-259.25 533.67,-259.25 533.67,-259.25 530.58,-259.25 527.5,-256.17 527.5,-253.08 527.5,-253.08 527.5,-246.92 527.5,-246.92 527.5,-243.83 530.58,-240.75 533.67,-240.75 533.67,-240.75 575.33,-240.75 575.33,-240.75 578.42,-240.75 581.5,-243.83 581.5,-246.92 581.5,-246.92 581.5,-253.08 581.5,-253.08 581.5,-256.17 578.42,-259.25 575.33,-259.25"/>
<text text-anchor="start" x="538" y="-246.7" font-family="Helvetica,sans-Serif" font-size="9.00">errors.ts</text>
</a>
</g>
</g>
<!-- src/index.ts -->
<g id="node2" class="node">
<title>src/index.ts</title>
<g id="a_node2"><a xlink:href="src/index.ts" xlink:title="index.ts">
<path fill="#ddfeff" stroke="black" d="M63.83,-181.25C63.83,-181.25 22.17,-181.25 22.17,-181.25 19.08,-181.25 16,-178.17 16,-175.08 16,-175.08 16,-168.92 16,-168.92 16,-165.83 19.08,-162.75 22.17,-162.75 22.17,-162.75 63.83,-162.75 63.83,-162.75 66.92,-162.75 70,-165.83 70,-168.92 70,-168.92 70,-175.08 70,-175.08 70,-178.17 66.92,-181.25 63.83,-181.25"/>
<text text-anchor="start" x="27.25" y="-168.7" font-family="Helvetica,sans-Serif" font-size="9.00">index.ts</text>
</a>
</g>
</g>
<!-- src/ssrCodegenTransform.ts -->
<g id="node3" class="node">
<title>src/ssrCodegenTransform.ts</title>
<g id="a_node3"><a xlink:href="src/ssrCodegenTransform.ts" xlink:title="ssrCodegenTransform.ts">
<path fill="#ddfeff" stroke="black" d="M349.46,-312.25C349.46,-312.25 245.29,-312.25 245.29,-312.25 242.21,-312.25 239.12,-309.17 239.12,-306.08 239.12,-306.08 239.12,-299.92 239.12,-299.92 239.12,-296.83 242.21,-293.75 245.29,-293.75 245.29,-293.75 349.46,-293.75 349.46,-293.75 352.54,-293.75 355.62,-296.83 355.62,-299.92 355.62,-299.92 355.62,-306.08 355.62,-306.08 355.62,-309.17 352.54,-312.25 349.46,-312.25"/>
<text text-anchor="start" x="247.12" y="-299.7" font-family="Helvetica,sans-Serif" font-size="9.00">ssrCodegenTransform.ts</text>
</a>
</g>
</g>
<!-- src/index.ts&#45;&gt;src/ssrCodegenTransform.ts -->
<g id="edge1" class="edge">
<title>src/index.ts&#45;&gt;src/ssrCodegenTransform.ts</title>
<path fill="none" stroke="#000000" stroke-width="2" stroke-opacity="0.200000" d="M43.46,-181.51C42.75,-204.31 44.5,-262.13 78,-289 125.99,-327.49 200.63,-322.89 249.02,-314.31"/>
<polygon fill="#000000" fill-opacity="0.200000" stroke="#000000" stroke-width="2" stroke-opacity="0.200000" points="249.25,-316.4 254.76,-313.23 248.47,-312.28 249.25,-316.4"/>
</g>
<!-- src/transforms/ssrInjectCssVars.ts -->
<g id="node4" class="node">
<title>src/transforms/ssrInjectCssVars.ts</title>
<g id="a_node4"><a xlink:href="src/transforms/ssrInjectCssVars.ts" xlink:title="ssrInjectCssVars.ts">
<path fill="#ddfeff" stroke="black" d="M189.21,-228.25C189.21,-228.25 109.04,-228.25 109.04,-228.25 105.96,-228.25 102.88,-225.17 102.88,-222.08 102.88,-222.08 102.88,-215.92 102.88,-215.92 102.88,-212.83 105.96,-209.75 109.04,-209.75 109.04,-209.75 189.21,-209.75 189.21,-209.75 192.29,-209.75 195.38,-212.83 195.38,-215.92 195.38,-215.92 195.38,-222.08 195.38,-222.08 195.38,-225.17 192.29,-228.25 189.21,-228.25"/>
<text text-anchor="start" x="110.88" y="-215.7" font-family="Helvetica,sans-Serif" font-size="9.00">ssrInjectCssVars.ts</text>
</a>
</g>
</g>
<!-- src/index.ts&#45;&gt;src/transforms/ssrInjectCssVars.ts -->
<g id="edge2" class="edge">
<title>src/index.ts&#45;&gt;src/transforms/ssrInjectCssVars.ts</title>
<path fill="none" stroke="#000000" stroke-width="2" stroke-opacity="0.200000" d="M51.98,-181.55C58.32,-188.53 67.81,-197.67 78,-203 82.94,-205.58 88.29,-207.75 93.75,-209.57"/>
<polygon fill="#000000" fill-opacity="0.200000" stroke="#000000" stroke-width="2" stroke-opacity="0.200000" points="93.14,-211.58 99.49,-211.29 94.34,-207.56 93.14,-211.58"/>
</g>
<!-- src/transforms/ssrInjectFallthroughAttrs.ts -->
<g id="node5" class="node">
<title>src/transforms/ssrInjectFallthroughAttrs.ts</title>
<g id="a_node5"><a xlink:href="src/transforms/ssrInjectFallthroughAttrs.ts" xlink:title="ssrInjectFallthroughAttrs.ts">
<path fill="#ddfeff" stroke="black" d="M204.58,-259.25C204.58,-259.25 93.67,-259.25 93.67,-259.25 90.58,-259.25 87.5,-256.17 87.5,-253.08 87.5,-253.08 87.5,-246.92 87.5,-246.92 87.5,-243.83 90.58,-240.75 93.67,-240.75 93.67,-240.75 204.58,-240.75 204.58,-240.75 207.67,-240.75 210.75,-243.83 210.75,-246.92 210.75,-246.92 210.75,-253.08 210.75,-253.08 210.75,-256.17 207.67,-259.25 204.58,-259.25"/>
<text text-anchor="start" x="95.5" y="-246.7" font-family="Helvetica,sans-Serif" font-size="9.00">ssrInjectFallthroughAttrs.ts</text>
</a>
</g>
</g>
<!-- src/index.ts&#45;&gt;src/transforms/ssrInjectFallthroughAttrs.ts -->
<g id="edge3" class="edge">
<title>src/index.ts&#45;&gt;src/transforms/ssrInjectFallthroughAttrs.ts</title>
<path fill="none" stroke="#000000" stroke-width="2" stroke-opacity="0.200000" d="M46.55,-181.63C50.72,-195.44 60.37,-220.68 78,-234 78.92,-234.7 79.87,-235.37 80.85,-236.01"/>
<polygon fill="#000000" fill-opacity="0.200000" stroke="#000000" stroke-width="2" stroke-opacity="0.200000" points="79.78,-237.81 86.04,-238.91 81.82,-234.15 79.78,-237.81"/>
</g>
<!-- src/transforms/ssrTransformComponent.ts -->
<g id="node6" class="node">
<title>src/transforms/ssrTransformComponent.ts</title>
<g id="a_node6"><a xlink:href="src/transforms/ssrTransformComponent.ts" xlink:title="ssrTransformComponent.ts">
<path fill="#ddfeff" stroke="black" d="M206.08,-73.25C206.08,-73.25 92.17,-73.25 92.17,-73.25 89.08,-73.25 86,-70.17 86,-67.08 86,-67.08 86,-60.92 86,-60.92 86,-57.83 89.08,-54.75 92.17,-54.75 92.17,-54.75 206.08,-54.75 206.08,-54.75 209.17,-54.75 212.25,-57.83 212.25,-60.92 212.25,-60.92 212.25,-67.08 212.25,-67.08 212.25,-70.17 209.17,-73.25 206.08,-73.25"/>
<text text-anchor="start" x="94" y="-60.7" font-family="Helvetica,sans-Serif" font-size="9.00">ssrTransformComponent.ts</text>
</a>
</g>
</g>
<!-- src/index.ts&#45;&gt;src/transforms/ssrTransformComponent.ts -->
<g id="edge4" class="edge">
<title>src/index.ts&#45;&gt;src/transforms/ssrTransformComponent.ts</title>
<path fill="none" stroke="#000000" stroke-width="2" stroke-opacity="0.200000" d="M44.65,-162.26C46.45,-143.39 53.18,-101.8 78,-80 78.62,-79.46 79.25,-78.94 79.89,-78.43"/>
<polygon fill="#000000" fill-opacity="0.200000" stroke="#000000" stroke-width="2" stroke-opacity="0.200000" points="80.84,-80.31 84.71,-75.27 78.54,-76.8 80.84,-80.31"/>
</g>
<!-- src/transforms/ssrTransformElement.ts -->
<g id="node7" class="node">
<title>src/transforms/ssrTransformElement.ts</title>
<g id="a_node7"><a xlink:href="src/transforms/ssrTransformElement.ts" xlink:title="ssrTransformElement.ts">
<path fill="#ddfeff" stroke="black" d="M488.33,-259.25C488.33,-259.25 388.67,-259.25 388.67,-259.25 385.58,-259.25 382.5,-256.17 382.5,-253.08 382.5,-253.08 382.5,-246.92 382.5,-246.92 382.5,-243.83 385.58,-240.75 388.67,-240.75 388.67,-240.75 488.33,-240.75 488.33,-240.75 491.42,-240.75 494.5,-243.83 494.5,-246.92 494.5,-246.92 494.5,-253.08 494.5,-253.08 494.5,-256.17 491.42,-259.25 488.33,-259.25"/>
<text text-anchor="start" x="390.5" y="-246.7" font-family="Helvetica,sans-Serif" font-size="9.00">ssrTransformElement.ts</text>
</a>
</g>
</g>
<!-- src/index.ts&#45;&gt;src/transforms/ssrTransformElement.ts -->
<g id="edge5" class="edge">
<title>src/index.ts&#45;&gt;src/transforms/ssrTransformElement.ts</title>
<path fill="none" stroke="#000000" stroke-width="2" stroke-opacity="0.200000" d="M44.94,-181.68C47.92,-210.12 58.13,-292.46 78,-309 177.61,-391.93 249.75,-367.6 369.5,-318 394.29,-307.73 414.75,-283.56 426.55,-266.98"/>
<polygon fill="#000000" fill-opacity="0.200000" stroke="#000000" stroke-width="2" stroke-opacity="0.200000" points="428.27,-268.19 429.92,-262.05 424.8,-265.82 428.27,-268.19"/>
</g>
<!-- src/transforms/ssrTransformSlotOutlet.ts -->
<g id="node8" class="node">
<title>src/transforms/ssrTransformSlotOutlet.ts</title>
<g id="a_node8"><a xlink:href="src/transforms/ssrTransformSlotOutlet.ts" xlink:title="ssrTransformSlotOutlet.ts">
<path fill="#ddfeff" stroke="black" d="M201.96,-104.25C201.96,-104.25 96.29,-104.25 96.29,-104.25 93.21,-104.25 90.12,-101.17 90.12,-98.08 90.12,-98.08 90.12,-91.92 90.12,-91.92 90.12,-88.83 93.21,-85.75 96.29,-85.75 96.29,-85.75 201.96,-85.75 201.96,-85.75 205.04,-85.75 208.12,-88.83 208.12,-91.92 208.12,-91.92 208.12,-98.08 208.12,-98.08 208.12,-101.17 205.04,-104.25 201.96,-104.25"/>
<text text-anchor="start" x="98.12" y="-91.7" font-family="Helvetica,sans-Serif" font-size="9.00">ssrTransformSlotOutlet.ts</text>
</a>
</g>
</g>
<!-- src/index.ts&#45;&gt;src/transforms/ssrTransformSlotOutlet.ts -->
<g id="edge6" class="edge">
<title>src/index.ts&#45;&gt;src/transforms/ssrTransformSlotOutlet.ts</title>
<path fill="none" stroke="#000000" stroke-width="2" stroke-opacity="0.200000" d="M46.59,-162.52C50.82,-148.93 60.54,-124.09 78,-111 79.24,-110.07 80.52,-109.2 81.84,-108.37"/>
<polygon fill="#000000" fill-opacity="0.200000" stroke="#000000" stroke-width="2" stroke-opacity="0.200000" points="82.76,-110.26 87.07,-105.59 80.78,-106.55 82.76,-110.26"/>
</g>
<!-- src/transforms/ssrVFor.ts -->
<g id="node9" class="node">
<title>src/transforms/ssrVFor.ts</title>
<g id="a_node9"><a xlink:href="src/transforms/ssrVFor.ts" xlink:title="ssrVFor.ts">
<path fill="#ddfeff" stroke="black" d="M170.83,-135.25C170.83,-135.25 127.42,-135.25 127.42,-135.25 124.33,-135.25 121.25,-132.17 121.25,-129.08 121.25,-129.08 121.25,-122.92 121.25,-122.92 121.25,-119.83 124.33,-116.75 127.42,-116.75 127.42,-116.75 170.83,-116.75 170.83,-116.75 173.92,-116.75 177,-119.83 177,-122.92 177,-122.92 177,-129.08 177,-129.08 177,-132.17 173.92,-135.25 170.83,-135.25"/>
<text text-anchor="start" x="129.25" y="-122.7" font-family="Helvetica,sans-Serif" font-size="9.00">ssrVFor.ts</text>
</a>
</g>
</g>
<!-- src/index.ts&#45;&gt;src/transforms/ssrVFor.ts -->
<g id="edge7" class="edge">
<title>src/index.ts&#45;&gt;src/transforms/ssrVFor.ts</title>
<path fill="none" stroke="#000000" stroke-width="2" stroke-opacity="0.200000" d="M52.3,-162.48C58.68,-155.77 68.05,-147.1 78,-142 88.52,-136.61 100.85,-133.01 112.22,-130.63"/>
<polygon fill="#000000" fill-opacity="0.200000" stroke="#000000" stroke-width="2" stroke-opacity="0.200000" points="112.59,-132.7 118.1,-129.52 111.81,-128.57 112.59,-132.7"/>
</g>
<!-- src/transforms/ssrVIf.ts -->
<g id="node10" class="node">
<title>src/transforms/ssrVIf.ts</title>
<g id="a_node10"><a xlink:href="src/transforms/ssrVIf.ts" xlink:title="ssrVIf.ts">
<path fill="#ddfeff" stroke="black" d="M169.96,-166.25C169.96,-166.25 128.29,-166.25 128.29,-166.25 125.21,-166.25 122.12,-163.17 122.12,-160.08 122.12,-160.08 122.12,-153.92 122.12,-153.92 122.12,-150.83 125.21,-147.75 128.29,-147.75 128.29,-147.75 169.96,-147.75 169.96,-147.75 173.04,-147.75 176.12,-150.83 176.12,-153.92 176.12,-153.92 176.12,-160.08 176.12,-160.08 176.12,-163.17 173.04,-166.25 169.96,-166.25"/>
<text text-anchor="start" x="133.38" y="-153.7" font-family="Helvetica,sans-Serif" font-size="9.00">ssrVIf.ts</text>
</a>
</g>
</g>
<!-- src/index.ts&#45;&gt;src/transforms/ssrVIf.ts -->
<g id="edge8" class="edge">
<title>src/index.ts&#45;&gt;src/transforms/ssrVIf.ts</title>
<path fill="none" stroke="#000000" stroke-width="2" stroke-opacity="0.200000" d="M70.28,-168.21C83.22,-166.35 99.02,-164.07 112.99,-162.06"/>
<polygon fill="#000000" fill-opacity="0.200000" stroke="#000000" stroke-width="2" stroke-opacity="0.200000" points="113.22,-164.15 118.86,-161.22 112.62,-159.99 113.22,-164.15"/>
</g>
<!-- src/transforms/ssrVModel.ts -->
<g id="node11" class="node">
<title>src/transforms/ssrVModel.ts</title>
<g id="a_node11"><a xlink:href="src/transforms/ssrVModel.ts" xlink:title="ssrVModel.ts">
<path fill="#ddfeff" stroke="black" d="M177.21,-42.25C177.21,-42.25 121.04,-42.25 121.04,-42.25 117.96,-42.25 114.88,-39.17 114.88,-36.08 114.88,-36.08 114.88,-29.92 114.88,-29.92 114.88,-26.83 117.96,-23.75 121.04,-23.75 121.04,-23.75 177.21,-23.75 177.21,-23.75 180.29,-23.75 183.38,-26.83 183.38,-29.92 183.38,-29.92 183.38,-36.08 183.38,-36.08 183.38,-39.17 180.29,-42.25 177.21,-42.25"/>
<text text-anchor="start" x="122.88" y="-29.7" font-family="Helvetica,sans-Serif" font-size="9.00">ssrVModel.ts</text>
</a>
</g>
</g>
<!-- src/index.ts&#45;&gt;src/transforms/ssrVModel.ts -->
<g id="edge9" class="edge">
<title>src/index.ts&#45;&gt;src/transforms/ssrVModel.ts</title>
<path fill="none" stroke="#000000" stroke-width="2" stroke-opacity="0.200000" d="M43.59,-162.36C43.16,-139.21 45.49,-80.07 78,-49 85.62,-41.72 95.83,-37.5 106.1,-35.12"/>
<polygon fill="#000000" fill-opacity="0.200000" stroke="#000000" stroke-width="2" stroke-opacity="0.200000" points="106.2,-37.23 111.71,-34.07 105.43,-33.11 106.2,-37.23"/>
</g>
<!-- src/transforms/ssrVShow.ts -->
<g id="node12" class="node">
<title>src/transforms/ssrVShow.ts</title>
<g id="a_node12"><a xlink:href="src/transforms/ssrVShow.ts" xlink:title="ssrVShow.ts">
<path fill="#ddfeff" stroke="black" d="M175.71,-197.25C175.71,-197.25 122.54,-197.25 122.54,-197.25 119.46,-197.25 116.38,-194.17 116.38,-191.08 116.38,-191.08 116.38,-184.92 116.38,-184.92 116.38,-181.83 119.46,-178.75 122.54,-178.75 122.54,-178.75 175.71,-178.75 175.71,-178.75 178.79,-178.75 181.88,-181.83 181.88,-184.92 181.88,-184.92 181.88,-191.08 181.88,-191.08 181.88,-194.17 178.79,-197.25 175.71,-197.25"/>
<text text-anchor="start" x="124.38" y="-184.7" font-family="Helvetica,sans-Serif" font-size="9.00">ssrVShow.ts</text>
</a>
</g>
</g>
<!-- src/index.ts&#45;&gt;src/transforms/ssrVShow.ts -->
<g id="edge10" class="edge">
<title>src/index.ts&#45;&gt;src/transforms/ssrVShow.ts</title>
<path fill="none" stroke="#000000" stroke-width="2" stroke-opacity="0.200000" d="M70.28,-176.04C81.43,-177.75 94.69,-179.79 107.08,-181.69"/>
<polygon fill="#000000" fill-opacity="0.200000" stroke="#000000" stroke-width="2" stroke-opacity="0.200000" points="106.66,-183.75 112.91,-182.59 107.3,-179.6 106.66,-183.75"/>
</g>
<!-- src/ssrCodegenTransform.ts&#45;&gt;src/errors.ts -->
<g id="edge11" class="edge">
<title>src/ssrCodegenTransform.ts&#45;&gt;src/errors.ts</title>
<path fill="none" stroke="#000000" stroke-width="2" stroke-opacity="0.200000" d="M355.65,-312.73C397.87,-317.37 455.83,-318.32 502.5,-299 518.69,-292.3 532.68,-277.84 541.89,-266.35"/>
<polygon fill="#000000" fill-opacity="0.200000" stroke="#000000" stroke-width="2" stroke-opacity="0.200000" points="543.43,-267.8 545.4,-261.75 540.09,-265.25 543.43,-267.8"/>
</g>
<!-- src/ssrCodegenTransform.ts&#45;&gt;src/transforms/ssrTransformComponent.ts -->
<g id="edge13" class="edge">
<title>src/ssrCodegenTransform.ts&#45;&gt;src/transforms/ssrTransformComponent.ts</title>
<g id="a_edge13"><a xlink:title="no&#45;circular">
<path fill="none" stroke="orange" stroke-width="2" d="M238.67,-304.8C233.6,-302.46 228.98,-299.26 225.25,-295 194.59,-259.99 241.89,-121.88 212.25,-86 211.42,-85 210.54,-84.05 209.61,-83.16"/>
<polygon fill="orange" stroke="orange" stroke-width="2" points="202.46,-76.46 196.23,-75.2 200.31,-80.07 202.46,-76.46"/>
<polyline fill="none" stroke="orange" stroke-width="2" points="202.24,-78.78 204.82,-80.31"/>
<ellipse fill="none" stroke="orange" stroke-width="2" cx="207.74" cy="-82.05" rx="2.4" ry="2.4"/>
</a>
</g>
<text text-anchor="middle" x="240.27" y="-183.38" font-family="Helvetica,sans-Serif" font-size="9.00" fill="orange">no&#45;circular</text>
</g>
<!-- src/ssrCodegenTransform.ts&#45;&gt;src/transforms/ssrTransformElement.ts -->
<g id="edge14" class="edge">
<title>src/ssrCodegenTransform.ts&#45;&gt;src/transforms/ssrTransformElement.ts</title>
<g id="a_edge14"><a xlink:title="no&#45;circular">
<path fill="none" stroke="orange" stroke-width="2" d="M355.92,-302.55C360.78,-300.61 365.39,-298.13 369.5,-295 379.78,-287.17 372.37,-277.02 382.5,-269 383.09,-268.53 383.69,-268.08 384.31,-267.65"/>
<polygon fill="orange" stroke="orange" stroke-width="2" points="393.84,-265.48 398.38,-261.03 392.05,-261.68 393.84,-265.48"/>
<polyline fill="none" stroke="orange" stroke-width="2" points="392.04,-264.01 389.33,-265.29"/>
<ellipse fill="none" stroke="orange" stroke-width="2" cx="386.25" cy="-266.73" rx="2.4" ry="2.4"/>
</a>
</g>
<text text-anchor="middle" x="354.51" y="-272.25" font-family="Helvetica,sans-Serif" font-size="9.00" fill="orange">no&#45;circular</text>
</g>
<!-- src/ssrCodegenTransform.ts&#45;&gt;src/transforms/ssrTransformSlotOutlet.ts -->
<g id="edge15" class="edge">
<title>src/ssrCodegenTransform.ts&#45;&gt;src/transforms/ssrTransformSlotOutlet.ts</title>
<g id="a_edge15"><a xlink:title="no&#45;circular">
<path fill="none" stroke="orange" stroke-width="2" d="M238.72,-304.75C233.64,-302.42 229,-299.24 225.25,-295 198.96,-265.31 237.67,-147.44 212.25,-117 211.42,-116 210.53,-115.06 209.59,-114.17"/>
<polygon fill="orange" stroke="orange" stroke-width="2" points="202.41,-107.48 196.18,-106.24 200.27,-111.1 202.41,-107.48"/>
<polyline fill="none" stroke="orange" stroke-width="2" points="202.2,-109.8 204.79,-111.33"/>
<ellipse fill="none" stroke="orange" stroke-width="2" cx="207.71" cy="-113.06" rx="2.4" ry="2.4"/>
</a>
</g>
<text text-anchor="middle" x="196.79" y="-196.43" font-family="Helvetica,sans-Serif" font-size="9.00" fill="orange">no&#45;circular</text>
</g>
<!-- src/ssrCodegenTransform.ts&#45;&gt;src/transforms/ssrVFor.ts -->
<g id="edge16" class="edge">
<title>src/ssrCodegenTransform.ts&#45;&gt;src/transforms/ssrVFor.ts</title>
<g id="a_edge16"><a xlink:title="no&#45;circular">
<path fill="none" stroke="orange" stroke-width="2" d="M238.79,-304.7C233.69,-302.37 229.04,-299.21 225.25,-295 203.32,-270.61 233.46,-173.01 212.25,-148 207.8,-142.75 201.88,-139.11 195.46,-136.51"/>
<polygon fill="orange" stroke="orange" stroke-width="2" points="186.67,-131.95 180.33,-132.4 185.57,-136 186.67,-131.95"/>
<polyline fill="none" stroke="orange" stroke-width="2" points="187.09,-134.24 189.98,-135.02"/>
<ellipse fill="none" stroke="orange" stroke-width="2" cx="193.26" cy="-135.91" rx="2.4" ry="2.4"/>
</a>
</g>
<text text-anchor="middle" x="240.43" y="-212.94" font-family="Helvetica,sans-Serif" font-size="9.00" fill="orange">no&#45;circular</text>
</g>
<!-- src/ssrCodegenTransform.ts&#45;&gt;src/transforms/ssrVIf.ts -->
<g id="edge17" class="edge">
<title>src/ssrCodegenTransform.ts&#45;&gt;src/transforms/ssrVIf.ts</title>
<g id="a_edge17"><a xlink:title="no&#45;circular">
<path fill="none" stroke="orange" stroke-width="2" d="M238.89,-304.6C233.77,-302.3 229.09,-299.17 225.25,-295 190.12,-256.83 246.27,-218.17 212.25,-179 207.56,-173.59 201.3,-169.9 194.57,-167.29"/>
<polygon fill="orange" stroke="orange" stroke-width="2" points="185.63,-162.78 179.29,-163.3 184.56,-166.85 185.63,-162.78"/>
<polyline fill="none" stroke="orange" stroke-width="2" points="186.06,-165.07 188.96,-165.83"/>
<ellipse fill="none" stroke="orange" stroke-width="2" cx="192.25" cy="-166.69" rx="2.4" ry="2.4"/>
</a>
</g>
<text text-anchor="middle" x="196.83" y="-227.92" font-family="Helvetica,sans-Serif" font-size="9.00" fill="orange">no&#45;circular</text>
</g>
<!-- src/runtimeHelpers.ts -->
<g id="node13" class="node">
<title>src/runtimeHelpers.ts</title>
<g id="a_node13"><a xlink:href="src/runtimeHelpers.ts" xlink:title="runtimeHelpers.ts">
<path fill="#ddfeff" stroke="black" d="M592.33,-148.25C592.33,-148.25 516.67,-148.25 516.67,-148.25 513.58,-148.25 510.5,-145.17 510.5,-142.08 510.5,-142.08 510.5,-135.92 510.5,-135.92 510.5,-132.83 513.58,-129.75 516.67,-129.75 516.67,-129.75 592.33,-129.75 592.33,-129.75 595.42,-129.75 598.5,-132.83 598.5,-135.92 598.5,-135.92 598.5,-142.08 598.5,-142.08 598.5,-145.17 595.42,-148.25 592.33,-148.25"/>
<text text-anchor="start" x="518.5" y="-135.7" font-family="Helvetica,sans-Serif" font-size="9.00">runtimeHelpers.ts</text>
</a>
</g>
</g>
<!-- src/ssrCodegenTransform.ts&#45;&gt;src/runtimeHelpers.ts -->
<g id="edge12" class="edge">
<title>src/ssrCodegenTransform.ts&#45;&gt;src/runtimeHelpers.ts</title>
<path fill="none" stroke="#000000" stroke-width="2" stroke-opacity="0.200000" d="M355.91,-300.81C414.38,-298.32 497.14,-293.96 502.5,-289 511.41,-280.77 507.1,-246.64 510.5,-235 518.85,-206.42 534,-175.31 543.91,-156.48"/>
<polygon fill="#000000" fill-opacity="0.200000" stroke="#000000" stroke-width="2" stroke-opacity="0.200000" points="545.64,-157.7 546.62,-151.41 541.94,-155.71 545.64,-157.7"/>
</g>
<!-- src/transforms/ssrTransformComponent.ts&#45;&gt;src/ssrCodegenTransform.ts -->
<g id="edge19" class="edge">
<title>src/transforms/ssrTransformComponent.ts&#45;&gt;src/ssrCodegenTransform.ts</title>
<g id="a_edge19"><a xlink:title="no&#45;circular">
<path fill="none" stroke="orange" stroke-width="2" d="M211.82,-73.49C211.96,-73.66 212.11,-73.83 212.25,-74 239.05,-106.44 202.94,-222.49 229.14,-277.94"/>
<polygon fill="orange" stroke="orange" stroke-width="2" points="232.86,-287.08 237.98,-290.84 236.32,-284.7 232.86,-287.08"/>
<polyline fill="none" stroke="orange" stroke-width="2" points="234.02,-285.06 232.33,-282.59"/>
<ellipse fill="none" stroke="orange" stroke-width="2" cx="230.4" cy="-279.78" rx="2.4" ry="2.4"/>
</a>
</g>
<text text-anchor="middle" x="198.27" y="-174.37" font-family="Helvetica,sans-Serif" font-size="9.00" fill="orange">no&#45;circular</text>
</g>
<!-- src/transforms/ssrTransformComponent.ts&#45;&gt;src/transforms/ssrTransformElement.ts -->
<g id="edge20" class="edge">
<title>src/transforms/ssrTransformComponent.ts&#45;&gt;src/transforms/ssrTransformElement.ts</title>
<g id="a_edge20"><a xlink:title="no&#45;circular">
<path fill="none" stroke="orange" stroke-width="2" d="M205.14,-73.59C207.77,-75.41 210.17,-77.53 212.25,-80 236.18,-108.51 198.11,-221.53 225.25,-247 235.32,-256.44 306.29,-255.86 363.44,-253.75"/>
<polygon fill="orange" stroke="orange" stroke-width="2" points="373.24,-255.46 379.15,-253.12 373.07,-251.26 373.24,-255.46"/>
<polyline fill="none" stroke="orange" stroke-width="2" points="372.16,-253.4 369.16,-253.52"/>
<ellipse fill="none" stroke="orange" stroke-width="2" cx="365.77" cy="-253.66" rx="2.4" ry="2.4"/>
</a>
</g>
<text text-anchor="middle" x="195.79" y="-156.12" font-family="Helvetica,sans-Serif" font-size="9.00" fill="orange">no&#45;circular</text>
</g>
<!-- src/transforms/ssrTransformComponent.ts&#45;&gt;src/runtimeHelpers.ts -->
<g id="edge18" class="edge">
<title>src/transforms/ssrTransformComponent.ts&#45;&gt;src/runtimeHelpers.ts</title>
<path fill="none" stroke="#000000" stroke-width="2" stroke-opacity="0.200000" d="M212.54,-61.21C284.78,-60.11 406.17,-64.91 502.5,-102 515.19,-106.89 527.58,-115.75 536.97,-123.58"/>
<polygon fill="#000000" fill-opacity="0.200000" stroke="#000000" stroke-width="2" stroke-opacity="0.200000" points="535.34,-124.94 541.24,-127.29 538.09,-121.77 535.34,-124.94"/>
</g>
<!-- src/transforms/ssrTransformSuspense.ts -->
<g id="node14" class="node">
<title>src/transforms/ssrTransformSuspense.ts</title>
<g id="a_node14"><a xlink:href="src/transforms/ssrTransformSuspense.ts" xlink:title="ssrTransformSuspense.ts">
<path fill="#ddfeff" stroke="black" d="M350.96,-241.25C350.96,-241.25 243.79,-241.25 243.79,-241.25 240.71,-241.25 237.62,-238.17 237.62,-235.08 237.62,-235.08 237.62,-228.92 237.62,-228.92 237.62,-225.83 240.71,-222.75 243.79,-222.75 243.79,-222.75 350.96,-222.75 350.96,-222.75 354.04,-222.75 357.12,-225.83 357.12,-228.92 357.12,-228.92 357.12,-235.08 357.12,-235.08 357.12,-238.17 354.04,-241.25 350.96,-241.25"/>
<text text-anchor="start" x="245.62" y="-228.7" font-family="Helvetica,sans-Serif" font-size="9.00">ssrTransformSuspense.ts</text>
</a>
</g>
</g>
<!-- src/transforms/ssrTransformComponent.ts&#45;&gt;src/transforms/ssrTransformSuspense.ts -->
<g id="edge21" class="edge">
<title>src/transforms/ssrTransformComponent.ts&#45;&gt;src/transforms/ssrTransformSuspense.ts</title>
<g id="a_edge21"><a xlink:title="no&#45;circular">
<path fill="none" stroke="orange" stroke-width="2" d="M205.09,-73.64C207.73,-75.44 210.15,-77.54 212.25,-80 229.31,-99.97 211.55,-170.15 227.33,-209.5"/>
<polygon fill="orange" stroke="orange" stroke-width="2" points="230.78,-218.85 235.77,-222.78 234.33,-216.59 230.78,-218.85"/>
<polyline fill="none" stroke="orange" stroke-width="2" points="232.02,-216.88 230.41,-214.34"/>
<ellipse fill="none" stroke="orange" stroke-width="2" cx="228.59" cy="-211.47" rx="2.4" ry="2.4"/>
</a>
</g>
<text text-anchor="middle" x="198.38" y="-141.07" font-family="Helvetica,sans-Serif" font-size="9.00" fill="orange">no&#45;circular</text>
</g>
<!-- src/transforms/ssrTransformTeleport.ts -->
<g id="node15" class="node">
<title>src/transforms/ssrTransformTeleport.ts</title>
<g id="a_node15"><a xlink:href="src/transforms/ssrTransformTeleport.ts" xlink:title="ssrTransformTeleport.ts">
<path fill="#ddfeff" stroke="black" d="M346.83,-148.25C346.83,-148.25 247.92,-148.25 247.92,-148.25 244.83,-148.25 241.75,-145.17 241.75,-142.08 241.75,-142.08 241.75,-135.92 241.75,-135.92 241.75,-132.83 244.83,-129.75 247.92,-129.75 247.92,-129.75 346.83,-129.75 346.83,-129.75 349.92,-129.75 353,-132.83 353,-135.92 353,-135.92 353,-142.08 353,-142.08 353,-145.17 349.92,-148.25 346.83,-148.25"/>
<text text-anchor="start" x="249.75" y="-135.7" font-family="Helvetica,sans-Serif" font-size="9.00">ssrTransformTeleport.ts</text>
</a>
</g>
</g>
<!-- src/transforms/ssrTransformComponent.ts&#45;&gt;src/transforms/ssrTransformTeleport.ts -->
<g id="edge22" class="edge">
<title>src/transforms/ssrTransformComponent.ts&#45;&gt;src/transforms/ssrTransformTeleport.ts</title>
<g id="a_edge22"><a xlink:title="no&#45;circular">
<path fill="none" stroke="orange" stroke-width="2" d="M203.72,-73.59C206.82,-75.39 209.7,-77.51 212.25,-80 224.6,-92.06 215.09,-105.45 228.15,-122.81"/>
<polygon fill="orange" stroke="orange" stroke-width="2" points="233.39,-130.76 239.17,-133.4 236.3,-127.73 233.39,-130.76"/>
<polyline fill="none" stroke="orange" stroke-width="2" points="234.12,-128.55 231.96,-126.47"/>
<ellipse fill="none" stroke="orange" stroke-width="2" cx="229.51" cy="-124.11" rx="2.4" ry="2.4"/>
</a>
</g>
<text text-anchor="middle" x="242.33" y="-95.92" font-family="Helvetica,sans-Serif" font-size="9.00" fill="orange">no&#45;circular</text>
</g>
<!-- src/transforms/ssrTransformTransition.ts -->
<g id="node16" class="node">
<title>src/transforms/ssrTransformTransition.ts</title>
<g id="a_node16"><a xlink:href="src/transforms/ssrTransformTransition.ts" xlink:title="ssrTransformTransition.ts">
<path fill="#ddfeff" stroke="black" d="M350.58,-210.25C350.58,-210.25 244.17,-210.25 244.17,-210.25 241.08,-210.25 238,-207.17 238,-204.08 238,-204.08 238,-197.92 238,-197.92 238,-194.83 241.08,-191.75 244.17,-191.75 244.17,-191.75 350.58,-191.75 350.58,-191.75 353.67,-191.75 356.75,-194.83 356.75,-197.92 356.75,-197.92 356.75,-204.08 356.75,-204.08 356.75,-207.17 353.67,-210.25 350.58,-210.25"/>
<text text-anchor="start" x="246" y="-197.7" font-family="Helvetica,sans-Serif" font-size="9.00">ssrTransformTransition.ts</text>
</a>
</g>
</g>
<!-- src/transforms/ssrTransformComponent.ts&#45;&gt;src/transforms/ssrTransformTransition.ts -->
<g id="edge23" class="edge">
<title>src/transforms/ssrTransformComponent.ts&#45;&gt;src/transforms/ssrTransformTransition.ts</title>
<g id="a_edge23"><a xlink:title="no&#45;circular">
<path fill="none" stroke="orange" stroke-width="2" d="M205.01,-73.71C207.67,-75.49 210.12,-77.57 212.25,-80 239.77,-111.32 203.88,-142.26 225.96,-179.6"/>
<polygon fill="orange" stroke="orange" stroke-width="2" points="230.27,-188.45 235.64,-191.86 233.57,-185.85 230.27,-188.45"/>
<polyline fill="none" stroke="orange" stroke-width="2" points="231.3,-186.37 229.44,-184.01"/>
<ellipse fill="none" stroke="orange" stroke-width="2" cx="227.33" cy="-181.34" rx="2.4" ry="2.4"/>
</a>
</g>
<text text-anchor="middle" x="198.29" y="-125.54" font-family="Helvetica,sans-Serif" font-size="9.00" fill="orange">no&#45;circular</text>
</g>
<!-- src/transforms/ssrTransformTransitionGroup.ts -->
<g id="node17" class="node">
<title>src/transforms/ssrTransformTransitionGroup.ts</title>
<g id="a_node17"><a xlink:href="src/transforms/ssrTransformTransitionGroup.ts" xlink:title="ssrTransformTransitionGroup.ts">
<path fill="#ddfeff" stroke="black" d="M363.33,-179.25C363.33,-179.25 231.42,-179.25 231.42,-179.25 228.33,-179.25 225.25,-176.17 225.25,-173.08 225.25,-173.08 225.25,-166.92 225.25,-166.92 225.25,-163.83 228.33,-160.75 231.42,-160.75 231.42,-160.75 363.33,-160.75 363.33,-160.75 366.42,-160.75 369.5,-163.83 369.5,-166.92 369.5,-166.92 369.5,-173.08 369.5,-173.08 369.5,-176.17 366.42,-179.25 363.33,-179.25"/>
<text text-anchor="start" x="233.25" y="-166.7" font-family="Helvetica,sans-Serif" font-size="9.00">ssrTransformTransitionGroup.ts</text>
</a>
</g>
</g>
<!-- src/transforms/ssrTransformComponent.ts&#45;&gt;src/transforms/ssrTransformTransitionGroup.ts -->
<g id="edge24" class="edge">
<title>src/transforms/ssrTransformComponent.ts&#45;&gt;src/transforms/ssrTransformTransitionGroup.ts</title>
<g id="a_edge24"><a xlink:title="no&#45;circular">
<path fill="none" stroke="orange" stroke-width="2" d="M204.59,-73.66C207.39,-75.45 209.98,-77.55 212.25,-80 231.02,-100.3 211.81,-121.16 222.21,-145.1"/>
<polygon fill="orange" stroke="orange" stroke-width="2" points="226.17,-154.29 231.36,-157.97 229.6,-151.86 226.17,-154.29"/>
<polyline fill="none" stroke="orange" stroke-width="2" points="227.31,-152.26 225.57,-149.82"/>
<ellipse fill="none" stroke="orange" stroke-width="2" cx="223.6" cy="-147.05" rx="2.4" ry="2.4"/>
</a>
</g>
<text text-anchor="middle" x="197.98" y="-108.22" font-family="Helvetica,sans-Serif" font-size="9.00" fill="orange">no&#45;circular</text>
</g>
<!-- src/transforms/ssrTransformElement.ts&#45;&gt;src/errors.ts -->
<g id="edge25" class="edge">
<title>src/transforms/ssrTransformElement.ts&#45;&gt;src/errors.ts</title>
<path fill="none" stroke="#000000" stroke-width="2" stroke-opacity="0.200000" d="M494.83,-250C502.73,-250 510.67,-250 518.04,-250"/>
<polygon fill="#000000" fill-opacity="0.200000" stroke="#000000" stroke-width="2" stroke-opacity="0.200000" points="518.01,-252.1 524.01,-250 518.01,-247.9 518.01,-252.1"/>
</g>
<!-- src/transforms/ssrTransformElement.ts&#45;&gt;src/ssrCodegenTransform.ts -->
<g id="edge27" class="edge">
<title>src/transforms/ssrTransformElement.ts&#45;&gt;src/ssrCodegenTransform.ts</title>
<g id="a_edge27"><a xlink:title="no&#45;circular">
<path fill="none" stroke="orange" stroke-width="2" d="M382.04,-257.38C372.6,-265.34 379.62,-275.3 369.5,-283 368.14,-284.03 366.73,-285 365.27,-285.9"/>
<polygon fill="orange" stroke="orange" stroke-width="2" points="355.74,-287.76 351.08,-292.08 357.42,-291.61 355.74,-287.76"/>
<polyline fill="none" stroke="orange" stroke-width="2" points="357.5,-289.29 360.25,-288.09"/>
<ellipse fill="none" stroke="orange" stroke-width="2" cx="363.37" cy="-286.73" rx="2.4" ry="2.4"/>
</a>
</g>
<text text-anchor="middle" x="347.62" y="-285.05" font-family="Helvetica,sans-Serif" font-size="9.00" fill="orange">no&#45;circular</text>
</g>
<!-- src/transforms/ssrTransformElement.ts&#45;&gt;src/runtimeHelpers.ts -->
<g id="edge26" class="edge">
<title>src/transforms/ssrTransformElement.ts&#45;&gt;src/runtimeHelpers.ts</title>
<path fill="none" stroke="#000000" stroke-width="2" stroke-opacity="0.200000" d="M494.77,-241.77C497.5,-240.4 500.09,-238.82 502.5,-237 528.88,-217.06 542.85,-179.54 549.17,-157.16"/>
<polygon fill="#000000" fill-opacity="0.200000" stroke="#000000" stroke-width="2" stroke-opacity="0.200000" points="551.16,-157.85 550.66,-151.51 547.1,-156.78 551.16,-157.85"/>
</g>
<!-- src/transforms/ssrTransformSlotOutlet.ts&#45;&gt;src/ssrCodegenTransform.ts -->
<g id="edge29" class="edge">
<title>src/transforms/ssrTransformSlotOutlet.ts&#45;&gt;src/ssrCodegenTransform.ts</title>
<g id="a_edge29"><a xlink:title="no&#45;circular">
<path fill="none" stroke="orange" stroke-width="2" d="M208.54,-101.22C209.87,-102.37 211.11,-103.63 212.25,-105 234.94,-132.17 206.54,-228.99 229.17,-277.91"/>
<polygon fill="orange" stroke="orange" stroke-width="2" points="232.9,-287.04 238.03,-290.79 236.36,-284.66 232.9,-287.04"/>
<polyline fill="none" stroke="orange" stroke-width="2" points="234.06,-285.03 232.36,-282.55"/>
<ellipse fill="none" stroke="orange" stroke-width="2" cx="230.44" cy="-279.75" rx="2.4" ry="2.4"/>
</a>
</g>
<text text-anchor="middle" x="198.44" y="-188.29" font-family="Helvetica,sans-Serif" font-size="9.00" fill="orange">no&#45;circular</text>
</g>
<!-- src/transforms/ssrTransformSlotOutlet.ts&#45;&gt;src/runtimeHelpers.ts -->
<g id="edge28" class="edge">
<title>src/transforms/ssrTransformSlotOutlet.ts&#45;&gt;src/runtimeHelpers.ts</title>
<path fill="none" stroke="#000000" stroke-width="2" stroke-opacity="0.200000" d="M208.4,-95.11C278.77,-96.25 400.41,-101.4 502.5,-122 508.28,-123.17 514.31,-124.79 520.12,-126.58"/>
<polygon fill="#000000" fill-opacity="0.200000" stroke="#000000" stroke-width="2" stroke-opacity="0.200000" points="519.18,-128.48 525.53,-128.34 520.48,-124.49 519.18,-128.48"/>
</g>
<!-- src/transforms/ssrVFor.ts&#45;&gt;src/ssrCodegenTransform.ts -->
<g id="edge40" class="edge">
<title>src/transforms/ssrVFor.ts&#45;&gt;src/ssrCodegenTransform.ts</title>
<g id="a_edge40"><a xlink:title="no&#45;circular">
<path fill="none" stroke="orange" stroke-width="2" d="M177.41,-120.79C189.89,-121.8 203.75,-125.98 212.25,-136 230.85,-157.93 209.96,-235.69 229.38,-277.94"/>
<polygon fill="orange" stroke="orange" stroke-width="2" points="233.27,-287.18 238.42,-290.9 236.71,-284.78 233.27,-287.18"/>
<polyline fill="none" stroke="orange" stroke-width="2" points="234.42,-285.16 232.7,-282.7"/>
<ellipse fill="none" stroke="orange" stroke-width="2" cx="230.75" cy="-279.91" rx="2.4" ry="2.4"/>
</a>
</g>
<text text-anchor="middle" x="198.76" y="-201.28" font-family="Helvetica,sans-Serif" font-size="9.00" fill="orange">no&#45;circular</text>
</g>
<!-- src/transforms/ssrVFor.ts&#45;&gt;src/runtimeHelpers.ts -->
<g id="edge39" class="edge">
<title>src/transforms/ssrVFor.ts&#45;&gt;src/runtimeHelpers.ts</title>
<path fill="none" stroke="#000000" stroke-width="2" stroke-opacity="0.200000" d="M177.24,-125.1C191.53,-124.68 209.33,-124.21 225.25,-124 289.36,-123.15 305.44,-121.39 369.5,-124 414.12,-125.82 464.67,-130.1 501.49,-133.62"/>
<polygon fill="#000000" fill-opacity="0.200000" stroke="#000000" stroke-width="2" stroke-opacity="0.200000" points="500.88,-135.68 507.05,-134.16 501.28,-131.49 500.88,-135.68"/>
</g>
<!-- src/transforms/ssrVIf.ts&#45;&gt;src/ssrCodegenTransform.ts -->
<g id="edge41" class="edge">
<title>src/transforms/ssrVIf.ts&#45;&gt;src/ssrCodegenTransform.ts</title>
<g id="a_edge41"><a xlink:title="no&#45;circular">
<path fill="none" stroke="orange" stroke-width="2" d="M176.36,-151.8C189.05,-152.69 203.41,-156.83 212.25,-167 242.88,-202.27 200.41,-237.12 228.25,-279.09"/>
<polygon fill="orange" stroke="orange" stroke-width="2" points="232.83,-287.75 238.31,-290.97 236.03,-285.04 232.83,-287.75"/>
<polyline fill="none" stroke="orange" stroke-width="2" points="233.78,-285.63 231.85,-283.34"/>
<ellipse fill="none" stroke="orange" stroke-width="2" cx="229.65" cy="-280.74" rx="2.4" ry="2.4"/>
</a>
</g>
<text text-anchor="middle" x="199.55" y="-211.93" font-family="Helvetica,sans-Serif" font-size="9.00" fill="orange">no&#45;circular</text>
</g>
<!-- src/transforms/ssrVModel.ts&#45;&gt;src/runtimeHelpers.ts -->
<g id="edge42" class="edge">
<title>src/transforms/ssrVModel.ts&#45;&gt;src/runtimeHelpers.ts</title>
<path fill="none" stroke="#000000" stroke-width="2" stroke-opacity="0.200000" d="M183.64,-28.07C249.58,-20.08 398.77,-10.69 502.5,-70 522.98,-81.71 537.64,-105.35 545.84,-121.66"/>
<polygon fill="#000000" fill-opacity="0.200000" stroke="#000000" stroke-width="2" stroke-opacity="0.200000" points="543.76,-122.18 548.24,-126.7 547.56,-120.38 543.76,-122.18"/>
</g>
<!-- src/transforms/ssrTransformSuspense.ts&#45;&gt;src/ssrCodegenTransform.ts -->
<g id="edge31" class="edge">
<title>src/transforms/ssrTransformSuspense.ts&#45;&gt;src/ssrCodegenTransform.ts</title>
<g id="a_edge31"><a xlink:title="no&#45;circular">
<path fill="none" stroke="orange" stroke-width="2" d="M297.38,-241.71C297.38,-252.75 297.38,-263.79 297.38,-274.84"/>
<polygon fill="orange" stroke="orange" stroke-width="2" points="295.28,-284.4 297.38,-290.4 299.48,-284.4 295.28,-284.4"/>
<polyline fill="none" stroke="orange" stroke-width="2" points="297.38,-283.4 297.38,-280.4"/>
<ellipse fill="none" stroke="orange" stroke-width="2" cx="297.38" cy="-277" rx="2.4" ry="2.4"/>
</a>
</g>
<text text-anchor="middle" x="275.62" y="-259.04" font-family="Helvetica,sans-Serif" font-size="9.00" fill="orange">no&#45;circular</text>
</g>
<!-- src/transforms/ssrTransformSuspense.ts&#45;&gt;src/runtimeHelpers.ts -->
<g id="edge30" class="edge">
<title>src/transforms/ssrTransformSuspense.ts&#45;&gt;src/runtimeHelpers.ts</title>
<path fill="none" stroke="#000000" stroke-width="2" stroke-opacity="0.200000" d="M346.89,-222.28C354.51,-220.41 362.27,-218.31 369.5,-216 426.31,-197.88 489.94,-169.3 525.52,-152.53"/>
<polygon fill="#000000" fill-opacity="0.200000" stroke="#000000" stroke-width="2" stroke-opacity="0.200000" points="526.26,-154.5 530.78,-150.03 524.46,-150.7 526.26,-154.5"/>
</g>
<!-- src/transforms/ssrTransformTeleport.ts&#45;&gt;src/errors.ts -->
<g id="edge32" class="edge">
<title>src/transforms/ssrTransformTeleport.ts&#45;&gt;src/errors.ts</title>
<path fill="none" stroke="#000000" stroke-width="2" stroke-opacity="0.200000" d="M348.96,-148.7C355.94,-150.52 362.96,-152.62 369.5,-155 430.49,-177.19 496.96,-215.33 530.86,-235.88"/>
<polygon fill="#000000" fill-opacity="0.200000" stroke="#000000" stroke-width="2" stroke-opacity="0.200000" points="529.56,-237.55 535.78,-238.89 531.75,-233.97 529.56,-237.55"/>
</g>
<!-- src/transforms/ssrTransformTeleport.ts&#45;&gt;src/ssrCodegenTransform.ts -->
<g id="edge34" class="edge">
<title>src/transforms/ssrTransformTeleport.ts&#45;&gt;src/ssrCodegenTransform.ts</title>
<g id="a_edge34"><a xlink:title="no&#45;circular">
<path fill="none" stroke="orange" stroke-width="2" d="M241.44,-141.84C231.53,-145.34 223.01,-151.26 218.75,-161 213.31,-173.42 213.31,-270.58 218.75,-283 219.95,-285.74 221.49,-288.17 223.31,-290.31"/>
<polygon fill="orange" stroke="orange" stroke-width="2" points="230.01,-297.36 236.15,-298.98 232.36,-293.88 230.01,-297.36"/>
<polyline fill="none" stroke="orange" stroke-width="2" points="230.35,-295.06 227.87,-293.38"/>
<ellipse fill="none" stroke="orange" stroke-width="2" cx="225.05" cy="-291.48" rx="2.4" ry="2.4"/>
</a>
</g>
<text text-anchor="middle" x="236.42" y="-223.31" font-family="Helvetica,sans-Serif" font-size="9.00" fill="orange">no&#45;circular</text>
</g>
<!-- src/transforms/ssrTransformTeleport.ts&#45;&gt;src/runtimeHelpers.ts -->
<g id="edge33" class="edge">
<title>src/transforms/ssrTransformTeleport.ts&#45;&gt;src/runtimeHelpers.ts</title>
<path fill="none" stroke="#000000" stroke-width="2" stroke-opacity="0.200000" d="M353.42,-139C397.32,-139 458.37,-139 501.46,-139"/>
<polygon fill="#000000" fill-opacity="0.200000" stroke="#000000" stroke-width="2" stroke-opacity="0.200000" points="501.35,-141.1 507.35,-139 501.35,-136.9 501.35,-141.1"/>
</g>
<!-- src/transforms/ssrTransformTransition.ts&#45;&gt;src/ssrCodegenTransform.ts -->
<g id="edge35" class="edge">
<title>src/transforms/ssrTransformTransition.ts&#45;&gt;src/ssrCodegenTransform.ts</title>
<g id="a_edge35"><a xlink:title="no&#45;circular">
<path fill="none" stroke="orange" stroke-width="2" d="M237.55,-205.37C229.33,-208.99 222.45,-214.56 218.75,-223 213.4,-235.21 213.4,-270.79 218.75,-283 219.95,-285.74 221.49,-288.17 223.31,-290.31"/>
<polygon fill="orange" stroke="orange" stroke-width="2" points="230.01,-297.36 236.15,-298.98 232.36,-293.88 230.01,-297.36"/>
<polyline fill="none" stroke="orange" stroke-width="2" points="230.35,-295.06 227.87,-293.38"/>
<ellipse fill="none" stroke="orange" stroke-width="2" cx="225.05" cy="-291.48" rx="2.4" ry="2.4"/>
</a>
</g>
<text text-anchor="middle" x="236.49" y="-244.73" font-family="Helvetica,sans-Serif" font-size="9.00" fill="orange">no&#45;circular</text>
</g>
<!-- src/transforms/ssrTransformTransitionGroup.ts&#45;&gt;src/ssrCodegenTransform.ts -->
<g id="edge37" class="edge">
<title>src/transforms/ssrTransformTransitionGroup.ts&#45;&gt;src/ssrCodegenTransform.ts</title>
<g id="a_edge37"><a xlink:title="no&#45;circular">
<path fill="none" stroke="orange" stroke-width="2" d="M228.45,-179.71C224.33,-182.9 220.97,-186.94 218.75,-192 210.64,-210.52 210.64,-264.48 218.75,-283 219.95,-285.74 221.49,-288.17 223.31,-290.31"/>
<polygon fill="orange" stroke="orange" stroke-width="2" points="230.01,-297.36 236.15,-298.98 232.36,-293.88 230.01,-297.36"/>
<polyline fill="none" stroke="orange" stroke-width="2" points="230.35,-295.06 227.87,-293.38"/>
<ellipse fill="none" stroke="orange" stroke-width="2" cx="225.05" cy="-291.48" rx="2.4" ry="2.4"/>
</a>
</g>
<text text-anchor="middle" x="190.94" y="-231.92" font-family="Helvetica,sans-Serif" font-size="9.00" fill="orange">no&#45;circular</text>
</g>
<!-- src/transforms/ssrTransformTransitionGroup.ts&#45;&gt;src/transforms/ssrTransformElement.ts -->
<g id="edge38" class="edge">
<title>src/transforms/ssrTransformTransitionGroup.ts&#45;&gt;src/transforms/ssrTransformElement.ts</title>
<g id="a_edge38"><a xlink:title="no&#45;circular">
<path fill="none" stroke="orange" stroke-width="2" d="M361.09,-179.59C364.12,-181.41 366.96,-183.53 369.5,-186 381.69,-197.85 374.22,-210.75 377.18,-224.5"/>
<polygon fill="orange" stroke="orange" stroke-width="2" points="380.15,-233.68 385.01,-237.79 383.77,-231.55 380.15,-233.68"/>
<polyline fill="none" stroke="orange" stroke-width="2" points="381.45,-231.76 379.93,-229.17"/>
<ellipse fill="none" stroke="orange" stroke-width="2" cx="378.2" cy="-226.24" rx="2.4" ry="2.4"/>
</a>
</g>
<text text-anchor="middle" x="398.38" y="-201.46" font-family="Helvetica,sans-Serif" font-size="9.00" fill="orange">no&#45;circular</text>
</g>
<!-- src/transforms/ssrTransformTransitionGroup.ts&#45;&gt;src/runtimeHelpers.ts -->
<g id="edge36" class="edge">
<title>src/transforms/ssrTransformTransitionGroup.ts&#45;&gt;src/runtimeHelpers.ts</title>
<path fill="none" stroke="#000000" stroke-width="2" stroke-opacity="0.200000" d="M369.78,-161.32C411.54,-156.25 463.33,-149.96 501.27,-145.35"/>
<polygon fill="#000000" fill-opacity="0.200000" stroke="#000000" stroke-width="2" stroke-opacity="0.200000" points="501.41,-147.45 507.11,-144.64 500.9,-143.28 501.41,-147.45"/>
</g>
</g>
</svg>
