<?xml version="1.0" encoding="UTF-8" standalone="no"?>
<!DOCTYPE svg PUBLIC "-//W3C//DTD SVG 1.1//EN"
 "http://www.w3.org/Graphics/SVG/1.1/DTD/svg11.dtd">
<!-- Generated by graphviz version 12.2.1 (20241206.2353)
 -->
<!-- Title: dependency&#45;cruiser output Pages: 1 -->
<svg width="364pt" height="108pt"
 viewBox="0.00 0.00 364.00 108.00" xmlns="http://www.w3.org/2000/svg" xmlns:xlink="http://www.w3.org/1999/xlink">
<g id="graph0" class="graph" transform="scale(1 1) rotate(0) translate(4 104)">
<title>dependency&#45;cruiser output</title>
<polygon fill="white" stroke="none" points="-4,4 -4,-104 360,-104 360,4 -4,4"/>
<g id="clust1" class="cluster">
<title>cluster_src</title>
<path fill="#ffffff" stroke="black" stroke-width="2" d="M20,-8C20,-8 336,-8 336,-8 342,-8 348,-14 348,-20 348,-20 348,-80 348,-80 348,-86 342,-92 336,-92 336,-92 20,-92 20,-92 14,-92 8,-86 8,-80 8,-80 8,-20 8,-20 8,-14 14,-8 20,-8"/>
<text text-anchor="middle" x="178" y="-79.45" font-family="Helvetica,sans-Serif" font-weight="bold" font-size="9.00">src</text>
</g>
<!-- src/createCompatVue.ts -->
<g id="node1" class="node">
<title>src/createCompatVue.ts</title>
<g id="a_node1"><a xlink:href="src/createCompatVue.ts" xlink:title="createCompatVue.ts">
<path fill="#ddfeff" stroke="black" d="M266.83,-49.25C266.83,-49.25 179.92,-49.25 179.92,-49.25 176.83,-49.25 173.75,-46.17 173.75,-43.08 173.75,-43.08 173.75,-36.92 173.75,-36.92 173.75,-33.83 176.83,-30.75 179.92,-30.75 179.92,-30.75 266.83,-30.75 266.83,-30.75 269.92,-30.75 273,-33.83 273,-36.92 273,-36.92 273,-43.08 273,-43.08 273,-46.17 269.92,-49.25 266.83,-49.25"/>
<text text-anchor="start" x="181.75" y="-36.7" font-family="Helvetica,sans-Serif" font-size="9.00">createCompatVue.ts</text>
</a>
</g>
</g>
<!-- src/dev.ts -->
<g id="node2" class="node">
<title>src/dev.ts</title>
<g id="a_node2"><a xlink:href="src/dev.ts" xlink:title="dev.ts">
<path fill="#ddfeff" stroke="black" d="M333.83,-49.25C333.83,-49.25 292.17,-49.25 292.17,-49.25 289.08,-49.25 286,-46.17 286,-43.08 286,-43.08 286,-36.92 286,-36.92 286,-33.83 289.08,-30.75 292.17,-30.75 292.17,-30.75 333.83,-30.75 333.83,-30.75 336.92,-30.75 340,-33.83 340,-36.92 340,-36.92 340,-43.08 340,-43.08 340,-46.17 336.92,-49.25 333.83,-49.25"/>
<text text-anchor="start" x="301.38" y="-36.7" font-family="Helvetica,sans-Serif" font-size="9.00">dev.ts</text>
</a>
</g>
</g>
<!-- src/createCompatVue.ts&#45;&gt;src/dev.ts -->
<g id="edge1" class="edge">
<title>src/createCompatVue.ts&#45;&gt;src/dev.ts</title>
<path fill="none" stroke="#000000" stroke-width="2" stroke-opacity="0.200000" d="M273.31,-40C274.5,-40 275.69,-40 276.86,-40"/>
<polygon fill="#000000" fill-opacity="0.200000" stroke="#000000" stroke-width="2" stroke-opacity="0.200000" points="276.63,-42.1 282.63,-40 276.63,-37.9 276.63,-42.1"/>
</g>
<!-- src/esm&#45;index.ts -->
<g id="node3" class="node">
<title>src/esm&#45;index.ts</title>
<g id="a_node3"><a xlink:href="src/esm-index.ts" xlink:title="esm&#45;index.ts">
<path fill="#ddfeff" stroke="black" d="M81.71,-34.25C81.71,-34.25 26.29,-34.25 26.29,-34.25 23.21,-34.25 20.12,-31.17 20.12,-28.08 20.12,-28.08 20.12,-21.92 20.12,-21.92 20.12,-18.83 23.21,-15.75 26.29,-15.75 26.29,-15.75 81.71,-15.75 81.71,-15.75 84.79,-15.75 87.88,-18.83 87.88,-21.92 87.88,-21.92 87.88,-28.08 87.88,-28.08 87.88,-31.17 84.79,-34.25 81.71,-34.25"/>
<text text-anchor="start" x="28.12" y="-21.7" font-family="Helvetica,sans-Serif" font-size="9.00">esm&#45;index.ts</text>
</a>
</g>
</g>
<!-- src/index.ts -->
<g id="node4" class="node">
<title>src/index.ts</title>
<g id="a_node4"><a xlink:href="src/index.ts" xlink:title="index.ts">
<path fill="#ddfeff" stroke="black" d="M153.71,-34.25C153.71,-34.25 112.04,-34.25 112.04,-34.25 108.96,-34.25 105.88,-31.17 105.88,-28.08 105.88,-28.08 105.88,-21.92 105.88,-21.92 105.88,-18.83 108.96,-15.75 112.04,-15.75 112.04,-15.75 153.71,-15.75 153.71,-15.75 156.79,-15.75 159.88,-18.83 159.88,-21.92 159.88,-21.92 159.88,-28.08 159.88,-28.08 159.88,-31.17 156.79,-34.25 153.71,-34.25"/>
<text text-anchor="start" x="117.12" y="-21.7" font-family="Helvetica,sans-Serif" font-size="9.00">index.ts</text>
</a>
</g>
</g>
<!-- src/esm&#45;index.ts&#45;&gt;src/index.ts -->
<g id="edge2" class="edge">
<title>src/esm&#45;index.ts&#45;&gt;src/index.ts</title>
<path fill="none" stroke="#000000" stroke-width="2" stroke-opacity="0.200000" d="M88.05,-25C90.89,-25 93.76,-25 96.62,-25"/>
<polygon fill="#000000" fill-opacity="0.200000" stroke="#000000" stroke-width="2" stroke-opacity="0.200000" points="96.55,-27.1 102.55,-25 96.55,-22.9 96.55,-27.1"/>
</g>
<!-- src/index.ts&#45;&gt;src/createCompatVue.ts -->
<g id="edge4" class="edge">
<title>src/index.ts&#45;&gt;src/createCompatVue.ts</title>
<path fill="none" stroke="#000000" stroke-width="2" stroke-opacity="0.200000" d="M159.95,-29.42C161.56,-29.69 163.2,-29.97 164.87,-30.25"/>
<polygon fill="#000000" fill-opacity="0.200000" stroke="#000000" stroke-width="2" stroke-opacity="0.200000" points="164.17,-32.26 170.43,-31.2 164.87,-28.12 164.17,-32.26"/>
</g>
<!-- src/esm&#45;runtime.ts -->
<g id="node5" class="node">
<title>src/esm&#45;runtime.ts</title>
<g id="a_node5"><a xlink:href="src/esm-runtime.ts" xlink:title="esm&#45;runtime.ts">
<path fill="#ddfeff" stroke="black" d="M85.83,-65.25C85.83,-65.25 22.17,-65.25 22.17,-65.25 19.08,-65.25 16,-62.17 16,-59.08 16,-59.08 16,-52.92 16,-52.92 16,-49.83 19.08,-46.75 22.17,-46.75 22.17,-46.75 85.83,-46.75 85.83,-46.75 88.92,-46.75 92,-49.83 92,-52.92 92,-52.92 92,-59.08 92,-59.08 92,-62.17 88.92,-65.25 85.83,-65.25"/>
<text text-anchor="start" x="24" y="-52.7" font-family="Helvetica,sans-Serif" font-size="9.00">esm&#45;runtime.ts</text>
</a>
</g>
</g>
<!-- src/runtime.ts -->
<g id="node6" class="node">
<title>src/runtime.ts</title>
<g id="a_node6"><a xlink:href="src/runtime.ts" xlink:title="runtime.ts">
<path fill="#ddfeff" stroke="black" d="M154.58,-65.25C154.58,-65.25 111.17,-65.25 111.17,-65.25 108.08,-65.25 105,-62.17 105,-59.08 105,-59.08 105,-52.92 105,-52.92 105,-49.83 108.08,-46.75 111.17,-46.75 111.17,-46.75 154.58,-46.75 154.58,-46.75 157.67,-46.75 160.75,-49.83 160.75,-52.92 160.75,-52.92 160.75,-59.08 160.75,-59.08 160.75,-62.17 157.67,-65.25 154.58,-65.25"/>
<text text-anchor="start" x="113" y="-52.7" font-family="Helvetica,sans-Serif" font-size="9.00">runtime.ts</text>
</a>
</g>
</g>
<!-- src/esm&#45;runtime.ts&#45;&gt;src/runtime.ts -->
<g id="edge3" class="edge">
<title>src/esm&#45;runtime.ts&#45;&gt;src/runtime.ts</title>
<path fill="none" stroke="#000000" stroke-width="2" stroke-opacity="0.200000" d="M92.09,-56C93.43,-56 94.78,-56 96.12,-56"/>
<polygon fill="#000000" fill-opacity="0.200000" stroke="#000000" stroke-width="2" stroke-opacity="0.200000" points="95.81,-58.1 101.81,-56 95.81,-53.9 95.81,-58.1"/>
</g>
<!-- src/runtime.ts&#45;&gt;src/createCompatVue.ts -->
<g id="edge5" class="edge">
<title>src/runtime.ts&#45;&gt;src/createCompatVue.ts</title>
<path fill="none" stroke="#000000" stroke-width="2" stroke-opacity="0.200000" d="M160.91,-51.11C162.15,-50.89 163.41,-50.66 164.69,-50.43"/>
<polygon fill="#000000" fill-opacity="0.200000" stroke="#000000" stroke-width="2" stroke-opacity="0.200000" points="164.79,-52.54 170.32,-49.41 164.04,-48.41 164.79,-52.54"/>
</g>
</g>
</svg>
