<?xml version="1.0" encoding="UTF-8" standalone="no"?>
<!DOCTYPE svg PUBLIC "-//W3C//DTD SVG 1.1//EN"
 "http://www.w3.org/Graphics/SVG/1.1/DTD/svg11.dtd">
<!-- Generated by graphviz version 12.2.1 (20241206.2353)
 -->
<!-- Title: dependency&#45;cruiser output Pages: 1 -->
<svg width="802pt" height="362pt"
 viewBox="0.00 0.00 802.00 362.00" xmlns="http://www.w3.org/2000/svg" xmlns:xlink="http://www.w3.org/1999/xlink">
<g id="graph0" class="graph" transform="scale(1 1) rotate(0) translate(4 358)">
<title>dependency&#45;cruiser output</title>
<polygon fill="white" stroke="none" points="-4,4 -4,-358 798,-358 798,4 -4,4"/>
<g id="clust1" class="cluster">
<title>cluster_src</title>
<path fill="#ffffff" stroke="black" stroke-width="2" d="M20,-8C20,-8 774,-8 774,-8 780,-8 786,-14 786,-20 786,-20 786,-334 786,-334 786,-340 780,-346 774,-346 774,-346 20,-346 20,-346 14,-346 8,-340 8,-334 8,-334 8,-20 8,-20 8,-14 14,-8 20,-8"/>
<text text-anchor="middle" x="397" y="-333.45" font-family="Helvetica,sans-Serif" font-weight="bold" font-size="9.00">src</text>
</g>
<!-- src/arrayInstrumentations.ts -->
<g id="node1" class="node">
<title>src/arrayInstrumentations.ts</title>
<g id="a_node1"><a xlink:href="src/arrayInstrumentations.ts" xlink:title="arrayInstrumentations.ts">
<path fill="#ddfeff" stroke="black" d="M190.33,-130.25C190.33,-130.25 89.17,-130.25 89.17,-130.25 86.08,-130.25 83,-127.17 83,-124.08 83,-124.08 83,-117.92 83,-117.92 83,-114.83 86.08,-111.75 89.17,-111.75 89.17,-111.75 190.33,-111.75 190.33,-111.75 193.42,-111.75 196.5,-114.83 196.5,-117.92 196.5,-117.92 196.5,-124.08 196.5,-124.08 196.5,-127.17 193.42,-130.25 190.33,-130.25"/>
<text text-anchor="start" x="91" y="-117.7" font-family="Helvetica,sans-Serif" font-size="9.00">arrayInstrumentations.ts</text>
</a>
</g>
</g>
<!-- src/constants.ts -->
<g id="node2" class="node">
<title>src/constants.ts</title>
<g id="a_node2"><a xlink:href="src/constants.ts" xlink:title="constants.ts">
<path fill="#ddfeff" stroke="black" d="M614.83,-113.25C614.83,-113.25 563.17,-113.25 563.17,-113.25 560.08,-113.25 557,-110.17 557,-107.08 557,-107.08 557,-100.92 557,-100.92 557,-97.83 560.08,-94.75 563.17,-94.75 563.17,-94.75 614.83,-94.75 614.83,-94.75 617.92,-94.75 621,-97.83 621,-100.92 621,-100.92 621,-107.08 621,-107.08 621,-110.17 617.92,-113.25 614.83,-113.25"/>
<text text-anchor="start" x="565" y="-100.7" font-family="Helvetica,sans-Serif" font-size="9.00">constants.ts</text>
</a>
</g>
</g>
<!-- src/arrayInstrumentations.ts&#45;&gt;src/constants.ts -->
<g id="edge1" class="edge">
<title>src/arrayInstrumentations.ts&#45;&gt;src/constants.ts</title>
<path fill="none" stroke="#000000" stroke-width="2" stroke-opacity="0.200000" d="M158.96,-111.25C184.89,-98.04 234.35,-75.24 279.75,-68 395.74,-49.5 432.85,-34.01 544,-72 554.26,-75.51 564.17,-82.31 571.98,-88.74"/>
<polygon fill="#000000" fill-opacity="0.200000" stroke="#000000" stroke-width="2" stroke-opacity="0.200000" points="570.33,-90.09 576.23,-92.45 573.09,-86.92 570.33,-90.09"/>
</g>
<!-- src/dep.ts -->
<g id="node3" class="node">
<title>src/dep.ts</title>
<g id="a_node3"><a xlink:href="src/dep.ts" xlink:title="dep.ts">
<path fill="#ddfeff" stroke="black" d="M537.83,-177.25C537.83,-177.25 496.17,-177.25 496.17,-177.25 493.08,-177.25 490,-174.17 490,-171.08 490,-171.08 490,-164.92 490,-164.92 490,-161.83 493.08,-158.75 496.17,-158.75 496.17,-158.75 537.83,-158.75 537.83,-158.75 540.92,-158.75 544,-161.83 544,-164.92 544,-164.92 544,-171.08 544,-171.08 544,-174.17 540.92,-177.25 537.83,-177.25"/>
<text text-anchor="start" x="504.62" y="-164.7" font-family="Helvetica,sans-Serif" font-size="9.00">dep.ts</text>
</a>
</g>
</g>
<!-- src/arrayInstrumentations.ts&#45;&gt;src/dep.ts -->
<g id="edge2" class="edge">
<title>src/arrayInstrumentations.ts&#45;&gt;src/dep.ts</title>
<path fill="none" stroke="#000000" stroke-width="2" stroke-opacity="0.200000" d="M176.6,-130.68C222.34,-142.49 304.11,-161.78 375.5,-169 411.2,-172.61 452.25,-171.74 480.73,-170.35"/>
<polygon fill="#000000" fill-opacity="0.200000" stroke="#000000" stroke-width="2" stroke-opacity="0.200000" points="480.6,-172.46 486.48,-170.05 480.38,-168.27 480.6,-172.46"/>
</g>
<!-- src/effect.ts -->
<g id="node4" class="node">
<title>src/effect.ts</title>
<g id="a_node4"><a xlink:href="src/effect.ts" xlink:title="effect.ts">
<path fill="#ddfeff" stroke="black" d="M609.83,-230.25C609.83,-230.25 568.17,-230.25 568.17,-230.25 565.08,-230.25 562,-227.17 562,-224.08 562,-224.08 562,-217.92 562,-217.92 562,-214.83 565.08,-211.75 568.17,-211.75 568.17,-211.75 609.83,-211.75 609.83,-211.75 612.92,-211.75 616,-214.83 616,-217.92 616,-217.92 616,-224.08 616,-224.08 616,-227.17 612.92,-230.25 609.83,-230.25"/>
<text text-anchor="start" x="573.62" y="-217.7" font-family="Helvetica,sans-Serif" font-size="9.00">effect.ts</text>
</a>
</g>
</g>
<!-- src/arrayInstrumentations.ts&#45;&gt;src/effect.ts -->
<g id="edge3" class="edge">
<title>src/arrayInstrumentations.ts&#45;&gt;src/effect.ts</title>
<path fill="none" stroke="#000000" stroke-width="2" stroke-opacity="0.200000" d="M162.09,-130.74C175.5,-136.6 193.28,-143.89 209.5,-149 332.83,-187.87 485.74,-209.1 553.22,-217.16"/>
<polygon fill="#000000" fill-opacity="0.200000" stroke="#000000" stroke-width="2" stroke-opacity="0.200000" points="552.57,-219.19 558.78,-217.81 553.06,-215.02 552.57,-219.19"/>
</g>
<!-- src/reactive.ts -->
<g id="node5" class="node">
<title>src/reactive.ts</title>
<g id="a_node5"><a xlink:href="src/reactive.ts" xlink:title="reactive.ts">
<path fill="#ddfeff" stroke="black" d="M260.58,-129.25C260.58,-129.25 215.67,-129.25 215.67,-129.25 212.58,-129.25 209.5,-126.17 209.5,-123.08 209.5,-123.08 209.5,-116.92 209.5,-116.92 209.5,-113.83 212.58,-110.75 215.67,-110.75 215.67,-110.75 260.58,-110.75 260.58,-110.75 263.67,-110.75 266.75,-113.83 266.75,-116.92 266.75,-116.92 266.75,-123.08 266.75,-123.08 266.75,-126.17 263.67,-129.25 260.58,-129.25"/>
<text text-anchor="start" x="217.5" y="-116.7" font-family="Helvetica,sans-Serif" font-size="9.00">reactive.ts</text>
</a>
</g>
</g>
<!-- src/arrayInstrumentations.ts&#45;&gt;src/reactive.ts -->
<g id="edge4" class="edge">
<title>src/arrayInstrumentations.ts&#45;&gt;src/reactive.ts</title>
<g id="a_edge4"><a xlink:title="no&#45;circular">
<path fill="none" stroke="orange" stroke-width="2" d="M196.81,-120.42C196.95,-120.42 197.08,-120.42 197.22,-120.41"/>
<polygon fill="orange" stroke="orange" stroke-width="2" points="200.33,-122.48 206.3,-120.32 200.28,-118.28 200.33,-122.48"/>
<polyline fill="none" stroke="orange" stroke-width="2" points="199.3,-120.39 196.3,-120.42"/>
<ellipse fill="none" stroke="orange" stroke-width="2" cx="192.9" cy="-120.46" rx="2.4" ry="2.4"/>
</a>
</g>
<text text-anchor="middle" x="218.94" y="-122.36" font-family="Helvetica,sans-Serif" font-size="9.00" fill="orange">no&#45;circular</text>
</g>
<!-- src/dep.ts&#45;&gt;src/constants.ts -->
<g id="edge19" class="edge">
<title>src/dep.ts&#45;&gt;src/constants.ts</title>
<path fill="none" stroke="#000000" stroke-width="2" stroke-opacity="0.200000" d="M528.63,-158.28C539.97,-147.92 558.07,-131.37 571.31,-119.26"/>
<polygon fill="#000000" fill-opacity="0.200000" stroke="#000000" stroke-width="2" stroke-opacity="0.200000" points="572.48,-121.04 575.49,-115.44 569.65,-117.94 572.48,-121.04"/>
</g>
<!-- src/dep.ts&#45;&gt;src/effect.ts -->
<g id="edge20" class="edge">
<title>src/dep.ts&#45;&gt;src/effect.ts</title>
<g id="a_edge20"><a xlink:title="no&#45;circular">
<path fill="none" stroke="orange" stroke-width="2" d="M536.03,-177.66C544.84,-183.76 555.56,-191.79 564.96,-199.3"/>
<polygon fill="orange" stroke="orange" stroke-width="2" points="571.12,-207.21 577.07,-209.45 573.82,-203.99 571.12,-207.21"/>
<polyline fill="none" stroke="orange" stroke-width="2" points="571.7,-204.95 569.4,-203.03"/>
<ellipse fill="none" stroke="orange" stroke-width="2" cx="566.8" cy="-200.84" rx="2.4" ry="2.4"/>
</a>
</g>
<text text-anchor="middle" x="536.43" y="-185.41" font-family="Helvetica,sans-Serif" font-size="9.00" fill="orange">no&#45;circular</text>
</g>
<!-- src/effect.ts&#45;&gt;src/dep.ts -->
<g id="edge21" class="edge">
<title>src/effect.ts&#45;&gt;src/dep.ts</title>
<g id="a_edge21"><a xlink:title="no&#45;circular">
<path fill="none" stroke="orange" stroke-width="2" d="M569.92,-211.3C561.09,-205.19 550.38,-197.17 540.99,-189.66"/>
<polygon fill="orange" stroke="orange" stroke-width="2" points="534.85,-181.77 528.9,-179.52 532.15,-184.99 534.85,-181.77"/>
<polyline fill="none" stroke="orange" stroke-width="2" points="534.26,-184.02 536.56,-185.95"/>
<ellipse fill="none" stroke="orange" stroke-width="2" cx="539.17" cy="-188.13" rx="2.4" ry="2.4"/>
</a>
</g>
<text text-anchor="middle" x="526.02" y="-196.94" font-family="Helvetica,sans-Serif" font-size="9.00" fill="orange">no&#45;circular</text>
</g>
<!-- src/warning.ts -->
<g id="node8" class="node">
<title>src/warning.ts</title>
<g id="a_node8"><a xlink:href="src/warning.ts" xlink:title="warning.ts">
<path fill="#ddfeff" stroke="black" d="M771.83,-198.25C771.83,-198.25 726.17,-198.25 726.17,-198.25 723.08,-198.25 720,-195.17 720,-192.08 720,-192.08 720,-185.92 720,-185.92 720,-182.83 723.08,-179.75 726.17,-179.75 726.17,-179.75 771.83,-179.75 771.83,-179.75 774.92,-179.75 778,-182.83 778,-185.92 778,-185.92 778,-192.08 778,-192.08 778,-195.17 774.92,-198.25 771.83,-198.25"/>
<text text-anchor="start" x="728" y="-185.7" font-family="Helvetica,sans-Serif" font-size="9.00">warning.ts</text>
</a>
</g>
</g>
<!-- src/effect.ts&#45;&gt;src/warning.ts -->
<g id="edge23" class="edge">
<title>src/effect.ts&#45;&gt;src/warning.ts</title>
<path fill="none" stroke="#000000" stroke-width="2" stroke-opacity="0.200000" d="M616.45,-215.64C642.32,-210.4 681.96,-202.38 710.96,-196.5"/>
<polygon fill="#000000" fill-opacity="0.200000" stroke="#000000" stroke-width="2" stroke-opacity="0.200000" points="711.17,-198.6 716.63,-195.35 710.33,-194.49 711.17,-198.6"/>
</g>
<!-- src/effectScope.ts -->
<g id="node11" class="node">
<title>src/effectScope.ts</title>
<g id="a_node11"><a xlink:href="src/effectScope.ts" xlink:title="effectScope.ts">
<path fill="#ddfeff" stroke="black" d="M700.83,-305.25C700.83,-305.25 640.17,-305.25 640.17,-305.25 637.08,-305.25 634,-302.17 634,-299.08 634,-299.08 634,-292.92 634,-292.92 634,-289.83 637.08,-286.75 640.17,-286.75 640.17,-286.75 700.83,-286.75 700.83,-286.75 703.92,-286.75 707,-289.83 707,-292.92 707,-292.92 707,-299.08 707,-299.08 707,-302.17 703.92,-305.25 700.83,-305.25"/>
<text text-anchor="start" x="642" y="-292.7" font-family="Helvetica,sans-Serif" font-size="9.00">effectScope.ts</text>
</a>
</g>
</g>
<!-- src/effect.ts&#45;&gt;src/effectScope.ts -->
<g id="edge22" class="edge">
<title>src/effect.ts&#45;&gt;src/effectScope.ts</title>
<path fill="none" stroke="#000000" stroke-width="2" stroke-opacity="0.200000" d="M600.07,-230.5C613.38,-243.05 637,-265.34 652.95,-280.38"/>
<polygon fill="#000000" fill-opacity="0.200000" stroke="#000000" stroke-width="2" stroke-opacity="0.200000" points="651.25,-281.67 657.06,-284.26 654.14,-278.62 651.25,-281.67"/>
</g>
<!-- src/reactive.ts&#45;&gt;src/constants.ts -->
<g id="edge36" class="edge">
<title>src/reactive.ts&#45;&gt;src/constants.ts</title>
<path fill="none" stroke="#000000" stroke-width="2" stroke-opacity="0.200000" d="M267.04,-117.04C294.57,-114.23 337.89,-110.15 375.5,-108 426.32,-105.1 439.1,-105.93 490,-105 508.98,-104.65 530.02,-104.42 547.73,-104.27"/>
<polygon fill="#000000" fill-opacity="0.200000" stroke="#000000" stroke-width="2" stroke-opacity="0.200000" points="547.65,-106.37 553.64,-104.22 547.62,-102.17 547.65,-106.37"/>
</g>
<!-- src/baseHandlers.ts -->
<g id="node6" class="node">
<title>src/baseHandlers.ts</title>
<g id="a_node6"><a xlink:href="src/baseHandlers.ts" xlink:title="baseHandlers.ts">
<path fill="#ddfeff" stroke="black" d="M356.33,-92.25C356.33,-92.25 285.92,-92.25 285.92,-92.25 282.83,-92.25 279.75,-89.17 279.75,-86.08 279.75,-86.08 279.75,-79.92 279.75,-79.92 279.75,-76.83 282.83,-73.75 285.92,-73.75 285.92,-73.75 356.33,-73.75 356.33,-73.75 359.42,-73.75 362.5,-76.83 362.5,-79.92 362.5,-79.92 362.5,-86.08 362.5,-86.08 362.5,-89.17 359.42,-92.25 356.33,-92.25"/>
<text text-anchor="start" x="287.75" y="-79.7" font-family="Helvetica,sans-Serif" font-size="9.00">baseHandlers.ts</text>
</a>
</g>
</g>
<!-- src/reactive.ts&#45;&gt;src/baseHandlers.ts -->
<g id="edge34" class="edge">
<title>src/reactive.ts&#45;&gt;src/baseHandlers.ts</title>
<g id="a_edge34"><a xlink:title="no&#45;circular">
<path fill="none" stroke="orange" stroke-width="2" d="M249.12,-110.42C254.06,-107.4 260.35,-104.16 267.97,-100.52"/>
<polygon fill="orange" stroke="orange" stroke-width="2" points="277.57,-98.38 282.13,-93.95 275.8,-94.57 277.57,-98.38"/>
<polyline fill="none" stroke="orange" stroke-width="2" points="275.78,-96.89 273.06,-98.16"/>
<ellipse fill="none" stroke="orange" stroke-width="2" cx="269.97" cy="-99.59" rx="2.4" ry="2.4"/>
</a>
</g>
<text text-anchor="middle" x="245.16" y="-92.48" font-family="Helvetica,sans-Serif" font-size="9.00" fill="orange">no&#45;circular</text>
</g>
<!-- src/reactive.ts&#45;&gt;src/warning.ts -->
<g id="edge37" class="edge">
<title>src/reactive.ts&#45;&gt;src/warning.ts</title>
<path fill="none" stroke="#000000" stroke-width="2" stroke-opacity="0.200000" d="M243.98,-110.26C250.46,-98.34 263.06,-78.47 279.75,-68 370.76,-10.93 408.58,-17 516,-17 516,-17 516,-17 590,-17 651.53,-17 667.29,-44 707,-91 727.02,-114.7 738.44,-149.57 743.91,-170.7"/>
<polygon fill="#000000" fill-opacity="0.200000" stroke="#000000" stroke-width="2" stroke-opacity="0.200000" points="741.84,-171.07 745.3,-176.41 745.92,-170.08 741.84,-171.07"/>
</g>
<!-- src/collectionHandlers.ts -->
<g id="node9" class="node">
<title>src/collectionHandlers.ts</title>
<g id="a_node9"><a xlink:href="src/collectionHandlers.ts" xlink:title="collectionHandlers.ts">
<path fill="#ddfeff" stroke="black" d="M470.83,-132.25C470.83,-132.25 381.67,-132.25 381.67,-132.25 378.58,-132.25 375.5,-129.17 375.5,-126.08 375.5,-126.08 375.5,-119.92 375.5,-119.92 375.5,-116.83 378.58,-113.75 381.67,-113.75 381.67,-113.75 470.83,-113.75 470.83,-113.75 473.92,-113.75 477,-116.83 477,-119.92 477,-119.92 477,-126.08 477,-126.08 477,-129.17 473.92,-132.25 470.83,-132.25"/>
<text text-anchor="start" x="383.5" y="-119.7" font-family="Helvetica,sans-Serif" font-size="9.00">collectionHandlers.ts</text>
</a>
</g>
</g>
<!-- src/reactive.ts&#45;&gt;src/collectionHandlers.ts -->
<g id="edge35" class="edge">
<title>src/reactive.ts&#45;&gt;src/collectionHandlers.ts</title>
<g id="a_edge35"><a xlink:title="no&#45;circular">
<path fill="none" stroke="orange" stroke-width="2" d="M266.99,-117.13C290.59,-116.45 325.43,-116.67 356.42,-117.53"/>
<polygon fill="orange" stroke="orange" stroke-width="2" points="365.98,-119.95 372.05,-118.05 366.12,-115.75 365.98,-119.95"/>
<polyline fill="none" stroke="orange" stroke-width="2" points="365.05,-117.81 362.06,-117.72"/>
<ellipse fill="none" stroke="orange" stroke-width="2" cx="358.66" cy="-117.6" rx="2.4" ry="2.4"/>
</a>
</g>
<text text-anchor="middle" x="299.35" y="-108.3" font-family="Helvetica,sans-Serif" font-size="9.00" fill="orange">no&#45;circular</text>
</g>
<!-- src/baseHandlers.ts&#45;&gt;src/arrayInstrumentations.ts -->
<g id="edge5" class="edge">
<title>src/baseHandlers.ts&#45;&gt;src/arrayInstrumentations.ts</title>
<g id="a_edge5"><a xlink:title="no&#45;circular">
<path fill="none" stroke="orange" stroke-width="2" d="M279.34,-90.78C258.43,-94.86 232.57,-100.02 209.5,-105 206.23,-105.71 202.87,-106.44 199.49,-107.2"/>
<polygon fill="orange" stroke="orange" stroke-width="2" points="189.75,-107.26 184.37,-110.64 190.69,-111.35 189.75,-107.26"/>
<polyline fill="none" stroke="orange" stroke-width="2" points="191.19,-109.08 194.12,-108.42"/>
<ellipse fill="none" stroke="orange" stroke-width="2" cx="197.44" cy="-107.66" rx="2.4" ry="2.4"/>
</a>
</g>
<text text-anchor="middle" x="208.27" y="-102.62" font-family="Helvetica,sans-Serif" font-size="9.00" fill="orange">no&#45;circular</text>
</g>
<!-- src/baseHandlers.ts&#45;&gt;src/constants.ts -->
<g id="edge6" class="edge">
<title>src/baseHandlers.ts&#45;&gt;src/constants.ts</title>
<path fill="none" stroke="#000000" stroke-width="2" stroke-opacity="0.200000" d="M362.8,-77.68C407.76,-73.02 482.01,-68.97 544,-83 550.97,-84.58 558.12,-87.4 564.58,-90.47"/>
<polygon fill="#000000" fill-opacity="0.200000" stroke="#000000" stroke-width="2" stroke-opacity="0.200000" points="563.33,-92.19 569.63,-93.04 565.24,-88.45 563.33,-92.19"/>
</g>
<!-- src/baseHandlers.ts&#45;&gt;src/dep.ts -->
<g id="edge7" class="edge">
<title>src/baseHandlers.ts&#45;&gt;src/dep.ts</title>
<path fill="none" stroke="#000000" stroke-width="2" stroke-opacity="0.200000" d="M362.85,-80.85C396.11,-81.02 442.99,-85.85 477,-108 492.37,-118.01 502.99,-136.43 509.22,-150.24"/>
<polygon fill="#000000" fill-opacity="0.200000" stroke="#000000" stroke-width="2" stroke-opacity="0.200000" points="507.26,-150.99 511.51,-155.71 511.13,-149.37 507.26,-150.99"/>
</g>
<!-- src/baseHandlers.ts&#45;&gt;src/reactive.ts -->
<g id="edge8" class="edge">
<title>src/baseHandlers.ts&#45;&gt;src/reactive.ts</title>
<g id="a_edge8"><a xlink:title="no&#45;circular">
<path fill="none" stroke="orange" stroke-width="2" d="M309.48,-92.62C303.68,-95.94 296.18,-99.49 284.16,-104.99"/>
<polygon fill="orange" stroke="orange" stroke-width="2" points="274.41,-107.13 269.82,-111.53 276.15,-110.95 274.41,-107.13"/>
<polyline fill="none" stroke="orange" stroke-width="2" points="276.19,-108.62 278.92,-107.38"/>
<ellipse fill="none" stroke="orange" stroke-width="2" cx="282.01" cy="-105.97" rx="2.4" ry="2.4"/>
</a>
</g>
<text text-anchor="middle" x="310.47" y="-94.34" font-family="Helvetica,sans-Serif" font-size="9.00" fill="orange">no&#45;circular</text>
</g>
<!-- src/ref.ts -->
<g id="node7" class="node">
<title>src/ref.ts</title>
<g id="a_node7"><a xlink:href="src/ref.ts" xlink:title="ref.ts">
<path fill="#ddfeff" stroke="black" d="M447.08,-163.25C447.08,-163.25 405.42,-163.25 405.42,-163.25 402.33,-163.25 399.25,-160.17 399.25,-157.08 399.25,-157.08 399.25,-150.92 399.25,-150.92 399.25,-147.83 402.33,-144.75 405.42,-144.75 405.42,-144.75 447.08,-144.75 447.08,-144.75 450.17,-144.75 453.25,-147.83 453.25,-150.92 453.25,-150.92 453.25,-157.08 453.25,-157.08 453.25,-160.17 450.17,-163.25 447.08,-163.25"/>
<text text-anchor="start" x="416.5" y="-150.7" font-family="Helvetica,sans-Serif" font-size="9.00">ref.ts</text>
</a>
</g>
</g>
<!-- src/baseHandlers.ts&#45;&gt;src/ref.ts -->
<g id="edge9" class="edge">
<title>src/baseHandlers.ts&#45;&gt;src/ref.ts</title>
<g id="a_edge9"><a xlink:title="no&#45;circular">
<path fill="none" stroke="orange" stroke-width="2" d="M328.99,-92.55C338.24,-104.77 355.83,-125.78 375.5,-138 377.38,-139.17 379.36,-140.26 381.4,-141.28"/>
<polygon fill="orange" stroke="orange" stroke-width="2" points="389.72,-146.8 396.07,-147.03 391.25,-142.89 389.72,-146.8"/>
<polyline fill="none" stroke="orange" stroke-width="2" points="389.55,-144.48 386.76,-143.38"/>
<ellipse fill="none" stroke="orange" stroke-width="2" cx="383.59" cy="-142.14" rx="2.4" ry="2.4"/>
</a>
</g>
<text text-anchor="middle" x="337.37" y="-127.58" font-family="Helvetica,sans-Serif" font-size="9.00" fill="orange">no&#45;circular</text>
</g>
<!-- src/baseHandlers.ts&#45;&gt;src/warning.ts -->
<g id="edge10" class="edge">
<title>src/baseHandlers.ts&#45;&gt;src/warning.ts</title>
<path fill="none" stroke="#000000" stroke-width="2" stroke-opacity="0.200000" d="M356.93,-73.26C363.07,-71.9 369.44,-70.73 375.5,-70 484.16,-56.96 519.05,-49.23 621,-89 662.19,-105.07 673.34,-110.34 707,-139 718.31,-148.63 728.88,-161.65 736.45,-172"/>
<polygon fill="#000000" fill-opacity="0.200000" stroke="#000000" stroke-width="2" stroke-opacity="0.200000" points="734.68,-173.14 739.87,-176.82 738.11,-170.71 734.68,-173.14"/>
</g>
<!-- src/ref.ts&#45;&gt;src/constants.ts -->
<g id="edge38" class="edge">
<title>src/ref.ts&#45;&gt;src/constants.ts</title>
<path fill="none" stroke="#000000" stroke-width="2" stroke-opacity="0.200000" d="M453.44,-145.86C479.18,-137.85 518.82,-125.52 548.42,-116.31"/>
<polygon fill="#000000" fill-opacity="0.200000" stroke="#000000" stroke-width="2" stroke-opacity="0.200000" points="548.87,-118.37 553.98,-114.58 547.62,-114.36 548.87,-118.37"/>
</g>
<!-- src/ref.ts&#45;&gt;src/dep.ts -->
<g id="edge39" class="edge">
<title>src/ref.ts&#45;&gt;src/dep.ts</title>
<path fill="none" stroke="#000000" stroke-width="2" stroke-opacity="0.200000" d="M453.4,-158.12C461.99,-159.48 471.68,-161.01 480.83,-162.45"/>
<polygon fill="#000000" fill-opacity="0.200000" stroke="#000000" stroke-width="2" stroke-opacity="0.200000" points="480.49,-164.52 486.74,-163.38 481.14,-160.38 480.49,-164.52"/>
</g>
<!-- src/ref.ts&#45;&gt;src/reactive.ts -->
<g id="edge40" class="edge">
<title>src/ref.ts&#45;&gt;src/reactive.ts</title>
<g id="a_edge40"><a xlink:title="no&#45;circular">
<path fill="none" stroke="orange" stroke-width="2" d="M399,-149.21C369.56,-143.83 321.23,-135 285.41,-128.45"/>
<polygon fill="orange" stroke="orange" stroke-width="2" points="276.25,-124.65 269.97,-125.63 275.49,-128.78 276.25,-124.65"/>
<polyline fill="none" stroke="orange" stroke-width="2" points="276.85,-126.89 279.8,-127.43"/>
<ellipse fill="none" stroke="orange" stroke-width="2" cx="283.15" cy="-128.04" rx="2.4" ry="2.4"/>
</a>
</g>
<text text-anchor="middle" x="310.93" y="-139.04" font-family="Helvetica,sans-Serif" font-size="9.00" fill="orange">no&#45;circular</text>
</g>
<!-- src/ref.ts&#45;&gt;src/warning.ts -->
<g id="edge41" class="edge">
<title>src/ref.ts&#45;&gt;src/warning.ts</title>
<path fill="none" stroke="#000000" stroke-width="2" stroke-opacity="0.200000" d="M453.51,-153.49C464.74,-153.29 478.02,-153.1 490,-153 514,-152.81 520.09,-150.91 544,-153 602.95,-158.16 670.41,-171.56 711.07,-180.48"/>
<polygon fill="#000000" fill-opacity="0.200000" stroke="#000000" stroke-width="2" stroke-opacity="0.200000" points="710.56,-182.51 716.87,-181.76 711.47,-178.41 710.56,-182.51"/>
</g>
<!-- src/collectionHandlers.ts&#45;&gt;src/constants.ts -->
<g id="edge11" class="edge">
<title>src/collectionHandlers.ts&#45;&gt;src/constants.ts</title>
<path fill="none" stroke="#000000" stroke-width="2" stroke-opacity="0.200000" d="M477.23,-115.64C481.55,-115.07 485.85,-114.51 490,-114 508.94,-111.68 529.98,-109.48 547.69,-107.74"/>
<polygon fill="#000000" fill-opacity="0.200000" stroke="#000000" stroke-width="2" stroke-opacity="0.200000" points="547.85,-109.83 553.61,-107.17 547.44,-105.65 547.85,-109.83"/>
</g>
<!-- src/collectionHandlers.ts&#45;&gt;src/dep.ts -->
<g id="edge12" class="edge">
<title>src/collectionHandlers.ts&#45;&gt;src/dep.ts</title>
<path fill="none" stroke="#000000" stroke-width="2" stroke-opacity="0.200000" d="M462.36,-132.68C467.38,-134.53 472.4,-136.63 477,-139 484.33,-142.77 491.75,-147.89 498.12,-152.78"/>
<polygon fill="#000000" fill-opacity="0.200000" stroke="#000000" stroke-width="2" stroke-opacity="0.200000" points="496.69,-154.32 502.69,-156.43 499.31,-151.04 496.69,-154.32"/>
</g>
<!-- src/collectionHandlers.ts&#45;&gt;src/reactive.ts -->
<g id="edge13" class="edge">
<title>src/collectionHandlers.ts&#45;&gt;src/reactive.ts</title>
<g id="a_edge13"><a xlink:title="no&#45;circular">
<path fill="none" stroke="orange" stroke-width="2" d="M375.08,-126.24C347.29,-126.42 312.97,-125.84 285.76,-124.71"/>
<polygon fill="orange" stroke="orange" stroke-width="2" points="276.11,-122.13 270.01,-123.92 275.9,-126.32 276.11,-122.13"/>
<polyline fill="none" stroke="orange" stroke-width="2" points="277,-124.27 280,-124.42"/>
<ellipse fill="none" stroke="orange" stroke-width="2" cx="283.4" cy="-124.59" rx="2.4" ry="2.4"/>
</a>
</g>
<text text-anchor="middle" x="342.56" y="-117.24" font-family="Helvetica,sans-Serif" font-size="9.00" fill="orange">no&#45;circular</text>
</g>
<!-- src/collectionHandlers.ts&#45;&gt;src/warning.ts -->
<g id="edge14" class="edge">
<title>src/collectionHandlers.ts&#45;&gt;src/warning.ts</title>
<path fill="none" stroke="#000000" stroke-width="2" stroke-opacity="0.200000" d="M477.39,-123.39C534.67,-125.32 630.37,-133.12 707,-162 714.8,-164.94 722.62,-169.57 729.31,-174.17"/>
<polygon fill="#000000" fill-opacity="0.200000" stroke="#000000" stroke-width="2" stroke-opacity="0.200000" points="728.03,-175.84 734.12,-177.68 730.51,-172.45 728.03,-175.84"/>
</g>
<!-- src/computed.ts -->
<g id="node10" class="node">
<title>src/computed.ts</title>
<g id="a_node10"><a xlink:href="src/computed.ts" xlink:title="computed.ts">
<path fill="#ddfeff" stroke="black" d="M452.83,-263.25C452.83,-263.25 399.67,-263.25 399.67,-263.25 396.58,-263.25 393.5,-260.17 393.5,-257.08 393.5,-257.08 393.5,-250.92 393.5,-250.92 393.5,-247.83 396.58,-244.75 399.67,-244.75 399.67,-244.75 452.83,-244.75 452.83,-244.75 455.92,-244.75 459,-247.83 459,-250.92 459,-250.92 459,-257.08 459,-257.08 459,-260.17 455.92,-263.25 452.83,-263.25"/>
<text text-anchor="start" x="401.5" y="-250.7" font-family="Helvetica,sans-Serif" font-size="9.00">computed.ts</text>
</a>
</g>
</g>
<!-- src/computed.ts&#45;&gt;src/constants.ts -->
<g id="edge15" class="edge">
<title>src/computed.ts&#45;&gt;src/constants.ts</title>
<path fill="none" stroke="#000000" stroke-width="2" stroke-opacity="0.200000" d="M458.16,-244.31C483.86,-234.92 519.99,-218.49 544,-194 564.18,-173.41 576.67,-141.76 582.97,-121.99"/>
<polygon fill="#000000" fill-opacity="0.200000" stroke="#000000" stroke-width="2" stroke-opacity="0.200000" points="584.91,-122.84 584.63,-116.49 580.89,-121.63 584.91,-122.84"/>
</g>
<!-- src/computed.ts&#45;&gt;src/dep.ts -->
<g id="edge16" class="edge">
<title>src/computed.ts&#45;&gt;src/dep.ts</title>
<path fill="none" stroke="#000000" stroke-width="2" stroke-opacity="0.200000" d="M438.07,-244.29C448.26,-235.08 463.85,-220.8 477,-208 484.98,-200.23 493.65,-191.38 500.78,-183.98"/>
<polygon fill="#000000" fill-opacity="0.200000" stroke="#000000" stroke-width="2" stroke-opacity="0.200000" points="502.1,-185.64 504.74,-179.86 499.07,-182.73 502.1,-185.64"/>
</g>
<!-- src/computed.ts&#45;&gt;src/effect.ts -->
<g id="edge17" class="edge">
<title>src/computed.ts&#45;&gt;src/effect.ts</title>
<path fill="none" stroke="#000000" stroke-width="2" stroke-opacity="0.200000" d="M459.26,-250.6C482.89,-247.72 515.72,-242.94 544,-236 547.16,-235.22 550.43,-234.32 553.67,-233.34"/>
<polygon fill="#000000" fill-opacity="0.200000" stroke="#000000" stroke-width="2" stroke-opacity="0.200000" points="554.2,-235.38 559.28,-231.57 552.93,-231.38 554.2,-235.38"/>
</g>
<!-- src/computed.ts&#45;&gt;src/warning.ts -->
<g id="edge18" class="edge">
<title>src/computed.ts&#45;&gt;src/warning.ts</title>
<path fill="none" stroke="#000000" stroke-width="2" stroke-opacity="0.200000" d="M459.49,-251.86C482.95,-250.22 515.47,-247.77 544,-245 578.29,-241.68 587.3,-243.19 621,-236 660.18,-227.64 669.78,-223.82 707,-209 711.9,-207.05 717.03,-204.76 721.93,-202.44"/>
<polygon fill="#000000" fill-opacity="0.200000" stroke="#000000" stroke-width="2" stroke-opacity="0.200000" points="722.7,-204.4 727.17,-199.88 720.86,-200.62 722.7,-204.4"/>
</g>
<!-- src/effectScope.ts&#45;&gt;src/warning.ts -->
<g id="edge24" class="edge">
<title>src/effectScope.ts&#45;&gt;src/warning.ts</title>
<path fill="none" stroke="#000000" stroke-width="2" stroke-opacity="0.200000" d="M695.91,-286.4C699.94,-284.07 703.84,-281.28 707,-278 726.47,-257.78 737.88,-226.65 743.52,-207.08"/>
<polygon fill="#000000" fill-opacity="0.200000" stroke="#000000" stroke-width="2" stroke-opacity="0.200000" points="745.51,-207.76 745.05,-201.42 741.46,-206.66 745.51,-207.76"/>
</g>
<!-- src/index.ts -->
<g id="node12" class="node">
<title>src/index.ts</title>
<g id="a_node12"><a xlink:href="src/index.ts" xlink:title="index.ts">
<path fill="#ddfeff" stroke="black" d="M63.83,-199.25C63.83,-199.25 22.17,-199.25 22.17,-199.25 19.08,-199.25 16,-196.17 16,-193.08 16,-193.08 16,-186.92 16,-186.92 16,-183.83 19.08,-180.75 22.17,-180.75 22.17,-180.75 63.83,-180.75 63.83,-180.75 66.92,-180.75 70,-183.83 70,-186.92 70,-186.92 70,-193.08 70,-193.08 70,-196.17 66.92,-199.25 63.83,-199.25"/>
<text text-anchor="start" x="27.25" y="-186.7" font-family="Helvetica,sans-Serif" font-size="9.00">index.ts</text>
</a>
</g>
</g>
<!-- src/index.ts&#45;&gt;src/arrayInstrumentations.ts -->
<g id="edge25" class="edge">
<title>src/index.ts&#45;&gt;src/arrayInstrumentations.ts</title>
<path fill="none" stroke="#000000" stroke-width="2" stroke-opacity="0.200000" d="M49.47,-180.62C56.14,-169.92 68.36,-152.54 83,-142 87.58,-138.7 92.75,-135.85 98.04,-133.41"/>
<polygon fill="#000000" fill-opacity="0.200000" stroke="#000000" stroke-width="2" stroke-opacity="0.200000" points="104.19,-133.06 97.85,-133.49 102.53,-129.2 104.19,-133.06"/>
</g>
<!-- src/index.ts&#45;&gt;src/constants.ts -->
<g id="edge27" class="edge">
<title>src/index.ts&#45;&gt;src/constants.ts</title>
<path fill="none" stroke="#000000" stroke-width="2" stroke-opacity="0.200000" d="M46.17,-180.48C50.48,-163.51 61.6,-127.8 83,-106 136.37,-51.64 160.95,-31 237.12,-31 237.12,-31 237.12,-31 427.25,-31 480.14,-31 498.15,-27.64 544,-54 558.55,-62.36 570.74,-77.31 578.58,-88.69"/>
<polygon fill="#000000" fill-opacity="0.200000" stroke="#000000" stroke-width="2" stroke-opacity="0.200000" points="580.16,-94.91 578.61,-88.74 583.67,-92.59 580.16,-94.91"/>
</g>
<!-- src/index.ts&#45;&gt;src/dep.ts -->
<g id="edge28" class="edge">
<title>src/index.ts&#45;&gt;src/dep.ts</title>
<path fill="none" stroke="#000000" stroke-width="2" stroke-opacity="0.200000" d="M70.43,-190.09C138.17,-190.08 323.48,-188.6 477,-174 478.92,-173.82 480.89,-173.6 482.87,-173.37"/>
<polygon fill="#000000" fill-opacity="0.200000" stroke="#000000" stroke-width="2" stroke-opacity="0.200000" points="488.9,-174.69 482.68,-173.39 488.35,-170.53 488.9,-174.69"/>
</g>
<!-- src/index.ts&#45;&gt;src/effect.ts -->
<g id="edge29" class="edge">
<title>src/index.ts&#45;&gt;src/effect.ts</title>
<path fill="none" stroke="#000000" stroke-width="2" stroke-opacity="0.200000" d="M47.05,-199.36C52.11,-213.31 63.67,-239.28 83,-252 140.92,-290.1 167.8,-276 237.12,-276 237.12,-276 237.12,-276 322.12,-276 421.69,-276 453.15,-285.75 544,-245 551.17,-241.78 558.76,-237.85 565.58,-234.1"/>
<polygon fill="#000000" fill-opacity="0.200000" stroke="#000000" stroke-width="2" stroke-opacity="0.200000" points="571.75,-233.06 565.48,-234.16 569.7,-229.39 571.75,-233.06"/>
</g>
<!-- src/index.ts&#45;&gt;src/reactive.ts -->
<g id="edge31" class="edge">
<title>src/index.ts&#45;&gt;src/reactive.ts</title>
<path fill="none" stroke="#000000" stroke-width="2" stroke-opacity="0.200000" d="M52.63,-180.34C59.96,-172.77 71.14,-162.62 83,-157 129.36,-135.03 147.18,-150.13 196.5,-136 200.42,-134.88 204.49,-133.52 208.47,-132.07"/>
<polygon fill="#000000" fill-opacity="0.200000" stroke="#000000" stroke-width="2" stroke-opacity="0.200000" points="214.85,-131.91 208.49,-132.06 213.36,-127.98 214.85,-131.91"/>
</g>
<!-- src/index.ts&#45;&gt;src/ref.ts -->
<g id="edge32" class="edge">
<title>src/index.ts&#45;&gt;src/ref.ts</title>
<path fill="none" stroke="#000000" stroke-width="2" stroke-opacity="0.200000" d="M70.43,-187.29C74.64,-186.85 78.94,-186.41 83,-186 170.44,-177.07 192.22,-174.06 279.75,-166 318.3,-162.45 362.65,-158.86 392.15,-156.55"/>
<polygon fill="#000000" fill-opacity="0.200000" stroke="#000000" stroke-width="2" stroke-opacity="0.200000" points="398.12,-158.19 391.97,-156.56 397.79,-154 398.12,-158.19"/>
</g>
<!-- src/index.ts&#45;&gt;src/computed.ts -->
<g id="edge26" class="edge">
<title>src/index.ts&#45;&gt;src/computed.ts</title>
<path fill="none" stroke="#000000" stroke-width="2" stroke-opacity="0.200000" d="M49.48,-199.52C56,-209.83 67.92,-225.76 83,-233 183.45,-281.24 319.98,-270.16 386.12,-260.72"/>
<polygon fill="#000000" fill-opacity="0.200000" stroke="#000000" stroke-width="2" stroke-opacity="0.200000" points="392.39,-261.92 386.14,-260.72 391.77,-257.77 392.39,-261.92"/>
</g>
<!-- src/index.ts&#45;&gt;src/effectScope.ts -->
<g id="edge30" class="edge">
<title>src/index.ts&#45;&gt;src/effectScope.ts</title>
<path fill="none" stroke="#000000" stroke-width="2" stroke-opacity="0.200000" d="M45.95,-199.72C49.86,-216.57 60.3,-251.1 83,-269 138.16,-312.5 166.88,-304 237.12,-304 237.12,-304 237.12,-304 518,-304 554.7,-304 596.33,-301.63 626.65,-299.47"/>
<polygon fill="#000000" fill-opacity="0.200000" stroke="#000000" stroke-width="2" stroke-opacity="0.200000" points="632.87,-301.12 626.73,-299.46 632.56,-296.93 632.87,-301.12"/>
</g>
<!-- src/watch.ts -->
<g id="node13" class="node">
<title>src/watch.ts</title>
<g id="a_node13"><a xlink:href="src/watch.ts" xlink:title="watch.ts">
<path fill="#ddfeff" stroke="black" d="M160.58,-227.25C160.58,-227.25 118.92,-227.25 118.92,-227.25 115.83,-227.25 112.75,-224.17 112.75,-221.08 112.75,-221.08 112.75,-214.92 112.75,-214.92 112.75,-211.83 115.83,-208.75 118.92,-208.75 118.92,-208.75 160.58,-208.75 160.58,-208.75 163.67,-208.75 166.75,-211.83 166.75,-214.92 166.75,-214.92 166.75,-221.08 166.75,-221.08 166.75,-224.17 163.67,-227.25 160.58,-227.25"/>
<text text-anchor="start" x="123.25" y="-214.7" font-family="Helvetica,sans-Serif" font-size="9.00">watch.ts</text>
</a>
</g>
</g>
<!-- src/index.ts&#45;&gt;src/watch.ts -->
<g id="edge33" class="edge">
<title>src/index.ts&#45;&gt;src/watch.ts</title>
<path fill="none" stroke="#000000" stroke-width="2" stroke-opacity="0.200000" d="M70.39,-197.8C81.38,-201.05 94.25,-204.85 105.84,-208.28"/>
<polygon fill="#000000" fill-opacity="0.200000" stroke="#000000" stroke-width="2" stroke-opacity="0.200000" points="110.94,-211.97 105.79,-208.26 112.13,-207.94 110.94,-211.97"/>
</g>
<!-- src/watch.ts&#45;&gt;src/constants.ts -->
<g id="edge42" class="edge">
<title>src/watch.ts&#45;&gt;src/constants.ts</title>
<path fill="none" stroke="#000000" stroke-width="2" stroke-opacity="0.200000" d="M167.25,-216.38C254.49,-210.97 528.15,-193.26 544,-183 565.53,-169.06 577.5,-140.73 583.35,-122.06"/>
<polygon fill="#000000" fill-opacity="0.200000" stroke="#000000" stroke-width="2" stroke-opacity="0.200000" points="585.32,-122.8 584.96,-116.45 581.28,-121.63 585.32,-122.8"/>
</g>
<!-- src/watch.ts&#45;&gt;src/effect.ts -->
<g id="edge43" class="edge">
<title>src/watch.ts&#45;&gt;src/effect.ts</title>
<path fill="none" stroke="#000000" stroke-width="2" stroke-opacity="0.200000" d="M167.14,-221.35C202.08,-225.5 265.62,-232 320.12,-232 320.12,-232 320.12,-232 427.25,-232 470.59,-232 520.35,-227.97 552.88,-224.79"/>
<polygon fill="#000000" fill-opacity="0.200000" stroke="#000000" stroke-width="2" stroke-opacity="0.200000" points="552.81,-226.91 558.57,-224.22 552.39,-222.73 552.81,-226.91"/>
</g>
<!-- src/watch.ts&#45;&gt;src/reactive.ts -->
<g id="edge45" class="edge">
<title>src/watch.ts&#45;&gt;src/reactive.ts</title>
<path fill="none" stroke="#000000" stroke-width="2" stroke-opacity="0.200000" d="M149.99,-208.6C166.5,-191.82 201.22,-156.51 221.5,-135.89"/>
<polygon fill="#000000" fill-opacity="0.200000" stroke="#000000" stroke-width="2" stroke-opacity="0.200000" points="222.94,-137.42 225.65,-131.67 219.94,-134.48 222.94,-137.42"/>
</g>
<!-- src/watch.ts&#45;&gt;src/ref.ts -->
<g id="edge46" class="edge">
<title>src/watch.ts&#45;&gt;src/ref.ts</title>
<path fill="none" stroke="#000000" stroke-width="2" stroke-opacity="0.200000" d="M167.01,-212.09C218.45,-200.52 332.53,-174.86 390.29,-161.86"/>
<polygon fill="#000000" fill-opacity="0.200000" stroke="#000000" stroke-width="2" stroke-opacity="0.200000" points="390.71,-163.92 396.11,-160.56 389.79,-159.82 390.71,-163.92"/>
</g>
<!-- src/watch.ts&#45;&gt;src/warning.ts -->
<g id="edge47" class="edge">
<title>src/watch.ts&#45;&gt;src/warning.ts</title>
<path fill="none" stroke="#000000" stroke-width="2" stroke-opacity="0.200000" d="M154.71,-227.66C168.24,-236.69 189.58,-250.09 209.5,-259 300.24,-299.59 325.84,-318 425.25,-318 425.25,-318 425.25,-318 590,-318 642.09,-318 665.63,-342.66 707,-311 739.24,-286.33 746.37,-235.23 747.79,-207.64"/>
<polygon fill="#000000" fill-opacity="0.200000" stroke="#000000" stroke-width="2" stroke-opacity="0.200000" points="749.89,-207.72 747.99,-201.65 745.69,-207.58 749.89,-207.72"/>
</g>
<!-- src/watch.ts&#45;&gt;src/effectScope.ts -->
<g id="edge44" class="edge">
<title>src/watch.ts&#45;&gt;src/effectScope.ts</title>
<path fill="none" stroke="#000000" stroke-width="2" stroke-opacity="0.200000" d="M163.13,-227.71C210.51,-247.36 324.88,-290 425.25,-290 425.25,-290 425.25,-290 518,-290 553.9,-290 594.55,-291.7 624.7,-293.29"/>
<polygon fill="#000000" fill-opacity="0.200000" stroke="#000000" stroke-width="2" stroke-opacity="0.200000" points="624.57,-295.39 630.68,-293.62 624.8,-291.2 624.57,-295.39"/>
</g>
</g>
</svg>
