<?xml version="1.0" encoding="UTF-8" standalone="no"?>
<!DOCTYPE svg PUBLIC "-//W3C//DTD SVG 1.1//EN"
 "http://www.w3.org/Graphics/SVG/1.1/DTD/svg11.dtd">
<!-- Generated by graphviz version 12.2.1 (20241206.2353)
 -->
<!-- Title: dependency&#45;cruiser output Pages: 1 -->
<svg width="802pt" height="536pt"
 viewBox="0.00 0.00 802.00 535.50" xmlns="http://www.w3.org/2000/svg" xmlns:xlink="http://www.w3.org/1999/xlink">
<g id="graph0" class="graph" transform="scale(1 1) rotate(0) translate(4 531.5)">
<title>dependency&#45;cruiser output</title>
<polygon fill="white" stroke="none" points="-4,4 -4,-531.5 798,-531.5 798,4 -4,4"/>
<g id="clust1" class="cluster">
<title>cluster_@vue</title>
<path fill="#ffffff" stroke="black" stroke-width="2" d="M647.5,-97.5C647.5,-97.5 693.5,-97.5 693.5,-97.5 699.5,-97.5 705.5,-103.5 705.5,-109.5 705.5,-109.5 705.5,-138.5 705.5,-138.5 705.5,-144.5 699.5,-150.5 693.5,-150.5 693.5,-150.5 647.5,-150.5 647.5,-150.5 641.5,-150.5 635.5,-144.5 635.5,-138.5 635.5,-138.5 635.5,-109.5 635.5,-109.5 635.5,-103.5 641.5,-97.5 647.5,-97.5"/>
<text text-anchor="middle" x="670.5" y="-137.95" font-family="Helvetica,sans-Serif" font-weight="bold" font-size="9.00">@vue</text>
</g>
<g id="clust2" class="cluster">
<title>cluster_src</title>
<path fill="#ffffff" stroke="black" stroke-width="2" d="M20,-182.5C20,-182.5 774,-182.5 774,-182.5 780,-182.5 786,-188.5 786,-194.5 786,-194.5 786,-507.5 786,-507.5 786,-513.5 780,-519.5 774,-519.5 774,-519.5 20,-519.5 20,-519.5 14,-519.5 8,-513.5 8,-507.5 8,-507.5 8,-194.5 8,-194.5 8,-188.5 14,-182.5 20,-182.5"/>
<text text-anchor="middle" x="397" y="-506.95" font-family="Helvetica,sans-Serif" font-weight="bold" font-size="9.00">src</text>
</g>
<!-- @vue/shared -->
<g id="node1" class="node">
<title>@vue/shared</title>
<g id="a_node1"><a xlink:title="shared">
<path fill="#ffffcc" stroke="black" d="M691.33,-123.75C691.33,-123.75 649.67,-123.75 649.67,-123.75 646.58,-123.75 643.5,-120.67 643.5,-117.58 643.5,-117.58 643.5,-111.42 643.5,-111.42 643.5,-108.33 646.58,-105.25 649.67,-105.25 649.67,-105.25 691.33,-105.25 691.33,-105.25 694.42,-105.25 697.5,-108.33 697.5,-111.42 697.5,-111.42 697.5,-117.58 697.5,-117.58 697.5,-120.67 694.42,-123.75 691.33,-123.75"/>
<text text-anchor="start" x="656.25" y="-111.2" font-family="Helvetica,sans-Serif" font-size="9.00">shared</text>
</a>
</g>
</g>
<!-- src/arrayInstrumentations.ts -->
<g id="node2" class="node">
<title>src/arrayInstrumentations.ts</title>
<g id="a_node2"><a xlink:href="src/arrayInstrumentations.ts" xlink:title="arrayInstrumentations.ts">
<path fill="#ddfeff" stroke="black" d="M190.33,-304.75C190.33,-304.75 89.17,-304.75 89.17,-304.75 86.08,-304.75 83,-301.67 83,-298.58 83,-298.58 83,-292.42 83,-292.42 83,-289.33 86.08,-286.25 89.17,-286.25 89.17,-286.25 190.33,-286.25 190.33,-286.25 193.42,-286.25 196.5,-289.33 196.5,-292.42 196.5,-292.42 196.5,-298.58 196.5,-298.58 196.5,-301.67 193.42,-304.75 190.33,-304.75"/>
<text text-anchor="start" x="91" y="-292.2" font-family="Helvetica,sans-Serif" font-size="9.00">arrayInstrumentations.ts</text>
</a>
</g>
</g>
<!-- src/arrayInstrumentations.ts&#45;&gt;@vue/shared -->
<g id="edge5" class="edge">
<title>src/arrayInstrumentations.ts&#45;&gt;@vue/shared</title>
<g id="a_edge5"><a xlink:title="not&#45;to&#45;unresolvable">
<path fill="none" stroke="red" stroke-width="2" d="M141.79,-285.93C146.72,-242.27 169.26,-62.67 209.5,-26.5 246.45,6.71 270.45,-10.5 320.12,-10.5 320.12,-10.5 320.12,-10.5 518,-10.5 564.33,-10.5 583.04,0.06 621,-26.5 645.04,-43.33 658.43,-76.04 664.79,-96.5"/>
<polygon fill="red" stroke="red" stroke-width="2" points="662.7,-96.84 666.38,-102.02 666.73,-95.67 662.7,-96.84"/>
</a>
</g>
<text text-anchor="middle" x="305.11" y="-1.95" font-family="Helvetica,sans-Serif" font-size="9.00" fill="red">not&#45;to&#45;unresolvable</text>
</g>
<!-- src/constants.ts -->
<g id="node3" class="node">
<title>src/constants.ts</title>
<g id="a_node3"><a xlink:href="src/constants.ts" xlink:title="constants.ts">
<path fill="#ddfeff" stroke="black" d="M614.83,-322.75C614.83,-322.75 563.17,-322.75 563.17,-322.75 560.08,-322.75 557,-319.67 557,-316.58 557,-316.58 557,-310.42 557,-310.42 557,-307.33 560.08,-304.25 563.17,-304.25 563.17,-304.25 614.83,-304.25 614.83,-304.25 617.92,-304.25 621,-307.33 621,-310.42 621,-310.42 621,-316.58 621,-316.58 621,-319.67 617.92,-322.75 614.83,-322.75"/>
<text text-anchor="start" x="565" y="-310.2" font-family="Helvetica,sans-Serif" font-size="9.00">constants.ts</text>
</a>
</g>
</g>
<!-- src/arrayInstrumentations.ts&#45;&gt;src/constants.ts -->
<g id="edge1" class="edge">
<title>src/arrayInstrumentations.ts&#45;&gt;src/constants.ts</title>
<path fill="none" stroke="#000000" stroke-width="2" stroke-opacity="0.200000" d="M193.22,-305.2C198.71,-306.06 204.21,-306.84 209.5,-307.5 333.56,-322.93 365.07,-323.83 490,-328.5 513.98,-329.4 520.32,-332.42 544,-328.5 547.87,-327.86 551.85,-326.92 555.77,-325.82"/>
<polygon fill="#000000" fill-opacity="0.200000" stroke="#000000" stroke-width="2" stroke-opacity="0.200000" points="556.16,-327.9 561.27,-324.11 554.92,-323.89 556.16,-327.9"/>
</g>
<!-- src/dep.ts -->
<g id="node4" class="node">
<title>src/dep.ts</title>
<g id="a_node4"><a xlink:href="src/dep.ts" xlink:title="dep.ts">
<path fill="#ddfeff" stroke="black" d="M537.83,-322.75C537.83,-322.75 496.17,-322.75 496.17,-322.75 493.08,-322.75 490,-319.67 490,-316.58 490,-316.58 490,-310.42 490,-310.42 490,-307.33 493.08,-304.25 496.17,-304.25 496.17,-304.25 537.83,-304.25 537.83,-304.25 540.92,-304.25 544,-307.33 544,-310.42 544,-310.42 544,-316.58 544,-316.58 544,-319.67 540.92,-322.75 537.83,-322.75"/>
<text text-anchor="start" x="504.62" y="-310.2" font-family="Helvetica,sans-Serif" font-size="9.00">dep.ts</text>
</a>
</g>
</g>
<!-- src/arrayInstrumentations.ts&#45;&gt;src/dep.ts -->
<g id="edge2" class="edge">
<title>src/arrayInstrumentations.ts&#45;&gt;src/dep.ts</title>
<path fill="none" stroke="#000000" stroke-width="2" stroke-opacity="0.200000" d="M196.67,-300.16C244.2,-303.92 314.28,-308.98 375.5,-311.5 411.35,-312.98 452.38,-313.42 480.81,-313.52"/>
<polygon fill="#000000" fill-opacity="0.200000" stroke="#000000" stroke-width="2" stroke-opacity="0.200000" points="480.54,-315.62 486.55,-313.54 480.55,-311.42 480.54,-315.62"/>
</g>
<!-- src/effect.ts -->
<g id="node5" class="node">
<title>src/effect.ts</title>
<g id="a_node5"><a xlink:href="src/effect.ts" xlink:title="effect.ts">
<path fill="#ddfeff" stroke="black" d="M609.83,-374.75C609.83,-374.75 568.17,-374.75 568.17,-374.75 565.08,-374.75 562,-371.67 562,-368.58 562,-368.58 562,-362.42 562,-362.42 562,-359.33 565.08,-356.25 568.17,-356.25 568.17,-356.25 609.83,-356.25 609.83,-356.25 612.92,-356.25 616,-359.33 616,-362.42 616,-362.42 616,-368.58 616,-368.58 616,-371.67 612.92,-374.75 609.83,-374.75"/>
<text text-anchor="start" x="573.62" y="-362.2" font-family="Helvetica,sans-Serif" font-size="9.00">effect.ts</text>
</a>
</g>
</g>
<!-- src/arrayInstrumentations.ts&#45;&gt;src/effect.ts -->
<g id="edge3" class="edge">
<title>src/arrayInstrumentations.ts&#45;&gt;src/effect.ts</title>
<path fill="none" stroke="#000000" stroke-width="2" stroke-opacity="0.200000" d="M163.87,-305.13C205.36,-321.83 295.61,-355.52 375.5,-367.5 420.11,-374.19 431.89,-367.91 477,-367.5 502.3,-367.27 530.83,-366.75 552.63,-366.3"/>
<polygon fill="#000000" fill-opacity="0.200000" stroke="#000000" stroke-width="2" stroke-opacity="0.200000" points="552.56,-368.4 558.51,-366.17 552.47,-364.2 552.56,-368.4"/>
</g>
<!-- src/reactive.ts -->
<g id="node6" class="node">
<title>src/reactive.ts</title>
<g id="a_node6"><a xlink:href="src/reactive.ts" xlink:title="reactive.ts">
<path fill="#ddfeff" stroke="black" d="M260.58,-276.75C260.58,-276.75 215.67,-276.75 215.67,-276.75 212.58,-276.75 209.5,-273.67 209.5,-270.58 209.5,-270.58 209.5,-264.42 209.5,-264.42 209.5,-261.33 212.58,-258.25 215.67,-258.25 215.67,-258.25 260.58,-258.25 260.58,-258.25 263.67,-258.25 266.75,-261.33 266.75,-264.42 266.75,-264.42 266.75,-270.58 266.75,-270.58 266.75,-273.67 263.67,-276.75 260.58,-276.75"/>
<text text-anchor="start" x="217.5" y="-264.2" font-family="Helvetica,sans-Serif" font-size="9.00">reactive.ts</text>
</a>
</g>
</g>
<!-- src/arrayInstrumentations.ts&#45;&gt;src/reactive.ts -->
<g id="edge4" class="edge">
<title>src/arrayInstrumentations.ts&#45;&gt;src/reactive.ts</title>
<g id="a_edge4"><a xlink:title="no&#45;circular">
<path fill="none" stroke="orange" stroke-width="2" d="M174.19,-285.79C179.72,-284.18 185.53,-282.49 191.31,-280.81"/>
<polygon fill="orange" stroke="orange" stroke-width="2" points="201.1,-280.15 206.27,-276.46 199.93,-276.12 201.1,-280.15"/>
<polyline fill="none" stroke="orange" stroke-width="2" points="199.55,-278.42 196.67,-279.25"/>
<ellipse fill="none" stroke="orange" stroke-width="2" cx="193.41" cy="-280.2" rx="2.4" ry="2.4"/>
</a>
</g>
<text text-anchor="middle" x="169.28" y="-272.34" font-family="Helvetica,sans-Serif" font-size="9.00" fill="orange">no&#45;circular</text>
</g>
<!-- src/dep.ts&#45;&gt;@vue/shared -->
<g id="edge25" class="edge">
<title>src/dep.ts&#45;&gt;@vue/shared</title>
<g id="a_edge25"><a xlink:title="not&#45;to&#45;unresolvable">
<path fill="none" stroke="red" stroke-width="2" d="M525.31,-303.9C549.36,-272.31 626.24,-171.32 656.8,-131.18"/>
<polygon fill="red" stroke="red" stroke-width="2" points="658.47,-132.46 660.43,-126.41 655.13,-129.91 658.47,-132.46"/>
</a>
</g>
<text text-anchor="middle" x="554.06" y="-205.37" font-family="Helvetica,sans-Serif" font-size="9.00" fill="red">not&#45;to&#45;unresolvable</text>
</g>
<!-- src/dep.ts&#45;&gt;src/constants.ts -->
<g id="edge23" class="edge">
<title>src/dep.ts&#45;&gt;src/constants.ts</title>
<path fill="none" stroke="#000000" stroke-width="2" stroke-opacity="0.200000" d="M544.46,-313.5C545.6,-313.5 546.74,-313.5 547.89,-313.5"/>
<polygon fill="#000000" fill-opacity="0.200000" stroke="#000000" stroke-width="2" stroke-opacity="0.200000" points="547.77,-315.6 553.77,-313.5 547.77,-311.4 547.77,-315.6"/>
</g>
<!-- src/dep.ts&#45;&gt;src/effect.ts -->
<g id="edge24" class="edge">
<title>src/dep.ts&#45;&gt;src/effect.ts</title>
<g id="a_edge24"><a xlink:title="no&#45;circular">
<path fill="none" stroke="orange" stroke-width="2" d="M536.39,-323.15C545.11,-329.07 555.61,-336.79 564.86,-344.05"/>
<polygon fill="orange" stroke="orange" stroke-width="2" points="570.8,-351.66 576.77,-353.85 573.47,-348.41 570.8,-351.66"/>
<polyline fill="none" stroke="orange" stroke-width="2" points="571.36,-349.4 569.05,-347.49"/>
<ellipse fill="none" stroke="orange" stroke-width="2" cx="566.42" cy="-345.33" rx="2.4" ry="2.4"/>
</a>
</g>
<text text-anchor="middle" x="536.44" y="-330.35" font-family="Helvetica,sans-Serif" font-size="9.00" fill="orange">no&#45;circular</text>
</g>
<!-- src/effect.ts&#45;&gt;@vue/shared -->
<g id="edge29" class="edge">
<title>src/effect.ts&#45;&gt;@vue/shared</title>
<g id="a_edge29"><a xlink:title="not&#45;to&#45;unresolvable">
<path fill="none" stroke="red" stroke-width="2" d="M600.87,-355.98C607.92,-349.1 616.58,-339.19 621,-328.5 646.41,-267.07 614.77,-243.13 634,-179.5 639.25,-162.13 649.49,-144.17 657.64,-131.53"/>
<polygon fill="red" stroke="red" stroke-width="2" points="659.35,-132.74 660.93,-126.58 655.86,-130.42 659.35,-132.74"/>
</a>
</g>
<text text-anchor="middle" x="588.52" y="-231.43" font-family="Helvetica,sans-Serif" font-size="9.00" fill="red">not&#45;to&#45;unresolvable</text>
</g>
<!-- src/effect.ts&#45;&gt;src/dep.ts -->
<g id="edge26" class="edge">
<title>src/effect.ts&#45;&gt;src/dep.ts</title>
<g id="a_edge26"><a xlink:title="no&#45;circular">
<path fill="none" stroke="orange" stroke-width="2" d="M569.5,-355.78C560.79,-349.85 550.3,-342.14 541.07,-334.9"/>
<polygon fill="orange" stroke="orange" stroke-width="2" points="535.17,-327.32 529.2,-325.13 532.5,-330.56 535.17,-327.32"/>
<polyline fill="none" stroke="orange" stroke-width="2" points="534.61,-329.57 536.92,-331.48"/>
<ellipse fill="none" stroke="orange" stroke-width="2" cx="539.55" cy="-333.64" rx="2.4" ry="2.4"/>
</a>
</g>
<text text-anchor="middle" x="525.98" y="-341.99" font-family="Helvetica,sans-Serif" font-size="9.00" fill="orange">no&#45;circular</text>
</g>
<!-- src/warning.ts -->
<g id="node9" class="node">
<title>src/warning.ts</title>
<g id="a_node9"><a xlink:href="src/warning.ts" xlink:title="warning.ts">
<path fill="#ddfeff" stroke="black" d="M771.83,-323.75C771.83,-323.75 726.17,-323.75 726.17,-323.75 723.08,-323.75 720,-320.67 720,-317.58 720,-317.58 720,-311.42 720,-311.42 720,-308.33 723.08,-305.25 726.17,-305.25 726.17,-305.25 771.83,-305.25 771.83,-305.25 774.92,-305.25 778,-308.33 778,-311.42 778,-311.42 778,-317.58 778,-317.58 778,-320.67 774.92,-323.75 771.83,-323.75"/>
<text text-anchor="start" x="728" y="-311.2" font-family="Helvetica,sans-Serif" font-size="9.00">warning.ts</text>
</a>
</g>
</g>
<!-- src/effect.ts&#45;&gt;src/warning.ts -->
<g id="edge28" class="edge">
<title>src/effect.ts&#45;&gt;src/warning.ts</title>
<path fill="none" stroke="#000000" stroke-width="2" stroke-opacity="0.200000" d="M616.45,-356.96C642.43,-348.58 682.3,-335.71 711.34,-326.33"/>
<polygon fill="#000000" fill-opacity="0.200000" stroke="#000000" stroke-width="2" stroke-opacity="0.200000" points="711.65,-328.44 716.72,-324.6 710.36,-324.44 711.65,-328.44"/>
</g>
<!-- src/effectScope.ts -->
<g id="node12" class="node">
<title>src/effectScope.ts</title>
<g id="a_node12"><a xlink:href="src/effectScope.ts" xlink:title="effectScope.ts">
<path fill="#ddfeff" stroke="black" d="M700.83,-483.75C700.83,-483.75 640.17,-483.75 640.17,-483.75 637.08,-483.75 634,-480.67 634,-477.58 634,-477.58 634,-471.42 634,-471.42 634,-468.33 637.08,-465.25 640.17,-465.25 640.17,-465.25 700.83,-465.25 700.83,-465.25 703.92,-465.25 707,-468.33 707,-471.42 707,-471.42 707,-477.58 707,-477.58 707,-480.67 703.92,-483.75 700.83,-483.75"/>
<text text-anchor="start" x="642" y="-471.2" font-family="Helvetica,sans-Serif" font-size="9.00">effectScope.ts</text>
</a>
</g>
</g>
<!-- src/effect.ts&#45;&gt;src/effectScope.ts -->
<g id="edge27" class="edge">
<title>src/effect.ts&#45;&gt;src/effectScope.ts</title>
<path fill="none" stroke="#000000" stroke-width="2" stroke-opacity="0.200000" d="M597.06,-375.17C610.64,-393.8 640.59,-434.86 657.41,-457.93"/>
<polygon fill="#000000" fill-opacity="0.200000" stroke="#000000" stroke-width="2" stroke-opacity="0.200000" points="655.56,-458.95 660.79,-462.56 658.95,-456.47 655.56,-458.95"/>
</g>
<!-- src/reactive.ts&#45;&gt;@vue/shared -->
<g id="edge44" class="edge">
<title>src/reactive.ts&#45;&gt;@vue/shared</title>
<g id="a_edge44"><a xlink:title="not&#45;to&#45;unresolvable">
<path fill="none" stroke="red" stroke-width="2" d="M242.36,-257.89C256.66,-217.36 318.29,-62.5 425.25,-62.5 425.25,-62.5 425.25,-62.5 518,-62.5 565.28,-62.5 616.58,-85.44 645.71,-100.84"/>
<polygon fill="red" stroke="red" stroke-width="2" points="644.38,-102.51 650.65,-103.52 646.38,-98.82 644.38,-102.51"/>
</a>
</g>
<text text-anchor="middle" x="397.08" y="-53.95" font-family="Helvetica,sans-Serif" font-size="9.00" fill="red">not&#45;to&#45;unresolvable</text>
</g>
<!-- src/reactive.ts&#45;&gt;src/constants.ts -->
<g id="edge42" class="edge">
<title>src/reactive.ts&#45;&gt;src/constants.ts</title>
<path fill="none" stroke="#000000" stroke-width="2" stroke-opacity="0.200000" d="M261.08,-257.79C267.02,-255.61 273.53,-253.61 279.75,-252.5 395.55,-231.8 438.76,-214.94 544,-267.5 557.24,-274.11 568.66,-286.39 576.55,-296.6"/>
<polygon fill="#000000" fill-opacity="0.200000" stroke="#000000" stroke-width="2" stroke-opacity="0.200000" points="574.84,-297.82 580.08,-301.43 578.24,-295.34 574.84,-297.82"/>
</g>
<!-- src/baseHandlers.ts -->
<g id="node7" class="node">
<title>src/baseHandlers.ts</title>
<g id="a_node7"><a xlink:href="src/baseHandlers.ts" xlink:title="baseHandlers.ts">
<path fill="#ddfeff" stroke="black" d="M356.33,-276.75C356.33,-276.75 285.92,-276.75 285.92,-276.75 282.83,-276.75 279.75,-273.67 279.75,-270.58 279.75,-270.58 279.75,-264.42 279.75,-264.42 279.75,-261.33 282.83,-258.25 285.92,-258.25 285.92,-258.25 356.33,-258.25 356.33,-258.25 359.42,-258.25 362.5,-261.33 362.5,-264.42 362.5,-264.42 362.5,-270.58 362.5,-270.58 362.5,-273.67 359.42,-276.75 356.33,-276.75"/>
<text text-anchor="start" x="287.75" y="-264.2" font-family="Helvetica,sans-Serif" font-size="9.00">baseHandlers.ts</text>
</a>
</g>
</g>
<!-- src/reactive.ts&#45;&gt;src/baseHandlers.ts -->
<g id="edge40" class="edge">
<title>src/reactive.ts&#45;&gt;src/baseHandlers.ts</title>
<g id="a_edge40"><a xlink:title="no&#45;circular">
<path fill="none" stroke="orange" stroke-width="2" d="M267,-263.2C267.13,-263.2 267.25,-263.19 267.38,-263.19"/>
<polygon fill="orange" stroke="orange" stroke-width="2" points="270.46,-265.24 276.43,-263.05 270.4,-261.04 270.46,-265.24"/>
<polyline fill="none" stroke="orange" stroke-width="2" points="269.43,-263.16 266.43,-263.2"/>
<ellipse fill="none" stroke="orange" stroke-width="2" cx="263.03" cy="-263.26" rx="2.4" ry="2.4"/>
</a>
</g>
<text text-anchor="middle" x="289.11" y="-254.64" font-family="Helvetica,sans-Serif" font-size="9.00" fill="orange">no&#45;circular</text>
</g>
<!-- src/reactive.ts&#45;&gt;src/warning.ts -->
<g id="edge43" class="edge">
<title>src/reactive.ts&#45;&gt;src/warning.ts</title>
<path fill="none" stroke="#000000" stroke-width="2" stroke-opacity="0.200000" d="M244.05,-258.09C250.6,-246.59 263.27,-227.43 279.75,-217.5 355.19,-172.05 389.03,-194.3 477,-198.5 579.57,-203.39 623.87,-160.21 707,-220.5 731.61,-238.35 741.63,-274.2 745.57,-296.1"/>
<polygon fill="#000000" fill-opacity="0.200000" stroke="#000000" stroke-width="2" stroke-opacity="0.200000" points="743.47,-296.22 746.48,-301.82 747.61,-295.56 743.47,-296.22"/>
</g>
<!-- src/collectionHandlers.ts -->
<g id="node10" class="node">
<title>src/collectionHandlers.ts</title>
<g id="a_node10"><a xlink:href="src/collectionHandlers.ts" xlink:title="collectionHandlers.ts">
<path fill="#ddfeff" stroke="black" d="M470.83,-222.75C470.83,-222.75 381.67,-222.75 381.67,-222.75 378.58,-222.75 375.5,-219.67 375.5,-216.58 375.5,-216.58 375.5,-210.42 375.5,-210.42 375.5,-207.33 378.58,-204.25 381.67,-204.25 381.67,-204.25 470.83,-204.25 470.83,-204.25 473.92,-204.25 477,-207.33 477,-210.42 477,-210.42 477,-216.58 477,-216.58 477,-219.67 473.92,-222.75 470.83,-222.75"/>
<text text-anchor="start" x="383.5" y="-210.2" font-family="Helvetica,sans-Serif" font-size="9.00">collectionHandlers.ts</text>
</a>
</g>
</g>
<!-- src/reactive.ts&#45;&gt;src/collectionHandlers.ts -->
<g id="edge41" class="edge">
<title>src/reactive.ts&#45;&gt;src/collectionHandlers.ts</title>
<g id="a_edge41"><a xlink:title="no&#45;circular">
<path fill="none" stroke="orange" stroke-width="2" d="M245.59,-257.94C253.27,-250.28 266.68,-240.71 279.75,-235.5 304.02,-225.81 331.95,-219.4 356.8,-215.57"/>
<polygon fill="orange" stroke="orange" stroke-width="2" points="366.43,-216.41 372.1,-213.53 365.87,-212.25 366.43,-216.41"/>
<polyline fill="none" stroke="orange" stroke-width="2" points="365.16,-214.46 362.19,-214.86"/>
<ellipse fill="none" stroke="orange" stroke-width="2" cx="358.82" cy="-215.3" rx="2.4" ry="2.4"/>
</a>
</g>
<text text-anchor="middle" x="285.88" y="-217.57" font-family="Helvetica,sans-Serif" font-size="9.00" fill="orange">no&#45;circular</text>
</g>
<!-- src/baseHandlers.ts&#45;&gt;@vue/shared -->
<g id="edge12" class="edge">
<title>src/baseHandlers.ts&#45;&gt;@vue/shared</title>
<g id="a_edge12"><a xlink:title="not&#45;to&#45;unresolvable">
<path fill="none" stroke="red" stroke-width="2" d="M328.28,-257.8C347.65,-228.34 410.82,-139.99 490,-109.5 537.54,-91.19 597.52,-98.29 634.69,-105.82"/>
<polygon fill="red" stroke="red" stroke-width="2" points="633.91,-107.8 640.21,-107 634.78,-103.7 633.91,-107.8"/>
</a>
</g>
<text text-anchor="middle" x="450.25" y="-100.95" font-family="Helvetica,sans-Serif" font-size="9.00" fill="red">not&#45;to&#45;unresolvable</text>
</g>
<!-- src/baseHandlers.ts&#45;&gt;src/arrayInstrumentations.ts -->
<g id="edge6" class="edge">
<title>src/baseHandlers.ts&#45;&gt;src/arrayInstrumentations.ts</title>
<g id="a_edge6"><a xlink:title="no&#45;circular">
<path fill="none" stroke="orange" stroke-width="2" d="M289.01,-277.21C281.76,-279.2 274.03,-281.11 266.75,-282.5 250.27,-285.64 232.42,-288.07 215.49,-289.92"/>
<polygon fill="orange" stroke="orange" stroke-width="2" points="205.65,-288.79 199.89,-291.48 206.06,-292.97 205.65,-288.79"/>
<polyline fill="none" stroke="orange" stroke-width="2" points="206.85,-290.78 209.84,-290.48"/>
<ellipse fill="none" stroke="orange" stroke-width="2" cx="213.22" cy="-290.15" rx="2.4" ry="2.4"/>
</a>
</g>
<text text-anchor="middle" x="221.56" y="-288.35" font-family="Helvetica,sans-Serif" font-size="9.00" fill="orange">no&#45;circular</text>
</g>
<!-- src/baseHandlers.ts&#45;&gt;src/constants.ts -->
<g id="edge7" class="edge">
<title>src/baseHandlers.ts&#45;&gt;src/constants.ts</title>
<path fill="none" stroke="#000000" stroke-width="2" stroke-opacity="0.200000" d="M362.71,-263.82C408.56,-261.25 484.52,-261.88 544,-286.5 552.03,-289.82 560.28,-294.5 567.45,-299.03"/>
<polygon fill="#000000" fill-opacity="0.200000" stroke="#000000" stroke-width="2" stroke-opacity="0.200000" points="566.03,-300.61 572.2,-302.15 568.34,-297.1 566.03,-300.61"/>
</g>
<!-- src/baseHandlers.ts&#45;&gt;src/dep.ts -->
<g id="edge8" class="edge">
<title>src/baseHandlers.ts&#45;&gt;src/dep.ts</title>
<path fill="none" stroke="#000000" stroke-width="2" stroke-opacity="0.200000" d="M334.03,-277.12C344.34,-284.87 360,-295.31 375.5,-300.5 409.98,-312.04 451.71,-314.57 480.69,-314.66"/>
<polygon fill="#000000" fill-opacity="0.200000" stroke="#000000" stroke-width="2" stroke-opacity="0.200000" points="480.61,-316.76 486.6,-314.62 480.59,-312.56 480.61,-316.76"/>
</g>
<!-- src/baseHandlers.ts&#45;&gt;src/reactive.ts -->
<g id="edge9" class="edge">
<title>src/baseHandlers.ts&#45;&gt;src/reactive.ts</title>
<g id="a_edge9"><a xlink:title="no&#45;circular">
<path fill="none" stroke="orange" stroke-width="2" d="M279.45,-272C279.32,-272 279.19,-272 279.06,-272"/>
<polygon fill="orange" stroke="orange" stroke-width="2" points="276.06,-269.85 270.03,-271.85 275.99,-274.05 276.06,-269.85"/>
<polyline fill="none" stroke="orange" stroke-width="2" points="277.03,-271.97 280.03,-272.02"/>
<ellipse fill="none" stroke="orange" stroke-width="2" cx="283.43" cy="-272.07" rx="2.4" ry="2.4"/>
</a>
</g>
<text text-anchor="middle" x="257.33" y="-273.95" font-family="Helvetica,sans-Serif" font-size="9.00" fill="orange">no&#45;circular</text>
</g>
<!-- src/ref.ts -->
<g id="node8" class="node">
<title>src/ref.ts</title>
<g id="a_node8"><a xlink:href="src/ref.ts" xlink:title="ref.ts">
<path fill="#ddfeff" stroke="black" d="M447.08,-294.75C447.08,-294.75 405.42,-294.75 405.42,-294.75 402.33,-294.75 399.25,-291.67 399.25,-288.58 399.25,-288.58 399.25,-282.42 399.25,-282.42 399.25,-279.33 402.33,-276.25 405.42,-276.25 405.42,-276.25 447.08,-276.25 447.08,-276.25 450.17,-276.25 453.25,-279.33 453.25,-282.42 453.25,-282.42 453.25,-288.58 453.25,-288.58 453.25,-291.67 450.17,-294.75 447.08,-294.75"/>
<text text-anchor="start" x="416.5" y="-282.2" font-family="Helvetica,sans-Serif" font-size="9.00">ref.ts</text>
</a>
</g>
</g>
<!-- src/baseHandlers.ts&#45;&gt;src/ref.ts -->
<g id="edge10" class="edge">
<title>src/baseHandlers.ts&#45;&gt;src/ref.ts</title>
<g id="a_edge10"><a xlink:title="no&#45;circular">
<path fill="none" stroke="orange" stroke-width="2" d="M362.88,-274.61C368.68,-275.63 374.66,-276.67 380.53,-277.69"/>
<polygon fill="orange" stroke="orange" stroke-width="2" points="389.76,-281.44 396.03,-280.4 390.48,-277.3 389.76,-281.44"/>
<polyline fill="none" stroke="orange" stroke-width="2" points="389.13,-279.2 386.18,-278.68"/>
<ellipse fill="none" stroke="orange" stroke-width="2" cx="382.83" cy="-278.1" rx="2.4" ry="2.4"/>
</a>
</g>
<text text-anchor="middle" x="358.5" y="-279.6" font-family="Helvetica,sans-Serif" font-size="9.00" fill="orange">no&#45;circular</text>
</g>
<!-- src/baseHandlers.ts&#45;&gt;src/warning.ts -->
<g id="edge11" class="edge">
<title>src/baseHandlers.ts&#45;&gt;src/warning.ts</title>
<path fill="none" stroke="#000000" stroke-width="2" stroke-opacity="0.200000" d="M362.85,-260.76C367.11,-260.24 371.39,-259.81 375.5,-259.5 420.49,-256.15 432.01,-256.19 477,-259.5 580.06,-267.08 608.59,-261.97 707,-293.5 712.83,-295.37 718.85,-298 724.41,-300.77"/>
<polygon fill="#000000" fill-opacity="0.200000" stroke="#000000" stroke-width="2" stroke-opacity="0.200000" points="723.2,-302.5 729.49,-303.44 725.16,-298.79 723.2,-302.5"/>
</g>
<!-- src/ref.ts&#45;&gt;@vue/shared -->
<g id="edge49" class="edge">
<title>src/ref.ts&#45;&gt;@vue/shared</title>
<g id="a_edge49"><a xlink:title="not&#45;to&#45;unresolvable">
<path fill="none" stroke="red" stroke-width="2" d="M438.72,-275.85C450.31,-265.41 467.78,-247.68 477,-228.5 491.09,-199.19 467.6,-180.07 490,-156.5 509.53,-135.94 588.02,-123.72 634.49,-118.15"/>
<polygon fill="red" stroke="red" stroke-width="2" points="634.61,-120.25 640.32,-117.47 634.12,-116.07 634.61,-120.25"/>
</a>
</g>
<text text-anchor="middle" x="440.63" y="-181.78" font-family="Helvetica,sans-Serif" font-size="9.00" fill="red">not&#45;to&#45;unresolvable</text>
</g>
<!-- src/ref.ts&#45;&gt;src/constants.ts -->
<g id="edge45" class="edge">
<title>src/ref.ts&#45;&gt;src/constants.ts</title>
<path fill="none" stroke="#000000" stroke-width="2" stroke-opacity="0.200000" d="M453.49,-286.79C477.32,-288.34 513.35,-291.65 544,-298.5 547.36,-299.25 550.82,-300.17 554.26,-301.17"/>
<polygon fill="#000000" fill-opacity="0.200000" stroke="#000000" stroke-width="2" stroke-opacity="0.200000" points="553.43,-303.12 559.79,-302.91 554.69,-299.11 553.43,-303.12"/>
</g>
<!-- src/ref.ts&#45;&gt;src/dep.ts -->
<g id="edge46" class="edge">
<title>src/ref.ts&#45;&gt;src/dep.ts</title>
<path fill="none" stroke="#000000" stroke-width="2" stroke-opacity="0.200000" d="M453.4,-293.75C462.17,-296.52 472.09,-299.65 481.4,-302.58"/>
<polygon fill="#000000" fill-opacity="0.200000" stroke="#000000" stroke-width="2" stroke-opacity="0.200000" points="480.49,-304.5 486.85,-304.3 481.76,-300.49 480.49,-304.5"/>
</g>
<!-- src/ref.ts&#45;&gt;src/reactive.ts -->
<g id="edge47" class="edge">
<title>src/ref.ts&#45;&gt;src/reactive.ts</title>
<g id="a_edge47"><a xlink:title="no&#45;circular">
<path fill="none" stroke="orange" stroke-width="2" d="M398.96,-287.56C369.61,-289.25 320.83,-290.28 279.75,-282.5 279.56,-282.46 279.36,-282.43 279.17,-282.39"/>
<polygon fill="orange" stroke="orange" stroke-width="2" points="270.35,-277.63 264,-277.97 269.17,-281.66 270.35,-277.63"/>
<polyline fill="none" stroke="orange" stroke-width="2" points="270.72,-279.93 273.6,-280.77"/>
<ellipse fill="none" stroke="orange" stroke-width="2" cx="276.87" cy="-281.72" rx="2.4" ry="2.4"/>
</a>
</g>
<text text-anchor="middle" x="308.05" y="-279.52" font-family="Helvetica,sans-Serif" font-size="9.00" fill="orange">no&#45;circular</text>
</g>
<!-- src/ref.ts&#45;&gt;src/warning.ts -->
<g id="edge48" class="edge">
<title>src/ref.ts&#45;&gt;src/warning.ts</title>
<path fill="none" stroke="#000000" stroke-width="2" stroke-opacity="0.200000" d="M453.72,-284.76C477.41,-284.34 513.07,-284.25 544,-286.5 602.67,-290.76 670.21,-301.11 710.97,-307.96"/>
<polygon fill="#000000" fill-opacity="0.200000" stroke="#000000" stroke-width="2" stroke-opacity="0.200000" points="710.49,-310.01 716.75,-308.95 711.19,-305.87 710.49,-310.01"/>
</g>
<!-- src/collectionHandlers.ts&#45;&gt;@vue/shared -->
<g id="edge17" class="edge">
<title>src/collectionHandlers.ts&#45;&gt;@vue/shared</title>
<g id="a_edge17"><a xlink:title="not&#45;to&#45;unresolvable">
<path fill="none" stroke="red" stroke-width="2" d="M431.24,-203.97C439.33,-185.99 459.51,-147.4 490,-130.5 535.09,-105.5 596.51,-106.06 634.55,-109.63"/>
<polygon fill="red" stroke="red" stroke-width="2" points="634.03,-111.68 640.22,-110.22 634.47,-107.51 634.03,-111.68"/>
</a>
</g>
<text text-anchor="middle" x="565.71" y="-107.72" font-family="Helvetica,sans-Serif" font-size="9.00" fill="red">not&#45;to&#45;unresolvable</text>
</g>
<!-- src/collectionHandlers.ts&#45;&gt;src/constants.ts -->
<g id="edge13" class="edge">
<title>src/collectionHandlers.ts&#45;&gt;src/constants.ts</title>
<path fill="none" stroke="#000000" stroke-width="2" stroke-opacity="0.200000" d="M477.32,-219.05C499.4,-223.45 524.67,-231.35 544,-245.5 561.45,-258.28 573.82,-280.25 580.91,-295.75"/>
<polygon fill="#000000" fill-opacity="0.200000" stroke="#000000" stroke-width="2" stroke-opacity="0.200000" points="578.97,-296.56 583.27,-301.24 582.82,-294.9 578.97,-296.56"/>
</g>
<!-- src/collectionHandlers.ts&#45;&gt;src/dep.ts -->
<g id="edge14" class="edge">
<title>src/collectionHandlers.ts&#45;&gt;src/dep.ts</title>
<path fill="none" stroke="#000000" stroke-width="2" stroke-opacity="0.200000" d="M435.76,-223.09C450.96,-240.22 482.94,-276.25 501.61,-297.28"/>
<polygon fill="#000000" fill-opacity="0.200000" stroke="#000000" stroke-width="2" stroke-opacity="0.200000" points="499.82,-298.44 505.38,-301.53 502.96,-295.65 499.82,-298.44"/>
</g>
<!-- src/collectionHandlers.ts&#45;&gt;src/reactive.ts -->
<g id="edge15" class="edge">
<title>src/collectionHandlers.ts&#45;&gt;src/reactive.ts</title>
<g id="a_edge15"><a xlink:title="no&#45;circular">
<path fill="none" stroke="orange" stroke-width="2" d="M377.78,-223.22C348.7,-227.92 311.17,-234.96 279.75,-247.5 278.57,-247.97 277.39,-248.47 276.22,-249.01"/>
<polygon fill="orange" stroke="orange" stroke-width="2" points="266.75,-251.75 262.47,-256.45 268.75,-255.44 266.75,-251.75"/>
<polyline fill="none" stroke="orange" stroke-width="2" points="268.62,-253.12 271.26,-251.69"/>
<ellipse fill="none" stroke="orange" stroke-width="2" cx="274.25" cy="-250.07" rx="2.4" ry="2.4"/>
</a>
</g>
<text text-anchor="middle" x="339.45" y="-226.79" font-family="Helvetica,sans-Serif" font-size="9.00" fill="orange">no&#45;circular</text>
</g>
<!-- src/collectionHandlers.ts&#45;&gt;src/warning.ts -->
<g id="edge16" class="edge">
<title>src/collectionHandlers.ts&#45;&gt;src/warning.ts</title>
<path fill="none" stroke="#000000" stroke-width="2" stroke-opacity="0.200000" d="M477.41,-214.96C552.8,-217.55 688.53,-223.91 707,-236.5 727.45,-250.44 738.43,-277.92 743.74,-296.25"/>
<polygon fill="#000000" fill-opacity="0.200000" stroke="#000000" stroke-width="2" stroke-opacity="0.200000" points="741.68,-296.69 745.25,-301.96 745.74,-295.62 741.68,-296.69"/>
</g>
<!-- src/computed.ts -->
<g id="node11" class="node">
<title>src/computed.ts</title>
<g id="a_node11"><a xlink:href="src/computed.ts" xlink:title="computed.ts">
<path fill="#ddfeff" stroke="black" d="M452.83,-422.75C452.83,-422.75 399.67,-422.75 399.67,-422.75 396.58,-422.75 393.5,-419.67 393.5,-416.58 393.5,-416.58 393.5,-410.42 393.5,-410.42 393.5,-407.33 396.58,-404.25 399.67,-404.25 399.67,-404.25 452.83,-404.25 452.83,-404.25 455.92,-404.25 459,-407.33 459,-410.42 459,-410.42 459,-416.58 459,-416.58 459,-419.67 455.92,-422.75 452.83,-422.75"/>
<text text-anchor="start" x="401.5" y="-410.2" font-family="Helvetica,sans-Serif" font-size="9.00">computed.ts</text>
</a>
</g>
</g>
<!-- src/computed.ts&#45;&gt;@vue/shared -->
<g id="edge22" class="edge">
<title>src/computed.ts&#45;&gt;@vue/shared</title>
<g id="a_edge22"><a xlink:title="not&#45;to&#45;unresolvable">
<path fill="none" stroke="red" stroke-width="2" d="M431.69,-403.8C450.02,-364.07 520.47,-214.2 557,-177.5 569.99,-164.45 612.75,-142.15 641.65,-127.88"/>
<polygon fill="red" stroke="red" stroke-width="2" points="642.22,-129.94 646.68,-125.42 640.37,-126.17 642.22,-129.94"/>
</a>
</g>
<text text-anchor="middle" x="470.76" y="-238.36" font-family="Helvetica,sans-Serif" font-size="9.00" fill="red">not&#45;to&#45;unresolvable</text>
</g>
<!-- src/computed.ts&#45;&gt;src/constants.ts -->
<g id="edge18" class="edge">
<title>src/computed.ts&#45;&gt;src/constants.ts</title>
<path fill="none" stroke="#000000" stroke-width="2" stroke-opacity="0.200000" d="M459.48,-405.59C493.47,-397.2 542.37,-384.94 544,-383.5 555.81,-373.06 548.94,-364.05 557,-350.5 561.31,-343.25 567.02,-335.98 572.37,-329.83"/>
<polygon fill="#000000" fill-opacity="0.200000" stroke="#000000" stroke-width="2" stroke-opacity="0.200000" points="573.87,-331.3 576.34,-325.44 570.76,-328.48 573.87,-331.3"/>
</g>
<!-- src/computed.ts&#45;&gt;src/dep.ts -->
<g id="edge19" class="edge">
<title>src/computed.ts&#45;&gt;src/dep.ts</title>
<path fill="none" stroke="#000000" stroke-width="2" stroke-opacity="0.200000" d="M435.76,-403.91C450.96,-386.78 482.94,-350.75 501.61,-329.72"/>
<polygon fill="#000000" fill-opacity="0.200000" stroke="#000000" stroke-width="2" stroke-opacity="0.200000" points="502.96,-331.35 505.38,-325.47 499.82,-328.56 502.96,-331.35"/>
</g>
<!-- src/computed.ts&#45;&gt;src/effect.ts -->
<g id="edge20" class="edge">
<title>src/computed.ts&#45;&gt;src/effect.ts</title>
<path fill="none" stroke="#000000" stroke-width="2" stroke-opacity="0.200000" d="M459.29,-413.29C483.38,-412.16 516.76,-408.46 544,-397.5 553.93,-393.51 563.69,-386.78 571.48,-380.52"/>
<polygon fill="#000000" fill-opacity="0.200000" stroke="#000000" stroke-width="2" stroke-opacity="0.200000" points="572.49,-382.42 575.72,-376.95 569.78,-379.21 572.49,-382.42"/>
</g>
<!-- src/computed.ts&#45;&gt;src/warning.ts -->
<g id="edge21" class="edge">
<title>src/computed.ts&#45;&gt;src/warning.ts</title>
<path fill="none" stroke="#000000" stroke-width="2" stroke-opacity="0.200000" d="M459.26,-414.3C482.89,-414.3 515.72,-413.06 544,-407.5 620.36,-392.47 639.11,-381.56 707,-343.5 714.48,-339.3 722.27,-334.05 729.03,-329.17"/>
<polygon fill="#000000" fill-opacity="0.200000" stroke="#000000" stroke-width="2" stroke-opacity="0.200000" points="729.88,-331.15 733.45,-325.89 727.38,-327.77 729.88,-331.15"/>
</g>
<!-- src/effectScope.ts&#45;&gt;src/warning.ts -->
<g id="edge30" class="edge">
<title>src/effectScope.ts&#45;&gt;src/warning.ts</title>
<path fill="none" stroke="#000000" stroke-width="2" stroke-opacity="0.200000" d="M693.77,-464.78C698.69,-461.77 703.48,-458.02 707,-453.5 735.35,-417.1 744.12,-361.52 746.82,-332.92"/>
<polygon fill="#000000" fill-opacity="0.200000" stroke="#000000" stroke-width="2" stroke-opacity="0.200000" points="748.9,-333.17 747.3,-327.02 744.72,-332.84 748.9,-333.17"/>
</g>
<!-- src/index.ts -->
<g id="node13" class="node">
<title>src/index.ts</title>
<g id="a_node13"><a xlink:href="src/index.ts" xlink:title="index.ts">
<path fill="#ddfeff" stroke="black" d="M63.83,-368.75C63.83,-368.75 22.17,-368.75 22.17,-368.75 19.08,-368.75 16,-365.67 16,-362.58 16,-362.58 16,-356.42 16,-356.42 16,-353.33 19.08,-350.25 22.17,-350.25 22.17,-350.25 63.83,-350.25 63.83,-350.25 66.92,-350.25 70,-353.33 70,-356.42 70,-356.42 70,-362.58 70,-362.58 70,-365.67 66.92,-368.75 63.83,-368.75"/>
<text text-anchor="start" x="27.25" y="-356.2" font-family="Helvetica,sans-Serif" font-size="9.00">index.ts</text>
</a>
</g>
</g>
<!-- src/index.ts&#45;&gt;src/arrayInstrumentations.ts -->
<g id="edge31" class="edge">
<title>src/index.ts&#45;&gt;src/arrayInstrumentations.ts</title>
<path fill="none" stroke="#000000" stroke-width="2" stroke-opacity="0.200000" d="M49.72,-350.03C56.45,-339.64 68.56,-323.17 83,-313.5 86.12,-311.41 89.49,-309.55 92.99,-307.9"/>
<polygon fill="#000000" fill-opacity="0.200000" stroke="#000000" stroke-width="2" stroke-opacity="0.200000" points="99.29,-307.47 92.95,-307.92 97.63,-303.61 99.29,-307.47"/>
</g>
<!-- src/index.ts&#45;&gt;src/constants.ts -->
<g id="edge33" class="edge">
<title>src/index.ts&#45;&gt;src/constants.ts</title>
<path fill="none" stroke="#000000" stroke-width="2" stroke-opacity="0.200000" d="M70.45,-358.61C100.87,-357.54 152.3,-355.64 196.5,-353.5 351.02,-346.01 393.81,-370.58 544,-333.5 550.84,-331.81 557.93,-329.08 564.37,-326.17"/>
<polygon fill="#000000" fill-opacity="0.200000" stroke="#000000" stroke-width="2" stroke-opacity="0.200000" points="570.55,-325.55 564.23,-326.23 568.75,-321.76 570.55,-325.55"/>
</g>
<!-- src/index.ts&#45;&gt;src/dep.ts -->
<g id="edge34" class="edge">
<title>src/index.ts&#45;&gt;src/dep.ts</title>
<path fill="none" stroke="#000000" stroke-width="2" stroke-opacity="0.200000" d="M70.43,-356.77C74.64,-356.34 78.94,-355.91 83,-355.5 231.95,-340.64 409.8,-323.61 482.52,-316.68"/>
<polygon fill="#000000" fill-opacity="0.200000" stroke="#000000" stroke-width="2" stroke-opacity="0.200000" points="488.84,-318.19 482.67,-316.67 488.44,-314.01 488.84,-318.19"/>
</g>
<!-- src/index.ts&#45;&gt;src/effect.ts -->
<g id="edge35" class="edge">
<title>src/index.ts&#45;&gt;src/effect.ts</title>
<path fill="none" stroke="#000000" stroke-width="2" stroke-opacity="0.200000" d="M47.23,-368.87C52.53,-382.93 64.39,-409.42 83,-424.5 139.29,-470.09 164.69,-477.5 237.12,-477.5 237.12,-477.5 237.12,-477.5 322.12,-477.5 423.94,-477.5 458.49,-475.76 544,-420.5 559.39,-410.55 571.84,-393.4 579.52,-380.89"/>
<polygon fill="#000000" fill-opacity="0.200000" stroke="#000000" stroke-width="2" stroke-opacity="0.200000" points="584.39,-376.76 579.54,-380.86 580.77,-374.63 584.39,-376.76"/>
</g>
<!-- src/index.ts&#45;&gt;src/reactive.ts -->
<g id="edge37" class="edge">
<title>src/index.ts&#45;&gt;src/reactive.ts</title>
<path fill="none" stroke="#000000" stroke-width="2" stroke-opacity="0.200000" d="M45.6,-349.99C49.03,-332.83 58.86,-296.95 83,-280.5 118.11,-256.57 168.71,-257.26 202.23,-261.27"/>
<polygon fill="#000000" fill-opacity="0.200000" stroke="#000000" stroke-width="2" stroke-opacity="0.200000" points="207.85,-264.12 202.17,-261.26 208.39,-259.96 207.85,-264.12"/>
</g>
<!-- src/index.ts&#45;&gt;src/ref.ts -->
<g id="edge38" class="edge">
<title>src/index.ts&#45;&gt;src/ref.ts</title>
<path fill="none" stroke="#000000" stroke-width="2" stroke-opacity="0.200000" d="M62.24,-349.84C68.66,-346.78 76.01,-343.64 83,-341.5 193.31,-307.7 330.23,-293.13 392.13,-287.93"/>
<polygon fill="#000000" fill-opacity="0.200000" stroke="#000000" stroke-width="2" stroke-opacity="0.200000" points="398.12,-289.55 391.97,-287.95 397.77,-285.36 398.12,-289.55"/>
</g>
<!-- src/index.ts&#45;&gt;src/computed.ts -->
<g id="edge32" class="edge">
<title>src/index.ts&#45;&gt;src/computed.ts</title>
<path fill="none" stroke="#000000" stroke-width="2" stroke-opacity="0.200000" d="M48.75,-369.2C54.89,-380.51 66.76,-398.67 83,-406.5 183.2,-454.82 319.84,-436.22 386.07,-422.73"/>
<polygon fill="#000000" fill-opacity="0.200000" stroke="#000000" stroke-width="2" stroke-opacity="0.200000" points="392.47,-423.54 386.17,-422.71 391.62,-419.43 392.47,-423.54"/>
</g>
<!-- src/index.ts&#45;&gt;src/effectScope.ts -->
<g id="edge36" class="edge">
<title>src/index.ts&#45;&gt;src/effectScope.ts</title>
<path fill="none" stroke="#000000" stroke-width="2" stroke-opacity="0.200000" d="M45.05,-368.96C47.7,-388.16 56.46,-431.76 83,-454.5 136.5,-500.34 166.68,-491.5 237.12,-491.5 237.12,-491.5 237.12,-491.5 518,-491.5 554.75,-491.5 596.21,-486.5 626.46,-481.92"/>
<polygon fill="#000000" fill-opacity="0.200000" stroke="#000000" stroke-width="2" stroke-opacity="0.200000" points="632.84,-483.06 626.59,-481.9 632.2,-478.91 632.84,-483.06"/>
</g>
<!-- src/watch.ts -->
<g id="node14" class="node">
<title>src/watch.ts</title>
<g id="a_node14"><a xlink:href="src/watch.ts" xlink:title="watch.ts">
<path fill="#ddfeff" stroke="black" d="M160.58,-400.75C160.58,-400.75 118.92,-400.75 118.92,-400.75 115.83,-400.75 112.75,-397.67 112.75,-394.58 112.75,-394.58 112.75,-388.42 112.75,-388.42 112.75,-385.33 115.83,-382.25 118.92,-382.25 118.92,-382.25 160.58,-382.25 160.58,-382.25 163.67,-382.25 166.75,-385.33 166.75,-388.42 166.75,-388.42 166.75,-394.58 166.75,-394.58 166.75,-397.67 163.67,-400.75 160.58,-400.75"/>
<text text-anchor="start" x="123.25" y="-388.2" font-family="Helvetica,sans-Serif" font-size="9.00">watch.ts</text>
</a>
</g>
</g>
<!-- src/index.ts&#45;&gt;src/watch.ts -->
<g id="edge39" class="edge">
<title>src/index.ts&#45;&gt;src/watch.ts</title>
<path fill="none" stroke="#000000" stroke-width="2" stroke-opacity="0.200000" d="M70.39,-368.41C81.38,-372.12 94.25,-376.47 105.84,-380.39"/>
<polygon fill="#000000" fill-opacity="0.200000" stroke="#000000" stroke-width="2" stroke-opacity="0.200000" points="110.88,-384.3 105.87,-380.39 112.22,-380.32 110.88,-384.3"/>
</g>
<!-- src/watch.ts&#45;&gt;@vue/shared -->
<g id="edge56" class="edge">
<title>src/watch.ts&#45;&gt;@vue/shared</title>
<g id="a_edge56"><a xlink:title="not&#45;to&#45;unresolvable">
<path fill="none" stroke="red" stroke-width="2" d="M149.32,-381.77C161.64,-367.27 184.2,-338.66 196.5,-310.5 207.07,-286.29 201.59,-277.71 209.5,-252.5 234.23,-173.71 235.53,-150.24 279.75,-80.5 293.96,-58.09 293.58,-36.5 320.12,-36.5 320.12,-36.5 320.12,-36.5 518,-36.5 565.44,-36.5 580.14,-40.39 621,-64.5 635.39,-72.99 648.37,-86.87 657.27,-97.86"/>
<polygon fill="red" stroke="red" stroke-width="2" points="655.55,-99.07 660.89,-102.51 658.86,-96.49 655.55,-99.07"/>
</a>
</g>
<text text-anchor="middle" x="189.06" y="-180.05" font-family="Helvetica,sans-Serif" font-size="9.00" fill="red">not&#45;to&#45;unresolvable</text>
</g>
<!-- src/watch.ts&#45;&gt;src/constants.ts -->
<g id="edge50" class="edge">
<title>src/watch.ts&#45;&gt;src/constants.ts</title>
<path fill="none" stroke="#000000" stroke-width="2" stroke-opacity="0.200000" d="M167,-390.57C223.75,-388.36 362.01,-381.86 477,-367.5 507.02,-363.75 517.02,-369.19 544,-355.5 556.04,-349.39 567.02,-338.91 575.01,-329.95"/>
<polygon fill="#000000" fill-opacity="0.200000" stroke="#000000" stroke-width="2" stroke-opacity="0.200000" points="576.49,-331.44 578.77,-325.51 573.29,-328.73 576.49,-331.44"/>
</g>
<!-- src/watch.ts&#45;&gt;src/effect.ts -->
<g id="edge51" class="edge">
<title>src/watch.ts&#45;&gt;src/effect.ts</title>
<path fill="none" stroke="#000000" stroke-width="2" stroke-opacity="0.200000" d="M167.01,-399.05C223.77,-414.34 362.05,-446.09 477,-428.5 507.85,-423.78 517.12,-423.35 544,-407.5 555.48,-400.73 566.34,-390.42 574.4,-381.71"/>
<polygon fill="#000000" fill-opacity="0.200000" stroke="#000000" stroke-width="2" stroke-opacity="0.200000" points="575.79,-383.31 578.21,-377.43 572.65,-380.52 575.79,-383.31"/>
</g>
<!-- src/watch.ts&#45;&gt;src/reactive.ts -->
<g id="edge53" class="edge">
<title>src/watch.ts&#45;&gt;src/reactive.ts</title>
<path fill="none" stroke="#000000" stroke-width="2" stroke-opacity="0.200000" d="M148.31,-381.77C164.71,-360.67 203.7,-310.51 224.13,-284.22"/>
<polygon fill="#000000" fill-opacity="0.200000" stroke="#000000" stroke-width="2" stroke-opacity="0.200000" points="225.72,-285.6 227.74,-279.57 222.4,-283.02 225.72,-285.6"/>
</g>
<!-- src/watch.ts&#45;&gt;src/ref.ts -->
<g id="edge54" class="edge">
<title>src/watch.ts&#45;&gt;src/ref.ts</title>
<path fill="none" stroke="#000000" stroke-width="2" stroke-opacity="0.200000" d="M167.02,-385.17C209.22,-374.57 294.29,-351.42 362.5,-321.5 376.42,-315.39 391.21,-307.01 402.93,-299.87"/>
<polygon fill="#000000" fill-opacity="0.200000" stroke="#000000" stroke-width="2" stroke-opacity="0.200000" points="403.95,-301.71 407.94,-296.77 401.73,-298.15 403.95,-301.71"/>
</g>
<!-- src/watch.ts&#45;&gt;src/warning.ts -->
<g id="edge55" class="edge">
<title>src/watch.ts&#45;&gt;src/warning.ts</title>
<path fill="none" stroke="#000000" stroke-width="2" stroke-opacity="0.200000" d="M161.09,-401.15C174.57,-407.2 192.77,-414.73 209.5,-419.5 256.51,-432.91 422.57,-449.5 425.25,-449.5 425.25,-449.5 425.25,-449.5 590,-449.5 661.78,-449.5 717.42,-367.96 738.65,-331.62"/>
<polygon fill="#000000" fill-opacity="0.200000" stroke="#000000" stroke-width="2" stroke-opacity="0.200000" points="740.23,-333.09 741.37,-326.84 736.58,-331.02 740.23,-333.09"/>
</g>
<!-- src/watch.ts&#45;&gt;src/effectScope.ts -->
<g id="edge52" class="edge">
<title>src/watch.ts&#45;&gt;src/effectScope.ts</title>
<path fill="none" stroke="#000000" stroke-width="2" stroke-opacity="0.200000" d="M164.2,-401.2C174.78,-406.27 186.99,-413.17 196.5,-421.5 203.92,-428 201.2,-434.17 209.5,-439.5 236.29,-456.71 248.16,-449.52 279.75,-453.5 404.02,-469.15 552.03,-473.15 624.71,-474.16"/>
<polygon fill="#000000" fill-opacity="0.200000" stroke="#000000" stroke-width="2" stroke-opacity="0.200000" points="624.56,-476.26 630.59,-474.24 624.61,-472.06 624.56,-476.26"/>
</g>
</g>
</svg>
