<?xml version="1.0" encoding="UTF-8" standalone="no"?>
<!DOCTYPE svg PUBLIC "-//W3C//DTD SVG 1.1//EN"
 "http://www.w3.org/Graphics/SVG/1.1/DTD/svg11.dtd">
<!-- Generated by graphviz version 12.2.1 (20241206.2353)
 -->
<!-- Title: G Pages: 1 -->
<svg width="1765pt" height="1385pt"
 viewBox="0.00 0.00 1765.45 1384.95" xmlns="http://www.w3.org/2000/svg" xmlns:xlink="http://www.w3.org/1999/xlink">
<g id="graph0" class="graph" transform="scale(1 1) rotate(0) translate(21.6 1363.35)">
<title>G</title>
<polygon fill="#111111" stroke="none" points="-21.6,21.6 -21.6,-1363.35 1743.85,-1363.35 1743.85,21.6 -21.6,21.6"/>
<!-- ../../shared/src/codeframe.ts -->
<g id="node1" class="node">
<title>../../shared/src/codeframe.ts</title>
<path fill="none" stroke="#cfffac" d="M376.96,-1341.75C376.96,-1341.75 208.79,-1341.75 208.79,-1341.75 204.83,-1341.75 200.88,-1337.79 200.88,-1333.83 200.88,-1333.83 200.88,-1325.92 200.88,-1325.92 200.88,-1321.96 204.83,-1318 208.79,-1318 208.79,-1318 376.96,-1318 376.96,-1318 380.92,-1318 384.88,-1321.96 384.88,-1325.92 384.88,-1325.92 384.88,-1333.83 384.88,-1333.83 384.88,-1337.79 380.92,-1341.75 376.96,-1341.75"/>
<text text-anchor="middle" x="292.88" y="-1324.45" font-family="Arial" font-size="14.00" fill="#cfffac">../../shared/src/codeframe.ts</text>
</g>
<!-- ../../shared/src/domAttrConfig.ts -->
<g id="node2" class="node">
<title>../../shared/src/domAttrConfig.ts</title>
<path fill="none" stroke="#c6c5fe" d="M637.08,-1291.75C637.08,-1291.75 446.42,-1291.75 446.42,-1291.75 442.46,-1291.75 438.5,-1287.79 438.5,-1283.83 438.5,-1283.83 438.5,-1275.92 438.5,-1275.92 438.5,-1271.96 442.46,-1268 446.42,-1268 446.42,-1268 637.08,-1268 637.08,-1268 641.04,-1268 645,-1271.96 645,-1275.92 645,-1275.92 645,-1283.83 645,-1283.83 645,-1287.79 641.04,-1291.75 637.08,-1291.75"/>
<text text-anchor="middle" x="541.75" y="-1274.45" font-family="Arial" font-size="14.00" fill="#c6c5fe">../../shared/src/domAttrConfig.ts</text>
</g>
<!-- ../../shared/src/makeMap.ts -->
<g id="node3" class="node">
<title>../../shared/src/makeMap.ts</title>
<path fill="none" stroke="#cfffac" d="M857.83,-1152.75C857.83,-1152.75 693.42,-1152.75 693.42,-1152.75 689.46,-1152.75 685.5,-1148.79 685.5,-1144.83 685.5,-1144.83 685.5,-1136.92 685.5,-1136.92 685.5,-1132.96 689.46,-1129 693.42,-1129 693.42,-1129 857.83,-1129 857.83,-1129 861.79,-1129 865.75,-1132.96 865.75,-1136.92 865.75,-1136.92 865.75,-1144.83 865.75,-1144.83 865.75,-1148.79 861.79,-1152.75 857.83,-1152.75"/>
<text text-anchor="middle" x="775.62" y="-1135.45" font-family="Arial" font-size="14.00" fill="#cfffac">../../shared/src/makeMap.ts</text>
</g>
<!-- ../../shared/src/domAttrConfig.ts&#45;&gt;../../shared/src/makeMap.ts -->
<g id="edge1" class="edge">
<title>../../shared/src/domAttrConfig.ts&#45;&gt;../../shared/src/makeMap.ts</title>
<path fill="none" stroke="#757575" d="M586.23,-1267.54C606.17,-1261 629.72,-1252 649.5,-1240.88 689.69,-1218.27 730.31,-1183 753.94,-1160.95"/>
<polygon fill="#757575" stroke="#757575" points="756.18,-1163.65 761.03,-1154.24 751.37,-1158.57 756.18,-1163.65"/>
</g>
<!-- ../../shared/src/domTagConfig.ts -->
<g id="node4" class="node">
<title>../../shared/src/domTagConfig.ts</title>
<path fill="none" stroke="#c6c5fe" d="M637.46,-1231.75C637.46,-1231.75 446.04,-1231.75 446.04,-1231.75 442.08,-1231.75 438.12,-1227.79 438.12,-1223.83 438.12,-1223.83 438.12,-1215.92 438.12,-1215.92 438.12,-1211.96 442.08,-1208 446.04,-1208 446.04,-1208 637.46,-1208 637.46,-1208 641.42,-1208 645.38,-1211.96 645.38,-1215.92 645.38,-1215.92 645.38,-1223.83 645.38,-1223.83 645.38,-1227.79 641.42,-1231.75 637.46,-1231.75"/>
<text text-anchor="middle" x="541.75" y="-1214.45" font-family="Arial" font-size="14.00" fill="#c6c5fe">../../shared/src/domTagConfig.ts</text>
</g>
<!-- ../../shared/src/domTagConfig.ts&#45;&gt;../../shared/src/makeMap.ts -->
<g id="edge2" class="edge">
<title>../../shared/src/domTagConfig.ts&#45;&gt;../../shared/src/makeMap.ts</title>
<path fill="none" stroke="#757575" d="M578.98,-1207.53C619.14,-1193.85 684.03,-1171.74 727.96,-1156.77"/>
<polygon fill="#757575" stroke="#757575" points="728.88,-1160.16 737.22,-1153.62 726.62,-1153.53 728.88,-1160.16"/>
</g>
<!-- ../../shared/src/escapeHtml.ts -->
<g id="node5" class="node">
<title>../../shared/src/escapeHtml.ts</title>
<path fill="none" stroke="#cfffac" d="M380.71,-191.75C380.71,-191.75 205.04,-191.75 205.04,-191.75 201.08,-191.75 197.12,-187.79 197.12,-183.83 197.12,-183.83 197.12,-175.92 197.12,-175.92 197.12,-171.96 201.08,-168 205.04,-168 205.04,-168 380.71,-168 380.71,-168 384.67,-168 388.62,-171.96 388.62,-175.92 388.62,-175.92 388.62,-183.83 388.62,-183.83 388.62,-187.79 384.67,-191.75 380.71,-191.75"/>
<text text-anchor="middle" x="292.88" y="-174.45" font-family="Arial" font-size="14.00" fill="#cfffac">../../shared/src/escapeHtml.ts</text>
</g>
<!-- ../../shared/src/general.ts -->
<g id="node6" class="node">
<title>../../shared/src/general.ts</title>
<path fill="none" stroke="#c6c5fe" d="M616.08,-1152.75C616.08,-1152.75 467.42,-1152.75 467.42,-1152.75 463.46,-1152.75 459.5,-1148.79 459.5,-1144.83 459.5,-1144.83 459.5,-1136.92 459.5,-1136.92 459.5,-1132.96 463.46,-1129 467.42,-1129 467.42,-1129 616.08,-1129 616.08,-1129 620.04,-1129 624,-1132.96 624,-1136.92 624,-1136.92 624,-1144.83 624,-1144.83 624,-1148.79 620.04,-1152.75 616.08,-1152.75"/>
<text text-anchor="middle" x="541.75" y="-1135.45" font-family="Arial" font-size="14.00" fill="#c6c5fe">../../shared/src/general.ts</text>
</g>
<!-- ../../shared/src/general.ts&#45;&gt;../../shared/src/makeMap.ts -->
<g id="edge3" class="edge">
<title>../../shared/src/general.ts&#45;&gt;../../shared/src/makeMap.ts</title>
<path fill="none" stroke="#757575" d="M624.17,-1140.88C640.18,-1140.88 657.16,-1140.88 673.72,-1140.88"/>
<polygon fill="#757575" stroke="#757575" points="673.59,-1144.38 683.59,-1140.88 673.59,-1137.38 673.59,-1144.38"/>
</g>
<!-- ../../shared/src/globalsAllowList.ts -->
<g id="node7" class="node">
<title>../../shared/src/globalsAllowList.ts</title>
<path fill="none" stroke="#c6c5fe" d="M641.58,-1091.75C641.58,-1091.75 441.92,-1091.75 441.92,-1091.75 437.96,-1091.75 434,-1087.79 434,-1083.83 434,-1083.83 434,-1075.92 434,-1075.92 434,-1071.96 437.96,-1068 441.92,-1068 441.92,-1068 641.58,-1068 641.58,-1068 645.54,-1068 649.5,-1071.96 649.5,-1075.92 649.5,-1075.92 649.5,-1083.83 649.5,-1083.83 649.5,-1087.79 645.54,-1091.75 641.58,-1091.75"/>
<text text-anchor="middle" x="541.75" y="-1074.45" font-family="Arial" font-size="14.00" fill="#c6c5fe">../../shared/src/globalsAllowList.ts</text>
</g>
<!-- ../../shared/src/globalsAllowList.ts&#45;&gt;../../shared/src/makeMap.ts -->
<g id="edge4" class="edge">
<title>../../shared/src/globalsAllowList.ts&#45;&gt;../../shared/src/makeMap.ts</title>
<path fill="none" stroke="#757575" d="M589.67,-1092.22C626.37,-1101.87 677.56,-1115.34 716.79,-1125.66"/>
<polygon fill="#757575" stroke="#757575" points="715.75,-1129 726.31,-1128.16 717.53,-1122.23 715.75,-1129"/>
</g>
<!-- ../../shared/src/index.ts -->
<g id="node8" class="node">
<title>../../shared/src/index.ts</title>
<path fill="none" stroke="#ff6c60" d="M143.83,-909.75C143.83,-909.75 7.92,-909.75 7.92,-909.75 3.96,-909.75 0,-905.79 0,-901.83 0,-901.83 0,-893.92 0,-893.92 0,-889.96 3.96,-886 7.92,-886 7.92,-886 143.83,-886 143.83,-886 147.79,-886 151.75,-889.96 151.75,-893.92 151.75,-893.92 151.75,-901.83 151.75,-901.83 151.75,-905.79 147.79,-909.75 143.83,-909.75"/>
<text text-anchor="middle" x="75.88" y="-892.45" font-family="Arial" font-size="14.00" fill="#ff6c60">../../shared/src/index.ts</text>
</g>
<!-- ../../shared/src/index.ts&#45;&gt;../../shared/src/codeframe.ts -->
<g id="edge5" class="edge">
<title>../../shared/src/index.ts&#45;&gt;../../shared/src/codeframe.ts</title>
<path fill="none" stroke="#757575" d="M78.54,-910.09C87.14,-971.51 128.47,-1245.88 187.75,-1303.88 190.83,-1306.89 194.2,-1309.57 197.78,-1311.95"/>
<polygon fill="#757575" stroke="#757575" points="195.98,-1314.95 206.41,-1316.84 199.44,-1308.86 195.98,-1314.95"/>
</g>
<!-- ../../shared/src/index.ts&#45;&gt;../../shared/src/domAttrConfig.ts -->
<g id="edge6" class="edge">
<title>../../shared/src/index.ts&#45;&gt;../../shared/src/domAttrConfig.ts</title>
<path fill="none" stroke="#757575" d="M78.63,-909.95C87.37,-968.25 128.13,-1219.71 187.75,-1265.88 223.97,-1293.92 338.09,-1294 426.88,-1289.21"/>
<polygon fill="#757575" stroke="#757575" points="426.83,-1292.72 436.61,-1288.65 426.43,-1285.73 426.83,-1292.72"/>
</g>
<!-- ../../shared/src/index.ts&#45;&gt;../../shared/src/makeMap.ts -->
<g id="edge12" class="edge">
<title>../../shared/src/index.ts&#45;&gt;../../shared/src/makeMap.ts</title>
<path fill="none" stroke="#757575" d="M87.75,-910.19C106.16,-930.15 145.59,-969.19 187.75,-987.88 282.66,-1029.94 552.57,-1021.69 649.5,-1058.88 688.46,-1073.82 727.8,-1102.31 751.7,-1121.45"/>
<polygon fill="#757575" stroke="#757575" points="749.24,-1123.95 759.19,-1127.57 753.66,-1118.53 749.24,-1123.95"/>
</g>
<!-- ../../shared/src/index.ts&#45;&gt;../../shared/src/domTagConfig.ts -->
<g id="edge7" class="edge">
<title>../../shared/src/index.ts&#45;&gt;../../shared/src/domTagConfig.ts</title>
<path fill="none" stroke="#757575" d="M76.38,-910.16C75.1,-960.67 77.75,-1153.41 187.75,-1232.88 281.65,-1300.71 429.17,-1261.36 500.06,-1236.07"/>
<polygon fill="#757575" stroke="#757575" points="501.15,-1239.4 509.33,-1232.67 498.74,-1232.82 501.15,-1239.4"/>
</g>
<!-- ../../shared/src/index.ts&#45;&gt;../../shared/src/escapeHtml.ts -->
<g id="edge8" class="edge">
<title>../../shared/src/index.ts&#45;&gt;../../shared/src/escapeHtml.ts</title>
<path fill="none" stroke="#757575" d="M77.06,-885.75C78.57,-802.08 91.5,-310.76 187.75,-205.88 190.33,-203.06 193.17,-200.53 196.2,-198.26"/>
<polygon fill="#757575" stroke="#757575" points="197.97,-201.28 204.56,-192.99 194.23,-195.36 197.97,-201.28"/>
</g>
<!-- ../../shared/src/index.ts&#45;&gt;../../shared/src/general.ts -->
<g id="edge9" class="edge">
<title>../../shared/src/index.ts&#45;&gt;../../shared/src/general.ts</title>
<path fill="none" stroke="#757575" d="M77.74,-910.12C81.48,-952.81 100.35,-1095.57 187.75,-1152.88 283.4,-1215.59 427.06,-1180.54 498,-1156.9"/>
<polygon fill="#757575" stroke="#757575" points="498.98,-1160.27 507.31,-1153.72 496.71,-1153.65 498.98,-1160.27"/>
</g>
<!-- ../../shared/src/index.ts&#45;&gt;../../shared/src/globalsAllowList.ts -->
<g id="edge10" class="edge">
<title>../../shared/src/index.ts&#45;&gt;../../shared/src/globalsAllowList.ts</title>
<path fill="none" stroke="#757575" d="M83.3,-909.88C97.94,-935.94 136.53,-997.6 187.75,-1025.88 227.27,-1047.69 336.04,-1062.16 422.5,-1070.58"/>
<polygon fill="#757575" stroke="#757575" points="421.94,-1074.04 432.23,-1071.51 422.6,-1067.08 421.94,-1074.04"/>
</g>
<!-- ../../shared/src/looseEqual.ts -->
<g id="node9" class="node">
<title>../../shared/src/looseEqual.ts</title>
<path fill="none" stroke="#c6c5fe" d="M378.08,-1143.75C378.08,-1143.75 207.67,-1143.75 207.67,-1143.75 203.71,-1143.75 199.75,-1139.79 199.75,-1135.83 199.75,-1135.83 199.75,-1127.92 199.75,-1127.92 199.75,-1123.96 203.71,-1120 207.67,-1120 207.67,-1120 378.08,-1120 378.08,-1120 382.04,-1120 386,-1123.96 386,-1127.92 386,-1127.92 386,-1135.83 386,-1135.83 386,-1139.79 382.04,-1143.75 378.08,-1143.75"/>
<text text-anchor="middle" x="292.88" y="-1126.45" font-family="Arial" font-size="14.00" fill="#c6c5fe">../../shared/src/looseEqual.ts</text>
</g>
<!-- ../../shared/src/index.ts&#45;&gt;../../shared/src/looseEqual.ts -->
<g id="edge11" class="edge">
<title>../../shared/src/index.ts&#45;&gt;../../shared/src/looseEqual.ts</title>
<path fill="none" stroke="#757575" d="M79.37,-910.14C87.57,-947.06 117.29,-1057.87 187.75,-1110.88 189.3,-1112.04 190.89,-1113.14 192.52,-1114.18"/>
<polygon fill="#757575" stroke="#757575" points="190.52,-1117.08 200.97,-1118.84 193.9,-1110.95 190.52,-1117.08"/>
</g>
<!-- ../../shared/src/normalizeProp.ts -->
<g id="node10" class="node">
<title>../../shared/src/normalizeProp.ts</title>
<path fill="none" stroke="#c6c5fe" d="M388.58,-1223.75C388.58,-1223.75 197.17,-1223.75 197.17,-1223.75 193.21,-1223.75 189.25,-1219.79 189.25,-1215.83 189.25,-1215.83 189.25,-1207.92 189.25,-1207.92 189.25,-1203.96 193.21,-1200 197.17,-1200 197.17,-1200 388.58,-1200 388.58,-1200 392.54,-1200 396.5,-1203.96 396.5,-1207.92 396.5,-1207.92 396.5,-1215.83 396.5,-1215.83 396.5,-1219.79 392.54,-1223.75 388.58,-1223.75"/>
<text text-anchor="middle" x="292.88" y="-1206.45" font-family="Arial" font-size="14.00" fill="#c6c5fe">../../shared/src/normalizeProp.ts</text>
</g>
<!-- ../../shared/src/index.ts&#45;&gt;../../shared/src/normalizeProp.ts -->
<g id="edge13" class="edge">
<title>../../shared/src/index.ts&#45;&gt;../../shared/src/normalizeProp.ts</title>
<path fill="none" stroke="#757575" d="M77.72,-910.22C81.46,-954.77 100.45,-1108.69 187.75,-1185.88 191.36,-1189.07 195.31,-1191.88 199.48,-1194.36"/>
<polygon fill="#757575" stroke="#757575" points="197.75,-1197.4 208.24,-1198.86 200.95,-1191.18 197.75,-1197.4"/>
</g>
<!-- ../../shared/src/patchFlags.ts -->
<g id="node11" class="node">
<title>../../shared/src/patchFlags.ts</title>
<path fill="none" stroke="#cfffac" d="M377.71,-149.75C377.71,-149.75 208.04,-149.75 208.04,-149.75 204.08,-149.75 200.12,-145.79 200.12,-141.83 200.12,-141.83 200.12,-133.92 200.12,-133.92 200.12,-129.96 204.08,-126 208.04,-126 208.04,-126 377.71,-126 377.71,-126 381.67,-126 385.62,-129.96 385.62,-133.92 385.62,-133.92 385.62,-141.83 385.62,-141.83 385.62,-145.79 381.67,-149.75 377.71,-149.75"/>
<text text-anchor="middle" x="292.88" y="-132.45" font-family="Arial" font-size="14.00" fill="#cfffac">../../shared/src/patchFlags.ts</text>
</g>
<!-- ../../shared/src/index.ts&#45;&gt;../../shared/src/patchFlags.ts -->
<g id="edge14" class="edge">
<title>../../shared/src/index.ts&#45;&gt;../../shared/src/patchFlags.ts</title>
<path fill="none" stroke="#757575" d="M76.87,-885.73C77.1,-798.6 82.8,-269.21 187.75,-158.88 188.64,-157.94 189.56,-157.04 190.5,-156.17"/>
<polygon fill="#757575" stroke="#757575" points="192.58,-158.99 198.47,-150.18 188.38,-153.39 192.58,-158.99"/>
</g>
<!-- ../../shared/src/shapeFlags.ts -->
<g id="node12" class="node">
<title>../../shared/src/shapeFlags.ts</title>
<path fill="none" stroke="#cfffac" d="M379.58,-107.75C379.58,-107.75 206.17,-107.75 206.17,-107.75 202.21,-107.75 198.25,-103.79 198.25,-99.83 198.25,-99.83 198.25,-91.92 198.25,-91.92 198.25,-87.96 202.21,-84 206.17,-84 206.17,-84 379.58,-84 379.58,-84 383.54,-84 387.5,-87.96 387.5,-91.92 387.5,-91.92 387.5,-99.83 387.5,-99.83 387.5,-103.79 383.54,-107.75 379.58,-107.75"/>
<text text-anchor="middle" x="292.88" y="-90.45" font-family="Arial" font-size="14.00" fill="#cfffac">../../shared/src/shapeFlags.ts</text>
</g>
<!-- ../../shared/src/index.ts&#45;&gt;../../shared/src/shapeFlags.ts -->
<g id="edge15" class="edge">
<title>../../shared/src/index.ts&#45;&gt;../../shared/src/shapeFlags.ts</title>
<path fill="none" stroke="#757575" d="M76.76,-885.62C76.2,-795.39 77.19,-234.04 187.75,-116.88 188.34,-116.25 188.95,-115.63 189.57,-115.04"/>
<polygon fill="#757575" stroke="#757575" points="191.43,-118.03 197.08,-109.06 187.07,-112.55 191.43,-118.03"/>
</g>
<!-- ../../shared/src/slotFlags.ts -->
<g id="node13" class="node">
<title>../../shared/src/slotFlags.ts</title>
<path fill="none" stroke="#cfffac" d="M371.71,-65.75C371.71,-65.75 214.04,-65.75 214.04,-65.75 210.08,-65.75 206.12,-61.79 206.12,-57.83 206.12,-57.83 206.12,-49.92 206.12,-49.92 206.12,-45.96 210.08,-42 214.04,-42 214.04,-42 371.71,-42 371.71,-42 375.67,-42 379.62,-45.96 379.62,-49.92 379.62,-49.92 379.62,-57.83 379.62,-57.83 379.62,-61.79 375.67,-65.75 371.71,-65.75"/>
<text text-anchor="middle" x="292.88" y="-48.45" font-family="Arial" font-size="14.00" fill="#cfffac">../../shared/src/slotFlags.ts</text>
</g>
<!-- ../../shared/src/index.ts&#45;&gt;../../shared/src/slotFlags.ts -->
<g id="edge16" class="edge">
<title>../../shared/src/index.ts&#45;&gt;../../shared/src/slotFlags.ts</title>
<path fill="none" stroke="#757575" d="M76.67,-885.57C75.34,-792.44 71.56,-198.89 187.75,-74.88 190.33,-72.12 193.17,-69.66 196.21,-67.49"/>
<polygon fill="#757575" stroke="#757575" points="197.74,-70.65 204.54,-62.53 194.16,-64.63 197.74,-70.65"/>
</g>
<!-- ../../shared/src/toDisplayString.ts -->
<g id="node14" class="node">
<title>../../shared/src/toDisplayString.ts</title>
<path fill="none" stroke="#ff6c60" d="M390.08,-1101.75C390.08,-1101.75 195.67,-1101.75 195.67,-1101.75 191.71,-1101.75 187.75,-1097.79 187.75,-1093.83 187.75,-1093.83 187.75,-1085.92 187.75,-1085.92 187.75,-1081.96 191.71,-1078 195.67,-1078 195.67,-1078 390.08,-1078 390.08,-1078 394.04,-1078 398,-1081.96 398,-1085.92 398,-1085.92 398,-1093.83 398,-1093.83 398,-1097.79 394.04,-1101.75 390.08,-1101.75"/>
<text text-anchor="middle" x="292.88" y="-1084.45" font-family="Arial" font-size="14.00" fill="#ff6c60">../../shared/src/toDisplayString.ts</text>
</g>
<!-- ../../shared/src/index.ts&#45;&gt;../../shared/src/toDisplayString.ts -->
<g id="edge17" class="edge">
<title>../../shared/src/index.ts&#45;&gt;../../shared/src/toDisplayString.ts</title>
<path fill="none" stroke="#757575" d="M81.41,-910.15C93.5,-941.13 129.65,-1022.98 187.75,-1063.88 192.84,-1067.46 198.38,-1070.55 204.17,-1073.22"/>
<polygon fill="#757575" stroke="#757575" points="202.81,-1076.45 213.39,-1077 205.47,-1069.97 202.81,-1076.45"/>
</g>
<!-- ../../shared/src/typeUtils.ts -->
<g id="node15" class="node">
<title>../../shared/src/typeUtils.ts</title>
<path fill="none" stroke="#cfffac" d="M370.58,-23.75C370.58,-23.75 215.17,-23.75 215.17,-23.75 211.21,-23.75 207.25,-19.79 207.25,-15.83 207.25,-15.83 207.25,-7.92 207.25,-7.92 207.25,-3.96 211.21,0 215.17,0 215.17,0 370.58,0 370.58,0 374.54,0 378.5,-3.96 378.5,-7.92 378.5,-7.92 378.5,-15.83 378.5,-15.83 378.5,-19.79 374.54,-23.75 370.58,-23.75"/>
<text text-anchor="middle" x="292.88" y="-6.45" font-family="Arial" font-size="14.00" fill="#cfffac">../../shared/src/typeUtils.ts</text>
</g>
<!-- ../../shared/src/index.ts&#45;&gt;../../shared/src/typeUtils.ts -->
<g id="edge18" class="edge">
<title>../../shared/src/index.ts&#45;&gt;../../shared/src/typeUtils.ts</title>
<path fill="none" stroke="#757575" d="M77.59,-885.69C83.56,-785.43 126.56,-98.6 187.75,-32.88 190.54,-29.88 193.62,-27.25 196.93,-24.94"/>
<polygon fill="#757575" stroke="#757575" points="198.58,-28.03 205.49,-20 195.08,-21.97 198.58,-28.03"/>
</g>
<!-- ../../shared/src/looseEqual.ts&#45;&gt;../../shared/src/general.ts -->
<g id="edge19" class="edge">
<title>../../shared/src/looseEqual.ts&#45;&gt;../../shared/src/general.ts</title>
<path fill="none" stroke="#757575" d="M386.15,-1135.24C406.28,-1135.97 427.59,-1136.75 447.75,-1137.48"/>
<polygon fill="#757575" stroke="#757575" points="447.51,-1140.98 457.63,-1137.84 447.76,-1133.98 447.51,-1140.98"/>
</g>
<!-- ../../shared/src/normalizeProp.ts&#45;&gt;../../shared/src/general.ts -->
<g id="edge20" class="edge">
<title>../../shared/src/normalizeProp.ts&#45;&gt;../../shared/src/general.ts</title>
<path fill="none" stroke="#757575" d="M345.94,-1199.53C362.63,-1195.4 381.14,-1190.63 398,-1185.88 429.76,-1176.91 465.14,-1165.77 492.73,-1156.81"/>
<polygon fill="#757575" stroke="#757575" points="493.81,-1160.14 502.23,-1153.71 491.63,-1153.49 493.81,-1160.14"/>
</g>
<!-- ../../shared/src/toDisplayString.ts&#45;&gt;../../shared/src/general.ts -->
<g id="edge21" class="edge">
<title>../../shared/src/toDisplayString.ts&#45;&gt;../../shared/src/general.ts</title>
<path fill="none" stroke="#757575" d="M355.56,-1102.23C369.52,-1105.05 384.27,-1108.05 398,-1110.88 421.87,-1115.79 447.97,-1121.25 471.25,-1126.15"/>
<polygon fill="#757575" stroke="#757575" points="470.44,-1129.56 480.95,-1128.19 471.89,-1122.71 470.44,-1129.56"/>
</g>
<!-- index.ts -->
<g id="node16" class="node">
<title>index.ts</title>
<path fill="none" stroke="#ff6c60" d="M565.08,-743.75C565.08,-743.75 518.42,-743.75 518.42,-743.75 514.46,-743.75 510.5,-739.79 510.5,-735.83 510.5,-735.83 510.5,-727.92 510.5,-727.92 510.5,-723.96 514.46,-720 518.42,-720 518.42,-720 565.08,-720 565.08,-720 569.04,-720 573,-723.96 573,-727.92 573,-727.92 573,-735.83 573,-735.83 573,-739.79 569.04,-743.75 565.08,-743.75"/>
<text text-anchor="middle" x="541.75" y="-726.45" font-family="Arial" font-size="14.00" fill="#ff6c60">index.ts</text>
</g>
<!-- ../../shared/src/toDisplayString.ts&#45;&gt;index.ts -->
<g id="edge22" class="edge">
<title>../../shared/src/toDisplayString.ts&#45;&gt;index.ts</title>
<path fill="none" stroke="#757575" d="M302.37,-1077.55C338.5,-1025.16 479.61,-820.53 525.93,-753.36"/>
<polygon fill="#757575" stroke="#757575" points="528.63,-755.61 531.43,-745.39 522.87,-751.64 528.63,-755.61"/>
</g>
<!-- arrayInstrumentations.ts -->
<g id="node17" class="node">
<title>arrayInstrumentations.ts</title>
<path fill="none" stroke="#ff6c60" d="M848.46,-841.75C848.46,-841.75 702.79,-841.75 702.79,-841.75 698.83,-841.75 694.88,-837.79 694.88,-833.83 694.88,-833.83 694.88,-825.92 694.88,-825.92 694.88,-821.96 698.83,-818 702.79,-818 702.79,-818 848.46,-818 848.46,-818 852.42,-818 856.38,-821.96 856.38,-825.92 856.38,-825.92 856.38,-833.83 856.38,-833.83 856.38,-837.79 852.42,-841.75 848.46,-841.75"/>
<text text-anchor="middle" x="775.62" y="-824.45" font-family="Arial" font-size="14.00" fill="#ff6c60">arrayInstrumentations.ts</text>
</g>
<!-- index.ts&#45;&gt;arrayInstrumentations.ts -->
<g id="edge58" class="edge">
<title>index.ts&#45;&gt;arrayInstrumentations.ts</title>
<path fill="none" stroke="#757575" d="M571.65,-744.09C612.78,-761.47 688.37,-793.42 734.79,-813.04"/>
<polygon fill="#757575" stroke="#757575" points="733.39,-816.25 743.97,-816.92 736.12,-809.8 733.39,-816.25"/>
</g>
<!-- constants.ts -->
<g id="node18" class="node">
<title>constants.ts</title>
<path fill="none" stroke="#cfffac" d="M1594.08,-831.75C1594.08,-831.75 1521.92,-831.75 1521.92,-831.75 1517.96,-831.75 1514,-827.79 1514,-823.83 1514,-823.83 1514,-815.92 1514,-815.92 1514,-811.96 1517.96,-808 1521.92,-808 1521.92,-808 1594.08,-808 1594.08,-808 1598.04,-808 1602,-811.96 1602,-815.92 1602,-815.92 1602,-823.83 1602,-823.83 1602,-827.79 1598.04,-831.75 1594.08,-831.75"/>
<text text-anchor="middle" x="1558" y="-814.45" font-family="Arial" font-size="14.00" fill="#cfffac">constants.ts</text>
</g>
<!-- index.ts&#45;&gt;constants.ts -->
<g id="edge60" class="edge">
<title>index.ts&#45;&gt;constants.ts</title>
<path fill="none" stroke="#757575" d="M551.59,-744.09C572.37,-772.17 627.02,-842.3 685.5,-886.88 816.64,-986.83 855.58,-1015.74 1015.25,-1056.88 1211.96,-1107.56 1324.31,-1166.14 1471.25,-1025.88 1524.57,-974.98 1546,-885.95 1553.49,-843.58"/>
<polygon fill="#757575" stroke="#757575" points="1556.94,-844.18 1555.11,-833.74 1550.03,-843.04 1556.94,-844.18"/>
</g>
<!-- dep.ts -->
<g id="node19" class="node">
<title>dep.ts</title>
<path fill="none" stroke="#ff6c60" d="M1237.83,-575.75C1237.83,-575.75 1199.67,-575.75 1199.67,-575.75 1195.71,-575.75 1191.75,-571.79 1191.75,-567.83 1191.75,-567.83 1191.75,-559.92 1191.75,-559.92 1191.75,-555.96 1195.71,-552 1199.67,-552 1199.67,-552 1237.83,-552 1237.83,-552 1241.79,-552 1245.75,-555.96 1245.75,-559.92 1245.75,-559.92 1245.75,-567.83 1245.75,-567.83 1245.75,-571.79 1241.79,-575.75 1237.83,-575.75"/>
<text text-anchor="middle" x="1218.75" y="-558.45" font-family="Arial" font-size="14.00" fill="#ff6c60">dep.ts</text>
</g>
<!-- index.ts&#45;&gt;dep.ts -->
<g id="edge61" class="edge">
<title>index.ts&#45;&gt;dep.ts</title>
<path fill="none" stroke="#757575" d="M573.49,-724.29C630.91,-710.1 758.39,-678.59 865.75,-651.88 980.5,-623.32 1116.24,-589.32 1180.48,-573.22"/>
<polygon fill="#757575" stroke="#757575" points="1180.94,-576.71 1189.79,-570.89 1179.24,-569.92 1180.94,-576.71"/>
</g>
<!-- effect.ts -->
<g id="node20" class="node">
<title>effect.ts</title>
<path fill="none" stroke="#ff6c60" d="M1463.33,-452.75C1463.33,-452.75 1415.92,-452.75 1415.92,-452.75 1411.96,-452.75 1408,-448.79 1408,-444.83 1408,-444.83 1408,-436.92 1408,-436.92 1408,-432.96 1411.96,-429 1415.92,-429 1415.92,-429 1463.33,-429 1463.33,-429 1467.29,-429 1471.25,-432.96 1471.25,-436.92 1471.25,-436.92 1471.25,-444.83 1471.25,-444.83 1471.25,-448.79 1467.29,-452.75 1463.33,-452.75"/>
<text text-anchor="middle" x="1439.62" y="-435.45" font-family="Arial" font-size="14.00" fill="#ff6c60">effect.ts</text>
</g>
<!-- index.ts&#45;&gt;effect.ts -->
<g id="edge62" class="edge">
<title>index.ts&#45;&gt;effect.ts</title>
<path fill="none" stroke="#757575" d="M542.83,-719.7C543.88,-663.84 556.13,-430.08 685.5,-319.88 919.14,-120.84 1094.6,-263.53 1372,-394.88 1387.14,-402.04 1402.62,-412.5 1414.84,-421.64"/>
<polygon fill="#757575" stroke="#757575" points="1412.62,-424.34 1422.68,-427.67 1416.89,-418.8 1412.62,-424.34"/>
</g>
<!-- reactive.ts -->
<g id="node21" class="node">
<title>reactive.ts</title>
<path fill="none" stroke="#ff6c60" d="M971.33,-955.75C971.33,-955.75 909.67,-955.75 909.67,-955.75 905.71,-955.75 901.75,-951.79 901.75,-947.83 901.75,-947.83 901.75,-939.92 901.75,-939.92 901.75,-935.96 905.71,-932 909.67,-932 909.67,-932 971.33,-932 971.33,-932 975.29,-932 979.25,-935.96 979.25,-939.92 979.25,-939.92 979.25,-947.83 979.25,-947.83 979.25,-951.79 975.29,-955.75 971.33,-955.75"/>
<text text-anchor="middle" x="940.5" y="-938.45" font-family="Arial" font-size="14.00" fill="#ff6c60">reactive.ts</text>
</g>
<!-- index.ts&#45;&gt;reactive.ts -->
<g id="edge64" class="edge">
<title>index.ts&#45;&gt;reactive.ts</title>
<path fill="none" stroke="#757575" d="M553.62,-744.12C575.87,-768.4 629.25,-822.69 685.5,-850.88 759.13,-887.77 790.38,-860.67 865.75,-893.88 883.81,-901.83 902.18,-914.27 916.07,-924.75"/>
<polygon fill="#757575" stroke="#757575" points="913.67,-927.32 923.72,-930.69 917.97,-921.79 913.67,-927.32"/>
</g>
<!-- ref.ts -->
<g id="node23" class="node">
<title>ref.ts</title>
<path fill="none" stroke="#ff6c60" d="M1458.71,-689.75C1458.71,-689.75 1420.54,-689.75 1420.54,-689.75 1416.58,-689.75 1412.62,-685.79 1412.62,-681.83 1412.62,-681.83 1412.62,-673.92 1412.62,-673.92 1412.62,-669.96 1416.58,-666 1420.54,-666 1420.54,-666 1458.71,-666 1458.71,-666 1462.67,-666 1466.62,-669.96 1466.62,-673.92 1466.62,-673.92 1466.62,-681.83 1466.62,-681.83 1466.62,-685.79 1462.67,-689.75 1458.71,-689.75"/>
<text text-anchor="middle" x="1439.62" y="-672.45" font-family="Arial" font-size="14.00" fill="#ff6c60">ref.ts</text>
</g>
<!-- index.ts&#45;&gt;ref.ts -->
<g id="edge65" class="edge">
<title>index.ts&#45;&gt;ref.ts</title>
<path fill="none" stroke="#757575" d="M573.33,-730.03C708.58,-721.88 1252.93,-689.07 1401.18,-680.13"/>
<polygon fill="#757575" stroke="#757575" points="1401.05,-683.65 1410.83,-679.55 1400.63,-676.66 1401.05,-683.65"/>
</g>
<!-- computed.ts -->
<g id="node26" class="node">
<title>computed.ts</title>
<path fill="none" stroke="#ff6c60" d="M1364.08,-535.75C1364.08,-535.75 1289.67,-535.75 1289.67,-535.75 1285.71,-535.75 1281.75,-531.79 1281.75,-527.83 1281.75,-527.83 1281.75,-519.92 1281.75,-519.92 1281.75,-515.96 1285.71,-512 1289.67,-512 1289.67,-512 1364.08,-512 1364.08,-512 1368.04,-512 1372,-515.96 1372,-519.92 1372,-519.92 1372,-527.83 1372,-527.83 1372,-531.79 1368.04,-535.75 1364.08,-535.75"/>
<text text-anchor="middle" x="1326.88" y="-518.45" font-family="Arial" font-size="14.00" fill="#ff6c60">computed.ts</text>
</g>
<!-- index.ts&#45;&gt;computed.ts -->
<g id="edge59" class="edge">
<title>index.ts&#45;&gt;computed.ts</title>
<path fill="none" stroke="#757575" d="M560.41,-719.78C586.6,-702.37 637.8,-670.3 685.5,-651.88 892.29,-571.99 1156.78,-539.46 1270.19,-528.55"/>
<polygon fill="#757575" stroke="#757575" points="1270.19,-532.07 1279.82,-527.65 1269.54,-525.1 1270.19,-532.07"/>
</g>
<!-- effectScope.ts -->
<g id="node27" class="node">
<title>effectScope.ts</title>
<path fill="none" stroke="#ff6c60" d="M1600.83,-443.75C1600.83,-443.75 1515.17,-443.75 1515.17,-443.75 1511.21,-443.75 1507.25,-439.79 1507.25,-435.83 1507.25,-435.83 1507.25,-427.92 1507.25,-427.92 1507.25,-423.96 1511.21,-420 1515.17,-420 1515.17,-420 1600.83,-420 1600.83,-420 1604.79,-420 1608.75,-423.96 1608.75,-427.92 1608.75,-427.92 1608.75,-435.83 1608.75,-435.83 1608.75,-439.79 1604.79,-443.75 1600.83,-443.75"/>
<text text-anchor="middle" x="1558" y="-426.45" font-family="Arial" font-size="14.00" fill="#ff6c60">effectScope.ts</text>
</g>
<!-- index.ts&#45;&gt;effectScope.ts -->
<g id="edge63" class="edge">
<title>index.ts&#45;&gt;effectScope.ts</title>
<path fill="none" stroke="#757575" d="M549.51,-719.84C568.02,-687.6 622.43,-597.74 685.5,-538.88 768.85,-461.08 796.22,-444.03 901.75,-400.88 1095.37,-321.69 1163.85,-360.05 1372,-380.88 1416.46,-385.32 1428.23,-384.8 1471.25,-396.88 1487.94,-401.56 1505.79,-408.51 1520.85,-414.98"/>
<polygon fill="#757575" stroke="#757575" points="1519.32,-418.13 1529.89,-418.96 1522.15,-411.73 1519.32,-418.13"/>
</g>
<!-- watch.ts -->
<g id="node28" class="node">
<title>watch.ts</title>
<path fill="none" stroke="#ff6c60" d="M800.46,-571.75C800.46,-571.75 750.79,-571.75 750.79,-571.75 746.83,-571.75 742.88,-567.79 742.88,-563.83 742.88,-563.83 742.88,-555.92 742.88,-555.92 742.88,-551.96 746.83,-548 750.79,-548 750.79,-548 800.46,-548 800.46,-548 804.42,-548 808.38,-551.96 808.38,-555.92 808.38,-555.92 808.38,-563.83 808.38,-563.83 808.38,-567.79 804.42,-571.75 800.46,-571.75"/>
<text text-anchor="middle" x="775.62" y="-554.45" font-family="Arial" font-size="14.00" fill="#ff6c60">watch.ts</text>
</g>
<!-- index.ts&#45;&gt;watch.ts -->
<g id="edge66" class="edge">
<title>index.ts&#45;&gt;watch.ts</title>
<path fill="none" stroke="#757575" d="M558.5,-719.76C584.7,-699.64 638.97,-658.17 685.5,-623.88 706.46,-608.43 730.44,-591.23 748.25,-578.55"/>
<polygon fill="#757575" stroke="#757575" points="750.09,-581.54 756.21,-572.9 746.03,-575.83 750.09,-581.54"/>
</g>
<!-- arrayInstrumentations.ts&#45;&gt;../../shared/src/index.ts -->
<g id="edge23" class="edge">
<title>arrayInstrumentations.ts&#45;&gt;../../shared/src/index.ts</title>
<path fill="none" stroke="#757575" d="M694.8,-836.36C581.81,-845.73 368.8,-864.12 187.75,-883.88 179.79,-884.74 171.52,-885.69 163.25,-886.68"/>
<polygon fill="#757575" stroke="#757575" points="162.99,-883.19 153.49,-887.86 163.83,-890.14 162.99,-883.19"/>
</g>
<!-- arrayInstrumentations.ts&#45;&gt;constants.ts -->
<g id="edge24" class="edge">
<title>arrayInstrumentations.ts&#45;&gt;constants.ts</title>
<path fill="none" stroke="#757575" d="M856.84,-828.85C1015.75,-826.81 1366.93,-822.31 1502.3,-820.58"/>
<polygon fill="#757575" stroke="#757575" points="1502.11,-824.08 1512.06,-820.45 1502.02,-817.08 1502.11,-824.08"/>
</g>
<!-- arrayInstrumentations.ts&#45;&gt;dep.ts -->
<g id="edge25" class="edge">
<title>arrayInstrumentations.ts&#45;&gt;dep.ts</title>
<path fill="none" stroke="#757575" d="M820.2,-817.56C895.23,-794.69 1050.88,-739.85 1155.75,-651.88 1177.64,-633.52 1195.49,-605.71 1206.32,-586.28"/>
<polygon fill="#757575" stroke="#757575" points="1209.37,-588 1211.02,-577.54 1203.2,-584.69 1209.37,-588"/>
</g>
<!-- arrayInstrumentations.ts&#45;&gt;effect.ts -->
<g id="edge26" class="edge">
<title>arrayInstrumentations.ts&#45;&gt;effect.ts</title>
<path fill="none" stroke="#757575" d="M787.98,-817.6C838.98,-763.4 1054.25,-544.46 1281.75,-457.88 1318.8,-443.77 1364.1,-440.18 1396.48,-439.73"/>
<polygon fill="#757575" stroke="#757575" points="1396.28,-443.23 1406.27,-439.69 1396.26,-436.23 1396.28,-443.23"/>
</g>
<!-- arrayInstrumentations.ts&#45;&gt;reactive.ts -->
<g id="edge27" class="edge">
<title>arrayInstrumentations.ts&#45;&gt;reactive.ts</title>
<path fill="none" stroke="#757575" d="M840.89,-842.13C849.79,-845.63 858.39,-850.11 865.75,-855.88 890.84,-875.52 880.1,-894.49 901.75,-917.88 903.98,-920.28 906.47,-922.59 909.08,-924.77"/>
<polygon fill="#757575" stroke="#757575" points="906.9,-927.51 917,-930.71 911.1,-921.91 906.9,-927.51"/>
</g>
<!-- dep.ts&#45;&gt;../../shared/src/index.ts -->
<g id="edge46" class="edge">
<title>dep.ts&#45;&gt;../../shared/src/index.ts</title>
<path fill="none" stroke="#757575" d="M1191.51,-565.09C1152.88,-566.95 1078.44,-570.83 1015.25,-575.88 909,-584.36 883.22,-599.88 776.62,-599.88 540.75,-599.88 540.75,-599.88 540.75,-599.88 335.48,-599.88 148.59,-809 93.34,-876.88"/>
<polygon fill="#757575" stroke="#757575" points="90.64,-874.65 87.11,-884.64 96.1,-879.04 90.64,-874.65"/>
</g>
<!-- dep.ts&#45;&gt;constants.ts -->
<g id="edge48" class="edge">
<title>dep.ts&#45;&gt;constants.ts</title>
<path fill="none" stroke="#757575" d="M1246.1,-562.62C1277.3,-562.07 1330.3,-564.1 1372,-580.88 1423.55,-601.6 1435.42,-614.41 1471.25,-656.88 1508.51,-701.04 1535.89,-764.06 1548.78,-797.32"/>
<polygon fill="#757575" stroke="#757575" points="1545.38,-798.23 1552.19,-806.35 1551.93,-795.76 1545.38,-798.23"/>
</g>
<!-- dep.ts&#45;&gt;effect.ts -->
<g id="edge49" class="edge">
<title>dep.ts&#45;&gt;effect.ts</title>
<path fill="none" stroke="#757575" d="M1225.19,-551.6C1235.2,-535.54 1257.7,-509.52 1281.75,-493.88 1317.65,-470.52 1363.73,-453.61 1396.65,-445.09"/>
<polygon fill="#757575" stroke="#757575" points="1397.33,-448.52 1406.23,-442.78 1395.69,-441.72 1397.33,-448.52"/>
</g>
<!-- dep.ts&#45;&gt;computed.ts -->
<g id="edge47" class="edge">
<title>dep.ts&#45;&gt;computed.ts</title>
<path fill="none" stroke="#757575" d="M1238.24,-551.64C1247.42,-547.24 1259.05,-542.37 1270.82,-537.88"/>
<polygon fill="#757575" stroke="#757575" points="1272,-541.17 1280.17,-534.42 1269.58,-534.61 1272,-541.17"/>
</g>
<!-- effect.ts&#45;&gt;../../shared/src/index.ts -->
<g id="edge50" class="edge">
<title>effect.ts&#45;&gt;../../shared/src/index.ts</title>
<path fill="none" stroke="#757575" d="M1432.07,-428.52C1421.5,-409.49 1399.09,-372.72 1372,-348.88 1289.81,-276.53 1260.69,-262.11 1155.75,-230.88 1052.52,-200.15 266.34,-208.23 187.75,-281.88 99.26,-364.8 80.79,-771.4 77.51,-874.22"/>
<polygon fill="#757575" stroke="#757575" points="74.01,-874.08 77.21,-884.18 81.01,-874.29 74.01,-874.08"/>
</g>
<!-- effect.ts&#45;&gt;constants.ts -->
<g id="edge52" class="edge">
<title>effect.ts&#45;&gt;constants.ts</title>
<path fill="none" stroke="#757575" d="M1444.79,-453.18C1450.79,-470.95 1462.12,-504.85 1471.25,-533.88 1501.86,-631.2 1536.09,-747.93 1550.28,-796.69"/>
<polygon fill="#757575" stroke="#757575" points="1546.87,-797.49 1553.02,-806.12 1553.59,-795.54 1546.87,-797.49"/>
</g>
<!-- effect.ts&#45;&gt;dep.ts -->
<g id="edge53" class="edge">
<title>effect.ts&#45;&gt;dep.ts</title>
<path fill="none" stroke="#757575" d="M1414.62,-453.2C1382.57,-465.11 1324.83,-483.85 1281.75,-511.88 1268.07,-520.78 1254.89,-533.04 1244.22,-543.56"/>
<polygon fill="#757575" stroke="#757575" points="1241.92,-540.91 1237.32,-550.45 1246.87,-545.86 1241.92,-540.91"/>
</g>
<!-- warning.ts -->
<g id="node24" class="node">
<title>warning.ts</title>
<path fill="none" stroke="#cfffac" d="M1714.33,-607.75C1714.33,-607.75 1652.67,-607.75 1652.67,-607.75 1648.71,-607.75 1644.75,-603.79 1644.75,-599.83 1644.75,-599.83 1644.75,-591.92 1644.75,-591.92 1644.75,-587.96 1648.71,-584 1652.67,-584 1652.67,-584 1714.33,-584 1714.33,-584 1718.29,-584 1722.25,-587.96 1722.25,-591.92 1722.25,-591.92 1722.25,-599.83 1722.25,-599.83 1722.25,-603.79 1718.29,-607.75 1714.33,-607.75"/>
<text text-anchor="middle" x="1683.5" y="-590.45" font-family="Arial" font-size="14.00" fill="#cfffac">warning.ts</text>
</g>
<!-- effect.ts&#45;&gt;warning.ts -->
<g id="edge55" class="edge">
<title>effect.ts&#45;&gt;warning.ts</title>
<path fill="none" stroke="#757575" d="M1471.41,-448.53C1513.56,-459.42 1586.53,-479.82 1608.75,-495.88 1637.15,-516.4 1659.2,-551.13 1671.52,-573.78"/>
<polygon fill="#757575" stroke="#757575" points="1668.34,-575.24 1676.08,-582.48 1674.54,-572 1668.34,-575.24"/>
</g>
<!-- effect.ts&#45;&gt;computed.ts -->
<g id="edge51" class="edge">
<title>effect.ts&#45;&gt;computed.ts</title>
<path fill="none" stroke="#757575" d="M1431.57,-453.19C1420.97,-466.3 1399.93,-485.91 1373.83,-505.24"/>
<polygon fill="#757575" stroke="#757575" points="1372.07,-502.19 1366.01,-510.89 1376.17,-507.86 1372.07,-502.19"/>
</g>
<!-- effect.ts&#45;&gt;effectScope.ts -->
<g id="edge54" class="edge">
<title>effect.ts&#45;&gt;effectScope.ts</title>
<path fill="none" stroke="#757575" d="M1471.51,-432.45C1479.01,-431.45 1487.29,-430.57 1495.66,-429.88"/>
<polygon fill="#757575" stroke="#757575" points="1495.83,-433.37 1505.55,-429.16 1495.32,-426.39 1495.83,-433.37"/>
</g>
<!-- reactive.ts&#45;&gt;../../shared/src/index.ts -->
<g id="edge67" class="edge">
<title>reactive.ts&#45;&gt;../../shared/src/index.ts</title>
<path fill="none" stroke="#757575" d="M901.53,-940.58C846.15,-935.87 739.98,-927.2 649.5,-921.88 477.12,-911.73 275.31,-904.31 163.18,-900.58"/>
<polygon fill="#757575" stroke="#757575" points="163.58,-897.09 153.47,-900.26 163.34,-904.09 163.58,-897.09"/>
</g>
<!-- reactive.ts&#45;&gt;constants.ts -->
<g id="edge70" class="edge">
<title>reactive.ts&#45;&gt;constants.ts</title>
<path fill="none" stroke="#757575" d="M979.64,-951.2C991.05,-953.09 1003.62,-954.87 1015.25,-955.88 1173.24,-969.55 1215.32,-974.36 1372,-949.88 1416.94,-942.85 1432.86,-949.28 1471.25,-924.88 1504.29,-903.86 1530.61,-865.81 1544.98,-841.75"/>
<polygon fill="#757575" stroke="#757575" points="1547.83,-843.8 1549.8,-833.39 1541.77,-840.3 1547.83,-843.8"/>
</g>
<!-- baseHandlers.ts -->
<g id="node22" class="node">
<title>baseHandlers.ts</title>
<path fill="none" stroke="#ff6c60" d="M1134.33,-946.75C1134.33,-946.75 1036.67,-946.75 1036.67,-946.75 1032.71,-946.75 1028.75,-942.79 1028.75,-938.83 1028.75,-938.83 1028.75,-930.92 1028.75,-930.92 1028.75,-926.96 1032.71,-923 1036.67,-923 1036.67,-923 1134.33,-923 1134.33,-923 1138.29,-923 1142.25,-926.96 1142.25,-930.92 1142.25,-930.92 1142.25,-938.83 1142.25,-938.83 1142.25,-942.79 1138.29,-946.75 1134.33,-946.75"/>
<text text-anchor="middle" x="1085.5" y="-929.45" font-family="Arial" font-size="14.00" fill="#ff6c60">baseHandlers.ts</text>
</g>
<!-- reactive.ts&#45;&gt;baseHandlers.ts -->
<g id="edge68" class="edge">
<title>reactive.ts&#45;&gt;baseHandlers.ts</title>
<path fill="none" stroke="#757575" d="M979.45,-935.45C991.03,-934.19 1004.13,-933.13 1017.06,-932.38"/>
<polygon fill="#757575" stroke="#757575" points="1017.01,-935.89 1026.82,-931.88 1016.65,-928.9 1017.01,-935.89"/>
</g>
<!-- reactive.ts&#45;&gt;ref.ts -->
<g id="edge71" class="edge">
<title>reactive.ts&#45;&gt;ref.ts</title>
<path fill="none" stroke="#757575" d="M962.01,-931.55C1025.3,-900.05 1222.27,-815.17 1372,-720.88 1383.5,-713.63 1395.4,-704.82 1405.91,-696.95"/>
<polygon fill="#757575" stroke="#757575" points="1408,-699.76 1413.9,-690.97 1403.8,-694.16 1408,-699.76"/>
</g>
<!-- reactive.ts&#45;&gt;warning.ts -->
<g id="edge72" class="edge">
<title>reactive.ts&#45;&gt;warning.ts</title>
<path fill="none" stroke="#757575" d="M947.03,-956.11C957.61,-978.44 982.59,-1026.29 1015.25,-1056.88 1090.63,-1127.48 1114.47,-1170.88 1217.75,-1170.88 1217.75,-1170.88 1217.75,-1170.88 1440.62,-1170.88 1525.38,-1170.88 1559.84,-1150.1 1608.75,-1080.88 1662.45,-1004.88 1678.21,-705.24 1681.67,-619.13"/>
<polygon fill="#757575" stroke="#757575" points="1685.16,-619.46 1682.05,-609.34 1678.17,-619.2 1685.16,-619.46"/>
</g>
<!-- collectionHandlers.ts -->
<g id="node25" class="node">
<title>collectionHandlers.ts</title>
<path fill="none" stroke="#ff6c60" d="M1147.83,-1047.75C1147.83,-1047.75 1023.17,-1047.75 1023.17,-1047.75 1019.21,-1047.75 1015.25,-1043.79 1015.25,-1039.83 1015.25,-1039.83 1015.25,-1031.92 1015.25,-1031.92 1015.25,-1027.96 1019.21,-1024 1023.17,-1024 1023.17,-1024 1147.83,-1024 1147.83,-1024 1151.79,-1024 1155.75,-1027.96 1155.75,-1031.92 1155.75,-1031.92 1155.75,-1039.83 1155.75,-1039.83 1155.75,-1043.79 1151.79,-1047.75 1147.83,-1047.75"/>
<text text-anchor="middle" x="1085.5" y="-1030.45" font-family="Arial" font-size="14.00" fill="#ff6c60">collectionHandlers.ts</text>
</g>
<!-- reactive.ts&#45;&gt;collectionHandlers.ts -->
<g id="edge69" class="edge">
<title>reactive.ts&#45;&gt;collectionHandlers.ts</title>
<path fill="none" stroke="#757575" d="M959.64,-956.23C973.68,-969.04 994.23,-988.15 1015.25,-1000.88 1027.57,-1008.34 1042.38,-1014.25 1055.15,-1019.3"/>
<polygon fill="#757575" stroke="#757575" points="1053.73,-1022.5 1064.31,-1022.96 1056.33,-1016 1053.73,-1022.5"/>
</g>
<!-- baseHandlers.ts&#45;&gt;../../shared/src/index.ts -->
<g id="edge28" class="edge">
<title>baseHandlers.ts&#45;&gt;../../shared/src/index.ts</title>
<path fill="none" stroke="#757575" d="M1050.41,-947.19C1030.06,-953.89 1003.52,-961.48 979.25,-964.88 945.14,-969.64 936.18,-965.96 901.75,-964.88 583.94,-954.87 503.05,-960.91 187.75,-919.88 173.1,-917.97 157.47,-915.28 142.71,-912.43"/>
<polygon fill="#757575" stroke="#757575" points="143.6,-909.04 133.11,-910.53 142.24,-915.91 143.6,-909.04"/>
</g>
<!-- baseHandlers.ts&#45;&gt;arrayInstrumentations.ts -->
<g id="edge29" class="edge">
<title>baseHandlers.ts&#45;&gt;arrayInstrumentations.ts</title>
<path fill="none" stroke="#757575" d="M1028.55,-922.61C991.54,-913.4 942.52,-899.08 901.75,-879.88 884.35,-871.68 883.18,-863.99 865.75,-855.88 857.44,-852 848.42,-848.57 839.42,-845.57"/>
<polygon fill="#757575" stroke="#757575" points="840.54,-842.25 829.95,-842.58 838.43,-848.93 840.54,-842.25"/>
</g>
<!-- baseHandlers.ts&#45;&gt;constants.ts -->
<g id="edge30" class="edge">
<title>baseHandlers.ts&#45;&gt;constants.ts</title>
<path fill="none" stroke="#757575" d="M1142.52,-940.76C1220.04,-946.53 1362.73,-948.43 1471.25,-899.88 1500.34,-886.86 1525.92,-859.84 1541.4,-840.82"/>
<polygon fill="#757575" stroke="#757575" points="1544,-843.19 1547.42,-833.16 1538.49,-838.86 1544,-843.19"/>
</g>
<!-- baseHandlers.ts&#45;&gt;dep.ts -->
<g id="edge31" class="edge">
<title>baseHandlers.ts&#45;&gt;dep.ts</title>
<path fill="none" stroke="#757575" d="M1090.87,-922.53C1109.79,-869.05 1184.86,-656.86 1209.71,-586.6"/>
<polygon fill="#757575" stroke="#757575" points="1212.96,-587.91 1212.99,-577.32 1206.36,-585.58 1212.96,-587.91"/>
</g>
<!-- baseHandlers.ts&#45;&gt;reactive.ts -->
<g id="edge32" class="edge">
<title>baseHandlers.ts&#45;&gt;reactive.ts</title>
<path fill="none" stroke="#757575" d="M1028.33,-945.02C1015.91,-946.03 1002.84,-946.8 990.72,-947.23"/>
<polygon fill="#757575" stroke="#757575" points="990.86,-943.72 980.96,-947.49 991.05,-950.72 990.86,-943.72"/>
</g>
<!-- baseHandlers.ts&#45;&gt;ref.ts -->
<g id="edge33" class="edge">
<title>baseHandlers.ts&#45;&gt;ref.ts</title>
<path fill="none" stroke="#757575" d="M1129.38,-922.55C1199.81,-901.62 1335.8,-858.06 1372,-823.88 1407.95,-789.93 1426.07,-732.9 1433.81,-701.09"/>
<polygon fill="#757575" stroke="#757575" points="1437.22,-701.88 1436.02,-691.35 1430.39,-700.32 1437.22,-701.88"/>
</g>
<!-- baseHandlers.ts&#45;&gt;warning.ts -->
<g id="edge34" class="edge">
<title>baseHandlers.ts&#45;&gt;warning.ts</title>
<path fill="none" stroke="#757575" d="M1142.53,-945.39C1219.76,-957.28 1361.77,-969.63 1471.25,-924.88 1537.54,-897.78 1564.99,-897.56 1608.75,-840.88 1661.58,-772.43 1676.71,-666.42 1680.93,-619.55"/>
<polygon fill="#757575" stroke="#757575" points="1684.4,-619.98 1681.71,-609.73 1677.43,-619.42 1684.4,-619.98"/>
</g>
<!-- ref.ts&#45;&gt;../../shared/src/index.ts -->
<g id="edge73" class="edge">
<title>ref.ts&#45;&gt;../../shared/src/index.ts</title>
<path fill="none" stroke="#757575" d="M1412.21,-686.85C1400.05,-690.81 1385.37,-695.36 1372,-698.88 1182.85,-748.55 1137.06,-789.88 941.5,-789.88 540.75,-789.88 540.75,-789.88 540.75,-789.88 381.03,-789.88 198.24,-851.36 118.13,-881.55"/>
<polygon fill="#757575" stroke="#757575" points="117.03,-878.22 108.93,-885.05 119.52,-884.76 117.03,-878.22"/>
</g>
<!-- ref.ts&#45;&gt;constants.ts -->
<g id="edge75" class="edge">
<title>ref.ts&#45;&gt;constants.ts</title>
<path fill="none" stroke="#757575" d="M1450.55,-689.98C1470.39,-714.19 1515.16,-768.82 1539.85,-798.95"/>
<polygon fill="#757575" stroke="#757575" points="1537.1,-801.11 1546.14,-806.63 1542.51,-796.68 1537.1,-801.11"/>
</g>
<!-- ref.ts&#45;&gt;dep.ts -->
<g id="edge76" class="edge">
<title>ref.ts&#45;&gt;dep.ts</title>
<path fill="none" stroke="#757575" d="M1425.14,-665.52C1412.22,-654.14 1391.81,-637.34 1372,-625.88 1334.66,-604.26 1288.33,-586.55 1256.64,-575.68"/>
<polygon fill="#757575" stroke="#757575" points="1258.12,-572.48 1247.52,-572.6 1255.88,-579.11 1258.12,-572.48"/>
</g>
<!-- ref.ts&#45;&gt;reactive.ts -->
<g id="edge77" class="edge">
<title>ref.ts&#45;&gt;reactive.ts</title>
<path fill="none" stroke="#757575" d="M1431.2,-690.15C1419.27,-703.92 1394.85,-724.49 1372,-738.88 1240.33,-821.8 1072.13,-897.44 990.43,-928.95"/>
<polygon fill="#757575" stroke="#757575" points="989.24,-925.65 981.14,-932.47 991.73,-932.2 989.24,-925.65"/>
</g>
<!-- ref.ts&#45;&gt;warning.ts -->
<g id="edge78" class="edge">
<title>ref.ts&#45;&gt;warning.ts</title>
<path fill="none" stroke="#757575" d="M1466.97,-668.94C1507.38,-655.24 1585.25,-628.84 1635.49,-611.81"/>
<polygon fill="#757575" stroke="#757575" points="1636.61,-615.13 1644.96,-608.6 1634.36,-608.5 1636.61,-615.13"/>
</g>
<!-- ref.ts&#45;&gt;computed.ts -->
<g id="edge74" class="edge">
<title>ref.ts&#45;&gt;computed.ts</title>
<path fill="none" stroke="#757575" d="M1426.75,-665.73C1405.69,-639.59 1362.03,-578.91 1340.47,-545.87"/>
<polygon fill="#757575" stroke="#757575" points="1343.45,-544.03 1335.12,-537.47 1337.54,-547.79 1343.45,-544.03"/>
</g>
<!-- collectionHandlers.ts&#45;&gt;../../shared/src/index.ts -->
<g id="edge35" class="edge">
<title>collectionHandlers.ts&#45;&gt;../../shared/src/index.ts</title>
<path fill="none" stroke="#757575" d="M1014.75,-1031.66C832.29,-1020.19 344.2,-986.54 187.75,-945.88 160.48,-938.79 131.31,-925.93 109.73,-915.3"/>
<polygon fill="#757575" stroke="#757575" points="111.35,-912.19 100.85,-910.82 108.2,-918.45 111.35,-912.19"/>
</g>
<!-- collectionHandlers.ts&#45;&gt;constants.ts -->
<g id="edge36" class="edge">
<title>collectionHandlers.ts&#45;&gt;constants.ts</title>
<path fill="none" stroke="#757575" d="M1154.29,-1048.23C1237.72,-1059.42 1379.55,-1064.9 1471.25,-994.88 1521.48,-956.52 1544.06,-880.97 1552.6,-842.92"/>
<polygon fill="#757575" stroke="#757575" points="1555.96,-843.97 1554.58,-833.46 1549.11,-842.53 1555.96,-843.97"/>
</g>
<!-- collectionHandlers.ts&#45;&gt;dep.ts -->
<g id="edge37" class="edge">
<title>collectionHandlers.ts&#45;&gt;dep.ts</title>
<path fill="none" stroke="#757575" d="M1101.1,-1023.68C1117.29,-1009.26 1142.82,-983.69 1155.75,-955.88 1215.81,-826.69 1219.3,-650.48 1218.42,-587.47"/>
<polygon fill="#757575" stroke="#757575" points="1221.92,-587.55 1218.22,-577.62 1214.92,-587.69 1221.92,-587.55"/>
</g>
<!-- collectionHandlers.ts&#45;&gt;reactive.ts -->
<g id="edge38" class="edge">
<title>collectionHandlers.ts&#45;&gt;reactive.ts</title>
<path fill="none" stroke="#757575" d="M1023.81,-1023.62C1020.87,-1022.12 1018,-1020.54 1015.25,-1018.88 991.44,-1004.45 968.23,-981.86 954.4,-964.92"/>
<polygon fill="#757575" stroke="#757575" points="957.5,-963.22 948.65,-957.39 951.93,-967.46 957.5,-963.22"/>
</g>
<!-- collectionHandlers.ts&#45;&gt;warning.ts -->
<g id="edge39" class="edge">
<title>collectionHandlers.ts&#45;&gt;warning.ts</title>
<path fill="none" stroke="#757575" d="M1103.55,-1048.16C1141.49,-1074.26 1236.64,-1132.88 1325.88,-1132.88 1325.88,-1132.88 1325.88,-1132.88 1440.62,-1132.88 1669.33,-1132.88 1683.03,-722.94 1682.84,-619.4"/>
<polygon fill="#757575" stroke="#757575" points="1686.35,-619.59 1682.77,-609.61 1679.35,-619.64 1686.35,-619.59"/>
</g>
<!-- computed.ts&#45;&gt;../../shared/src/index.ts -->
<g id="edge40" class="edge">
<title>computed.ts&#45;&gt;../../shared/src/index.ts</title>
<path fill="none" stroke="#757575" d="M1317.38,-511.75C1279.82,-459.72 1122.47,-257.88 941.5,-257.88 540.75,-257.88 540.75,-257.88 540.75,-257.88 348.24,-257.88 298.85,-351.66 187.75,-508.88 103.59,-627.97 83.01,-809.81 78.24,-874.24"/>
<polygon fill="#757575" stroke="#757575" points="74.76,-873.78 77.58,-884 81.75,-874.25 74.76,-873.78"/>
</g>
<!-- computed.ts&#45;&gt;constants.ts -->
<g id="edge41" class="edge">
<title>computed.ts&#45;&gt;constants.ts</title>
<path fill="none" stroke="#757575" d="M1372.42,-528.41C1403.84,-533.83 1444.86,-545.74 1471.25,-571.88 1534.98,-634.98 1551.4,-747.69 1555.59,-796.39"/>
<polygon fill="#757575" stroke="#757575" points="1552.08,-796.36 1556.31,-806.07 1559.06,-795.84 1552.08,-796.36"/>
</g>
<!-- computed.ts&#45;&gt;dep.ts -->
<g id="edge42" class="edge">
<title>computed.ts&#45;&gt;dep.ts</title>
<path fill="none" stroke="#757575" d="M1307.27,-536.17C1293.34,-542.83 1273.83,-550.58 1256.76,-556.39"/>
<polygon fill="#757575" stroke="#757575" points="1255.85,-553.01 1247.42,-559.43 1258.01,-559.67 1255.85,-553.01"/>
</g>
<!-- computed.ts&#45;&gt;effect.ts -->
<g id="edge43" class="edge">
<title>computed.ts&#45;&gt;effect.ts</title>
<path fill="none" stroke="#757575" d="M1338,-511.53C1347.15,-504.62 1360.86,-496.83 1372,-488.88 1384.39,-480.03 1397.26,-469.4 1408.36,-460.26"/>
<polygon fill="#757575" stroke="#757575" points="1410.52,-463.01 1416.03,-453.97 1406.08,-457.6 1410.52,-463.01"/>
</g>
<!-- computed.ts&#45;&gt;ref.ts -->
<g id="edge44" class="edge">
<title>computed.ts&#45;&gt;ref.ts</title>
<path fill="none" stroke="#757575" d="M1339.94,-536.25C1361.08,-562.54 1404.63,-623.07 1426.1,-655.99"/>
<polygon fill="#757575" stroke="#757575" points="1423.1,-657.8 1431.42,-664.35 1429,-654.04 1423.1,-657.8"/>
</g>
<!-- computed.ts&#45;&gt;warning.ts -->
<g id="edge45" class="edge">
<title>computed.ts&#45;&gt;warning.ts</title>
<path fill="none" stroke="#757575" d="M1372.42,-524.51C1400.88,-525.52 1438.46,-527.99 1471.25,-533.88 1530.13,-544.44 1595.98,-565.26 1638.26,-579.85"/>
<polygon fill="#757575" stroke="#757575" points="1636.99,-583.11 1647.58,-583.1 1639.29,-576.5 1636.99,-583.11"/>
</g>
<!-- effectScope.ts&#45;&gt;effect.ts -->
<g id="edge56" class="edge">
<title>effectScope.ts&#45;&gt;effect.ts</title>
<path fill="none" stroke="#757575" d="M1507.06,-442.43C1499.04,-443.17 1490.8,-443.75 1482.98,-444.12"/>
<polygon fill="#757575" stroke="#757575" points="1482.89,-440.62 1473.02,-444.47 1483.14,-447.62 1482.89,-440.62"/>
</g>
<!-- effectScope.ts&#45;&gt;warning.ts -->
<g id="edge57" class="edge">
<title>effectScope.ts&#45;&gt;warning.ts</title>
<path fill="none" stroke="#757575" d="M1589.62,-444.2C1596.45,-447.91 1603.28,-452.46 1608.75,-457.88 1642.48,-491.3 1664.53,-543.41 1675.13,-573.12"/>
<polygon fill="#757575" stroke="#757575" points="1671.7,-573.91 1678.25,-582.23 1678.32,-571.64 1671.7,-573.91"/>
</g>
<!-- watch.ts&#45;&gt;../../shared/src/index.ts -->
<g id="edge79" class="edge">
<title>watch.ts&#45;&gt;../../shared/src/index.ts</title>
<path fill="none" stroke="#757575" d="M742.64,-550.14C647.26,-523.23 360.77,-457.91 187.75,-585.88 92.82,-656.08 78.85,-814.47 77.03,-874.35"/>
<polygon fill="#757575" stroke="#757575" points="73.54,-873.98 76.83,-884.05 80.54,-874.12 73.54,-873.98"/>
</g>
<!-- watch.ts&#45;&gt;constants.ts -->
<g id="edge81" class="edge">
<title>watch.ts&#45;&gt;constants.ts</title>
<path fill="none" stroke="#757575" d="M808.67,-570.55C930.41,-611.11 1364.58,-755.76 1509.51,-804.05"/>
<polygon fill="#757575" stroke="#757575" points="1508.21,-807.31 1518.8,-807.15 1510.42,-800.67 1508.21,-807.31"/>
</g>
<!-- watch.ts&#45;&gt;effect.ts -->
<g id="edge82" class="edge">
<title>watch.ts&#45;&gt;effect.ts</title>
<path fill="none" stroke="#757575" d="M793.81,-547.56C831.64,-521.19 925.89,-459.61 1015.25,-433.88 1167.85,-389.93 1216.13,-383.49 1372,-413.88 1382.8,-415.98 1394.05,-419.83 1404.18,-423.99"/>
<polygon fill="#757575" stroke="#757575" points="1402.69,-427.15 1413.25,-427.93 1405.48,-420.73 1402.69,-427.15"/>
</g>
<!-- watch.ts&#45;&gt;reactive.ts -->
<g id="edge84" class="edge">
<title>watch.ts&#45;&gt;reactive.ts</title>
<path fill="none" stroke="#757575" d="M781.86,-572.22C805.12,-627.06 899.32,-849.14 929.88,-921.19"/>
<polygon fill="#757575" stroke="#757575" points="926.65,-922.54 933.78,-930.38 933.09,-919.8 926.65,-922.54"/>
</g>
<!-- watch.ts&#45;&gt;ref.ts -->
<g id="edge85" class="edge">
<title>watch.ts&#45;&gt;ref.ts</title>
<path fill="none" stroke="#757575" d="M808.64,-565.07C897.97,-579.66 1157.42,-622.6 1372,-663.88 1381.49,-665.7 1391.71,-667.79 1401.23,-669.78"/>
<polygon fill="#757575" stroke="#757575" points="1400.41,-673.19 1410.92,-671.84 1401.86,-666.34 1400.41,-673.19"/>
</g>
<!-- watch.ts&#45;&gt;warning.ts -->
<g id="edge86" class="edge">
<title>watch.ts&#45;&gt;warning.ts</title>
<path fill="none" stroke="#757575" d="M783.07,-547.63C799.17,-518.19 844.02,-442.73 901.75,-400.88 1112.68,-247.93 1232.59,-157.36 1471.25,-261.88 1603.19,-319.65 1660.8,-507.28 1677.26,-572.93"/>
<polygon fill="#757575" stroke="#757575" points="1673.76,-573.35 1679.51,-582.24 1680.56,-571.7 1673.76,-573.35"/>
</g>
<!-- watch.ts&#45;&gt;computed.ts -->
<g id="edge80" class="edge">
<title>watch.ts&#45;&gt;computed.ts</title>
<path fill="none" stroke="#757575" d="M799.34,-547.73C823.82,-535.38 864.31,-517.08 901.75,-509.88 1051.89,-480.99 1093.43,-496.67 1245.75,-509.88 1253.78,-510.57 1262.21,-511.65 1270.46,-512.91"/>
<polygon fill="#757575" stroke="#757575" points="1269.63,-516.32 1280.06,-514.48 1270.75,-509.41 1269.63,-516.32"/>
</g>
<!-- watch.ts&#45;&gt;effectScope.ts -->
<g id="edge83" class="edge">
<title>watch.ts&#45;&gt;effectScope.ts</title>
<path fill="none" stroke="#757575" d="M786.86,-547.75C806.88,-524.67 853.49,-473.96 901.75,-442.88 947.65,-413.31 961.86,-407.28 1015.25,-395.88 1186.56,-359.28 1394.64,-394.79 1495.83,-417"/>
<polygon fill="#757575" stroke="#757575" points="1495.04,-420.41 1505.57,-419.17 1496.57,-413.58 1495.04,-420.41"/>
</g>
</g>
</svg>
